<svg xmlns="http://www.w3.org/2000/svg" xmlns:rdkit="http://www.rdkit.org/xml" xmlns:xlink="http://www.w3.org/1999/xlink" version="1.1" baseProfile="full" xml:space="preserve" width="400px" height="200px" viewBox="0 0 400 200">
<!-- END OF HEADER -->
<rect style="opacity:1.0;fill:#FFFFFF;stroke:none" width="200.0" height="200.0" x="0.0" y="0.0"> </rect>
<path class="bond-0 atom-0 atom-1" d="M 39.6,78.9 L 33.0,67.5" style="fill:none;fill-rule:evenodd;stroke:#0000FF;stroke-width:2.0px;stroke-linecap:butt;stroke-linejoin:miter;stroke-opacity:1"/>
<path class="bond-0 atom-0 atom-1" d="M 33.0,67.5 L 26.4,56.1" style="fill:none;fill-rule:evenodd;stroke:#000000;stroke-width:2.0px;stroke-linecap:butt;stroke-linejoin:miter;stroke-opacity:1"/>
<path class="bond-1 atom-0 atom-2" d="M 46.2,90.4 L 52.8,101.8" style="fill:none;fill-rule:evenodd;stroke:#0000FF;stroke-width:2.0px;stroke-linecap:butt;stroke-linejoin:miter;stroke-opacity:1"/>
<path class="bond-1 atom-0 atom-2" d="M 52.8,101.8 L 59.4,113.2" style="fill:none;fill-rule:evenodd;stroke:#000000;stroke-width:2.0px;stroke-linecap:butt;stroke-linejoin:miter;stroke-opacity:1"/>
<path class="bond-2 atom-0 atom-3" d="M 38.3,87.3 L 26.3,94.2" style="fill:none;fill-rule:evenodd;stroke:#0000FF;stroke-width:2.0px;stroke-linecap:butt;stroke-linejoin:miter;stroke-opacity:1"/>
<path class="bond-2 atom-0 atom-3" d="M 26.3,94.2 L 14.4,101.1" style="fill:none;fill-rule:evenodd;stroke:#000000;stroke-width:2.0px;stroke-linecap:butt;stroke-linejoin:miter;stroke-opacity:1"/>
<path class="bond-3 atom-0 atom-4" d="M 53.0,78.8 L 62.2,73.5" style="fill:none;fill-rule:evenodd;stroke:#0000FF;stroke-width:2.0px;stroke-linecap:butt;stroke-linejoin:miter;stroke-opacity:1"/>
<path class="bond-3 atom-0 atom-4" d="M 62.2,73.5 L 71.4,68.2" style="fill:none;fill-rule:evenodd;stroke:#000000;stroke-width:2.0px;stroke-linecap:butt;stroke-linejoin:miter;stroke-opacity:1"/>
<path class="bond-4 atom-4 atom-5" d="M 71.4,68.2 L 100.0,84.6" style="fill:none;fill-rule:evenodd;stroke:#000000;stroke-width:2.0px;stroke-linecap:butt;stroke-linejoin:miter;stroke-opacity:1"/>
<path class="bond-5 atom-5 atom-6" d="M 100.0,84.6 L 111.6,77.9" style="fill:none;fill-rule:evenodd;stroke:#000000;stroke-width:2.0px;stroke-linecap:butt;stroke-linejoin:miter;stroke-opacity:1"/>
<path class="bond-5 atom-5 atom-6" d="M 111.6,77.9 L 123.1,71.3" style="fill:none;fill-rule:evenodd;stroke:#FF0000;stroke-width:2.0px;stroke-linecap:butt;stroke-linejoin:miter;stroke-opacity:1"/>
<path class="bond-6 atom-6 atom-7" d="M 133.9,71.3 L 145.5,77.9" style="fill:none;fill-rule:evenodd;stroke:#FF0000;stroke-width:2.0px;stroke-linecap:butt;stroke-linejoin:miter;stroke-opacity:1"/>
<path class="bond-6 atom-6 atom-7" d="M 145.5,77.9 L 157.0,84.6" style="fill:none;fill-rule:evenodd;stroke:#000000;stroke-width:2.0px;stroke-linecap:butt;stroke-linejoin:miter;stroke-opacity:1"/>
<path class="bond-7 atom-7 atom-8" d="M 154.6,83.2 L 154.6,97.5" style="fill:none;fill-rule:evenodd;stroke:#000000;stroke-width:2.0px;stroke-linecap:butt;stroke-linejoin:miter;stroke-opacity:1"/>
<path class="bond-7 atom-7 atom-8" d="M 154.6,97.5 L 154.6,111.8" style="fill:none;fill-rule:evenodd;stroke:#FF0000;stroke-width:2.0px;stroke-linecap:butt;stroke-linejoin:miter;stroke-opacity:1"/>
<path class="bond-7 atom-7 atom-8" d="M 159.5,83.2 L 159.5,97.5" style="fill:none;fill-rule:evenodd;stroke:#000000;stroke-width:2.0px;stroke-linecap:butt;stroke-linejoin:miter;stroke-opacity:1"/>
<path class="bond-7 atom-7 atom-8" d="M 159.5,97.5 L 159.5,111.8" style="fill:none;fill-rule:evenodd;stroke:#FF0000;stroke-width:2.0px;stroke-linecap:butt;stroke-linejoin:miter;stroke-opacity:1"/>
<path class="bond-8 atom-7 atom-9" d="M 157.0,84.6 L 185.6,68.2" style="fill:none;fill-rule:evenodd;stroke:#000000;stroke-width:2.0px;stroke-linecap:butt;stroke-linejoin:miter;stroke-opacity:1"/>
<path d="M 71.0,68.4 L 71.4,68.2 L 72.9,69.0" style="fill:none;stroke:#000000;stroke-width:2.0px;stroke-linecap:butt;stroke-linejoin:miter;stroke-miterlimit:10;stroke-opacity:1;"/>
<path d="M 98.5,83.8 L 100.0,84.6 L 100.6,84.3" style="fill:none;stroke:#000000;stroke-width:2.0px;stroke-linecap:butt;stroke-linejoin:miter;stroke-miterlimit:10;stroke-opacity:1;"/>
<path d="M 156.5,84.3 L 157.0,84.6 L 158.5,83.8" style="fill:none;stroke:#000000;stroke-width:2.0px;stroke-linecap:butt;stroke-linejoin:miter;stroke-miterlimit:10;stroke-opacity:1;"/>
<path class="atom-0" d="M 40.9 80.0 L 43.9 84.9 Q 44.2 85.4, 44.7 86.3 Q 45.2 87.2, 45.2 87.2 L 45.2 80.0 L 46.5 80.0 L 46.5 89.3 L 45.2 89.3 L 41.9 83.9 Q 41.5 83.3, 41.1 82.5 Q 40.7 81.8, 40.6 81.6 L 40.6 89.3 L 39.4 89.3 L 39.4 80.0 L 40.9 80.0 " fill="#0000FF"/>
<path class="atom-0" d="M 48.2 81.7 L 49.9 81.7 L 49.9 79.9 L 50.6 79.9 L 50.6 81.7 L 52.3 81.7 L 52.3 82.3 L 50.6 82.3 L 50.6 84.0 L 49.9 84.0 L 49.9 82.3 L 48.2 82.3 L 48.2 81.7 " fill="#0000FF"/>
<path class="atom-6" d="M 124.2 68.2 Q 124.2 65.9, 125.3 64.7 Q 126.4 63.4, 128.5 63.4 Q 130.6 63.4, 131.7 64.7 Q 132.8 65.9, 132.8 68.2 Q 132.8 70.5, 131.7 71.7 Q 130.5 73.0, 128.5 73.0 Q 126.5 73.0, 125.3 71.7 Q 124.2 70.5, 124.2 68.2 M 128.5 72.0 Q 129.9 72.0, 130.7 71.0 Q 131.5 70.1, 131.5 68.2 Q 131.5 66.4, 130.7 65.4 Q 129.9 64.5, 128.5 64.5 Q 127.1 64.5, 126.3 65.4 Q 125.5 66.3, 125.5 68.2 Q 125.5 70.1, 126.3 71.0 Q 127.1 72.0, 128.5 72.0 " fill="#FF0000"/>
<path class="atom-8" d="M 152.8 117.6 Q 152.8 115.4, 153.9 114.1 Q 155.0 112.9, 157.0 112.9 Q 159.1 112.9, 160.2 114.1 Q 161.3 115.4, 161.3 117.6 Q 161.3 119.9, 160.2 121.2 Q 159.1 122.4, 157.0 122.4 Q 155.0 122.4, 153.9 121.2 Q 152.8 119.9, 152.8 117.6 M 157.0 121.4 Q 158.5 121.4, 159.2 120.4 Q 160.0 119.5, 160.0 117.6 Q 160.0 115.8, 159.2 114.9 Q 158.5 113.9, 157.0 113.9 Q 155.6 113.9, 154.8 114.8 Q 154.1 115.8, 154.1 117.6 Q 154.1 119.5, 154.8 120.4 Q 155.6 121.4, 157.0 121.4 " fill="#FF0000"/>
<path class="note" d="M 32.3 84.2 Q 31.4 84.2, 31.0 83.6 Q 30.6 82.9, 30.6 81.8 Q 30.6 80.7, 31.0 80.1 Q 31.4 79.4, 32.3 79.4 Q 33.2 79.4, 33.6 80.1 Q 34.0 80.7, 34.0 81.8 Q 34.0 82.9, 33.6 83.6 Q 33.2 84.2, 32.3 84.2 M 32.3 83.7 Q 32.8 83.7, 33.1 83.2 Q 33.4 82.7, 33.4 81.8 Q 33.4 80.9, 33.1 80.4 Q 32.8 80.0, 32.3 80.0 Q 31.8 80.0, 31.5 80.4 Q 31.3 80.9, 31.3 81.8 Q 31.3 82.7, 31.5 83.2 Q 31.8 83.7, 32.3 83.7 " fill="#000000"/>
<path class="note" d="M 30.0 55.2 L 31.1 55.2 L 31.1 51.7 L 29.9 52.0 L 29.8 51.7 L 31.2 51.0 L 31.7 51.1 L 31.7 55.2 L 32.6 55.2 L 32.6 55.7 L 30.0 55.7 L 30.0 55.2 " fill="#000000"/>
<path class="note" d="M 53.1 114.5 Q 53.2 114.0, 53.7 113.8 Q 54.1 113.6, 54.6 113.6 Q 55.3 113.6, 55.7 113.9 Q 56.1 114.3, 56.1 115.0 Q 56.1 115.7, 55.6 116.3 Q 55.1 117.0, 54.0 117.7 L 56.2 117.7 L 56.2 118.3 L 53.1 118.3 L 53.1 117.8 Q 53.9 117.2, 54.4 116.7 Q 55.0 116.3, 55.2 115.9 Q 55.5 115.5, 55.5 115.0 Q 55.5 114.6, 55.2 114.3 Q 55.0 114.1, 54.6 114.1 Q 54.3 114.1, 54.0 114.2 Q 53.8 114.4, 53.6 114.7 L 53.1 114.5 " fill="#000000"/>
<path class="note" d="M 12.3 96.3 Q 12.8 96.4, 13.0 96.7 Q 13.2 97.0, 13.2 97.4 Q 13.2 97.8, 13.0 98.1 Q 12.8 98.4, 12.4 98.6 Q 12.1 98.8, 11.6 98.8 Q 11.1 98.8, 10.7 98.6 Q 10.4 98.4, 10.1 98.1 L 10.4 97.7 Q 10.7 98.0, 11.0 98.1 Q 11.2 98.3, 11.6 98.3 Q 12.0 98.3, 12.3 98.0 Q 12.5 97.8, 12.5 97.4 Q 12.5 97.0, 12.3 96.7 Q 12.0 96.5, 11.4 96.5 L 11.1 96.5 L 11.1 96.0 L 11.4 96.0 Q 11.9 96.0, 12.2 95.8 Q 12.4 95.6, 12.4 95.2 Q 12.4 94.9, 12.2 94.7 Q 12.0 94.5, 11.6 94.5 Q 11.2 94.5, 11.0 94.7 Q 10.7 94.8, 10.6 95.1 L 10.1 94.9 Q 10.3 94.5, 10.7 94.3 Q 11.1 94.0, 11.6 94.0 Q 12.3 94.0, 12.7 94.3 Q 13.1 94.6, 13.1 95.2 Q 13.1 95.6, 12.9 95.8 Q 12.7 96.1, 12.3 96.3 " fill="#000000"/>
<path class="note" d="M 72.7 63.4 L 73.2 63.4 L 73.2 63.9 L 72.7 63.9 L 72.7 65.0 L 72.1 65.0 L 72.1 63.9 L 69.6 63.9 L 69.6 63.5 L 71.7 60.3 L 72.7 60.3 L 72.7 63.4 M 70.4 63.4 L 72.1 63.4 L 72.1 60.8 L 70.4 63.4 " fill="#000000"/>
<path class="note" d="M 100.1 89.5 Q 100.5 89.5, 100.8 89.7 Q 101.2 89.9, 101.4 90.2 Q 101.6 90.5, 101.6 91.0 Q 101.6 91.5, 101.3 91.8 Q 101.1 92.2, 100.7 92.3 Q 100.3 92.5, 99.9 92.5 Q 99.5 92.5, 99.1 92.4 Q 98.7 92.2, 98.4 91.9 L 98.8 91.5 Q 99.0 91.7, 99.3 91.9 Q 99.6 92.0, 99.9 92.0 Q 100.3 92.0, 100.6 91.7 Q 100.9 91.5, 100.9 91.0 Q 100.9 90.5, 100.6 90.3 Q 100.3 90.0, 99.9 90.0 Q 99.5 90.0, 99.0 90.2 L 98.6 90.0 L 98.9 87.8 L 101.3 87.8 L 101.2 88.3 L 99.4 88.3 L 99.3 89.7 Q 99.7 89.5, 100.1 89.5 " fill="#000000"/>
<path class="note" d="M 128.7 56.6 Q 129.1 56.6, 129.4 56.8 Q 129.8 57.0, 129.9 57.3 Q 130.1 57.6, 130.1 58.0 Q 130.1 58.5, 129.9 58.8 Q 129.7 59.2, 129.4 59.4 Q 129.0 59.6, 128.6 59.6 Q 127.7 59.6, 127.3 59.0 Q 126.9 58.5, 126.9 57.3 Q 126.9 56.1, 127.4 55.5 Q 127.9 54.8, 128.9 54.8 Q 129.2 54.8, 129.5 54.9 Q 129.7 55.0, 129.9 55.1 L 129.7 55.5 Q 129.3 55.3, 128.9 55.3 Q 128.3 55.3, 127.9 55.8 Q 127.6 56.2, 127.6 57.1 Q 127.8 56.9, 128.1 56.7 Q 128.4 56.6, 128.7 56.6 M 128.6 59.1 Q 128.8 59.1, 129.0 58.9 Q 129.2 58.8, 129.3 58.6 Q 129.5 58.3, 129.5 58.0 Q 129.5 57.6, 129.2 57.4 Q 129.0 57.2, 128.6 57.2 Q 128.3 57.2, 128.0 57.3 Q 127.8 57.4, 127.6 57.6 Q 127.6 58.4, 127.8 58.7 Q 128.1 59.1, 128.6 59.1 " fill="#000000"/>
<path class="note" d="M 157.9 77.3 L 155.5 77.3 L 155.5 76.8 L 158.6 76.8 L 158.6 77.3 L 156.7 81.5 L 156.1 81.5 L 157.9 77.3 " fill="#000000"/>
<path class="note" d="M 157.8 128.4 Q 158.2 128.6, 158.4 128.9 Q 158.7 129.2, 158.7 129.6 Q 158.7 130.0, 158.5 130.3 Q 158.3 130.7, 157.9 130.8 Q 157.5 131.0, 157.1 131.0 Q 156.3 131.0, 155.8 130.6 Q 155.4 130.3, 155.4 129.6 Q 155.4 129.3, 155.6 129.0 Q 155.8 128.7, 156.2 128.5 Q 155.9 128.3, 155.7 128.0 Q 155.6 127.8, 155.6 127.4 Q 155.6 126.8, 156.0 126.5 Q 156.4 126.2, 157.0 126.2 Q 157.7 126.2, 158.1 126.5 Q 158.5 126.8, 158.5 127.4 Q 158.5 127.7, 158.3 128.0 Q 158.1 128.2, 157.8 128.4 M 157.0 126.7 Q 156.6 126.7, 156.4 126.9 Q 156.2 127.1, 156.2 127.4 Q 156.2 127.6, 156.4 127.8 Q 156.5 128.0, 156.7 128.1 Q 156.9 128.1, 157.3 128.3 Q 157.6 128.1, 157.7 127.9 Q 157.9 127.7, 157.9 127.4 Q 157.9 127.1, 157.6 126.9 Q 157.4 126.7, 157.0 126.7 M 157.1 130.5 Q 157.5 130.5, 157.8 130.3 Q 158.0 130.0, 158.0 129.6 Q 158.0 129.4, 157.9 129.2 Q 157.7 129.1, 157.5 129.0 Q 157.3 128.9, 157.0 128.8 L 156.7 128.7 Q 156.3 128.9, 156.2 129.1 Q 156.0 129.3, 156.0 129.6 Q 156.0 130.0, 156.3 130.3 Q 156.6 130.5, 157.1 130.5 " fill="#000000"/>
<path class="note" d="M 188.3 70.6 Q 189.1 70.6, 189.5 71.1 Q 189.9 71.7, 189.9 72.8 Q 189.9 74.0, 189.4 74.7 Q 188.9 75.3, 187.9 75.3 Q 187.6 75.3, 187.4 75.3 Q 187.1 75.2, 186.9 75.1 L 187.1 74.6 Q 187.5 74.8, 187.9 74.8 Q 188.6 74.8, 188.9 74.4 Q 189.2 74.0, 189.3 73.1 Q 189.0 73.3, 188.7 73.4 Q 188.4 73.5, 188.1 73.5 Q 187.7 73.5, 187.4 73.3 Q 187.1 73.2, 186.9 72.8 Q 186.7 72.5, 186.7 72.1 Q 186.7 71.7, 186.9 71.3 Q 187.1 71.0, 187.5 70.8 Q 187.8 70.6, 188.3 70.6 M 187.4 72.1 Q 187.4 72.5, 187.6 72.8 Q 187.8 73.0, 188.2 73.0 Q 188.5 73.0, 188.8 72.9 Q 189.1 72.8, 189.3 72.6 Q 189.2 71.8, 189.0 71.4 Q 188.8 71.1, 188.3 71.1 Q 188.0 71.1, 187.8 71.2 Q 187.6 71.4, 187.5 71.6 Q 187.4 71.8, 187.4 72.1 " fill="#000000"/>
<path class="legend" d="M 15.1 174.1 L 18.5 174.1 L 18.5 175.2 L 16.5 175.2 L 16.5 188.4 L 18.5 188.4 L 18.5 189.5 L 15.1 189.5 L 15.1 174.1 " fill="#000000"/>
<path class="legend" d="M 21.3 175.1 L 25.0 181.1 Q 25.4 181.7, 26.0 182.8 Q 26.5 183.9, 26.6 183.9 L 26.6 175.1 L 28.1 175.1 L 28.1 186.4 L 26.5 186.4 L 22.5 179.9 Q 22.1 179.1, 21.6 178.2 Q 21.1 177.4, 21.0 177.1 L 21.0 186.4 L 19.5 186.4 L 19.5 175.1 L 21.3 175.1 " fill="#000000"/>
<path class="legend" d="M 30.1 181.0 L 33.1 181.0 L 33.1 177.8 L 34.4 177.8 L 34.4 181.0 L 37.5 181.0 L 37.5 182.1 L 34.4 182.1 L 34.4 185.3 L 33.1 185.3 L 33.1 182.1 L 30.1 182.1 L 30.1 181.0 " fill="#000000"/>
<path class="legend" d="M 42.9 174.1 L 42.9 189.5 L 39.5 189.5 L 39.5 188.4 L 41.6 188.4 L 41.6 175.2 L 39.5 175.2 L 39.5 174.1 L 42.9 174.1 " fill="#000000"/>
<path class="legend" d="M 44.9 181.9 Q 44.9 179.6, 45.6 177.7 Q 46.2 175.8, 47.5 173.8 L 48.4 174.4 Q 47.4 176.3, 46.8 178.0 Q 46.3 179.7, 46.3 181.9 Q 46.3 184.0, 46.8 185.8 Q 47.4 187.5, 48.4 189.4 L 47.5 190.0 Q 46.2 188.0, 45.6 186.1 Q 44.9 184.2, 44.9 181.9 " fill="#000000"/>
<path class="legend" d="M 49.5 180.8 Q 49.5 178.0, 50.8 176.5 Q 52.1 175.0, 54.6 175.0 Q 56.9 175.0, 58.2 176.6 L 57.1 177.5 Q 56.2 176.3, 54.6 176.3 Q 52.9 176.3, 52.0 177.5 Q 51.1 178.6, 51.1 180.8 Q 51.1 183.0, 52.0 184.2 Q 53.0 185.3, 54.8 185.3 Q 56.0 185.3, 57.5 184.6 L 57.9 185.8 Q 57.3 186.1, 56.4 186.4 Q 55.5 186.6, 54.6 186.6 Q 52.1 186.6, 50.8 185.1 Q 49.5 183.6, 49.5 180.8 " fill="#000000"/>
<path class="legend" d="M 63.0 181.9 Q 63.0 184.2, 62.3 186.1 Q 61.7 188.0, 60.4 190.0 L 59.5 189.4 Q 60.5 187.5, 61.0 185.8 Q 61.5 184.0, 61.5 181.9 Q 61.5 179.7, 61.0 178.0 Q 60.5 176.3, 59.5 174.4 L 60.4 173.8 Q 61.7 175.8, 62.3 177.7 Q 63.0 179.6, 63.0 181.9 " fill="#000000"/>
<path class="legend" d="M 64.4 181.9 Q 64.4 179.6, 65.1 177.7 Q 65.8 175.8, 67.0 173.8 L 67.9 174.4 Q 66.9 176.3, 66.4 178.0 Q 65.9 179.7, 65.9 181.9 Q 65.9 184.0, 66.4 185.8 Q 66.9 187.5, 67.9 189.4 L 67.0 190.0 Q 65.8 188.0, 65.1 186.1 Q 64.4 184.2, 64.4 181.9 " fill="#000000"/>
<path class="legend" d="M 69.0 180.8 Q 69.0 178.0, 70.3 176.5 Q 71.6 175.0, 74.1 175.0 Q 76.5 175.0, 77.7 176.6 L 76.7 177.5 Q 75.7 176.3, 74.1 176.3 Q 72.4 176.3, 71.5 177.5 Q 70.6 178.6, 70.6 180.8 Q 70.6 183.0, 71.5 184.2 Q 72.5 185.3, 74.3 185.3 Q 75.6 185.3, 77.0 184.6 L 77.5 185.8 Q 76.9 186.1, 76.0 186.4 Q 75.1 186.6, 74.1 186.6 Q 71.6 186.6, 70.3 185.1 Q 69.0 183.6, 69.0 180.8 " fill="#000000"/>
<path class="legend" d="M 82.5 181.9 Q 82.5 184.2, 81.8 186.1 Q 81.2 188.0, 79.9 190.0 L 79.0 189.4 Q 80.0 187.5, 80.5 185.8 Q 81.1 184.0, 81.1 181.9 Q 81.1 179.7, 80.5 178.0 Q 80.0 176.3, 79.0 174.4 L 79.9 173.8 Q 81.2 175.8, 81.8 177.7 Q 82.5 179.6, 82.5 181.9 " fill="#000000"/>
<path class="legend" d="M 84.0 181.9 Q 84.0 179.6, 84.6 177.7 Q 85.3 175.8, 86.6 173.8 L 87.5 174.4 Q 86.4 176.3, 85.9 178.0 Q 85.4 179.7, 85.4 181.9 Q 85.4 184.0, 85.9 185.8 Q 86.4 187.5, 87.5 189.4 L 86.6 190.0 Q 85.3 188.0, 84.6 186.1 Q 84.0 184.2, 84.0 181.9 " fill="#000000"/>
<path class="legend" d="M 88.5 180.8 Q 88.5 178.0, 89.8 176.5 Q 91.2 175.0, 93.7 175.0 Q 96.0 175.0, 97.2 176.6 L 96.2 177.5 Q 95.3 176.3, 93.7 176.3 Q 92.0 176.3, 91.0 177.5 Q 90.1 178.6, 90.1 180.8 Q 90.1 183.0, 91.1 184.2 Q 92.0 185.3, 93.8 185.3 Q 95.1 185.3, 96.5 184.6 L 97.0 185.8 Q 96.4 186.1, 95.5 186.4 Q 94.6 186.6, 93.6 186.6 Q 91.2 186.6, 89.8 185.1 Q 88.5 183.6, 88.5 180.8 " fill="#000000"/>
<path class="legend" d="M 102.0 181.9 Q 102.0 184.2, 101.4 186.1 Q 100.7 188.0, 99.4 190.0 L 98.5 189.4 Q 99.6 187.5, 100.1 185.8 Q 100.6 184.0, 100.6 181.9 Q 100.6 179.7, 100.1 178.0 Q 99.6 176.3, 98.5 174.4 L 99.4 173.8 Q 100.7 175.8, 101.4 177.7 Q 102.0 179.6, 102.0 181.9 " fill="#000000"/>
<path class="legend" d="M 103.5 180.8 Q 103.5 178.0, 104.8 176.5 Q 106.1 175.0, 108.6 175.0 Q 111.0 175.0, 112.2 176.6 L 111.2 177.5 Q 110.3 176.3, 108.6 176.3 Q 106.9 176.3, 106.0 177.5 Q 105.1 178.6, 105.1 180.8 Q 105.1 183.0, 106.0 184.2 Q 107.0 185.3, 108.8 185.3 Q 110.1 185.3, 111.5 184.6 L 112.0 185.8 Q 111.4 186.1, 110.5 186.4 Q 109.6 186.6, 108.6 186.6 Q 106.1 186.6, 104.8 185.1 Q 103.5 183.6, 103.5 180.8 " fill="#000000"/>
<path class="legend" d="M 113.5 180.8 Q 113.5 178.0, 114.8 176.5 Q 116.1 175.0, 118.6 175.0 Q 121.0 175.0, 122.2 176.6 L 121.2 177.5 Q 120.3 176.3, 118.6 176.3 Q 116.9 176.3, 116.0 177.5 Q 115.1 178.6, 115.1 180.8 Q 115.1 183.0, 116.1 184.2 Q 117.0 185.3, 118.8 185.3 Q 120.1 185.3, 121.5 184.6 L 122.0 185.8 Q 121.4 186.1, 120.5 186.4 Q 119.6 186.6, 118.6 186.6 Q 116.1 186.6, 114.8 185.1 Q 113.5 183.6, 113.5 180.8 " fill="#000000"/>
<path class="legend" d="M 123.5 180.8 Q 123.5 178.0, 124.9 176.5 Q 126.2 175.0, 128.7 175.0 Q 131.2 175.0, 132.6 176.5 Q 133.9 178.0, 133.9 180.8 Q 133.9 183.5, 132.6 185.1 Q 131.2 186.6, 128.7 186.6 Q 126.2 186.6, 124.9 185.1 Q 123.5 183.5, 123.5 180.8 M 128.7 185.3 Q 130.4 185.3, 131.4 184.2 Q 132.3 183.0, 132.3 180.8 Q 132.3 178.5, 131.4 177.4 Q 130.4 176.3, 128.7 176.3 Q 127.0 176.3, 126.0 177.4 Q 125.1 178.5, 125.1 180.8 Q 125.1 183.0, 126.0 184.2 Q 127.0 185.3, 128.7 185.3 " fill="#000000"/>
<path class="legend" d="M 135.3 180.8 Q 135.3 178.0, 136.7 176.5 Q 138.0 175.0, 140.5 175.0 Q 142.8 175.0, 144.1 176.6 L 143.0 177.5 Q 142.1 176.3, 140.5 176.3 Q 138.8 176.3, 137.9 177.5 Q 137.0 178.6, 137.0 180.8 Q 137.0 183.0, 137.9 184.2 Q 138.9 185.3, 140.7 185.3 Q 141.9 185.3, 143.4 184.6 L 143.8 185.8 Q 143.2 186.1, 142.3 186.4 Q 141.4 186.6, 140.5 186.6 Q 138.0 186.6, 136.7 185.1 Q 135.3 183.6, 135.3 180.8 " fill="#000000"/>
<path class="legend" d="M 145.4 181.9 Q 145.4 179.6, 146.0 177.7 Q 146.7 175.8, 148.0 173.8 L 148.9 174.4 Q 147.8 176.3, 147.3 178.0 Q 146.8 179.7, 146.8 181.9 Q 146.8 184.0, 147.3 185.8 Q 147.8 187.5, 148.9 189.4 L 148.0 190.0 Q 146.7 188.0, 146.0 186.1 Q 145.4 184.2, 145.4 181.9 " fill="#000000"/>
<path class="legend" d="M 149.9 179.5 L 157.2 179.5 L 157.2 180.6 L 149.9 180.6 L 149.9 179.5 M 149.9 182.9 L 157.2 182.9 L 157.2 184.1 L 149.9 184.1 L 149.9 182.9 " fill="#000000"/>
<path class="legend" d="M 159.3 180.8 Q 159.3 178.0, 160.7 176.5 Q 162.0 175.0, 164.5 175.0 Q 167.1 175.0, 168.4 176.5 Q 169.7 178.0, 169.7 180.8 Q 169.7 183.5, 168.4 185.1 Q 167.0 186.6, 164.5 186.6 Q 162.0 186.6, 160.7 185.1 Q 159.3 183.5, 159.3 180.8 M 164.5 185.3 Q 166.3 185.3, 167.2 184.2 Q 168.1 183.0, 168.1 180.8 Q 168.1 178.5, 167.2 177.4 Q 166.3 176.3, 164.5 176.3 Q 162.8 176.3, 161.9 177.4 Q 160.9 178.5, 160.9 180.8 Q 160.9 183.0, 161.9 184.2 Q 162.8 185.3, 164.5 185.3 " fill="#000000"/>
<path class="legend" d="M 174.7 181.9 Q 174.7 184.2, 174.0 186.1 Q 173.4 188.0, 172.1 190.0 L 171.2 189.4 Q 172.2 187.5, 172.7 185.8 Q 173.3 184.0, 173.3 181.9 Q 173.3 179.7, 172.7 178.0 Q 172.2 176.3, 171.2 174.4 L 172.1 173.8 Q 173.4 175.8, 174.0 177.7 Q 174.7 179.6, 174.7 181.9 " fill="#000000"/>
<path class="legend" d="M 176.1 180.8 Q 176.1 178.0, 177.4 176.5 Q 178.8 175.0, 181.3 175.0 Q 183.6 175.0, 184.9 176.6 L 183.8 177.5 Q 182.9 176.3, 181.3 176.3 Q 179.6 176.3, 178.7 177.5 Q 177.8 178.6, 177.8 180.8 Q 177.8 183.0, 178.7 184.2 Q 179.6 185.3, 181.5 185.3 Q 182.7 185.3, 184.2 184.6 L 184.6 185.8 Q 184.0 186.1, 183.1 186.4 Q 182.2 186.6, 181.2 186.6 Q 178.8 186.6, 177.4 185.1 Q 176.1 183.6, 176.1 180.8 " fill="#000000"/>
<path class="bond-0 atom-0 atom-1" d="M 214.5,113.8 L 243.0,97.3" style="fill:none;fill-rule:evenodd;stroke:#000000;stroke-width:2.0px;stroke-linecap:butt;stroke-linejoin:miter;stroke-opacity:1"/>
<path class="bond-1 atom-1 atom-2" d="M 245.5,98.8 L 245.5,84.6" style="fill:none;fill-rule:evenodd;stroke:#000000;stroke-width:2.0px;stroke-linecap:butt;stroke-linejoin:miter;stroke-opacity:1"/>
<path class="bond-1 atom-1 atom-2" d="M 245.5,84.6 L 245.5,70.3" style="fill:none;fill-rule:evenodd;stroke:#FF0000;stroke-width:2.0px;stroke-linecap:butt;stroke-linejoin:miter;stroke-opacity:1"/>
<path class="bond-1 atom-1 atom-2" d="M 240.5,98.8 L 240.5,84.6" style="fill:none;fill-rule:evenodd;stroke:#000000;stroke-width:2.0px;stroke-linecap:butt;stroke-linejoin:miter;stroke-opacity:1"/>
<path class="bond-1 atom-1 atom-2" d="M 240.5,84.6 L 240.5,70.3" style="fill:none;fill-rule:evenodd;stroke:#FF0000;stroke-width:2.0px;stroke-linecap:butt;stroke-linejoin:miter;stroke-opacity:1"/>
<path class="bond-2 atom-1 atom-3" d="M 243.0,97.3 L 254.6,104.0" style="fill:none;fill-rule:evenodd;stroke:#000000;stroke-width:2.0px;stroke-linecap:butt;stroke-linejoin:miter;stroke-opacity:1"/>
<path class="bond-2 atom-1 atom-3" d="M 254.6,104.0 L 266.1,110.7" style="fill:none;fill-rule:evenodd;stroke:#FF0000;stroke-width:2.0px;stroke-linecap:butt;stroke-linejoin:miter;stroke-opacity:1"/>
<path class="bond-3 atom-3 atom-4" d="M 276.9,110.7 L 288.5,104.0" style="fill:none;fill-rule:evenodd;stroke:#FF0000;stroke-width:2.0px;stroke-linecap:butt;stroke-linejoin:miter;stroke-opacity:1"/>
<path class="bond-3 atom-3 atom-4" d="M 288.5,104.0 L 300.0,97.3" style="fill:none;fill-rule:evenodd;stroke:#000000;stroke-width:2.0px;stroke-linecap:butt;stroke-linejoin:miter;stroke-opacity:1"/>
<path class="bond-4 atom-4 atom-5" d="M 300.0,97.3 L 328.6,113.8" style="fill:none;fill-rule:evenodd;stroke:#000000;stroke-width:2.0px;stroke-linecap:butt;stroke-linejoin:miter;stroke-opacity:1"/>
<path class="bond-5 atom-5 atom-6" d="M 328.6,113.8 L 340.5,106.9" style="fill:none;fill-rule:evenodd;stroke:#000000;stroke-width:2.0px;stroke-linecap:butt;stroke-linejoin:miter;stroke-opacity:1"/>
<path class="bond-5 atom-5 atom-6" d="M 340.5,106.9 L 352.5,100.0" style="fill:none;fill-rule:evenodd;stroke:#0000FF;stroke-width:2.0px;stroke-linecap:butt;stroke-linejoin:miter;stroke-opacity:1"/>
<path class="bond-6 atom-6 atom-7" d="M 360.4,103.1 L 367.0,114.5" style="fill:none;fill-rule:evenodd;stroke:#0000FF;stroke-width:2.0px;stroke-linecap:butt;stroke-linejoin:miter;stroke-opacity:1"/>
<path class="bond-6 atom-6 atom-7" d="M 367.0,114.5 L 373.6,125.9" style="fill:none;fill-rule:evenodd;stroke:#000000;stroke-width:2.0px;stroke-linecap:butt;stroke-linejoin:miter;stroke-opacity:1"/>
<path class="bond-7 atom-6 atom-8" d="M 353.8,91.6 L 347.2,80.2" style="fill:none;fill-rule:evenodd;stroke:#0000FF;stroke-width:2.0px;stroke-linecap:butt;stroke-linejoin:miter;stroke-opacity:1"/>
<path class="bond-7 atom-6 atom-8" d="M 347.2,80.2 L 340.6,68.8" style="fill:none;fill-rule:evenodd;stroke:#000000;stroke-width:2.0px;stroke-linecap:butt;stroke-linejoin:miter;stroke-opacity:1"/>
<path class="bond-8 atom-6 atom-9" d="M 367.2,91.5 L 376.4,86.2" style="fill:none;fill-rule:evenodd;stroke:#0000FF;stroke-width:2.0px;stroke-linecap:butt;stroke-linejoin:miter;stroke-opacity:1"/>
<path class="bond-8 atom-6 atom-9" d="M 376.4,86.2 L 385.6,80.9" style="fill:none;fill-rule:evenodd;stroke:#000000;stroke-width:2.0px;stroke-linecap:butt;stroke-linejoin:miter;stroke-opacity:1"/>
<path d="M 241.6,98.2 L 243.0,97.3 L 243.6,97.7" style="fill:none;stroke:#000000;stroke-width:2.0px;stroke-linecap:butt;stroke-linejoin:miter;stroke-miterlimit:10;stroke-opacity:1;"/>
<path d="M 299.5,97.7 L 300.0,97.3 L 301.5,98.2" style="fill:none;stroke:#000000;stroke-width:2.0px;stroke-linecap:butt;stroke-linejoin:miter;stroke-miterlimit:10;stroke-opacity:1;"/>
<path d="M 327.1,113.0 L 328.6,113.8 L 329.2,113.5" style="fill:none;stroke:#000000;stroke-width:2.0px;stroke-linecap:butt;stroke-linejoin:miter;stroke-miterlimit:10;stroke-opacity:1;"/>
<path class="atom-2" d="M 238.7 64.4 Q 238.7 62.2, 239.8 60.9 Q 240.9 59.7, 243.0 59.7 Q 245.1 59.7, 246.2 60.9 Q 247.3 62.2, 247.3 64.4 Q 247.3 66.7, 246.1 68.0 Q 245.0 69.3, 243.0 69.3 Q 240.9 69.3, 239.8 68.0 Q 238.7 66.7, 238.7 64.4 M 243.0 68.2 Q 244.4 68.2, 245.2 67.3 Q 245.9 66.3, 245.9 64.4 Q 245.9 62.6, 245.2 61.7 Q 244.4 60.7, 243.0 60.7 Q 241.6 60.7, 240.8 61.7 Q 240.0 62.6, 240.0 64.4 Q 240.0 66.3, 240.8 67.3 Q 241.6 68.2, 243.0 68.2 " fill="#FF0000"/>
<path class="atom-3" d="M 267.2 113.8 Q 267.2 111.6, 268.3 110.3 Q 269.4 109.1, 271.5 109.1 Q 273.6 109.1, 274.7 110.3 Q 275.8 111.6, 275.8 113.8 Q 275.8 116.1, 274.7 117.4 Q 273.6 118.7, 271.5 118.7 Q 269.5 118.7, 268.3 117.4 Q 267.2 116.1, 267.2 113.8 M 271.5 117.6 Q 272.9 117.6, 273.7 116.7 Q 274.5 115.7, 274.5 113.8 Q 274.5 112.0, 273.7 111.1 Q 272.9 110.1, 271.5 110.1 Q 270.1 110.1, 269.3 111.1 Q 268.5 112.0, 268.5 113.8 Q 268.5 115.7, 269.3 116.7 Q 270.1 117.6, 271.5 117.6 " fill="#FF0000"/>
<path class="atom-6" d="M 355.0 92.7 L 358.1 97.6 Q 358.4 98.1, 358.9 99.0 Q 359.4 99.9, 359.4 99.9 L 359.4 92.7 L 360.6 92.7 L 360.6 102.0 L 359.4 102.0 L 356.1 96.6 Q 355.7 96.0, 355.3 95.2 Q 354.9 94.5, 354.8 94.3 L 354.8 102.0 L 353.6 102.0 L 353.6 92.7 L 355.0 92.7 " fill="#0000FF"/>
<path class="atom-6" d="M 362.4 94.4 L 364.0 94.4 L 364.0 92.6 L 364.8 92.6 L 364.8 94.4 L 366.5 94.4 L 366.5 95.0 L 364.8 95.0 L 364.8 96.7 L 364.0 96.7 L 364.0 95.0 L 362.4 95.0 L 362.4 94.4 " fill="#0000FF"/>
<path class="note" d="M 211.7 111.5 Q 210.8 111.5, 210.4 110.8 Q 210.0 110.2, 210.0 109.1 Q 210.0 107.9, 210.4 107.3 Q 210.8 106.7, 211.7 106.7 Q 212.6 106.7, 213.0 107.3 Q 213.4 107.9, 213.4 109.1 Q 213.4 110.2, 213.0 110.8 Q 212.6 111.5, 211.7 111.5 M 211.7 110.9 Q 212.2 110.9, 212.5 110.5 Q 212.8 110.0, 212.8 109.1 Q 212.8 108.2, 212.5 107.7 Q 212.2 107.2, 211.7 107.2 Q 211.2 107.2, 210.9 107.7 Q 210.7 108.2, 210.7 109.1 Q 210.7 110.0, 210.9 110.5 Q 211.2 110.9, 211.7 110.9 " fill="#000000"/>
<path class="note" d="M 241.8 104.6 L 242.9 104.6 L 242.9 101.2 L 241.7 101.5 L 241.6 101.1 L 243.0 100.5 L 243.5 100.6 L 243.5 104.6 L 244.4 104.6 L 244.4 105.2 L 241.8 105.2 L 241.8 104.6 " fill="#000000"/>
<path class="note" d="M 241.4 52.0 Q 241.6 51.5, 242.0 51.3 Q 242.4 51.1, 243.0 51.1 Q 243.7 51.1, 244.1 51.4 Q 244.5 51.8, 244.5 52.5 Q 244.5 53.2, 244.0 53.8 Q 243.5 54.5, 242.4 55.2 L 244.6 55.2 L 244.6 55.8 L 241.4 55.8 L 241.4 55.3 Q 242.3 54.7, 242.8 54.2 Q 243.3 53.8, 243.6 53.4 Q 243.8 53.0, 243.8 52.5 Q 243.8 52.1, 243.6 51.8 Q 243.4 51.6, 243.0 51.6 Q 242.6 51.6, 242.4 51.7 Q 242.1 51.9, 241.9 52.2 L 241.4 52.0 " fill="#000000"/>
<path class="note" d="M 272.2 124.7 Q 272.6 124.8, 272.9 125.1 Q 273.1 125.4, 273.1 125.9 Q 273.1 126.3, 272.9 126.6 Q 272.7 126.9, 272.3 127.1 Q 272.0 127.2, 271.5 127.2 Q 271.0 127.2, 270.6 127.0 Q 270.2 126.9, 269.9 126.5 L 270.3 126.1 Q 270.6 126.4, 270.9 126.6 Q 271.1 126.7, 271.5 126.7 Q 271.9 126.7, 272.2 126.5 Q 272.4 126.2, 272.4 125.9 Q 272.4 125.4, 272.2 125.2 Q 271.9 125.0, 271.3 125.0 L 271.0 125.0 L 271.0 124.5 L 271.3 124.5 Q 271.8 124.5, 272.1 124.3 Q 272.3 124.0, 272.3 123.6 Q 272.3 123.3, 272.1 123.1 Q 271.9 123.0, 271.5 123.0 Q 271.1 123.0, 270.9 123.1 Q 270.6 123.2, 270.4 123.6 L 270.0 123.3 Q 270.1 123.0, 270.5 122.7 Q 270.9 122.4, 271.5 122.4 Q 272.2 122.4, 272.6 122.8 Q 273.0 123.1, 273.0 123.6 Q 273.0 124.0, 272.8 124.3 Q 272.6 124.5, 272.2 124.7 " fill="#000000"/>
<path class="note" d="M 301.3 92.6 L 301.8 92.6 L 301.8 93.1 L 301.3 93.1 L 301.3 94.2 L 300.7 94.2 L 300.7 93.1 L 298.2 93.1 L 298.2 92.7 L 300.3 89.5 L 301.3 89.5 L 301.3 92.6 M 299.0 92.6 L 300.7 92.6 L 300.7 89.9 L 299.0 92.6 " fill="#000000"/>
<path class="note" d="M 328.7 118.7 Q 329.1 118.7, 329.4 118.9 Q 329.8 119.1, 330.0 119.4 Q 330.2 119.7, 330.2 120.2 Q 330.2 120.6, 329.9 121.0 Q 329.7 121.3, 329.3 121.5 Q 328.9 121.7, 328.5 121.7 Q 328.1 121.7, 327.7 121.5 Q 327.3 121.4, 327.0 121.1 L 327.4 120.7 Q 327.6 120.9, 327.9 121.0 Q 328.2 121.2, 328.5 121.2 Q 328.9 121.2, 329.2 120.9 Q 329.5 120.6, 329.5 120.2 Q 329.5 119.7, 329.2 119.4 Q 328.9 119.2, 328.5 119.2 Q 328.1 119.2, 327.6 119.4 L 327.2 119.2 L 327.5 117.0 L 329.9 117.0 L 329.8 117.5 L 328.0 117.5 L 327.9 118.9 Q 328.3 118.7, 328.7 118.7 " fill="#000000"/>
<path class="note" d="M 354.5 107.4 Q 354.9 107.4, 355.2 107.6 Q 355.5 107.7, 355.7 108.1 Q 355.9 108.4, 355.9 108.8 Q 355.9 109.3, 355.7 109.6 Q 355.5 110.0, 355.1 110.2 Q 354.8 110.4, 354.3 110.4 Q 353.5 110.4, 353.1 109.8 Q 352.6 109.2, 352.6 108.1 Q 352.6 106.9, 353.2 106.2 Q 353.7 105.6, 354.7 105.6 Q 355.0 105.6, 355.2 105.7 Q 355.5 105.7, 355.7 105.9 L 355.4 106.3 Q 355.1 106.1, 354.7 106.1 Q 354.0 106.1, 353.7 106.5 Q 353.4 107.0, 353.3 107.8 Q 353.5 107.6, 353.8 107.5 Q 354.1 107.4, 354.5 107.4 M 354.3 109.8 Q 354.6 109.8, 354.8 109.7 Q 355.0 109.6, 355.1 109.3 Q 355.2 109.1, 355.2 108.8 Q 355.2 108.4, 355.0 108.2 Q 354.8 107.9, 354.4 107.9 Q 354.1 107.9, 353.8 108.0 Q 353.5 108.1, 353.3 108.3 Q 353.3 109.1, 353.6 109.5 Q 353.8 109.8, 354.3 109.8 " fill="#000000"/>
<path class="note" d="M 369.7 126.8 L 367.3 126.8 L 367.3 126.3 L 370.4 126.3 L 370.4 126.7 L 368.5 130.9 L 367.9 130.9 L 369.7 126.8 " fill="#000000"/>
<path class="note" d="M 346.1 65.9 Q 346.5 66.1, 346.8 66.4 Q 347.0 66.7, 347.0 67.1 Q 347.0 67.5, 346.8 67.8 Q 346.6 68.2, 346.3 68.3 Q 345.9 68.5, 345.4 68.5 Q 344.6 68.5, 344.2 68.1 Q 343.7 67.8, 343.7 67.1 Q 343.7 66.8, 343.9 66.5 Q 344.1 66.2, 344.5 66.0 Q 344.2 65.8, 344.1 65.5 Q 343.9 65.3, 343.9 64.9 Q 343.9 64.3, 344.3 64.0 Q 344.7 63.7, 345.4 63.7 Q 346.1 63.7, 346.5 64.0 Q 346.9 64.3, 346.9 64.9 Q 346.9 65.2, 346.7 65.5 Q 346.5 65.7, 346.1 65.9 M 345.4 64.2 Q 345.0 64.2, 344.8 64.4 Q 344.6 64.6, 344.6 64.9 Q 344.6 65.1, 344.7 65.3 Q 344.9 65.5, 345.1 65.6 Q 345.3 65.6, 345.7 65.8 Q 346.0 65.6, 346.1 65.4 Q 346.2 65.2, 346.2 64.9 Q 346.2 64.6, 346.0 64.4 Q 345.8 64.2, 345.4 64.2 M 345.4 68.0 Q 345.9 68.0, 346.1 67.8 Q 346.4 67.5, 346.4 67.1 Q 346.4 66.9, 346.2 66.7 Q 346.1 66.6, 345.9 66.5 Q 345.7 66.4, 345.3 66.3 L 345.0 66.2 Q 344.7 66.4, 344.5 66.6 Q 344.4 66.8, 344.4 67.1 Q 344.4 67.5, 344.7 67.8 Q 345.0 68.0, 345.4 68.0 " fill="#000000"/>
<path class="note" d="M 388.3 83.3 Q 389.2 83.3, 389.6 83.8 Q 390.0 84.4, 390.0 85.5 Q 390.0 86.7, 389.5 87.4 Q 389.0 88.0, 388.0 88.0 Q 387.7 88.0, 387.4 88.0 Q 387.2 87.9, 386.9 87.8 L 387.2 87.3 Q 387.5 87.5, 388.0 87.5 Q 388.6 87.5, 389.0 87.1 Q 389.3 86.7, 389.3 85.8 Q 389.1 86.0, 388.8 86.1 Q 388.5 86.2, 388.2 86.2 Q 387.8 86.2, 387.4 86.0 Q 387.1 85.9, 386.9 85.5 Q 386.8 85.2, 386.8 84.8 Q 386.8 84.4, 387.0 84.0 Q 387.2 83.7, 387.5 83.5 Q 387.9 83.3, 388.3 83.3 M 387.4 84.8 Q 387.4 85.2, 387.7 85.5 Q 387.9 85.7, 388.3 85.7 Q 388.6 85.7, 388.9 85.6 Q 389.1 85.5, 389.3 85.3 Q 389.3 84.5, 389.1 84.2 Q 388.8 83.8, 388.3 83.8 Q 388.1 83.8, 387.9 83.9 Q 387.7 84.1, 387.5 84.3 Q 387.4 84.5, 387.4 84.8 " fill="#000000"/>
<path class="legend" d="M 219.6 180.8 Q 219.6 178.0, 220.9 176.5 Q 222.3 175.0, 224.8 175.0 Q 227.1 175.0, 228.3 176.6 L 227.3 177.5 Q 226.4 176.3, 224.8 176.3 Q 223.1 176.3, 222.1 177.5 Q 221.2 178.6, 221.2 180.8 Q 221.2 183.0, 222.2 184.2 Q 223.1 185.3, 224.9 185.3 Q 226.2 185.3, 227.6 184.6 L 228.1 185.8 Q 227.5 186.1, 226.6 186.4 Q 225.7 186.6, 224.7 186.6 Q 222.3 186.6, 220.9 185.1 Q 219.6 183.6, 219.6 180.8 " fill="#000000"/>
<path class="legend" d="M 229.7 180.8 Q 229.7 178.0, 231.0 176.5 Q 232.3 175.0, 234.8 175.0 Q 237.1 175.0, 238.4 176.6 L 237.3 177.5 Q 236.4 176.3, 234.8 176.3 Q 233.1 176.3, 232.2 177.5 Q 231.3 178.6, 231.3 180.8 Q 231.3 183.0, 232.2 184.2 Q 233.2 185.3, 235.0 185.3 Q 236.2 185.3, 237.7 184.6 L 238.1 185.8 Q 237.5 186.1, 236.6 186.4 Q 235.8 186.6, 234.8 186.6 Q 232.3 186.6, 231.0 185.1 Q 229.7 183.6, 229.7 180.8 " fill="#000000"/>
<path class="legend" d="M 239.7 181.9 Q 239.7 179.6, 240.4 177.7 Q 241.0 175.8, 242.3 173.8 L 243.2 174.4 Q 242.2 176.3, 241.7 178.0 Q 241.1 179.7, 241.1 181.9 Q 241.1 184.0, 241.7 185.8 Q 242.2 187.5, 243.2 189.4 L 242.3 190.0 Q 241.0 188.0, 240.4 186.1 Q 239.7 184.2, 239.7 181.9 " fill="#000000"/>
<path class="legend" d="M 244.3 179.5 L 251.6 179.5 L 251.6 180.6 L 244.3 180.6 L 244.3 179.5 M 244.3 182.9 L 251.6 182.9 L 251.6 184.1 L 244.3 184.1 L 244.3 182.9 " fill="#000000"/>
<path class="legend" d="M 253.7 180.8 Q 253.7 178.0, 255.1 176.5 Q 256.4 175.0, 258.9 175.0 Q 261.4 175.0, 262.8 176.5 Q 264.1 178.0, 264.1 180.8 Q 264.1 183.5, 262.8 185.1 Q 261.4 186.6, 258.9 186.6 Q 256.4 186.6, 255.1 185.1 Q 253.7 183.5, 253.7 180.8 M 258.9 185.3 Q 260.7 185.3, 261.6 184.2 Q 262.5 183.0, 262.5 180.8 Q 262.5 178.5, 261.6 177.4 Q 260.7 176.3, 258.9 176.3 Q 257.2 176.3, 256.3 177.4 Q 255.3 178.5, 255.3 180.8 Q 255.3 183.0, 256.3 184.2 Q 257.2 185.3, 258.9 185.3 " fill="#000000"/>
<path class="legend" d="M 269.1 181.9 Q 269.1 184.2, 268.4 186.1 Q 267.8 188.0, 266.5 190.0 L 265.6 189.4 Q 266.6 187.5, 267.2 185.8 Q 267.7 184.0, 267.7 181.9 Q 267.7 179.7, 267.2 178.0 Q 266.6 176.3, 265.6 174.4 L 266.5 173.8 Q 267.8 175.8, 268.4 177.7 Q 269.1 179.6, 269.1 181.9 " fill="#000000"/>
<path class="legend" d="M 270.6 180.8 Q 270.6 178.0, 271.9 176.5 Q 273.3 175.0, 275.8 175.0 Q 278.3 175.0, 279.6 176.5 Q 281.0 178.0, 281.0 180.8 Q 281.0 183.5, 279.6 185.1 Q 278.3 186.6, 275.8 186.6 Q 273.3 186.6, 271.9 185.1 Q 270.6 183.5, 270.6 180.8 M 275.8 185.3 Q 277.5 185.3, 278.4 184.2 Q 279.4 183.0, 279.4 180.8 Q 279.4 178.5, 278.4 177.4 Q 277.5 176.3, 275.8 176.3 Q 274.1 176.3, 273.1 177.4 Q 272.2 178.5, 272.2 180.8 Q 272.2 183.0, 273.1 184.2 Q 274.1 185.3, 275.8 185.3 " fill="#000000"/>
<path class="legend" d="M 282.5 180.8 Q 282.5 178.0, 283.8 176.5 Q 285.1 175.0, 287.6 175.0 Q 289.9 175.0, 291.2 176.6 L 290.1 177.5 Q 289.2 176.3, 287.6 176.3 Q 285.9 176.3, 285.0 177.5 Q 284.1 178.6, 284.1 180.8 Q 284.1 183.0, 285.0 184.2 Q 286.0 185.3, 287.8 185.3 Q 289.0 185.3, 290.5 184.6 L 290.9 185.8 Q 290.3 186.1, 289.4 186.4 Q 288.6 186.6, 287.6 186.6 Q 285.1 186.6, 283.8 185.1 Q 282.5 183.6, 282.5 180.8 " fill="#000000"/>
<path class="legend" d="M 292.5 180.8 Q 292.5 178.0, 293.8 176.5 Q 295.1 175.0, 297.6 175.0 Q 300.0 175.0, 301.2 176.6 L 300.2 177.5 Q 299.3 176.3, 297.6 176.3 Q 295.9 176.3, 295.0 177.5 Q 294.1 178.6, 294.1 180.8 Q 294.1 183.0, 295.1 184.2 Q 296.0 185.3, 297.8 185.3 Q 299.1 185.3, 300.5 184.6 L 301.0 185.8 Q 300.4 186.1, 299.5 186.4 Q 298.6 186.6, 297.6 186.6 Q 295.1 186.6, 293.8 185.1 Q 292.5 183.6, 292.5 180.8 " fill="#000000"/>
<path class="legend" d="M 302.5 174.1 L 305.9 174.1 L 305.9 175.2 L 303.9 175.2 L 303.9 188.4 L 305.9 188.4 L 305.9 189.5 L 302.5 189.5 L 302.5 174.1 " fill="#000000"/>
<path class="legend" d="M 308.7 175.1 L 312.4 181.1 Q 312.8 181.7, 313.4 182.8 Q 314.0 183.9, 314.0 183.9 L 314.0 175.1 L 315.5 175.1 L 315.5 186.4 L 314.0 186.4 L 310.0 179.9 Q 309.5 179.1, 309.0 178.2 Q 308.5 177.4, 308.4 177.1 L 308.4 186.4 L 306.9 186.4 L 306.9 175.1 L 308.7 175.1 " fill="#000000"/>
<path class="legend" d="M 317.5 181.0 L 320.5 181.0 L 320.5 177.8 L 321.9 177.8 L 321.9 181.0 L 325.0 181.0 L 325.0 182.1 L 321.9 182.1 L 321.9 185.3 L 320.5 185.3 L 320.5 182.1 L 317.5 182.1 L 317.5 181.0 " fill="#000000"/>
<path class="legend" d="M 330.4 174.1 L 330.4 189.5 L 327.0 189.5 L 327.0 188.4 L 329.1 188.4 L 329.1 175.2 L 327.0 175.2 L 327.0 174.1 L 330.4 174.1 " fill="#000000"/>
<path class="legend" d="M 332.4 181.9 Q 332.4 179.6, 333.1 177.7 Q 333.7 175.8, 335.0 173.8 L 335.9 174.4 Q 334.9 176.3, 334.4 178.0 Q 333.9 179.7, 333.9 181.9 Q 333.9 184.0, 334.4 185.8 Q 334.9 187.5, 335.9 189.4 L 335.0 190.0 Q 333.7 188.0, 333.1 186.1 Q 332.4 184.2, 332.4 181.9 " fill="#000000"/>
<path class="legend" d="M 337.0 180.8 Q 337.0 178.0, 338.3 176.5 Q 339.6 175.0, 342.2 175.0 Q 344.5 175.0, 345.7 176.6 L 344.7 177.5 Q 343.8 176.3, 342.2 176.3 Q 340.4 176.3, 339.5 177.5 Q 338.6 178.6, 338.6 180.8 Q 338.6 183.0, 339.6 184.2 Q 340.5 185.3, 342.3 185.3 Q 343.6 185.3, 345.0 184.6 L 345.5 185.8 Q 344.9 186.1, 344.0 186.4 Q 343.1 186.6, 342.1 186.6 Q 339.6 186.6, 338.3 185.1 Q 337.0 183.6, 337.0 180.8 " fill="#000000"/>
<path class="legend" d="M 350.6 181.9 Q 350.6 184.2, 349.9 186.1 Q 349.2 188.0, 347.9 190.0 L 347.0 189.4 Q 348.1 187.5, 348.6 185.8 Q 349.1 184.0, 349.1 181.9 Q 349.1 179.7, 348.6 178.0 Q 348.1 176.3, 347.0 174.4 L 347.9 173.8 Q 349.2 175.8, 349.9 177.7 Q 350.6 179.6, 350.6 181.9 " fill="#000000"/>
<path class="legend" d="M 352.0 181.9 Q 352.0 179.6, 352.7 177.7 Q 353.4 175.8, 354.7 173.8 L 355.6 174.4 Q 354.5 176.3, 354.0 178.0 Q 353.5 179.7, 353.5 181.9 Q 353.5 184.0, 354.0 185.8 Q 354.5 187.5, 355.6 189.4 L 354.7 190.0 Q 353.4 188.0, 352.7 186.1 Q 352.0 184.2, 352.0 181.9 " fill="#000000"/>
<path class="legend" d="M 356.6 180.8 Q 356.6 178.0, 357.9 176.5 Q 359.3 175.0, 361.8 175.0 Q 364.1 175.0, 365.4 176.6 L 364.3 177.5 Q 363.4 176.3, 361.8 176.3 Q 360.1 176.3, 359.1 177.5 Q 358.3 178.6, 358.3 180.8 Q 358.3 183.0, 359.2 184.2 Q 360.1 185.3, 361.9 185.3 Q 363.2 185.3, 364.7 184.6 L 365.1 185.8 Q 364.5 186.1, 363.6 186.4 Q 362.7 186.6, 361.7 186.6 Q 359.3 186.6, 357.9 185.1 Q 356.6 183.6, 356.6 180.8 " fill="#000000"/>
<path class="legend" d="M 370.2 181.9 Q 370.2 184.2, 369.5 186.1 Q 368.9 188.0, 367.6 190.0 L 366.7 189.4 Q 367.7 187.5, 368.2 185.8 Q 368.7 184.0, 368.7 181.9 Q 368.7 179.7, 368.2 178.0 Q 367.7 176.3, 366.7 174.4 L 367.6 173.8 Q 368.9 175.8, 369.5 177.7 Q 370.2 179.6, 370.2 181.9 " fill="#000000"/>
<path class="legend" d="M 371.7 180.8 Q 371.7 178.0, 373.0 176.5 Q 374.3 175.0, 376.8 175.0 Q 379.1 175.0, 380.4 176.6 L 379.3 177.5 Q 378.4 176.3, 376.8 176.3 Q 375.1 176.3, 374.2 177.5 Q 373.3 178.6, 373.3 180.8 Q 373.3 183.0, 374.2 184.2 Q 375.2 185.3, 377.0 185.3 Q 378.2 185.3, 379.7 184.6 L 380.1 185.8 Q 379.5 186.1, 378.6 186.4 Q 377.7 186.6, 376.8 186.6 Q 374.3 186.6, 373.0 185.1 Q 371.7 183.6, 371.7 180.8 " fill="#000000"/>
</svg>