<svg xmlns="http://www.w3.org/2000/svg" xmlns:rdkit="http://www.rdkit.org/xml" xmlns:xlink="http://www.w3.org/1999/xlink" version="1.1" baseProfile="full" xml:space="preserve" width="400px" height="200px" viewBox="0 0 400 200">
<!-- END OF HEADER -->
<rect style="opacity:1.0;fill:#FFFFFF;stroke:none" width="200.0" height="200.0" x="0.0" y="0.0"> </rect>
<path class="bond-0 atom-0 atom-1" d="M 113.3,79.9 L 85.1,102.1" style="fill:none;fill-rule:evenodd;stroke:#000000;stroke-width:2.0px;stroke-linecap:butt;stroke-linejoin:miter;stroke-opacity:1"/>
<path class="bond-1 atom-1 atom-2" d="M 85.1,102.1 L 51.8,88.8" style="fill:none;fill-rule:evenodd;stroke:#000000;stroke-width:2.0px;stroke-linecap:butt;stroke-linejoin:miter;stroke-opacity:1"/>
<path class="bond-2 atom-2 atom-3" d="M 54.7,89.9 L 52.5,74.7" style="fill:none;fill-rule:evenodd;stroke:#000000;stroke-width:2.0px;stroke-linecap:butt;stroke-linejoin:miter;stroke-opacity:1"/>
<path class="bond-2 atom-2 atom-3" d="M 52.5,74.7 L 50.3,59.4" style="fill:none;fill-rule:evenodd;stroke:#FF0000;stroke-width:2.0px;stroke-linecap:butt;stroke-linejoin:miter;stroke-opacity:1"/>
<path class="bond-2 atom-2 atom-3" d="M 49.4,90.7 L 47.2,75.4" style="fill:none;fill-rule:evenodd;stroke:#000000;stroke-width:2.0px;stroke-linecap:butt;stroke-linejoin:miter;stroke-opacity:1"/>
<path class="bond-2 atom-2 atom-3" d="M 47.2,75.4 L 45.0,60.2" style="fill:none;fill-rule:evenodd;stroke:#FF0000;stroke-width:2.0px;stroke-linecap:butt;stroke-linejoin:miter;stroke-opacity:1"/>
<path class="bond-3 atom-2 atom-4" d="M 51.8,88.8 L 40.7,97.6" style="fill:none;fill-rule:evenodd;stroke:#000000;stroke-width:2.0px;stroke-linecap:butt;stroke-linejoin:miter;stroke-opacity:1"/>
<path class="bond-3 atom-2 atom-4" d="M 40.7,97.6 L 29.6,106.3" style="fill:none;fill-rule:evenodd;stroke:#FF0000;stroke-width:2.0px;stroke-linecap:butt;stroke-linejoin:miter;stroke-opacity:1"/>
<path class="bond-4 atom-1 atom-5" d="M 85.1,102.1 L 88.5,115.9 L 85.8,116.3 Z" style="fill:#000000;fill-rule:evenodd;fill-opacity:1;stroke:#000000;stroke-width:0.5px;stroke-linecap:butt;stroke-linejoin:miter;stroke-miterlimit:10;stroke-opacity:1;"/>
<path class="bond-4 atom-1 atom-5" d="M 88.5,115.9 L 86.5,130.5 L 91.9,129.7 Z" style="fill:#FF0000;fill-rule:evenodd;fill-opacity:1;stroke:#FF0000;stroke-width:0.5px;stroke-linecap:butt;stroke-linejoin:miter;stroke-miterlimit:10;stroke-opacity:1;"/>
<path class="bond-4 atom-1 atom-5" d="M 88.5,115.9 L 85.8,116.3 L 86.5,130.5 Z" style="fill:#FF0000;fill-rule:evenodd;fill-opacity:1;stroke:#FF0000;stroke-width:0.5px;stroke-linecap:butt;stroke-linejoin:miter;stroke-miterlimit:10;stroke-opacity:1;"/>
<path class="bond-5 atom-0 atom-6" d="M 113.3,79.9 L 146.6,93.2" style="fill:none;fill-rule:evenodd;stroke:#000000;stroke-width:2.0px;stroke-linecap:butt;stroke-linejoin:miter;stroke-opacity:1"/>
<path class="bond-6 atom-6 atom-7" d="M 143.7,92.0 L 146.0,107.4" style="fill:none;fill-rule:evenodd;stroke:#000000;stroke-width:2.0px;stroke-linecap:butt;stroke-linejoin:miter;stroke-opacity:1"/>
<path class="bond-6 atom-6 atom-7" d="M 146.0,107.4 L 148.2,122.7" style="fill:none;fill-rule:evenodd;stroke:#FF0000;stroke-width:2.0px;stroke-linecap:butt;stroke-linejoin:miter;stroke-opacity:1"/>
<path class="bond-6 atom-6 atom-7" d="M 149.1,91.3 L 151.3,106.6" style="fill:none;fill-rule:evenodd;stroke:#000000;stroke-width:2.0px;stroke-linecap:butt;stroke-linejoin:miter;stroke-opacity:1"/>
<path class="bond-6 atom-6 atom-7" d="M 151.3,106.6 L 153.5,122.0" style="fill:none;fill-rule:evenodd;stroke:#FF0000;stroke-width:2.0px;stroke-linecap:butt;stroke-linejoin:miter;stroke-opacity:1"/>
<path class="bond-7 atom-6 atom-8" d="M 146.6,93.2 L 157.8,84.4" style="fill:none;fill-rule:evenodd;stroke:#000000;stroke-width:2.0px;stroke-linecap:butt;stroke-linejoin:miter;stroke-opacity:1"/>
<path class="bond-7 atom-6 atom-8" d="M 157.8,84.4 L 168.9,75.6" style="fill:none;fill-rule:evenodd;stroke:#FF0000;stroke-width:2.0px;stroke-linecap:butt;stroke-linejoin:miter;stroke-opacity:1"/>
<path class="bond-8 atom-0 atom-9" d="M 113.3,79.9 L 110.0,66.2 L 112.6,65.8 Z" style="fill:#000000;fill-rule:evenodd;fill-opacity:1;stroke:#000000;stroke-width:0.5px;stroke-linecap:butt;stroke-linejoin:miter;stroke-miterlimit:10;stroke-opacity:1;"/>
<path class="bond-8 atom-0 atom-9" d="M 110.0,66.2 L 111.9,51.7 L 106.6,52.4 Z" style="fill:#FF0000;fill-rule:evenodd;fill-opacity:1;stroke:#FF0000;stroke-width:0.5px;stroke-linecap:butt;stroke-linejoin:miter;stroke-miterlimit:10;stroke-opacity:1;"/>
<path class="bond-8 atom-0 atom-9" d="M 110.0,66.2 L 112.6,65.8 L 111.9,51.7 Z" style="fill:#FF0000;fill-rule:evenodd;fill-opacity:1;stroke:#FF0000;stroke-width:0.5px;stroke-linecap:butt;stroke-linejoin:miter;stroke-miterlimit:10;stroke-opacity:1;"/>
<path d="M 111.9,81.0 L 113.3,79.9 L 115.0,80.6" style="fill:none;stroke:#000000;stroke-width:2.0px;stroke-linecap:butt;stroke-linejoin:miter;stroke-miterlimit:10;stroke-opacity:1;"/>
<path d="M 86.5,101.0 L 85.1,102.1 L 83.5,101.4" style="fill:none;stroke:#000000;stroke-width:2.0px;stroke-linecap:butt;stroke-linejoin:miter;stroke-miterlimit:10;stroke-opacity:1;"/>
<path d="M 53.5,89.5 L 51.8,88.8 L 51.3,89.2" style="fill:none;stroke:#000000;stroke-width:2.0px;stroke-linecap:butt;stroke-linejoin:miter;stroke-miterlimit:10;stroke-opacity:1;"/>
<path d="M 144.9,92.5 L 146.6,93.2 L 147.2,92.7" style="fill:none;stroke:#000000;stroke-width:2.0px;stroke-linecap:butt;stroke-linejoin:miter;stroke-miterlimit:10;stroke-opacity:1;"/>
<path class="atom-3" d="M 42.0 53.3 Q 42.0 50.9, 43.2 49.5 Q 44.4 48.2, 46.7 48.2 Q 48.9 48.2, 50.2 49.5 Q 51.4 50.9, 51.4 53.3 Q 51.4 55.8, 50.1 57.2 Q 48.9 58.6, 46.7 58.6 Q 44.5 58.6, 43.2 57.2 Q 42.0 55.8, 42.0 53.3 M 46.7 57.4 Q 48.2 57.4, 49.1 56.4 Q 49.9 55.4, 49.9 53.3 Q 49.9 51.3, 49.1 50.3 Q 48.2 49.3, 46.7 49.3 Q 45.1 49.3, 44.3 50.3 Q 43.5 51.3, 43.5 53.3 Q 43.5 55.4, 44.3 56.4 Q 45.1 57.4, 46.7 57.4 " fill="#FF0000"/>
<path class="atom-4" d="M 19.0 111.0 Q 19.0 108.6, 20.2 107.2 Q 21.4 105.8, 23.7 105.8 Q 25.9 105.8, 27.1 107.2 Q 28.3 108.6, 28.3 111.0 Q 28.3 113.5, 27.1 114.9 Q 25.9 116.3, 23.7 116.3 Q 21.4 116.3, 20.2 114.9 Q 19.0 113.5, 19.0 111.0 M 23.7 115.1 Q 25.2 115.1, 26.0 114.1 Q 26.9 113.0, 26.9 111.0 Q 26.9 109.0, 26.0 108.0 Q 25.2 107.0, 23.7 107.0 Q 22.1 107.0, 21.3 108.0 Q 20.4 109.0, 20.4 111.0 Q 20.4 113.1, 21.3 114.1 Q 22.1 115.1, 23.7 115.1 " fill="#FF0000"/>
<path class="atom-4" d="M 29.8 107.5 L 33.2 107.5 L 33.2 108.3 L 29.8 108.3 L 29.8 107.5 " fill="#FF0000"/>
<path class="atom-5" d="M 85.6 137.6 Q 85.6 135.2, 86.8 133.8 Q 88.0 132.4, 90.3 132.4 Q 92.5 132.4, 93.7 133.8 Q 94.9 135.2, 94.9 137.6 Q 94.9 140.1, 93.7 141.5 Q 92.5 142.9, 90.3 142.9 Q 88.0 142.9, 86.8 141.5 Q 85.6 140.1, 85.6 137.6 M 90.3 141.7 Q 91.8 141.7, 92.7 140.7 Q 93.5 139.6, 93.5 137.6 Q 93.5 135.6, 92.7 134.6 Q 91.8 133.6, 90.3 133.6 Q 88.7 133.6, 87.9 134.6 Q 87.1 135.6, 87.1 137.6 Q 87.1 139.7, 87.9 140.7 Q 88.7 141.7, 90.3 141.7 " fill="#FF0000"/>
<path class="atom-5" d="M 96.5 132.6 L 97.9 132.6 L 97.9 136.9 L 103.1 136.9 L 103.1 132.6 L 104.5 132.6 L 104.5 142.7 L 103.1 142.7 L 103.1 138.0 L 97.9 138.0 L 97.9 142.7 L 96.5 142.7 L 96.5 132.6 " fill="#FF0000"/>
<path class="atom-7" d="M 147.1 128.7 Q 147.1 126.3, 148.3 124.9 Q 149.5 123.5, 151.8 123.5 Q 154.0 123.5, 155.2 124.9 Q 156.4 126.3, 156.4 128.7 Q 156.4 131.2, 155.2 132.6 Q 154.0 134.0, 151.8 134.0 Q 149.5 134.0, 148.3 132.6 Q 147.1 131.2, 147.1 128.7 M 151.8 132.8 Q 153.3 132.8, 154.1 131.8 Q 155.0 130.7, 155.0 128.7 Q 155.0 126.7, 154.1 125.7 Q 153.3 124.7, 151.8 124.7 Q 150.2 124.7, 149.4 125.7 Q 148.5 126.7, 148.5 128.7 Q 148.5 130.8, 149.4 131.8 Q 150.2 132.8, 151.8 132.8 " fill="#FF0000"/>
<path class="atom-8" d="M 170.1 71.0 Q 170.1 68.6, 171.3 67.2 Q 172.5 65.9, 174.8 65.9 Q 177.0 65.9, 178.2 67.2 Q 179.4 68.6, 179.4 71.0 Q 179.4 73.5, 178.2 74.9 Q 177.0 76.3, 174.8 76.3 Q 172.5 76.3, 171.3 74.9 Q 170.1 73.5, 170.1 71.0 M 174.8 75.1 Q 176.3 75.1, 177.2 74.1 Q 178.0 73.1, 178.0 71.0 Q 178.0 69.0, 177.2 68.0 Q 176.3 67.0, 174.8 67.0 Q 173.2 67.0, 172.4 68.0 Q 171.6 69.0, 171.6 71.0 Q 171.6 73.1, 172.4 74.1 Q 173.2 75.1, 174.8 75.1 " fill="#FF0000"/>
<path class="atom-8" d="M 180.9 67.5 L 184.4 67.5 L 184.4 68.3 L 180.9 68.3 L 180.9 67.5 " fill="#FF0000"/>
<path class="atom-9" d="M 103.5 44.4 Q 103.5 42.0, 104.7 40.6 Q 105.9 39.3, 108.2 39.3 Q 110.4 39.3, 111.6 40.6 Q 112.8 42.0, 112.8 44.4 Q 112.8 46.9, 111.6 48.3 Q 110.4 49.7, 108.2 49.7 Q 105.9 49.7, 104.7 48.3 Q 103.5 46.9, 103.5 44.4 M 108.2 48.5 Q 109.7 48.5, 110.6 47.5 Q 111.4 46.5, 111.4 44.4 Q 111.4 42.4, 110.6 41.4 Q 109.7 40.4, 108.2 40.4 Q 106.6 40.4, 105.8 41.4 Q 104.9 42.4, 104.9 44.4 Q 104.9 46.5, 105.8 47.5 Q 106.6 48.5, 108.2 48.5 " fill="#FF0000"/>
<path class="atom-9" d="M 114.4 39.4 L 115.8 39.4 L 115.8 43.7 L 121.0 43.7 L 121.0 39.4 L 122.4 39.4 L 122.4 49.5 L 121.0 49.5 L 121.0 44.8 L 115.8 44.8 L 115.8 49.5 L 114.4 49.5 L 114.4 39.4 " fill="#FF0000"/>
<path class="note" d="M 114.2 88.4 Q 113.2 88.4, 112.8 87.7 Q 112.3 87.1, 112.3 85.8 Q 112.3 84.6, 112.8 83.9 Q 113.2 83.2, 114.2 83.2 Q 115.1 83.2, 115.6 83.9 Q 116.0 84.6, 116.0 85.8 Q 116.0 87.1, 115.6 87.7 Q 115.1 88.4, 114.2 88.4 M 114.2 87.9 Q 114.7 87.9, 115.0 87.3 Q 115.3 86.8, 115.3 85.8 Q 115.3 84.8, 115.0 84.3 Q 114.7 83.8, 114.2 83.8 Q 113.6 83.8, 113.3 84.3 Q 113.0 84.8, 113.0 85.8 Q 113.0 86.8, 113.3 87.3 Q 113.6 87.9, 114.2 87.9 " fill="#000000"/>
<path class="note" d="M 83.0 98.1 L 84.1 98.1 L 84.1 94.4 L 82.9 94.7 L 82.8 94.3 L 84.3 93.6 L 84.8 93.7 L 84.8 98.1 L 85.8 98.1 L 85.8 98.7 L 83.0 98.7 L 83.0 98.1 " fill="#000000"/>
<path class="note" d="M 51.0 93.2 Q 51.2 92.7, 51.6 92.4 Q 52.1 92.1, 52.7 92.1 Q 53.5 92.1, 53.9 92.6 Q 54.3 93.0, 54.3 93.7 Q 54.3 94.5, 53.8 95.2 Q 53.2 95.9, 52.1 96.7 L 54.4 96.7 L 54.4 97.3 L 51.0 97.3 L 51.0 96.8 Q 51.9 96.1, 52.5 95.6 Q 53.1 95.1, 53.3 94.7 Q 53.6 94.2, 53.6 93.7 Q 53.6 93.3, 53.4 93.0 Q 53.1 92.7, 52.7 92.7 Q 52.3 92.7, 52.0 92.9 Q 51.7 93.0, 51.5 93.4 L 51.0 93.2 " fill="#000000"/>
<path class="note" d="M 45.7 41.4 Q 46.2 41.5, 46.4 41.8 Q 46.7 42.1, 46.7 42.6 Q 46.7 43.1, 46.5 43.4 Q 46.3 43.7, 45.9 43.9 Q 45.5 44.1, 45.0 44.1 Q 44.4 44.1, 44.0 43.9 Q 43.6 43.7, 43.3 43.3 L 43.7 42.9 Q 44.0 43.3, 44.3 43.4 Q 44.5 43.5, 45.0 43.5 Q 45.4 43.5, 45.7 43.3 Q 46.0 43.0, 46.0 42.6 Q 46.0 42.1, 45.7 41.9 Q 45.4 41.7, 44.8 41.7 L 44.4 41.7 L 44.4 41.1 L 44.7 41.1 Q 45.3 41.1, 45.6 40.9 Q 45.9 40.6, 45.9 40.2 Q 45.9 39.9, 45.6 39.7 Q 45.4 39.5, 45.0 39.5 Q 44.5 39.5, 44.3 39.6 Q 44.0 39.8, 43.8 40.2 L 43.3 39.9 Q 43.5 39.5, 43.9 39.2 Q 44.4 38.9, 45.0 38.9 Q 45.7 38.9, 46.1 39.2 Q 46.6 39.6, 46.6 40.2 Q 46.6 40.6, 46.4 40.9 Q 46.1 41.2, 45.7 41.4 " fill="#000000"/>
<path class="note" d="M 15.6 119.2 L 16.2 119.2 L 16.2 119.8 L 15.6 119.8 L 15.6 120.9 L 14.9 120.9 L 14.9 119.8 L 12.3 119.8 L 12.3 119.3 L 14.5 115.8 L 15.6 115.8 L 15.6 119.2 M 13.2 119.2 L 14.9 119.2 L 14.9 116.3 L 13.2 119.2 " fill="#000000"/>
<path class="note" d="M 92.1 148.8 Q 92.6 148.8, 92.9 149.0 Q 93.3 149.1, 93.5 149.5 Q 93.7 149.9, 93.7 150.3 Q 93.7 150.9, 93.5 151.2 Q 93.2 151.6, 92.8 151.8 Q 92.4 152.0, 91.9 152.0 Q 91.4 152.0, 91.0 151.8 Q 90.6 151.7, 90.3 151.3 L 90.7 150.9 Q 90.9 151.1, 91.3 151.3 Q 91.6 151.4, 91.9 151.4 Q 92.4 151.4, 92.7 151.1 Q 93.0 150.9, 93.0 150.4 Q 93.0 149.8, 92.7 149.6 Q 92.4 149.3, 91.9 149.3 Q 91.4 149.3, 90.9 149.5 L 90.5 149.3 L 90.8 146.9 L 93.4 146.9 L 93.3 147.4 L 91.4 147.4 L 91.2 148.9 Q 91.7 148.8, 92.1 148.8 " fill="#000000"/>
<path class="note" d="M 146.0 86.7 Q 146.4 86.7, 146.8 86.9 Q 147.1 87.1, 147.3 87.4 Q 147.5 87.8, 147.5 88.2 Q 147.5 88.7, 147.3 89.1 Q 147.1 89.5, 146.7 89.7 Q 146.3 89.9, 145.8 89.9 Q 144.9 89.9, 144.4 89.3 Q 144.0 88.7, 144.0 87.4 Q 144.0 86.1, 144.6 85.4 Q 145.1 84.7, 146.2 84.7 Q 146.5 84.7, 146.8 84.8 Q 147.1 84.8, 147.3 85.0 L 147.0 85.5 Q 146.7 85.3, 146.2 85.3 Q 145.5 85.3, 145.1 85.7 Q 144.8 86.2, 144.7 87.2 Q 145.0 86.9, 145.3 86.8 Q 145.6 86.7, 146.0 86.7 M 145.8 89.3 Q 146.1 89.3, 146.3 89.2 Q 146.5 89.0, 146.7 88.8 Q 146.8 88.5, 146.8 88.2 Q 146.8 87.8, 146.6 87.5 Q 146.3 87.2, 145.9 87.2 Q 145.5 87.2, 145.2 87.4 Q 144.9 87.5, 144.7 87.7 Q 144.8 88.5, 145.0 88.9 Q 145.3 89.3, 145.8 89.3 " fill="#000000"/>
<path class="note" d="M 154.4 138.5 L 151.8 138.5 L 151.8 138.0 L 155.2 138.0 L 155.2 138.5 L 153.1 143.0 L 152.4 143.0 L 154.4 138.5 " fill="#000000"/>
<path class="note" d="M 186.7 75.3 Q 187.1 75.5, 187.4 75.8 Q 187.7 76.1, 187.7 76.6 Q 187.7 77.0, 187.5 77.4 Q 187.2 77.7, 186.8 77.9 Q 186.4 78.1, 185.9 78.1 Q 185.1 78.1, 184.6 77.7 Q 184.1 77.3, 184.1 76.6 Q 184.1 76.2, 184.3 75.9 Q 184.5 75.6, 185.0 75.3 Q 184.6 75.1, 184.5 74.9 Q 184.3 74.6, 184.3 74.2 Q 184.3 73.6, 184.7 73.2 Q 185.1 72.9, 185.9 72.9 Q 186.6 72.9, 187.1 73.2 Q 187.5 73.6, 187.5 74.2 Q 187.5 74.5, 187.3 74.8 Q 187.1 75.1, 186.7 75.3 M 185.9 73.4 Q 185.5 73.4, 185.2 73.6 Q 185.0 73.8, 185.0 74.2 Q 185.0 74.4, 185.2 74.6 Q 185.3 74.8, 185.5 74.9 Q 185.8 75.0, 186.2 75.1 Q 186.5 74.9, 186.6 74.7 Q 186.8 74.4, 186.8 74.2 Q 186.8 73.8, 186.5 73.6 Q 186.3 73.4, 185.9 73.4 M 185.9 77.5 Q 186.4 77.5, 186.7 77.3 Q 187.0 77.0, 187.0 76.6 Q 187.0 76.3, 186.8 76.1 Q 186.7 76.0, 186.4 75.9 Q 186.2 75.8, 185.8 75.6 L 185.5 75.5 Q 185.1 75.8, 185.0 76.0 Q 184.8 76.3, 184.8 76.6 Q 184.8 77.0, 185.1 77.3 Q 185.4 77.5, 185.9 77.5 " fill="#000000"/>
<path class="note" d="M 106.4 30.0 Q 107.3 30.0, 107.8 30.6 Q 108.2 31.2, 108.2 32.4 Q 108.2 33.8, 107.7 34.5 Q 107.1 35.2, 106.0 35.2 Q 105.7 35.2, 105.4 35.1 Q 105.2 35.0, 104.9 34.9 L 105.2 34.4 Q 105.6 34.6, 106.0 34.6 Q 106.7 34.6, 107.1 34.2 Q 107.5 33.7, 107.5 32.7 Q 107.2 33.0, 106.9 33.1 Q 106.6 33.2, 106.2 33.2 Q 105.8 33.2, 105.4 33.0 Q 105.1 32.8, 104.9 32.5 Q 104.7 32.1, 104.7 31.7 Q 104.7 31.2, 104.9 30.8 Q 105.1 30.4, 105.5 30.2 Q 105.9 30.0, 106.4 30.0 M 105.4 31.7 Q 105.4 32.1, 105.7 32.4 Q 105.9 32.7, 106.4 32.7 Q 106.7 32.7, 107.0 32.5 Q 107.3 32.4, 107.5 32.2 Q 107.5 31.3, 107.2 31.0 Q 106.9 30.6, 106.4 30.6 Q 106.1 30.6, 105.9 30.7 Q 105.7 30.9, 105.5 31.1 Q 105.4 31.4, 105.4 31.7 " fill="#000000"/>
<path class="CIP_Code" d="M 98.5 76.3 Q 98.5 75.2, 98.8 74.4 Q 99.1 73.5, 99.7 72.6 L 100.1 72.9 Q 99.6 73.7, 99.4 74.5 Q 99.1 75.3, 99.1 76.3 Q 99.1 77.2, 99.4 78.0 Q 99.6 78.7, 100.1 79.6 L 99.7 79.9 Q 99.1 79.0, 98.8 78.1 Q 98.5 77.3, 98.5 76.3 " fill="#000000"/>
<path class="CIP_Code" d="M 103.2 78.3 L 102.0 76.2 L 102.0 76.2 L 101.2 76.2 L 101.2 78.3 L 100.5 78.3 L 100.5 73.2 L 102.0 73.2 Q 102.8 73.2, 103.3 73.6 Q 103.7 74.0, 103.7 74.7 Q 103.7 75.2, 103.4 75.6 Q 103.2 76.0, 102.7 76.1 L 104.0 78.3 L 103.2 78.3 M 101.2 75.6 L 102.0 75.6 Q 102.5 75.6, 102.7 75.4 Q 103.0 75.2, 103.0 74.7 Q 103.0 74.3, 102.7 74.0 Q 102.5 73.8, 102.0 73.8 L 101.2 73.8 L 101.2 75.6 " fill="#000000"/>
<path class="CIP_Code" d="M 105.9 76.3 Q 105.9 77.3, 105.6 78.1 Q 105.3 79.0, 104.8 79.9 L 104.4 79.6 Q 104.8 78.7, 105.0 78.0 Q 105.3 77.2, 105.3 76.3 Q 105.3 75.3, 105.0 74.5 Q 104.8 73.7, 104.4 72.9 L 104.8 72.6 Q 105.3 73.5, 105.6 74.4 Q 105.9 75.2, 105.9 76.3 " fill="#000000"/>
<path class="CIP_Code" d="M 93.2 101.2 Q 93.2 100.1, 93.5 99.3 Q 93.8 98.5, 94.4 97.5 L 94.8 97.8 Q 94.4 98.6, 94.1 99.4 Q 93.9 100.2, 93.9 101.2 Q 93.9 102.1, 94.1 102.9 Q 94.4 103.7, 94.8 104.5 L 94.4 104.8 Q 93.8 103.9, 93.5 103.1 Q 93.2 102.2, 93.2 101.2 " fill="#000000"/>
<path class="CIP_Code" d="M 98.0 103.2 L 96.7 101.1 L 96.7 101.1 L 95.9 101.1 L 95.9 103.2 L 95.2 103.2 L 95.2 98.1 L 96.7 98.1 Q 97.6 98.1, 98.0 98.5 Q 98.5 98.9, 98.5 99.6 Q 98.5 100.2, 98.2 100.5 Q 97.9 100.9, 97.4 101.0 L 98.7 103.2 L 98.0 103.2 M 95.9 100.6 L 96.7 100.6 Q 97.2 100.6, 97.5 100.3 Q 97.8 100.1, 97.8 99.6 Q 97.8 99.2, 97.5 98.9 Q 97.2 98.7, 96.7 98.7 L 95.9 98.7 L 95.9 100.6 " fill="#000000"/>
<path class="CIP_Code" d="M 100.7 101.2 Q 100.7 102.2, 100.4 103.1 Q 100.1 103.9, 99.5 104.8 L 99.1 104.5 Q 99.6 103.7, 99.8 102.9 Q 100.0 102.1, 100.0 101.2 Q 100.0 100.2, 99.8 99.4 Q 99.6 98.6, 99.1 97.8 L 99.5 97.5 Q 100.1 98.5, 100.4 99.3 Q 100.7 100.1, 100.7 101.2 " fill="#000000"/>
<path class="legend" d="M 10.0 180.2 L 14.9 180.2 L 14.9 181.1 L 11.1 181.1 L 11.1 183.6 L 14.5 183.6 L 14.5 184.6 L 11.1 184.6 L 11.1 188.4 L 10.0 188.4 L 10.0 180.2 " fill="#000000"/>
<path class="legend" d="M 15.7 180.2 L 20.6 180.2 L 20.6 181.1 L 16.8 181.1 L 16.8 183.6 L 20.2 183.6 L 20.2 184.6 L 16.8 184.6 L 16.8 187.4 L 20.7 187.4 L 20.7 188.4 L 15.7 188.4 L 15.7 180.2 " fill="#000000"/>
<path class="legend" d="M 32.0 180.2 L 33.1 180.2 L 30.9 188.4 L 29.3 188.4 L 27.5 181.6 L 25.7 188.4 L 24.0 188.4 L 21.8 180.2 L 22.9 180.2 L 24.9 187.4 L 26.8 180.2 L 28.2 180.2 L 30.1 187.4 L 32.0 180.2 " fill="#000000"/>
<path class="legend" d="M 34.0 189.1 Q 34.0 189.2, 34.5 188.9 Q 35.0 188.6, 35.4 188.1 Q 35.8 187.6, 35.8 187.0 L 35.8 181.1 L 34.2 181.1 L 34.2 180.2 L 36.9 180.2 L 36.9 187.0 Q 36.9 187.9, 36.4 188.6 Q 35.8 189.3, 35.2 189.7 Q 34.5 190.0, 34.5 190.0 L 34.0 189.1 " fill="#000000"/>
<path class="legend" d="M 40.9 180.2 Q 42.3 180.2, 43.0 180.8 Q 43.7 181.4, 43.7 182.6 Q 43.7 183.7, 43.0 184.4 Q 42.3 185.0, 40.9 185.0 L 39.6 185.0 L 39.6 188.4 L 38.5 188.4 L 38.5 180.2 L 40.9 180.2 M 40.9 184.1 Q 41.7 184.1, 42.1 183.7 Q 42.6 183.3, 42.6 182.6 Q 42.6 181.9, 42.1 181.5 Q 41.7 181.1, 40.9 181.1 L 39.6 181.1 L 39.6 184.1 L 40.9 184.1 " fill="#000000"/>
<path class="legend" d="M 44.8 187.5 L 49.0 181.1 L 45.0 181.1 L 45.0 180.2 L 50.3 180.2 L 50.3 181.0 L 46.2 187.4 L 50.3 187.4 L 50.3 188.4 L 44.8 188.4 L 44.8 187.5 " fill="#000000"/>
<path class="legend" d="M 51.4 180.2 L 52.5 180.2 L 52.5 188.4 L 51.4 188.4 L 51.4 180.2 " fill="#000000"/>
<path class="legend" d="M 54.1 180.2 L 59.0 180.2 L 59.0 181.1 L 55.2 181.1 L 55.2 183.6 L 58.6 183.6 L 58.6 184.6 L 55.2 184.6 L 55.2 187.4 L 59.1 187.4 L 59.1 188.4 L 54.1 188.4 L 54.1 180.2 " fill="#000000"/>
<path class="legend" d="M 70.4 180.2 L 71.5 180.2 L 69.3 188.4 L 67.7 188.4 L 65.9 181.6 L 64.1 188.4 L 62.4 188.4 L 60.2 180.2 L 61.3 180.2 L 63.3 187.4 L 65.2 180.2 L 66.6 180.2 L 68.5 187.4 L 70.4 180.2 " fill="#000000"/>
<path class="legend" d="M 72.4 184.3 Q 72.4 182.3, 73.4 181.2 Q 74.4 180.1, 76.2 180.1 Q 78.0 180.1, 79.0 181.2 Q 79.9 182.3, 79.9 184.3 Q 79.9 186.3, 79.0 187.4 Q 78.0 188.5, 76.2 188.5 Q 74.4 188.5, 73.4 187.4 Q 72.4 186.3, 72.4 184.3 M 76.2 187.6 Q 77.4 187.6, 78.1 186.7 Q 78.8 185.9, 78.8 184.3 Q 78.8 182.7, 78.1 181.8 Q 77.4 181.0, 76.2 181.0 Q 74.9 181.0, 74.2 181.8 Q 73.6 182.6, 73.6 184.3 Q 73.6 185.9, 74.2 186.7 Q 74.9 187.6, 76.2 187.6 " fill="#000000"/>
<path class="legend" d="M 81.1 180.2 L 82.2 180.2 L 82.2 188.4 L 81.1 188.4 L 81.1 180.2 M 85.6 180.2 L 87.1 180.2 L 83.9 183.9 L 87.4 188.4 L 85.9 188.4 L 82.4 184.0 L 85.6 180.2 " fill="#000000"/>
<path class="legend" d="M 92.5 188.4 L 90.5 185.0 L 90.5 185.0 L 89.1 185.0 L 89.1 188.4 L 88.0 188.4 L 88.0 180.2 L 90.5 180.2 Q 91.9 180.2, 92.6 180.8 Q 93.3 181.4, 93.3 182.6 Q 93.3 183.5, 92.8 184.1 Q 92.4 184.6, 91.6 184.9 L 93.7 188.4 L 92.5 188.4 M 89.1 184.1 L 90.5 184.1 Q 91.3 184.1, 91.7 183.7 Q 92.1 183.3, 92.1 182.6 Q 92.1 181.9, 91.7 181.5 Q 91.3 181.1, 90.5 181.1 L 89.1 181.1 L 89.1 184.1 " fill="#000000"/>
<path class="legend" d="M 98.5 184.1 Q 99.3 184.3, 99.7 184.8 Q 100.1 185.3, 100.1 186.0 Q 100.1 187.1, 99.3 187.7 Q 98.6 188.4, 97.3 188.4 L 94.5 188.4 L 94.5 180.2 L 96.9 180.2 Q 98.3 180.2, 99.0 180.8 Q 99.7 181.3, 99.7 182.4 Q 99.7 183.6, 98.5 184.1 M 95.6 181.1 L 95.6 183.7 L 96.9 183.7 Q 97.7 183.7, 98.2 183.4 Q 98.6 183.0, 98.6 182.4 Q 98.6 181.1, 96.9 181.1 L 95.6 181.1 M 97.3 187.5 Q 98.1 187.5, 98.5 187.1 Q 98.9 186.7, 98.9 186.0 Q 98.9 185.3, 98.4 185.0 Q 98.0 184.6, 97.1 184.6 L 95.6 184.6 L 95.6 187.5 L 97.3 187.5 " fill="#000000"/>
<path class="legend" d="M 101.2 180.2 L 106.0 180.2 L 106.0 181.1 L 102.3 181.1 L 102.3 183.6 L 105.7 183.6 L 105.7 184.6 L 102.3 184.6 L 102.3 187.4 L 106.2 187.4 L 106.2 188.4 L 101.2 188.4 L 101.2 180.2 " fill="#000000"/>
<path class="legend" d="M 107.3 184.2 L 111.6 184.2 L 111.6 185.2 L 107.3 185.2 L 107.3 184.2 " fill="#000000"/>
<path class="legend" d="M 112.7 189.1 Q 112.7 189.2, 113.2 188.9 Q 113.7 188.6, 114.1 188.1 Q 114.5 187.6, 114.5 187.0 L 114.5 181.1 L 112.9 181.1 L 112.9 180.2 L 115.6 180.2 L 115.6 187.0 Q 115.6 187.9, 115.1 188.6 Q 114.5 189.3, 113.8 189.7 Q 113.2 190.0, 113.2 190.0 L 112.7 189.1 " fill="#000000"/>
<path class="legend" d="M 117.2 184.3 Q 117.2 182.2, 118.1 181.2 Q 119.1 180.1, 120.9 180.1 Q 122.6 180.1, 123.5 181.3 L 122.7 181.9 Q 122.1 181.0, 120.9 181.0 Q 119.7 181.0, 119.0 181.9 Q 118.4 182.7, 118.4 184.3 Q 118.4 185.9, 119.0 186.7 Q 119.7 187.6, 121.0 187.6 Q 121.9 187.6, 123.0 187.0 L 123.3 187.9 Q 122.9 188.2, 122.2 188.3 Q 121.6 188.5, 120.9 188.5 Q 119.1 188.5, 118.1 187.4 Q 117.2 186.3, 117.2 184.3 " fill="#000000"/>
<path class="legend" d="M 127.2 184.9 L 124.5 180.2 L 125.7 180.2 L 127.8 183.9 L 129.8 180.2 L 131.0 180.2 L 128.3 184.9 L 128.3 188.4 L 127.2 188.4 L 127.2 184.9 " fill="#000000"/>
<path class="legend" d="M 137.7 188.4 L 136.8 186.0 L 133.6 186.0 L 132.7 188.4 L 131.6 188.4 L 134.5 180.2 L 135.8 180.2 L 138.7 188.4 L 137.7 188.4 M 133.9 185.0 L 136.5 185.0 L 135.2 181.3 L 133.9 185.0 " fill="#000000"/>
<path class="legend" d="M 142.2 184.9 L 139.4 180.2 L 140.7 180.2 L 142.7 183.9 L 144.8 180.2 L 146.0 180.2 L 143.3 184.9 L 143.3 188.4 L 142.2 188.4 L 142.2 184.9 " fill="#000000"/>
<path class="legend" d="M 146.6 180.2 L 147.7 180.2 L 147.7 183.7 L 151.9 183.7 L 151.9 180.2 L 153.0 180.2 L 153.0 188.4 L 151.9 188.4 L 151.9 184.6 L 147.7 184.6 L 147.7 188.4 L 146.6 188.4 L 146.6 180.2 " fill="#000000"/>
<path class="legend" d="M 154.5 189.1 Q 154.5 189.2, 155.0 188.9 Q 155.5 188.6, 155.9 188.1 Q 156.4 187.6, 156.4 187.0 L 156.4 181.1 L 154.7 181.1 L 154.7 180.2 L 157.4 180.2 L 157.4 187.0 Q 157.4 187.9, 156.9 188.6 Q 156.4 189.3, 155.7 189.7 Q 155.0 190.0, 155.0 190.0 L 154.5 189.1 " fill="#000000"/>
<path class="legend" d="M 159.0 187.5 L 163.1 181.1 L 159.1 181.1 L 159.1 180.2 L 164.5 180.2 L 164.5 181.0 L 160.4 187.4 L 164.5 187.4 L 164.5 188.4 L 159.0 188.4 L 159.0 187.5 " fill="#000000"/>
<path class="legend" d="M 165.9 187.1 Q 166.0 187.1, 166.4 187.3 Q 166.7 187.5, 167.2 187.6 Q 167.6 187.7, 168.0 187.7 Q 168.8 187.7, 169.2 187.3 Q 169.7 186.9, 169.7 186.3 Q 169.7 185.8, 169.5 185.5 Q 169.2 185.2, 168.9 185.1 Q 168.5 184.9, 168.0 184.8 Q 167.2 184.5, 166.8 184.3 Q 166.4 184.1, 166.1 183.7 Q 165.8 183.3, 165.8 182.5 Q 165.8 181.5, 166.4 180.8 Q 167.2 180.2, 168.5 180.2 Q 169.5 180.2, 170.6 180.7 L 170.3 181.6 Q 169.3 181.1, 168.6 181.1 Q 167.8 181.1, 167.3 181.5 Q 166.9 181.8, 166.9 182.4 Q 166.9 182.8, 167.1 183.1 Q 167.4 183.3, 167.7 183.5 Q 168.0 183.6, 168.6 183.8 Q 169.3 184.1, 169.8 184.3 Q 170.2 184.5, 170.5 185.0 Q 170.8 185.5, 170.8 186.3 Q 170.8 187.4, 170.1 188.0 Q 169.3 188.6, 168.1 188.6 Q 167.3 188.6, 166.8 188.4 Q 166.2 188.3, 165.6 188.0 L 165.9 187.1 " fill="#000000"/>
<path class="legend" d="M 178.0 188.4 L 177.1 186.0 L 173.9 186.0 L 173.1 188.4 L 171.9 188.4 L 174.8 180.2 L 176.1 180.2 L 179.1 188.4 L 178.0 188.4 M 174.2 185.0 L 176.8 185.0 L 175.5 181.3 L 174.2 185.0 " fill="#000000"/>
<path class="legend" d="M 179.8 184.2 L 184.0 184.2 L 184.0 185.2 L 179.8 185.2 L 179.8 184.2 " fill="#000000"/>
<path class="legend" d="M 185.2 180.2 L 186.3 180.2 L 186.3 187.4 L 190.0 187.4 L 190.0 188.4 L 185.2 188.4 L 185.2 180.2 " fill="#000000"/>
<path class="bond-0 atom-0 atom-1" d="M 314.3,79.9 L 286.2,102.1" style="fill:none;fill-rule:evenodd;stroke:#000000;stroke-width:2.0px;stroke-linecap:butt;stroke-linejoin:miter;stroke-opacity:1"/>
<path class="bond-1 atom-1 atom-2" d="M 286.2,102.1 L 252.9,88.8" style="fill:none;fill-rule:evenodd;stroke:#000000;stroke-width:2.0px;stroke-linecap:butt;stroke-linejoin:miter;stroke-opacity:1"/>
<path class="bond-2 atom-2 atom-3" d="M 255.7,89.9 L 253.5,74.7" style="fill:none;fill-rule:evenodd;stroke:#000000;stroke-width:2.0px;stroke-linecap:butt;stroke-linejoin:miter;stroke-opacity:1"/>
<path class="bond-2 atom-2 atom-3" d="M 253.5,74.7 L 251.3,59.4" style="fill:none;fill-rule:evenodd;stroke:#FF0000;stroke-width:2.0px;stroke-linecap:butt;stroke-linejoin:miter;stroke-opacity:1"/>
<path class="bond-2 atom-2 atom-3" d="M 250.4,90.7 L 248.2,75.4" style="fill:none;fill-rule:evenodd;stroke:#000000;stroke-width:2.0px;stroke-linecap:butt;stroke-linejoin:miter;stroke-opacity:1"/>
<path class="bond-2 atom-2 atom-3" d="M 248.2,75.4 L 246.0,60.2" style="fill:none;fill-rule:evenodd;stroke:#FF0000;stroke-width:2.0px;stroke-linecap:butt;stroke-linejoin:miter;stroke-opacity:1"/>
<path class="bond-3 atom-2 atom-4" d="M 252.9,88.8 L 241.7,97.6" style="fill:none;fill-rule:evenodd;stroke:#000000;stroke-width:2.0px;stroke-linecap:butt;stroke-linejoin:miter;stroke-opacity:1"/>
<path class="bond-3 atom-2 atom-4" d="M 241.7,97.6 L 230.5,106.4" style="fill:none;fill-rule:evenodd;stroke:#FF0000;stroke-width:2.0px;stroke-linecap:butt;stroke-linejoin:miter;stroke-opacity:1"/>
<path class="bond-4 atom-1 atom-5" d="M 286.2,102.1 L 289.5,115.9 L 286.9,116.3 Z" style="fill:#000000;fill-rule:evenodd;fill-opacity:1;stroke:#000000;stroke-width:0.5px;stroke-linecap:butt;stroke-linejoin:miter;stroke-miterlimit:10;stroke-opacity:1;"/>
<path class="bond-4 atom-1 atom-5" d="M 289.5,115.9 L 287.6,130.5 L 292.9,129.7 Z" style="fill:#FF0000;fill-rule:evenodd;fill-opacity:1;stroke:#FF0000;stroke-width:0.5px;stroke-linecap:butt;stroke-linejoin:miter;stroke-miterlimit:10;stroke-opacity:1;"/>
<path class="bond-4 atom-1 atom-5" d="M 289.5,115.9 L 286.9,116.3 L 287.6,130.5 Z" style="fill:#FF0000;fill-rule:evenodd;fill-opacity:1;stroke:#FF0000;stroke-width:0.5px;stroke-linecap:butt;stroke-linejoin:miter;stroke-miterlimit:10;stroke-opacity:1;"/>
<path class="bond-5 atom-0 atom-6" d="M 314.3,79.9 L 347.6,93.2" style="fill:none;fill-rule:evenodd;stroke:#000000;stroke-width:2.0px;stroke-linecap:butt;stroke-linejoin:miter;stroke-opacity:1"/>
<path class="bond-6 atom-6 atom-7" d="M 344.8,92.0 L 347.0,107.4" style="fill:none;fill-rule:evenodd;stroke:#000000;stroke-width:2.0px;stroke-linecap:butt;stroke-linejoin:miter;stroke-opacity:1"/>
<path class="bond-6 atom-6 atom-7" d="M 347.0,107.4 L 349.2,122.7" style="fill:none;fill-rule:evenodd;stroke:#FF0000;stroke-width:2.0px;stroke-linecap:butt;stroke-linejoin:miter;stroke-opacity:1"/>
<path class="bond-6 atom-6 atom-7" d="M 350.1,91.3 L 352.3,106.6" style="fill:none;fill-rule:evenodd;stroke:#000000;stroke-width:2.0px;stroke-linecap:butt;stroke-linejoin:miter;stroke-opacity:1"/>
<path class="bond-6 atom-6 atom-7" d="M 352.3,106.6 L 354.5,122.0" style="fill:none;fill-rule:evenodd;stroke:#FF0000;stroke-width:2.0px;stroke-linecap:butt;stroke-linejoin:miter;stroke-opacity:1"/>
<path class="bond-7 atom-6 atom-8" d="M 347.6,93.2 L 358.8,84.4" style="fill:none;fill-rule:evenodd;stroke:#000000;stroke-width:2.0px;stroke-linecap:butt;stroke-linejoin:miter;stroke-opacity:1"/>
<path class="bond-7 atom-6 atom-8" d="M 358.8,84.4 L 370.0,75.6" style="fill:none;fill-rule:evenodd;stroke:#FF0000;stroke-width:2.0px;stroke-linecap:butt;stroke-linejoin:miter;stroke-opacity:1"/>
<path class="bond-8 atom-0 atom-9" d="M 314.3,79.9 L 311.0,66.2 L 313.7,65.8 Z" style="fill:#000000;fill-rule:evenodd;fill-opacity:1;stroke:#000000;stroke-width:0.5px;stroke-linecap:butt;stroke-linejoin:miter;stroke-miterlimit:10;stroke-opacity:1;"/>
<path class="bond-8 atom-0 atom-9" d="M 311.0,66.2 L 313.0,51.7 L 307.6,52.4 Z" style="fill:#FF0000;fill-rule:evenodd;fill-opacity:1;stroke:#FF0000;stroke-width:0.5px;stroke-linecap:butt;stroke-linejoin:miter;stroke-miterlimit:10;stroke-opacity:1;"/>
<path class="bond-8 atom-0 atom-9" d="M 311.0,66.2 L 313.7,65.8 L 313.0,51.7 Z" style="fill:#FF0000;fill-rule:evenodd;fill-opacity:1;stroke:#FF0000;stroke-width:0.5px;stroke-linecap:butt;stroke-linejoin:miter;stroke-miterlimit:10;stroke-opacity:1;"/>
<path d="M 312.9,81.0 L 314.3,79.9 L 316.0,80.6" style="fill:none;stroke:#000000;stroke-width:2.0px;stroke-linecap:butt;stroke-linejoin:miter;stroke-miterlimit:10;stroke-opacity:1;"/>
<path d="M 287.6,101.0 L 286.2,102.1 L 284.5,101.4" style="fill:none;stroke:#000000;stroke-width:2.0px;stroke-linecap:butt;stroke-linejoin:miter;stroke-miterlimit:10;stroke-opacity:1;"/>
<path d="M 254.5,89.5 L 252.9,88.8 L 252.3,89.2" style="fill:none;stroke:#000000;stroke-width:2.0px;stroke-linecap:butt;stroke-linejoin:miter;stroke-miterlimit:10;stroke-opacity:1;"/>
<path d="M 346.0,92.5 L 347.6,93.2 L 348.2,92.7" style="fill:none;stroke:#000000;stroke-width:2.0px;stroke-linecap:butt;stroke-linejoin:miter;stroke-miterlimit:10;stroke-opacity:1;"/>
<path class="atom-3" d="M 243.1 53.3 Q 243.1 50.9, 244.3 49.5 Q 245.5 48.2, 247.7 48.2 Q 250.0 48.2, 251.2 49.5 Q 252.4 50.9, 252.4 53.3 Q 252.4 55.8, 251.2 57.2 Q 249.9 58.6, 247.7 58.6 Q 245.5 58.6, 244.3 57.2 Q 243.1 55.8, 243.1 53.3 M 247.7 57.4 Q 249.3 57.4, 250.1 56.4 Q 251.0 55.4, 251.0 53.3 Q 251.0 51.3, 250.1 50.3 Q 249.3 49.3, 247.7 49.3 Q 246.2 49.3, 245.3 50.3 Q 244.5 51.3, 244.5 53.3 Q 244.5 55.4, 245.3 56.4 Q 246.2 57.4, 247.7 57.4 " fill="#FF0000"/>
<path class="atom-4" d="M 210.0 106.0 L 211.4 106.0 L 211.4 110.3 L 216.6 110.3 L 216.6 106.0 L 217.9 106.0 L 217.9 116.1 L 216.6 116.1 L 216.6 111.4 L 211.4 111.4 L 211.4 116.1 L 210.0 116.1 L 210.0 106.0 " fill="#FF0000"/>
<path class="atom-4" d="M 220.0 111.0 Q 220.0 108.6, 221.2 107.2 Q 222.4 105.8, 224.7 105.8 Q 226.9 105.8, 228.1 107.2 Q 229.4 108.6, 229.4 111.0 Q 229.4 113.5, 228.1 114.9 Q 226.9 116.3, 224.7 116.3 Q 222.5 116.3, 221.2 114.9 Q 220.0 113.5, 220.0 111.0 M 224.7 115.1 Q 226.2 115.1, 227.1 114.1 Q 227.9 113.0, 227.9 111.0 Q 227.9 109.0, 227.1 108.0 Q 226.2 107.0, 224.7 107.0 Q 223.1 107.0, 222.3 108.0 Q 221.5 109.0, 221.5 111.0 Q 221.5 113.1, 222.3 114.1 Q 223.1 115.1, 224.7 115.1 " fill="#FF0000"/>
<path class="atom-5" d="M 286.6 137.6 Q 286.6 135.2, 287.8 133.8 Q 289.1 132.4, 291.3 132.4 Q 293.6 132.4, 294.8 133.8 Q 296.0 135.2, 296.0 137.6 Q 296.0 140.1, 294.7 141.5 Q 293.5 142.9, 291.3 142.9 Q 289.1 142.9, 287.8 141.5 Q 286.6 140.1, 286.6 137.6 M 291.3 141.7 Q 292.9 141.7, 293.7 140.7 Q 294.5 139.6, 294.5 137.6 Q 294.5 135.6, 293.7 134.6 Q 292.9 133.6, 291.3 133.6 Q 289.8 133.6, 288.9 134.6 Q 288.1 135.6, 288.1 137.6 Q 288.1 139.7, 288.9 140.7 Q 289.8 141.7, 291.3 141.7 " fill="#FF0000"/>
<path class="atom-5" d="M 297.5 132.6 L 298.9 132.6 L 298.9 136.9 L 304.1 136.9 L 304.1 132.6 L 305.5 132.6 L 305.5 142.7 L 304.1 142.7 L 304.1 138.0 L 298.9 138.0 L 298.9 142.7 L 297.5 142.7 L 297.5 132.6 " fill="#FF0000"/>
<path class="atom-7" d="M 348.1 128.7 Q 348.1 126.3, 349.3 124.9 Q 350.5 123.5, 352.8 123.5 Q 355.0 123.5, 356.2 124.9 Q 357.4 126.3, 357.4 128.7 Q 357.4 131.2, 356.2 132.6 Q 355.0 134.0, 352.8 134.0 Q 350.5 134.0, 349.3 132.6 Q 348.1 131.2, 348.1 128.7 M 352.8 132.8 Q 354.3 132.8, 355.2 131.8 Q 356.0 130.7, 356.0 128.7 Q 356.0 126.7, 355.2 125.7 Q 354.3 124.7, 352.8 124.7 Q 351.2 124.7, 350.4 125.7 Q 349.6 126.7, 349.6 128.7 Q 349.6 130.8, 350.4 131.8 Q 351.2 132.8, 352.8 132.8 " fill="#FF0000"/>
<path class="atom-8" d="M 371.1 71.0 Q 371.1 68.6, 372.4 67.2 Q 373.6 65.9, 375.8 65.9 Q 378.1 65.9, 379.3 67.2 Q 380.5 68.6, 380.5 71.0 Q 380.5 73.5, 379.3 74.9 Q 378.0 76.3, 375.8 76.3 Q 373.6 76.3, 372.4 74.9 Q 371.1 73.5, 371.1 71.0 M 375.8 75.1 Q 377.4 75.1, 378.2 74.1 Q 379.0 73.1, 379.0 71.0 Q 379.0 69.0, 378.2 68.0 Q 377.4 67.0, 375.8 67.0 Q 374.3 67.0, 373.4 68.0 Q 372.6 69.0, 372.6 71.0 Q 372.6 73.1, 373.4 74.1 Q 374.3 75.1, 375.8 75.1 " fill="#FF0000"/>
<path class="atom-8" d="M 382.1 66.0 L 383.4 66.0 L 383.4 70.3 L 388.6 70.3 L 388.6 66.0 L 390.0 66.0 L 390.0 76.1 L 388.6 76.1 L 388.6 71.4 L 383.4 71.4 L 383.4 76.1 L 382.1 76.1 L 382.1 66.0 " fill="#FF0000"/>
<path class="atom-9" d="M 304.5 44.4 Q 304.5 42.0, 305.7 40.6 Q 306.9 39.3, 309.2 39.3 Q 311.4 39.3, 312.7 40.6 Q 313.9 42.0, 313.9 44.4 Q 313.9 46.9, 312.6 48.3 Q 311.4 49.7, 309.2 49.7 Q 307.0 49.7, 305.7 48.3 Q 304.5 46.9, 304.5 44.4 M 309.2 48.5 Q 310.7 48.5, 311.6 47.5 Q 312.4 46.5, 312.4 44.4 Q 312.4 42.4, 311.6 41.4 Q 310.7 40.4, 309.2 40.4 Q 307.6 40.4, 306.8 41.4 Q 306.0 42.4, 306.0 44.4 Q 306.0 46.5, 306.8 47.5 Q 307.6 48.5, 309.2 48.5 " fill="#FF0000"/>
<path class="atom-9" d="M 315.4 39.4 L 316.8 39.4 L 316.8 43.7 L 322.0 43.7 L 322.0 39.4 L 323.4 39.4 L 323.4 49.5 L 322.0 49.5 L 322.0 44.8 L 316.8 44.8 L 316.8 49.5 L 315.4 49.5 L 315.4 39.4 " fill="#FF0000"/>
<path class="note" d="M 315.2 88.4 Q 314.3 88.4, 313.8 87.7 Q 313.3 87.1, 313.3 85.8 Q 313.3 84.6, 313.8 83.9 Q 314.3 83.2, 315.2 83.2 Q 316.1 83.2, 316.6 83.9 Q 317.0 84.6, 317.0 85.8 Q 317.0 87.1, 316.6 87.7 Q 316.1 88.4, 315.2 88.4 M 315.2 87.9 Q 315.7 87.9, 316.0 87.3 Q 316.3 86.8, 316.3 85.8 Q 316.3 84.8, 316.0 84.3 Q 315.7 83.8, 315.2 83.8 Q 314.6 83.8, 314.3 84.3 Q 314.1 84.8, 314.1 85.8 Q 314.1 86.8, 314.3 87.3 Q 314.6 87.9, 315.2 87.9 " fill="#000000"/>
<path class="note" d="M 284.1 98.1 L 285.2 98.1 L 285.2 94.4 L 283.9 94.7 L 283.8 94.3 L 285.3 93.6 L 285.8 93.7 L 285.8 98.1 L 286.8 98.1 L 286.8 98.7 L 284.1 98.7 L 284.1 98.1 " fill="#000000"/>
<path class="note" d="M 252.0 93.2 Q 252.2 92.7, 252.7 92.4 Q 253.1 92.1, 253.7 92.1 Q 254.5 92.1, 254.9 92.6 Q 255.3 93.0, 255.3 93.7 Q 255.3 94.5, 254.8 95.2 Q 254.2 95.9, 253.1 96.7 L 255.4 96.7 L 255.4 97.3 L 252.0 97.3 L 252.0 96.8 Q 253.0 96.1, 253.5 95.6 Q 254.1 95.1, 254.4 94.7 Q 254.6 94.2, 254.6 93.7 Q 254.6 93.3, 254.4 93.0 Q 254.1 92.7, 253.7 92.7 Q 253.3 92.7, 253.0 92.9 Q 252.8 93.0, 252.6 93.4 L 252.0 93.2 " fill="#000000"/>
<path class="note" d="M 246.7 41.4 Q 247.2 41.5, 247.5 41.8 Q 247.7 42.1, 247.7 42.6 Q 247.7 43.1, 247.5 43.4 Q 247.3 43.7, 246.9 43.9 Q 246.5 44.1, 246.0 44.1 Q 245.4 44.1, 245.0 43.9 Q 244.6 43.7, 244.3 43.3 L 244.7 42.9 Q 245.0 43.3, 245.3 43.4 Q 245.6 43.5, 246.0 43.5 Q 246.4 43.5, 246.7 43.3 Q 247.0 43.0, 247.0 42.6 Q 247.0 42.1, 246.7 41.9 Q 246.4 41.7, 245.8 41.7 L 245.4 41.7 L 245.4 41.1 L 245.8 41.1 Q 246.3 41.1, 246.6 40.9 Q 246.9 40.6, 246.9 40.2 Q 246.9 39.9, 246.6 39.7 Q 246.4 39.5, 246.0 39.5 Q 245.6 39.5, 245.3 39.6 Q 245.0 39.8, 244.8 40.2 L 244.3 39.9 Q 244.5 39.5, 245.0 39.2 Q 245.4 38.9, 246.0 38.9 Q 246.7 38.9, 247.2 39.2 Q 247.6 39.6, 247.6 40.2 Q 247.6 40.6, 247.4 40.9 Q 247.2 41.2, 246.7 41.4 " fill="#000000"/>
<path class="note" d="M 224.3 99.9 L 224.9 99.9 L 224.9 100.5 L 224.3 100.5 L 224.3 101.7 L 223.7 101.7 L 223.7 100.5 L 221.0 100.5 L 221.0 100.1 L 223.2 96.6 L 224.3 96.6 L 224.3 99.9 M 221.9 99.9 L 223.7 99.9 L 223.7 97.1 L 221.9 99.9 " fill="#000000"/>
<path class="note" d="M 293.1 148.8 Q 293.6 148.8, 294.0 149.0 Q 294.3 149.1, 294.5 149.5 Q 294.7 149.9, 294.7 150.3 Q 294.7 150.9, 294.5 151.2 Q 294.2 151.6, 293.8 151.8 Q 293.4 152.0, 292.9 152.0 Q 292.5 152.0, 292.0 151.8 Q 291.6 151.7, 291.3 151.3 L 291.7 150.9 Q 292.0 151.1, 292.3 151.3 Q 292.6 151.4, 292.9 151.4 Q 293.4 151.4, 293.7 151.1 Q 294.0 150.9, 294.0 150.4 Q 294.0 149.8, 293.7 149.6 Q 293.4 149.3, 292.9 149.3 Q 292.5 149.3, 292.0 149.5 L 291.6 149.3 L 291.8 146.9 L 294.4 146.9 L 294.3 147.4 L 292.4 147.4 L 292.2 148.9 Q 292.7 148.8, 293.1 148.8 " fill="#000000"/>
<path class="note" d="M 347.0 86.7 Q 347.5 86.7, 347.8 86.9 Q 348.2 87.1, 348.4 87.4 Q 348.5 87.8, 348.5 88.2 Q 348.5 88.7, 348.3 89.1 Q 348.1 89.5, 347.7 89.7 Q 347.3 89.9, 346.8 89.9 Q 345.9 89.9, 345.5 89.3 Q 345.0 88.7, 345.0 87.4 Q 345.0 86.1, 345.6 85.4 Q 346.2 84.7, 347.2 84.7 Q 347.5 84.7, 347.8 84.8 Q 348.1 84.8, 348.3 85.0 L 348.1 85.5 Q 347.7 85.3, 347.2 85.3 Q 346.5 85.3, 346.2 85.7 Q 345.8 86.2, 345.7 87.2 Q 346.0 86.9, 346.3 86.8 Q 346.7 86.7, 347.0 86.7 M 346.8 89.3 Q 347.1 89.3, 347.3 89.2 Q 347.6 89.0, 347.7 88.8 Q 347.8 88.5, 347.8 88.2 Q 347.8 87.8, 347.6 87.5 Q 347.3 87.2, 346.9 87.2 Q 346.6 87.2, 346.3 87.4 Q 346.0 87.5, 345.7 87.7 Q 345.8 88.5, 346.0 88.9 Q 346.3 89.3, 346.8 89.3 " fill="#000000"/>
<path class="note" d="M 355.5 138.5 L 352.8 138.5 L 352.8 138.0 L 356.2 138.0 L 356.2 138.5 L 354.1 143.0 L 353.4 143.0 L 355.5 138.5 " fill="#000000"/>
<path class="note" d="M 378.3 82.7 Q 378.8 82.9, 379.1 83.2 Q 379.3 83.5, 379.3 84.0 Q 379.3 84.4, 379.1 84.8 Q 378.9 85.1, 378.5 85.3 Q 378.1 85.5, 377.6 85.5 Q 376.7 85.5, 376.2 85.1 Q 375.7 84.7, 375.7 84.0 Q 375.7 83.6, 375.9 83.3 Q 376.2 83.0, 376.6 82.7 Q 376.3 82.5, 376.1 82.3 Q 375.9 82.0, 375.9 81.6 Q 375.9 81.0, 376.3 80.6 Q 376.8 80.3, 377.5 80.3 Q 378.3 80.3, 378.7 80.6 Q 379.1 81.0, 379.1 81.6 Q 379.1 81.9, 378.9 82.2 Q 378.7 82.5, 378.3 82.7 M 377.5 80.8 Q 377.1 80.8, 376.9 81.0 Q 376.6 81.2, 376.6 81.6 Q 376.6 81.8, 376.8 82.0 Q 376.9 82.2, 377.2 82.3 Q 377.4 82.4, 377.8 82.5 Q 378.1 82.3, 378.3 82.1 Q 378.4 81.8, 378.4 81.6 Q 378.4 81.2, 378.2 81.0 Q 377.9 80.8, 377.5 80.8 M 377.6 84.9 Q 378.0 84.9, 378.3 84.7 Q 378.6 84.4, 378.6 84.0 Q 378.6 83.7, 378.4 83.5 Q 378.3 83.4, 378.1 83.3 Q 377.8 83.2, 377.4 83.0 L 377.1 82.9 Q 376.8 83.1, 376.6 83.4 Q 376.4 83.7, 376.4 84.0 Q 376.4 84.4, 376.7 84.7 Q 377.0 84.9, 377.6 84.9 " fill="#000000"/>
<path class="note" d="M 307.4 30.0 Q 308.3 30.0, 308.8 30.6 Q 309.2 31.2, 309.2 32.4 Q 309.2 33.8, 308.7 34.5 Q 308.1 35.2, 307.0 35.2 Q 306.7 35.2, 306.4 35.1 Q 306.2 35.0, 305.9 34.9 L 306.2 34.4 Q 306.6 34.6, 307.0 34.6 Q 307.7 34.6, 308.1 34.2 Q 308.5 33.7, 308.5 32.7 Q 308.3 33.0, 307.9 33.1 Q 307.6 33.2, 307.3 33.2 Q 306.8 33.2, 306.5 33.0 Q 306.1 32.8, 305.9 32.5 Q 305.7 32.1, 305.7 31.7 Q 305.7 31.2, 305.9 30.8 Q 306.2 30.4, 306.5 30.2 Q 306.9 30.0, 307.4 30.0 M 306.4 31.7 Q 306.4 32.1, 306.7 32.4 Q 306.9 32.7, 307.4 32.7 Q 307.7 32.7, 308.0 32.5 Q 308.3 32.4, 308.5 32.2 Q 308.5 31.3, 308.2 31.0 Q 308.0 30.6, 307.4 30.6 Q 307.2 30.6, 306.9 30.7 Q 306.7 30.9, 306.6 31.1 Q 306.4 31.4, 306.4 31.7 " fill="#000000"/>
<path class="CIP_Code" d="M 299.5 76.3 Q 299.5 75.2, 299.8 74.4 Q 300.1 73.5, 300.7 72.6 L 301.1 72.9 Q 300.6 73.7, 300.4 74.5 Q 300.2 75.3, 300.2 76.3 Q 300.2 77.2, 300.4 78.0 Q 300.6 78.7, 301.1 79.6 L 300.7 79.9 Q 300.1 79.0, 299.8 78.1 Q 299.5 77.3, 299.5 76.3 " fill="#000000"/>
<path class="CIP_Code" d="M 304.2 78.3 L 303.0 76.2 L 303.0 76.2 L 302.2 76.2 L 302.2 78.3 L 301.5 78.3 L 301.5 73.2 L 303.0 73.2 Q 303.9 73.2, 304.3 73.6 Q 304.7 74.0, 304.7 74.7 Q 304.7 75.2, 304.5 75.6 Q 304.2 76.0, 303.7 76.1 L 305.0 78.3 L 304.2 78.3 M 302.2 75.6 L 303.0 75.6 Q 303.5 75.6, 303.7 75.4 Q 304.0 75.2, 304.0 74.7 Q 304.0 74.3, 303.7 74.0 Q 303.5 73.8, 303.0 73.8 L 302.2 73.8 L 302.2 75.6 " fill="#000000"/>
<path class="CIP_Code" d="M 307.0 76.3 Q 307.0 77.3, 306.7 78.1 Q 306.4 79.0, 305.8 79.9 L 305.4 79.6 Q 305.8 78.7, 306.1 78.0 Q 306.3 77.2, 306.3 76.3 Q 306.3 75.3, 306.1 74.5 Q 305.8 73.7, 305.4 72.9 L 305.8 72.6 Q 306.4 73.5, 306.7 74.4 Q 307.0 75.2, 307.0 76.3 " fill="#000000"/>
<path class="CIP_Code" d="M 294.3 101.2 Q 294.3 100.1, 294.6 99.3 Q 294.9 98.5, 295.5 97.5 L 295.9 97.8 Q 295.4 98.6, 295.2 99.4 Q 294.9 100.2, 294.9 101.2 Q 294.9 102.1, 295.2 102.9 Q 295.4 103.7, 295.9 104.5 L 295.5 104.8 Q 294.9 103.9, 294.6 103.1 Q 294.3 102.2, 294.3 101.2 " fill="#000000"/>
<path class="CIP_Code" d="M 299.0 103.2 L 297.8 101.1 L 297.8 101.1 L 296.9 101.1 L 296.9 103.2 L 296.3 103.2 L 296.3 98.1 L 297.8 98.1 Q 298.6 98.1, 299.1 98.5 Q 299.5 98.9, 299.5 99.6 Q 299.5 100.2, 299.2 100.5 Q 299.0 100.9, 298.5 101.0 L 299.7 103.2 L 299.0 103.2 M 296.9 100.6 L 297.8 100.6 Q 298.2 100.6, 298.5 100.3 Q 298.8 100.1, 298.8 99.6 Q 298.8 99.2, 298.5 98.9 Q 298.3 98.7, 297.8 98.7 L 296.9 98.7 L 296.9 100.6 " fill="#000000"/>
<path class="CIP_Code" d="M 301.7 101.2 Q 301.7 102.2, 301.4 103.1 Q 301.1 103.9, 300.5 104.8 L 300.1 104.5 Q 300.6 103.7, 300.8 102.9 Q 301.1 102.1, 301.1 101.2 Q 301.1 100.2, 300.8 99.4 Q 300.6 98.6, 300.1 97.8 L 300.5 97.5 Q 301.1 98.5, 301.4 99.3 Q 301.7 100.1, 301.7 101.2 " fill="#000000"/>
<path class="legend" d="M 210.0 180.3 L 214.8 180.3 L 214.8 181.2 L 211.1 181.2 L 211.1 183.7 L 214.4 183.7 L 214.4 184.6 L 211.1 184.6 L 211.1 188.4 L 210.0 188.4 L 210.0 180.3 " fill="#000000"/>
<path class="legend" d="M 215.6 180.3 L 220.5 180.3 L 220.5 181.2 L 216.7 181.2 L 216.7 183.7 L 220.1 183.7 L 220.1 184.6 L 216.7 184.6 L 216.7 187.4 L 220.6 187.4 L 220.6 188.4 L 215.6 188.4 L 215.6 180.3 " fill="#000000"/>
<path class="legend" d="M 231.8 180.3 L 232.9 180.3 L 230.8 188.4 L 229.1 188.4 L 227.3 181.6 L 225.6 188.4 L 223.9 188.4 L 221.7 180.3 L 222.8 180.3 L 224.8 187.4 L 226.6 180.3 L 228.1 180.3 L 229.9 187.4 L 231.8 180.3 " fill="#000000"/>
<path class="legend" d="M 233.8 189.1 Q 233.8 189.2, 234.3 188.9 Q 234.8 188.6, 235.2 188.1 Q 235.6 187.6, 235.6 187.0 L 235.6 181.2 L 234.1 181.2 L 234.1 180.3 L 236.7 180.3 L 236.7 187.0 Q 236.7 187.9, 236.2 188.6 Q 235.6 189.3, 235.0 189.7 Q 234.3 190.0, 234.3 190.0 L 233.8 189.1 " fill="#000000"/>
<path class="legend" d="M 240.7 180.3 Q 242.1 180.3, 242.8 180.9 Q 243.5 181.5, 243.5 182.7 Q 243.5 183.8, 242.7 184.4 Q 242.0 185.1, 240.7 185.1 L 239.4 185.1 L 239.4 188.4 L 238.3 188.4 L 238.3 180.3 L 240.7 180.3 M 240.7 184.1 Q 241.5 184.1, 241.9 183.8 Q 242.3 183.4, 242.3 182.7 Q 242.3 181.9, 241.9 181.6 Q 241.5 181.2, 240.7 181.2 L 239.4 181.2 L 239.4 184.1 L 240.7 184.1 " fill="#000000"/>
<path class="legend" d="M 244.6 187.5 L 248.7 181.2 L 244.7 181.2 L 244.7 180.3 L 250.0 180.3 L 250.0 181.1 L 245.9 187.4 L 250.0 187.4 L 250.0 188.4 L 244.6 188.4 L 244.6 187.5 " fill="#000000"/>
<path class="legend" d="M 251.1 180.2 L 252.2 180.2 L 252.2 188.4 L 251.1 188.4 L 251.1 180.2 " fill="#000000"/>
<path class="legend" d="M 253.8 180.3 L 258.6 180.3 L 258.6 181.2 L 254.9 181.2 L 254.9 183.7 L 258.2 183.7 L 258.2 184.6 L 254.9 184.6 L 254.9 187.4 L 258.7 187.4 L 258.7 188.4 L 253.8 188.4 L 253.8 180.3 " fill="#000000"/>
<path class="legend" d="M 270.0 180.3 L 271.1 180.3 L 268.9 188.4 L 267.2 188.4 L 265.5 181.6 L 263.7 188.4 L 262.0 188.4 L 259.8 180.3 L 261.0 180.3 L 262.9 187.4 L 264.7 180.3 L 266.2 180.3 L 268.0 187.4 L 270.0 180.3 " fill="#000000"/>
<path class="legend" d="M 271.9 184.3 Q 271.9 182.4, 272.9 181.3 Q 273.9 180.2, 275.7 180.2 Q 277.5 180.2, 278.4 181.3 Q 279.4 182.4, 279.4 184.3 Q 279.4 186.3, 278.4 187.4 Q 277.5 188.5, 275.7 188.5 Q 273.9 188.5, 272.9 187.4 Q 271.9 186.3, 271.9 184.3 M 275.7 187.6 Q 276.9 187.6, 277.6 186.8 Q 278.3 185.9, 278.3 184.3 Q 278.3 182.7, 277.6 181.9 Q 276.9 181.1, 275.7 181.1 Q 274.4 181.1, 273.8 181.9 Q 273.1 182.7, 273.1 184.3 Q 273.1 185.9, 273.8 186.8 Q 274.4 187.6, 275.7 187.6 " fill="#000000"/>
<path class="legend" d="M 280.5 180.3 L 281.6 180.3 L 281.6 188.4 L 280.5 188.4 L 280.5 180.3 M 285.1 180.3 L 286.5 180.3 L 283.3 184.0 L 286.8 188.4 L 285.4 188.4 L 281.9 184.0 L 285.1 180.3 " fill="#000000"/>
<path class="legend" d="M 291.8 188.4 L 289.9 185.1 L 289.8 185.1 L 288.5 185.1 L 288.5 188.4 L 287.4 188.4 L 287.4 180.3 L 289.8 180.3 Q 291.2 180.3, 291.9 180.9 Q 292.6 181.5, 292.6 182.7 Q 292.6 183.5, 292.2 184.1 Q 291.8 184.7, 291.0 184.9 L 293.0 188.4 L 291.8 188.4 M 288.5 184.1 L 289.8 184.1 Q 290.6 184.1, 291.1 183.8 Q 291.5 183.4, 291.5 182.7 Q 291.5 181.9, 291.1 181.6 Q 290.6 181.2, 289.8 181.2 L 288.5 181.2 L 288.5 184.1 " fill="#000000"/>
<path class="legend" d="M 297.8 184.1 Q 298.6 184.3, 299.0 184.8 Q 299.4 185.3, 299.4 186.0 Q 299.4 187.1, 298.7 187.8 Q 298.0 188.4, 296.6 188.4 L 293.9 188.4 L 293.9 180.3 L 296.3 180.3 Q 297.7 180.3, 298.4 180.8 Q 299.1 181.4, 299.1 182.4 Q 299.1 183.7, 297.8 184.1 M 295.0 181.2 L 295.0 183.7 L 296.3 183.7 Q 297.1 183.7, 297.5 183.4 Q 297.9 183.1, 297.9 182.4 Q 297.9 181.2, 296.3 181.2 L 295.0 181.2 M 296.6 187.5 Q 297.4 187.5, 297.8 187.1 Q 298.2 186.7, 298.2 186.0 Q 298.2 185.3, 297.8 185.0 Q 297.3 184.7, 296.4 184.7 L 295.0 184.7 L 295.0 187.5 L 296.6 187.5 " fill="#000000"/>
<path class="legend" d="M 300.5 180.3 L 305.3 180.3 L 305.3 181.2 L 301.6 181.2 L 301.6 183.7 L 304.9 183.7 L 304.9 184.6 L 301.6 184.6 L 301.6 187.4 L 305.4 187.4 L 305.4 188.4 L 300.5 188.4 L 300.5 180.3 " fill="#000000"/>
<path class="legend" d="M 306.6 184.3 L 310.8 184.3 L 310.8 185.2 L 306.6 185.2 L 306.6 184.3 " fill="#000000"/>
<path class="legend" d="M 311.9 189.1 Q 311.9 189.2, 312.4 188.9 Q 312.9 188.6, 313.3 188.1 Q 313.7 187.6, 313.7 187.0 L 313.7 181.2 L 312.1 181.2 L 312.1 180.3 L 314.8 180.3 L 314.8 187.0 Q 314.8 187.9, 314.3 188.6 Q 313.7 189.3, 313.1 189.7 Q 312.4 190.0, 312.4 190.0 L 311.9 189.1 " fill="#000000"/>
<path class="legend" d="M 316.4 184.3 Q 316.4 182.3, 317.3 181.2 Q 318.3 180.2, 320.1 180.2 Q 321.7 180.2, 322.6 181.4 L 321.9 182.0 Q 321.2 181.1, 320.1 181.1 Q 318.8 181.1, 318.2 181.9 Q 317.5 182.8, 317.5 184.3 Q 317.5 185.9, 318.2 186.8 Q 318.9 187.6, 320.2 187.6 Q 321.1 187.6, 322.1 187.0 L 322.4 187.9 Q 322.0 188.2, 321.4 188.3 Q 320.7 188.5, 320.0 188.5 Q 318.3 188.5, 317.3 187.4 Q 316.4 186.3, 316.4 184.3 " fill="#000000"/>
<path class="legend" d="M 326.3 185.0 L 323.7 180.3 L 324.9 180.3 L 326.9 183.9 L 328.9 180.3 L 330.1 180.3 L 327.4 185.0 L 327.4 188.4 L 326.3 188.4 L 326.3 185.0 " fill="#000000"/>
<path class="legend" d="M 336.7 188.4 L 335.9 186.0 L 332.6 186.0 L 331.8 188.4 L 330.7 188.4 L 333.5 180.3 L 334.9 180.3 L 337.8 188.4 L 336.7 188.4 M 333.0 185.1 L 335.5 185.1 L 334.2 181.4 L 333.0 185.1 " fill="#000000"/>
<path class="legend" d="M 341.2 185.0 L 338.5 180.3 L 339.7 180.3 L 341.7 183.9 L 343.8 180.3 L 345.0 180.3 L 342.3 185.0 L 342.3 188.4 L 341.2 188.4 L 341.2 185.0 " fill="#000000"/>
<path class="legend" d="M 345.5 180.3 L 346.6 180.3 L 346.6 183.7 L 350.8 183.7 L 350.8 180.3 L 351.9 180.3 L 351.9 188.4 L 350.8 188.4 L 350.8 184.6 L 346.6 184.6 L 346.6 188.4 L 345.5 188.4 L 345.5 180.3 " fill="#000000"/>
<path class="legend" d="M 353.4 189.1 Q 353.4 189.2, 353.9 188.9 Q 354.4 188.6, 354.8 188.1 Q 355.2 187.6, 355.2 187.0 L 355.2 181.2 L 353.7 181.2 L 353.7 180.3 L 356.3 180.3 L 356.3 187.0 Q 356.3 187.9, 355.8 188.6 Q 355.2 189.3, 354.6 189.7 Q 353.9 190.0, 353.9 190.0 L 353.4 189.1 " fill="#000000"/>
<path class="legend" d="M 357.9 187.5 L 362.0 181.2 L 358.0 181.2 L 358.0 180.3 L 363.4 180.3 L 363.4 181.1 L 359.2 187.4 L 363.3 187.4 L 363.3 188.4 L 357.9 188.4 L 357.9 187.5 " fill="#000000"/>
<path class="legend" d="M 364.7 187.1 Q 364.8 187.2, 365.2 187.3 Q 365.6 187.5, 366.0 187.6 Q 366.4 187.7, 366.8 187.7 Q 367.6 187.7, 368.0 187.3 Q 368.5 186.9, 368.5 186.3 Q 368.5 185.8, 368.3 185.6 Q 368.0 185.3, 367.7 185.1 Q 367.3 185.0, 366.8 184.8 Q 366.1 184.6, 365.6 184.4 Q 365.2 184.2, 364.9 183.7 Q 364.6 183.3, 364.6 182.6 Q 364.6 181.6, 365.3 180.9 Q 366.0 180.3, 367.3 180.3 Q 368.3 180.3, 369.4 180.7 L 369.1 181.6 Q 368.1 181.2, 367.4 181.2 Q 366.6 181.2, 366.2 181.6 Q 365.7 181.9, 365.7 182.4 Q 365.7 182.9, 365.9 183.1 Q 366.2 183.4, 366.5 183.5 Q 366.8 183.7, 367.4 183.9 Q 368.1 184.1, 368.6 184.3 Q 369.0 184.6, 369.3 185.0 Q 369.6 185.5, 369.6 186.3 Q 369.6 187.4, 368.9 188.0 Q 368.1 188.6, 366.9 188.6 Q 366.1 188.6, 365.6 188.5 Q 365.1 188.3, 364.4 188.0 L 364.7 187.1 " fill="#000000"/>
<path class="legend" d="M 376.7 188.4 L 375.9 186.0 L 372.6 186.0 L 371.8 188.4 L 370.7 188.4 L 373.5 180.3 L 374.9 180.3 L 377.8 188.4 L 376.7 188.4 M 373.0 185.1 L 375.5 185.1 L 374.2 181.4 L 373.0 185.1 " fill="#000000"/>
<path class="legend" d="M 378.5 184.3 L 382.7 184.3 L 382.7 185.2 L 378.5 185.2 L 378.5 184.3 " fill="#000000"/>
<path class="legend" d="M 385.1 180.3 L 387.8 184.6 Q 388.0 185.0, 388.5 185.8 Q 388.9 186.5, 388.9 186.6 L 388.9 180.3 L 390.0 180.3 L 390.0 188.4 L 388.9 188.4 L 386.0 183.7 Q 385.7 183.1, 385.3 182.5 Q 385.0 181.9, 384.9 181.7 L 384.9 188.4 L 383.8 188.4 L 383.8 180.3 L 385.1 180.3 " fill="#000000"/>
</svg>