<svg xmlns="http://www.w3.org/2000/svg" xmlns:rdkit="http://www.rdkit.org/xml" xmlns:xlink="http://www.w3.org/1999/xlink" version="1.1" baseProfile="full" xml:space="preserve" width="1000px" height="200px" viewBox="0 0 1000 200">
<!-- END OF HEADER -->
<rect style="opacity:1.0;fill:#FFFFFF;stroke:none" width="200.0" height="200.0" x="0.0" y="0.0"> </rect>
<path class="bond-0 atom-0 atom-1" d="M 186.5,84.9 L 169.2,114.8" style="fill:none;fill-rule:evenodd;stroke:#000000;stroke-width:2.0px;stroke-linecap:butt;stroke-linejoin:miter;stroke-opacity:1"/>
<path class="bond-0 atom-0 atom-1" d="M 169.2,114.8 L 151.9,144.7" style="fill:none;fill-rule:evenodd;stroke:#0000FF;stroke-width:2.0px;stroke-linecap:butt;stroke-linejoin:miter;stroke-opacity:1"/>
<path class="bond-0 atom-0 atom-1" d="M 171.5,84.9 L 156.1,111.5" style="fill:none;fill-rule:evenodd;stroke:#000000;stroke-width:2.0px;stroke-linecap:butt;stroke-linejoin:miter;stroke-opacity:1"/>
<path class="bond-0 atom-0 atom-1" d="M 156.1,111.5 L 140.7,138.2" style="fill:none;fill-rule:evenodd;stroke:#0000FF;stroke-width:2.0px;stroke-linecap:butt;stroke-linejoin:miter;stroke-opacity:1"/>
<path class="bond-1 atom-1 atom-2" d="M 131.1,159.8 L 93.9,159.8" style="fill:none;fill-rule:evenodd;stroke:#0000FF;stroke-width:2.0px;stroke-linecap:butt;stroke-linejoin:miter;stroke-opacity:1"/>
<path class="bond-1 atom-1 atom-2" d="M 93.9,159.8 L 56.8,159.8" style="fill:none;fill-rule:evenodd;stroke:#000000;stroke-width:2.0px;stroke-linecap:butt;stroke-linejoin:miter;stroke-opacity:1"/>
<path class="bond-2 atom-2 atom-3" d="M 56.8,159.8 L 13.5,84.9" style="fill:none;fill-rule:evenodd;stroke:#000000;stroke-width:2.0px;stroke-linecap:butt;stroke-linejoin:miter;stroke-opacity:1"/>
<path class="bond-2 atom-2 atom-3" d="M 64.3,146.8 L 28.5,84.9" style="fill:none;fill-rule:evenodd;stroke:#000000;stroke-width:2.0px;stroke-linecap:butt;stroke-linejoin:miter;stroke-opacity:1"/>
<path class="bond-3 atom-3 atom-4" d="M 13.5,84.9 L 56.8,10.0" style="fill:none;fill-rule:evenodd;stroke:#000000;stroke-width:2.0px;stroke-linecap:butt;stroke-linejoin:miter;stroke-opacity:1"/>
<path class="bond-4 atom-4 atom-5" d="M 56.8,10.0 L 143.2,10.0" style="fill:none;fill-rule:evenodd;stroke:#000000;stroke-width:2.0px;stroke-linecap:butt;stroke-linejoin:miter;stroke-opacity:1"/>
<path class="bond-4 atom-4 atom-5" d="M 64.3,23.0 L 135.7,23.0" style="fill:none;fill-rule:evenodd;stroke:#000000;stroke-width:2.0px;stroke-linecap:butt;stroke-linejoin:miter;stroke-opacity:1"/>
<path class="bond-5 atom-5 atom-0" d="M 143.2,10.0 L 186.5,84.9" style="fill:none;fill-rule:evenodd;stroke:#000000;stroke-width:2.0px;stroke-linecap:butt;stroke-linejoin:miter;stroke-opacity:1"/>
<path d="M 185.6,86.4 L 186.5,84.9 L 184.3,81.1" style="fill:none;stroke:#000000;stroke-width:2.0px;stroke-linecap:butt;stroke-linejoin:miter;stroke-miterlimit:10;stroke-opacity:1;"/>
<path d="M 58.6,159.8 L 56.8,159.8 L 54.6,156.0" style="fill:none;stroke:#000000;stroke-width:2.0px;stroke-linecap:butt;stroke-linejoin:miter;stroke-miterlimit:10;stroke-opacity:1;"/>
<path d="M 15.7,88.6 L 13.5,84.9 L 15.7,81.1" style="fill:none;stroke:#000000;stroke-width:2.0px;stroke-linecap:butt;stroke-linejoin:miter;stroke-miterlimit:10;stroke-opacity:1;"/>
<path d="M 54.6,13.7 L 56.8,10.0 L 61.1,10.0" style="fill:none;stroke:#000000;stroke-width:2.0px;stroke-linecap:butt;stroke-linejoin:miter;stroke-miterlimit:10;stroke-opacity:1;"/>
<path d="M 138.9,10.0 L 143.2,10.0 L 145.4,13.7" style="fill:none;stroke:#000000;stroke-width:2.0px;stroke-linecap:butt;stroke-linejoin:miter;stroke-miterlimit:10;stroke-opacity:1;"/>
<path class="atom-1" d="M 137.8 147.5 L 145.8 160.5 Q 146.6 161.8, 147.9 164.1 Q 149.2 166.4, 149.3 166.5 L 149.3 147.5 L 152.5 147.5 L 152.5 172.0 L 149.2 172.0 L 140.6 157.8 Q 139.5 156.2, 138.5 154.3 Q 137.4 152.4, 137.1 151.8 L 137.1 172.0 L 133.9 172.0 L 133.9 147.5 L 137.8 147.5 " fill="#0000FF"/>
<path class="legend" d="M 68.4 185.8 Q 68.4 183.8, 69.4 182.7 Q 70.4 181.5, 72.3 181.5 Q 74.2 181.5, 75.2 182.9 L 74.2 183.6 Q 73.8 183.2, 73.4 183.0 Q 72.9 182.7, 72.3 182.7 Q 71.2 182.7, 70.6 183.5 Q 69.9 184.3, 69.9 185.8 Q 69.9 187.3, 70.6 188.1 Q 71.2 188.8, 72.4 188.8 Q 73.1 188.8, 73.6 188.7 Q 74.0 188.5, 74.6 188.3 L 75.0 189.3 Q 73.9 190.0, 72.3 190.0 Q 70.4 190.0, 69.4 188.9 Q 68.4 187.8, 68.4 185.8 " fill="#000000"/>
<path class="legend" d="M 76.9 188.6 L 79.4 188.6 L 79.4 180.2 L 76.6 181.0 L 76.3 180.1 L 79.7 178.5 L 80.9 178.7 L 80.9 188.6 L 83.1 188.6 L 83.1 189.9 L 76.9 189.9 L 76.9 188.6 " fill="#000000"/>
<path class="legend" d="M 84.4 185.8 Q 84.4 183.8, 85.4 182.7 Q 86.4 181.5, 88.4 181.5 Q 90.3 181.5, 91.2 182.9 L 90.2 183.6 Q 89.8 183.2, 89.4 183.0 Q 89.0 182.7, 88.4 182.7 Q 87.2 182.7, 86.6 183.5 Q 86.0 184.3, 86.0 185.8 Q 86.0 187.3, 86.6 188.1 Q 87.3 188.8, 88.5 188.8 Q 89.2 188.8, 89.6 188.7 Q 90.1 188.5, 90.7 188.3 L 91.1 189.3 Q 89.9 190.0, 88.4 190.0 Q 86.4 190.0, 85.4 188.9 Q 84.4 187.8, 84.4 185.8 " fill="#000000"/>
<path class="legend" d="M 92.3 185.8 Q 92.3 183.8, 93.3 182.7 Q 94.3 181.5, 96.2 181.5 Q 98.1 181.5, 99.1 182.9 L 98.1 183.6 Q 97.7 183.2, 97.2 183.0 Q 96.8 182.7, 96.2 182.7 Q 95.1 182.7, 94.5 183.5 Q 93.8 184.3, 93.8 185.8 Q 93.8 187.3, 94.5 188.1 Q 95.1 188.8, 96.3 188.8 Q 97.0 188.8, 97.5 188.7 Q 97.9 188.5, 98.5 188.3 L 98.9 189.3 Q 97.7 190.0, 96.2 190.0 Q 94.3 190.0, 93.3 188.9 Q 92.3 187.8, 92.3 185.8 " fill="#000000"/>
<path class="legend" d="M 104.4 181.5 Q 105.7 181.5, 106.4 182.3 Q 107.1 183.0, 107.1 184.5 L 107.1 189.9 L 105.6 189.9 L 105.6 184.6 Q 105.6 183.6, 105.3 183.2 Q 104.9 182.7, 104.1 182.7 Q 103.3 182.7, 102.7 183.1 Q 102.1 183.4, 101.7 184.0 L 101.7 189.9 L 100.1 189.9 L 100.1 181.7 L 101.4 181.7 L 101.6 182.8 Q 102.7 181.5, 104.4 181.5 " fill="#000000"/>
<path class="legend" d="M 109.1 185.8 Q 109.1 183.8, 110.0 182.7 Q 111.0 181.5, 113.0 181.5 Q 114.9 181.5, 115.8 182.9 L 114.8 183.6 Q 114.4 183.2, 114.0 183.0 Q 113.6 182.7, 113.0 182.7 Q 111.9 182.7, 111.2 183.5 Q 110.6 184.3, 110.6 185.8 Q 110.6 187.3, 111.2 188.1 Q 111.9 188.8, 113.1 188.8 Q 113.8 188.8, 114.2 188.7 Q 114.7 188.5, 115.3 188.3 L 115.7 189.3 Q 114.5 190.0, 113.0 190.0 Q 111.0 190.0, 110.0 188.9 Q 109.1 187.8, 109.1 185.8 " fill="#000000"/>
<path class="legend" d="M 116.9 185.8 Q 116.9 183.8, 117.9 182.7 Q 118.9 181.5, 120.8 181.5 Q 122.7 181.5, 123.7 182.9 L 122.7 183.6 Q 122.3 183.2, 121.8 183.0 Q 121.4 182.7, 120.8 182.7 Q 119.7 182.7, 119.1 183.5 Q 118.4 184.3, 118.4 185.8 Q 118.4 187.3, 119.1 188.1 Q 119.7 188.8, 120.9 188.8 Q 121.6 188.8, 122.1 188.7 Q 122.5 188.5, 123.1 188.3 L 123.5 189.3 Q 122.3 190.0, 120.8 190.0 Q 118.9 190.0, 117.9 188.9 Q 116.9 187.8, 116.9 185.8 " fill="#000000"/>
<path class="legend" d="M 125.4 188.6 L 127.9 188.6 L 127.9 180.2 L 125.1 181.0 L 124.8 180.1 L 128.2 178.5 L 129.4 178.7 L 129.4 188.6 L 131.6 188.6 L 131.6 189.9 L 125.4 189.9 L 125.4 188.6 " fill="#000000"/>
</svg>