<svg xmlns="http://www.w3.org/2000/svg" xmlns:rdkit="http://www.rdkit.org/xml" xmlns:xlink="http://www.w3.org/1999/xlink" version="1.1" baseProfile="full" xml:space="preserve" width="1000px" height="200px" viewBox="0 0 1000 200">
<!-- END OF HEADER -->
<rect style="opacity:1.0;fill:#FFFFFF;stroke:none" width="200.0" height="200.0" x="0.0" y="0.0"> </rect>
<path class="bond-0 atom-0 atom-2" d="M 14.9,132.8 L 32.8,112.0" style="fill:none;fill-rule:evenodd;stroke:#000000;stroke-width:2.0px;stroke-linecap:butt;stroke-linejoin:miter;stroke-opacity:1"/>
<path class="bond-1 atom-1 atom-13" d="M 86.1,56.1 L 94.3,63.1" style="fill:none;fill-rule:evenodd;stroke:#000000;stroke-width:2.0px;stroke-linecap:butt;stroke-linejoin:miter;stroke-opacity:1"/>
<path class="bond-1 atom-1 atom-13" d="M 94.3,63.1 L 102.5,70.2" style="fill:none;fill-rule:evenodd;stroke:#FF0000;stroke-width:2.0px;stroke-linecap:butt;stroke-linejoin:miter;stroke-opacity:1"/>
<path class="bond-2 atom-2 atom-3" d="M 32.8,112.0 L 59.8,117.1" style="fill:none;fill-rule:evenodd;stroke:#000000;stroke-width:2.0px;stroke-linecap:butt;stroke-linejoin:miter;stroke-opacity:1"/>
<path class="bond-3 atom-3 atom-8" d="M 59.8,117.1 L 77.7,96.3" style="fill:none;fill-rule:evenodd;stroke:#000000;stroke-width:2.0px;stroke-linecap:butt;stroke-linejoin:miter;stroke-opacity:1"/>
<path class="bond-4 atom-4 atom-5" d="M 184.0,122.2 L 166.1,143.0" style="fill:none;fill-rule:evenodd;stroke:#000000;stroke-width:2.0px;stroke-linecap:butt;stroke-linejoin:miter;stroke-opacity:1"/>
<path class="bond-4 atom-4 atom-5" d="M 179.3,121.3 L 164.5,138.5" style="fill:none;fill-rule:evenodd;stroke:#000000;stroke-width:2.0px;stroke-linecap:butt;stroke-linejoin:miter;stroke-opacity:1"/>
<path class="bond-5 atom-4 atom-6" d="M 184.0,122.2 L 174.9,96.3" style="fill:none;fill-rule:evenodd;stroke:#000000;stroke-width:2.0px;stroke-linecap:butt;stroke-linejoin:miter;stroke-opacity:1"/>
<path class="bond-6 atom-5 atom-7" d="M 166.1,143.0 L 139.1,137.9" style="fill:none;fill-rule:evenodd;stroke:#000000;stroke-width:2.0px;stroke-linecap:butt;stroke-linejoin:miter;stroke-opacity:1"/>
<path class="bond-7 atom-6 atom-10" d="M 174.9,96.3 L 148.0,91.2" style="fill:none;fill-rule:evenodd;stroke:#000000;stroke-width:2.0px;stroke-linecap:butt;stroke-linejoin:miter;stroke-opacity:1"/>
<path class="bond-7 atom-6 atom-10" d="M 171.8,99.9 L 149.5,95.7" style="fill:none;fill-rule:evenodd;stroke:#000000;stroke-width:2.0px;stroke-linecap:butt;stroke-linejoin:miter;stroke-opacity:1"/>
<path class="bond-8 atom-7 atom-11" d="M 139.1,137.9 L 130.0,112.0" style="fill:none;fill-rule:evenodd;stroke:#000000;stroke-width:2.0px;stroke-linecap:butt;stroke-linejoin:miter;stroke-opacity:1"/>
<path class="bond-8 atom-7 atom-11" d="M 142.2,134.3 L 134.7,112.9" style="fill:none;fill-rule:evenodd;stroke:#000000;stroke-width:2.0px;stroke-linecap:butt;stroke-linejoin:miter;stroke-opacity:1"/>
<path class="bond-9 atom-8 atom-14" d="M 77.7,96.3 L 101.3,100.7" style="fill:none;fill-rule:evenodd;stroke:#000000;stroke-width:2.0px;stroke-linecap:butt;stroke-linejoin:miter;stroke-opacity:1"/>
<path class="bond-10 atom-9 atom-10" d="M 133.7,67.7 L 148.0,91.2" style="fill:none;fill-rule:evenodd;stroke:#000000;stroke-width:2.0px;stroke-linecap:butt;stroke-linejoin:miter;stroke-opacity:1"/>
<path class="bond-11 atom-9 atom-13" d="M 133.7,67.7 L 124.8,69.8" style="fill:none;fill-rule:evenodd;stroke:#000000;stroke-width:2.0px;stroke-linecap:butt;stroke-linejoin:miter;stroke-opacity:1"/>
<path class="bond-11 atom-9 atom-13" d="M 124.8,69.8 L 116.0,71.9" style="fill:none;fill-rule:evenodd;stroke:#FF0000;stroke-width:2.0px;stroke-linecap:butt;stroke-linejoin:miter;stroke-opacity:1"/>
<path class="bond-12 atom-10 atom-11" d="M 148.0,91.2 L 130.0,112.0" style="fill:none;fill-rule:evenodd;stroke:#000000;stroke-width:2.0px;stroke-linecap:butt;stroke-linejoin:miter;stroke-opacity:1"/>
<path class="bond-13 atom-11 atom-14" d="M 130.0,112.0 L 114.1,105.3" style="fill:none;fill-rule:evenodd;stroke:#000000;stroke-width:2.0px;stroke-linecap:butt;stroke-linejoin:miter;stroke-opacity:1"/>
<path class="bond-14 atom-12 atom-14" d="M 98.2,122.9 L 100.7,114.6" style="fill:none;fill-rule:evenodd;stroke:#7F4C19;stroke-width:2.0px;stroke-linecap:butt;stroke-linejoin:miter;stroke-opacity:1"/>
<path class="bond-14 atom-12 atom-14" d="M 100.7,114.6 L 103.2,106.4" style="fill:none;fill-rule:evenodd;stroke:#000000;stroke-width:2.0px;stroke-linecap:butt;stroke-linejoin:miter;stroke-opacity:1"/>
<path class="bond-15 atom-13 atom-14" d="M 106.6,79.0 L 105.8,87.8" style="fill:none;fill-rule:evenodd;stroke:#FF0000;stroke-width:2.0px;stroke-linecap:butt;stroke-linejoin:miter;stroke-opacity:1"/>
<path class="bond-15 atom-13 atom-14" d="M 105.8,87.8 L 105.1,96.6" style="fill:none;fill-rule:evenodd;stroke:#000000;stroke-width:2.0px;stroke-linecap:butt;stroke-linejoin:miter;stroke-opacity:1"/>
<path d="M 31.9,113.0 L 32.8,112.0 L 34.2,112.2" style="fill:none;stroke:#000000;stroke-width:2.0px;stroke-linecap:butt;stroke-linejoin:miter;stroke-miterlimit:10;stroke-opacity:1;"/>
<path d="M 58.4,116.8 L 59.8,117.1 L 60.7,116.0" style="fill:none;stroke:#000000;stroke-width:2.0px;stroke-linecap:butt;stroke-linejoin:miter;stroke-miterlimit:10;stroke-opacity:1;"/>
<path d="M 183.1,123.3 L 184.0,122.2 L 183.6,120.9" style="fill:none;stroke:#000000;stroke-width:2.0px;stroke-linecap:butt;stroke-linejoin:miter;stroke-miterlimit:10;stroke-opacity:1;"/>
<path d="M 167.0,142.0 L 166.1,143.0 L 164.7,142.8" style="fill:none;stroke:#000000;stroke-width:2.0px;stroke-linecap:butt;stroke-linejoin:miter;stroke-miterlimit:10;stroke-opacity:1;"/>
<path d="M 175.4,97.6 L 174.9,96.3 L 173.6,96.0" style="fill:none;stroke:#000000;stroke-width:2.0px;stroke-linecap:butt;stroke-linejoin:miter;stroke-miterlimit:10;stroke-opacity:1;"/>
<path d="M 140.5,138.2 L 139.1,137.9 L 138.6,136.6" style="fill:none;stroke:#000000;stroke-width:2.0px;stroke-linecap:butt;stroke-linejoin:miter;stroke-miterlimit:10;stroke-opacity:1;"/>
<path d="M 76.8,97.3 L 77.7,96.3 L 78.9,96.5" style="fill:none;stroke:#000000;stroke-width:2.0px;stroke-linecap:butt;stroke-linejoin:miter;stroke-miterlimit:10;stroke-opacity:1;"/>
<path d="M 134.4,68.9 L 133.7,67.7 L 133.3,67.8" style="fill:none;stroke:#000000;stroke-width:2.0px;stroke-linecap:butt;stroke-linejoin:miter;stroke-miterlimit:10;stroke-opacity:1;"/>
<path class="atom-12" d="M 97.9 127.5 Q 98.7 127.7, 99.1 128.2 Q 99.4 128.6, 99.4 129.3 Q 99.4 130.4, 98.7 131.0 Q 98.1 131.6, 96.8 131.6 L 94.2 131.6 L 94.2 123.8 L 96.5 123.8 Q 97.8 123.8, 98.5 124.3 Q 99.1 124.9, 99.1 125.9 Q 99.1 127.0, 97.9 127.5 M 95.2 124.7 L 95.2 127.1 L 96.5 127.1 Q 97.2 127.1, 97.6 126.8 Q 98.0 126.5, 98.0 125.9 Q 98.0 124.7, 96.5 124.7 L 95.2 124.7 M 96.8 130.7 Q 97.5 130.7, 97.9 130.3 Q 98.3 130.0, 98.3 129.3 Q 98.3 128.6, 97.9 128.3 Q 97.5 128.0, 96.6 128.0 L 95.2 128.0 L 95.2 130.7 L 96.8 130.7 " fill="#7F4C19"/>
<path class="atom-12" d="M 101.2 125.9 L 101.3 126.7 Q 101.9 125.8, 102.9 125.8 Q 103.2 125.8, 103.6 125.9 L 103.4 126.9 Q 103.0 126.7, 102.7 126.7 Q 102.2 126.7, 101.9 126.9 Q 101.6 127.1, 101.4 127.5 L 101.4 131.6 L 100.4 131.6 L 100.4 125.9 L 101.2 125.9 " fill="#7F4C19"/>
<path class="atom-13" d="M 103.4 74.0 Q 103.4 72.2, 104.3 71.1 Q 105.2 70.1, 107.0 70.1 Q 108.7 70.1, 109.6 71.1 Q 110.5 72.2, 110.5 74.0 Q 110.5 75.9, 109.6 77.0 Q 108.7 78.1, 107.0 78.1 Q 105.2 78.1, 104.3 77.0 Q 103.4 75.9, 103.4 74.0 M 107.0 77.2 Q 108.1 77.2, 108.8 76.4 Q 109.4 75.6, 109.4 74.0 Q 109.4 72.5, 108.8 71.7 Q 108.1 71.0, 107.0 71.0 Q 105.8 71.0, 105.1 71.7 Q 104.5 72.5, 104.5 74.0 Q 104.5 75.6, 105.1 76.4 Q 105.8 77.2, 107.0 77.2 " fill="#FF0000"/>
<path class="atom-13" d="M 111.7 71.5 L 113.1 71.5 L 113.1 70.0 L 113.7 70.0 L 113.7 71.5 L 115.1 71.5 L 115.1 72.0 L 113.7 72.0 L 113.7 73.4 L 113.1 73.4 L 113.1 72.0 L 111.7 72.0 L 111.7 71.5 " fill="#FF0000"/>
<path class="atom-14" d="M 102.5 104.0 Q 102.6 104.1, 103.0 104.2 Q 103.3 104.4, 103.7 104.5 Q 104.1 104.6, 104.5 104.6 Q 105.3 104.6, 105.7 104.2 Q 106.1 103.9, 106.1 103.2 Q 106.1 102.8, 105.9 102.5 Q 105.7 102.3, 105.3 102.1 Q 105.0 102.0, 104.5 101.8 Q 103.8 101.6, 103.4 101.4 Q 103.0 101.2, 102.7 100.8 Q 102.4 100.4, 102.4 99.7 Q 102.4 98.7, 103.0 98.1 Q 103.7 97.5, 105.0 97.5 Q 105.9 97.5, 106.9 97.9 L 106.7 98.8 Q 105.8 98.4, 105.1 98.4 Q 104.3 98.4, 103.9 98.7 Q 103.5 99.0, 103.5 99.6 Q 103.5 100.0, 103.7 100.2 Q 103.9 100.5, 104.2 100.6 Q 104.5 100.8, 105.1 100.9 Q 105.8 101.1, 106.2 101.4 Q 106.6 101.6, 106.9 102.0 Q 107.2 102.5, 107.2 103.2 Q 107.2 104.3, 106.5 104.9 Q 105.8 105.5, 104.6 105.5 Q 103.9 105.5, 103.3 105.3 Q 102.8 105.2, 102.2 104.9 L 102.5 104.0 " fill="#000000"/>
<path class="atom-14" d="M 108.2 102.4 Q 108.2 101.0, 108.9 100.3 Q 109.6 99.5, 110.9 99.5 Q 112.1 99.5, 112.6 100.3 Q 113.2 101.0, 113.2 102.4 L 113.2 102.6 L 109.3 102.6 Q 109.3 103.5, 109.7 104.0 Q 110.1 104.5, 110.9 104.5 Q 111.4 104.5, 111.8 104.4 Q 112.2 104.3, 112.7 104.1 L 113.0 104.8 Q 112.4 105.1, 111.9 105.2 Q 111.4 105.3, 110.9 105.3 Q 109.6 105.3, 108.9 104.6 Q 108.2 103.8, 108.2 102.4 M 110.9 100.3 Q 110.2 100.3, 109.8 100.7 Q 109.4 101.1, 109.3 101.8 L 112.1 101.8 Q 112.0 101.0, 111.7 100.7 Q 111.4 100.3, 110.9 100.3 " fill="#000000"/>
<path class="note" d="M 11.4 131.8 Q 10.7 131.8, 10.4 131.3 Q 10.0 130.8, 10.0 129.8 Q 10.0 128.9, 10.4 128.4 Q 10.7 127.8, 11.4 127.8 Q 12.1 127.8, 12.5 128.4 Q 12.8 128.9, 12.8 129.8 Q 12.8 130.8, 12.5 131.3 Q 12.1 131.8, 11.4 131.8 M 11.4 131.4 Q 11.8 131.4, 12.1 131.0 Q 12.3 130.6, 12.3 129.8 Q 12.3 129.1, 12.1 128.7 Q 11.8 128.3, 11.4 128.3 Q 11.0 128.3, 10.8 128.7 Q 10.5 129.1, 10.5 129.8 Q 10.5 130.6, 10.8 131.0 Q 11.0 131.4, 11.4 131.4 " fill="#000000"/>
<path class="note" d="M 88.2 54.1 L 89.0 54.1 L 89.0 51.2 L 88.1 51.5 L 88.0 51.2 L 89.2 50.7 L 89.5 50.7 L 89.5 54.1 L 90.3 54.1 L 90.3 54.6 L 88.2 54.6 L 88.2 54.1 " fill="#000000"/>
<path class="note" d="M 30.0 106.5 Q 30.1 106.1, 30.5 105.9 Q 30.8 105.7, 31.3 105.7 Q 31.9 105.7, 32.2 106.0 Q 32.5 106.3, 32.5 106.9 Q 32.5 107.5, 32.1 108.0 Q 31.7 108.5, 30.8 109.2 L 32.6 109.2 L 32.6 109.6 L 30.0 109.6 L 30.0 109.3 Q 30.7 108.7, 31.1 108.3 Q 31.6 108.0, 31.8 107.6 Q 32.0 107.3, 32.0 106.9 Q 32.0 106.5, 31.8 106.3 Q 31.6 106.1, 31.3 106.1 Q 31.0 106.1, 30.8 106.3 Q 30.6 106.4, 30.4 106.7 L 30.0 106.5 " fill="#000000"/>
<path class="note" d="M 61.9 121.3 Q 62.2 121.4, 62.4 121.7 Q 62.6 121.9, 62.6 122.3 Q 62.6 122.6, 62.5 122.9 Q 62.3 123.1, 62.0 123.3 Q 61.7 123.4, 61.3 123.4 Q 60.9 123.4, 60.6 123.3 Q 60.2 123.1, 60.0 122.8 L 60.3 122.5 Q 60.6 122.8, 60.8 122.9 Q 61.0 123.0, 61.3 123.0 Q 61.6 123.0, 61.9 122.8 Q 62.1 122.6, 62.1 122.3 Q 62.1 121.9, 61.8 121.7 Q 61.6 121.5, 61.1 121.5 L 60.9 121.5 L 60.9 121.2 L 61.1 121.2 Q 61.5 121.1, 61.8 121.0 Q 62.0 120.8, 62.0 120.4 Q 62.0 120.2, 61.8 120.0 Q 61.6 119.9, 61.3 119.9 Q 61.0 119.9, 60.8 120.0 Q 60.6 120.1, 60.4 120.4 L 60.0 120.2 Q 60.2 119.9, 60.5 119.7 Q 60.8 119.4, 61.3 119.4 Q 61.9 119.4, 62.2 119.7 Q 62.5 120.0, 62.5 120.4 Q 62.5 120.7, 62.4 121.0 Q 62.2 121.2, 61.9 121.3 " fill="#000000"/>
<path class="note" d="M 189.5 123.7 L 190.0 123.7 L 190.0 124.1 L 189.5 124.1 L 189.5 125.0 L 189.0 125.0 L 189.0 124.1 L 187.0 124.1 L 187.0 123.8 L 188.7 121.1 L 189.5 121.1 L 189.5 123.7 M 187.6 123.7 L 189.0 123.7 L 189.0 121.5 L 187.6 123.7 " fill="#000000"/>
<path class="note" d="M 167.7 146.9 Q 168.0 146.9, 168.3 147.0 Q 168.6 147.1, 168.8 147.4 Q 168.9 147.7, 168.9 148.1 Q 168.9 148.5, 168.7 148.8 Q 168.5 149.0, 168.2 149.2 Q 167.9 149.3, 167.5 149.3 Q 167.2 149.3, 166.8 149.2 Q 166.5 149.1, 166.3 148.8 L 166.6 148.5 Q 166.8 148.7, 167.0 148.8 Q 167.3 148.9, 167.5 148.9 Q 167.9 148.9, 168.1 148.7 Q 168.4 148.5, 168.4 148.1 Q 168.4 147.7, 168.1 147.5 Q 167.9 147.3, 167.5 147.3 Q 167.2 147.3, 166.8 147.4 L 166.5 147.3 L 166.7 145.4 L 168.7 145.4 L 168.6 145.8 L 167.1 145.8 L 167.0 147.0 Q 167.4 146.9, 167.7 146.9 " fill="#000000"/>
<path class="note" d="M 178.1 92.4 Q 178.4 92.4, 178.7 92.5 Q 179.0 92.7, 179.1 92.9 Q 179.3 93.2, 179.3 93.5 Q 179.3 93.9, 179.1 94.2 Q 178.9 94.5, 178.6 94.7 Q 178.3 94.8, 178.0 94.8 Q 177.3 94.8, 176.9 94.4 Q 176.6 93.9, 176.6 93.0 Q 176.6 91.9, 177.0 91.4 Q 177.4 90.9, 178.3 90.9 Q 178.5 90.9, 178.7 90.9 Q 178.9 91.0, 179.1 91.1 L 178.9 91.4 Q 178.6 91.3, 178.3 91.3 Q 177.7 91.3, 177.4 91.6 Q 177.2 92.0, 177.1 92.7 Q 177.3 92.5, 177.6 92.5 Q 177.8 92.4, 178.1 92.4 M 178.0 94.4 Q 178.2 94.4, 178.4 94.3 Q 178.5 94.2, 178.6 94.0 Q 178.7 93.8, 178.7 93.5 Q 178.7 93.2, 178.5 93.0 Q 178.3 92.8, 178.0 92.8 Q 177.8 92.8, 177.5 92.9 Q 177.3 93.0, 177.1 93.2 Q 177.2 93.8, 177.4 94.1 Q 177.6 94.4, 178.0 94.4 " fill="#000000"/>
<path class="note" d="M 136.9 139.9 L 134.8 139.9 L 134.8 139.4 L 137.4 139.4 L 137.4 139.8 L 135.8 143.3 L 135.3 143.3 L 136.9 139.9 " fill="#000000"/>
<path class="note" d="M 76.8 91.9 Q 77.2 92.0, 77.4 92.2 Q 77.6 92.5, 77.6 92.8 Q 77.6 93.2, 77.4 93.4 Q 77.2 93.7, 76.9 93.8 Q 76.6 94.0, 76.2 94.0 Q 75.6 94.0, 75.2 93.7 Q 74.8 93.4, 74.8 92.8 Q 74.8 92.5, 75.0 92.3 Q 75.2 92.1, 75.5 91.9 Q 75.2 91.7, 75.1 91.5 Q 75.0 91.3, 75.0 91.0 Q 75.0 90.5, 75.3 90.3 Q 75.6 90.0, 76.2 90.0 Q 76.8 90.0, 77.1 90.3 Q 77.4 90.5, 77.4 91.0 Q 77.4 91.3, 77.3 91.5 Q 77.1 91.7, 76.8 91.9 M 76.2 90.4 Q 75.9 90.4, 75.7 90.5 Q 75.5 90.7, 75.5 91.0 Q 75.5 91.2, 75.6 91.3 Q 75.8 91.4, 75.9 91.5 Q 76.1 91.6, 76.4 91.7 Q 76.7 91.6, 76.8 91.4 Q 76.9 91.2, 76.9 91.0 Q 76.9 90.7, 76.7 90.5 Q 76.5 90.4, 76.2 90.4 M 76.2 93.6 Q 76.6 93.6, 76.8 93.4 Q 77.0 93.2, 77.0 92.8 Q 77.0 92.6, 76.9 92.5 Q 76.8 92.4, 76.6 92.3 Q 76.5 92.2, 76.1 92.1 L 75.9 92.0 Q 75.6 92.2, 75.5 92.4 Q 75.4 92.6, 75.4 92.8 Q 75.4 93.2, 75.6 93.4 Q 75.8 93.6, 76.2 93.6 " fill="#000000"/>
<path class="note" d="M 135.4 61.5 Q 136.1 61.5, 136.5 62.0 Q 136.8 62.5, 136.8 63.4 Q 136.8 64.4, 136.4 65.0 Q 135.9 65.5, 135.1 65.5 Q 134.9 65.5, 134.7 65.4 Q 134.5 65.4, 134.3 65.3 L 134.5 64.9 Q 134.8 65.0, 135.1 65.0 Q 135.7 65.0, 135.9 64.7 Q 136.2 64.3, 136.3 63.6 Q 136.1 63.8, 135.8 63.9 Q 135.6 64.0, 135.3 64.0 Q 134.9 64.0, 134.7 63.8 Q 134.4 63.7, 134.3 63.4 Q 134.1 63.1, 134.1 62.8 Q 134.1 62.4, 134.3 62.1 Q 134.4 61.8, 134.7 61.7 Q 135.0 61.5, 135.4 61.5 M 134.7 62.8 Q 134.7 63.1, 134.9 63.3 Q 135.0 63.5, 135.4 63.5 Q 135.6 63.5, 135.9 63.5 Q 136.1 63.4, 136.3 63.2 Q 136.2 62.5, 136.0 62.3 Q 135.8 62.0, 135.4 62.0 Q 135.2 62.0, 135.0 62.1 Q 134.9 62.2, 134.8 62.4 Q 134.7 62.6, 134.7 62.8 " fill="#000000"/>
<path class="note" d="M 150.5 85.2 L 151.4 85.2 L 151.4 82.3 L 150.5 82.6 L 150.3 82.2 L 151.5 81.7 L 151.9 81.8 L 151.9 85.2 L 152.7 85.2 L 152.7 85.6 L 150.5 85.6 L 150.5 85.2 " fill="#000000"/>
<path class="note" d="M 154.6 85.7 Q 153.9 85.7, 153.5 85.1 Q 153.2 84.6, 153.2 83.7 Q 153.2 82.7, 153.5 82.2 Q 153.9 81.7, 154.6 81.7 Q 155.3 81.7, 155.7 82.2 Q 156.0 82.7, 156.0 83.7 Q 156.0 84.6, 155.7 85.1 Q 155.3 85.7, 154.6 85.7 M 154.6 85.2 Q 155.0 85.2, 155.2 84.8 Q 155.5 84.4, 155.5 83.7 Q 155.5 82.9, 155.2 82.5 Q 155.0 82.1, 154.6 82.1 Q 154.2 82.1, 153.9 82.5 Q 153.7 82.9, 153.7 83.7 Q 153.7 84.4, 153.9 84.8 Q 154.2 85.2, 154.6 85.2 " fill="#000000"/>
<path class="note" d="M 126.0 122.5 L 126.8 122.5 L 126.8 119.6 L 125.9 119.9 L 125.8 119.6 L 126.9 119.0 L 127.3 119.1 L 127.3 122.5 L 128.1 122.5 L 128.1 122.9 L 126.0 122.9 L 126.0 122.5 " fill="#000000"/>
<path class="note" d="M 128.8 122.5 L 129.6 122.5 L 129.6 119.6 L 128.7 119.9 L 128.6 119.6 L 129.8 119.0 L 130.1 119.1 L 130.1 122.5 L 130.9 122.5 L 130.9 122.9 L 128.8 122.9 L 128.8 122.5 " fill="#000000"/>
<path class="note" d="M 91.7 138.0 L 92.5 138.0 L 92.5 135.1 L 91.6 135.4 L 91.4 135.0 L 92.6 134.5 L 93.0 134.6 L 93.0 138.0 L 93.8 138.0 L 93.8 138.4 L 91.7 138.4 L 91.7 138.0 " fill="#000000"/>
<path class="note" d="M 94.3 135.3 Q 94.4 134.9, 94.8 134.7 Q 95.1 134.5, 95.6 134.5 Q 96.2 134.5, 96.5 134.8 Q 96.8 135.1, 96.8 135.7 Q 96.8 136.3, 96.4 136.8 Q 96.0 137.3, 95.1 138.0 L 96.9 138.0 L 96.9 138.4 L 94.3 138.4 L 94.3 138.0 Q 95.0 137.5, 95.4 137.1 Q 95.9 136.8, 96.1 136.4 Q 96.3 136.1, 96.3 135.7 Q 96.3 135.3, 96.1 135.1 Q 95.9 134.9, 95.6 134.9 Q 95.3 134.9, 95.1 135.1 Q 94.8 135.2, 94.7 135.5 L 94.3 135.3 " fill="#000000"/>
<path class="note" d="M 106.6 66.6 L 107.5 66.6 L 107.5 63.7 L 106.5 64.0 L 106.4 63.7 L 107.6 63.2 L 108.0 63.2 L 108.0 66.6 L 108.8 66.6 L 108.8 67.1 L 106.6 67.1 L 106.6 66.6 " fill="#000000"/>
<path class="note" d="M 111.1 65.0 Q 111.5 65.1, 111.7 65.4 Q 111.9 65.6, 111.9 66.0 Q 111.9 66.3, 111.7 66.6 Q 111.5 66.9, 111.2 67.0 Q 110.9 67.1, 110.5 67.1 Q 110.1 67.1, 109.8 67.0 Q 109.5 66.8, 109.2 66.5 L 109.6 66.2 Q 109.8 66.5, 110.0 66.6 Q 110.2 66.7, 110.5 66.7 Q 110.9 66.7, 111.1 66.5 Q 111.3 66.3, 111.3 66.0 Q 111.3 65.6, 111.1 65.4 Q 110.9 65.3, 110.4 65.3 L 110.1 65.3 L 110.1 64.9 L 110.3 64.9 Q 110.8 64.9, 111.0 64.7 Q 111.2 64.5, 111.2 64.1 Q 111.2 63.9, 111.0 63.7 Q 110.8 63.6, 110.5 63.6 Q 110.2 63.6, 110.0 63.7 Q 109.8 63.8, 109.7 64.1 L 109.3 63.9 Q 109.4 63.6, 109.7 63.4 Q 110.1 63.1, 110.5 63.1 Q 111.1 63.1, 111.4 63.4 Q 111.8 63.7, 111.8 64.1 Q 111.8 64.5, 111.6 64.7 Q 111.4 64.9, 111.1 65.0 " fill="#000000"/>
<path class="note" d="M 93.1 105.0 L 93.9 105.0 L 93.9 102.1 L 93.0 102.4 L 92.9 102.1 L 94.1 101.5 L 94.5 101.6 L 94.5 105.0 L 95.2 105.0 L 95.2 105.4 L 93.1 105.4 L 93.1 105.0 " fill="#000000"/>
<path class="note" d="M 98.2 104.1 L 98.7 104.1 L 98.7 104.5 L 98.2 104.5 L 98.2 105.4 L 97.7 105.4 L 97.7 104.5 L 95.7 104.5 L 95.7 104.2 L 97.4 101.5 L 98.2 101.5 L 98.2 104.1 M 96.4 104.1 L 97.7 104.1 L 97.7 101.9 L 96.4 104.1 " fill="#000000"/>
<path class="bond-0 atom-0 atom-2" d="M 295.3,123.8 L 267.8,123.8" style="fill:none;fill-rule:evenodd;stroke:#000000;stroke-width:2.0px;stroke-linecap:butt;stroke-linejoin:miter;stroke-opacity:1"/>
<path class="bond-1 atom-0 atom-6" d="M 295.3,123.8 L 309.0,100.0" style="fill:none;fill-rule:evenodd;stroke:#000000;stroke-width:2.0px;stroke-linecap:butt;stroke-linejoin:miter;stroke-opacity:1"/>
<path class="bond-2 atom-1 atom-3" d="M 295.3,76.2 L 267.8,76.2" style="fill:none;fill-rule:evenodd;stroke:#000000;stroke-width:2.0px;stroke-linecap:butt;stroke-linejoin:miter;stroke-opacity:1"/>
<path class="bond-3 atom-1 atom-6" d="M 295.3,76.2 L 309.0,100.0" style="fill:none;fill-rule:evenodd;stroke:#000000;stroke-width:2.0px;stroke-linecap:butt;stroke-linejoin:miter;stroke-opacity:1"/>
<path class="bond-4 atom-2 atom-7" d="M 267.8,123.8 L 262.3,114.3" style="fill:none;fill-rule:evenodd;stroke:#000000;stroke-width:2.0px;stroke-linecap:butt;stroke-linejoin:miter;stroke-opacity:1"/>
<path class="bond-4 atom-2 atom-7" d="M 262.3,114.3 L 256.9,104.8" style="fill:none;fill-rule:evenodd;stroke:#0000FF;stroke-width:2.0px;stroke-linecap:butt;stroke-linejoin:miter;stroke-opacity:1"/>
<path class="bond-5 atom-3 atom-7" d="M 267.8,76.2 L 262.3,85.7" style="fill:none;fill-rule:evenodd;stroke:#000000;stroke-width:2.0px;stroke-linecap:butt;stroke-linejoin:miter;stroke-opacity:1"/>
<path class="bond-5 atom-3 atom-7" d="M 262.3,85.7 L 256.9,95.2" style="fill:none;fill-rule:evenodd;stroke:#0000FF;stroke-width:2.0px;stroke-linecap:butt;stroke-linejoin:miter;stroke-opacity:1"/>
<path class="bond-6 atom-4 atom-5" d="M 351.3,113.7 L 351.3,86.2" style="fill:none;fill-rule:evenodd;stroke:#000000;stroke-width:2.0px;stroke-linecap:butt;stroke-linejoin:miter;stroke-opacity:1"/>
<path class="bond-7 atom-4 atom-8" d="M 351.3,113.7 L 340.5,117.2" style="fill:none;fill-rule:evenodd;stroke:#000000;stroke-width:2.0px;stroke-linecap:butt;stroke-linejoin:miter;stroke-opacity:1"/>
<path class="bond-7 atom-4 atom-8" d="M 340.5,117.2 L 329.6,120.7" style="fill:none;fill-rule:evenodd;stroke:#FF0000;stroke-width:2.0px;stroke-linecap:butt;stroke-linejoin:miter;stroke-opacity:1"/>
<path class="bond-8 atom-5 atom-9" d="M 351.3,86.2 L 340.5,82.7" style="fill:none;fill-rule:evenodd;stroke:#000000;stroke-width:2.0px;stroke-linecap:butt;stroke-linejoin:miter;stroke-opacity:1"/>
<path class="bond-8 atom-5 atom-9" d="M 340.5,82.7 L 329.6,79.2" style="fill:none;fill-rule:evenodd;stroke:#FF0000;stroke-width:2.0px;stroke-linecap:butt;stroke-linejoin:miter;stroke-opacity:1"/>
<path class="bond-9 atom-6 atom-8" d="M 309.0,100.0 L 315.3,108.7" style="fill:none;fill-rule:evenodd;stroke:#000000;stroke-width:2.0px;stroke-linecap:butt;stroke-linejoin:miter;stroke-opacity:1"/>
<path class="bond-9 atom-6 atom-8" d="M 315.3,108.7 L 321.6,117.4" style="fill:none;fill-rule:evenodd;stroke:#FF0000;stroke-width:2.0px;stroke-linecap:butt;stroke-linejoin:miter;stroke-opacity:1"/>
<path class="bond-10 atom-6 atom-9" d="M 309.0,100.0 L 315.3,91.3" style="fill:none;fill-rule:evenodd;stroke:#000000;stroke-width:2.0px;stroke-linecap:butt;stroke-linejoin:miter;stroke-opacity:1"/>
<path class="bond-10 atom-6 atom-9" d="M 315.3,91.3 L 321.6,82.7" style="fill:none;fill-rule:evenodd;stroke:#FF0000;stroke-width:2.0px;stroke-linecap:butt;stroke-linejoin:miter;stroke-opacity:1"/>
<path d="M 293.9,123.8 L 295.3,123.8 L 296.0,122.6" style="fill:none;stroke:#000000;stroke-width:2.0px;stroke-linecap:butt;stroke-linejoin:miter;stroke-miterlimit:10;stroke-opacity:1;"/>
<path d="M 293.9,76.2 L 295.3,76.2 L 296.0,77.4" style="fill:none;stroke:#000000;stroke-width:2.0px;stroke-linecap:butt;stroke-linejoin:miter;stroke-miterlimit:10;stroke-opacity:1;"/>
<path d="M 269.2,123.8 L 267.8,123.8 L 267.5,123.3" style="fill:none;stroke:#000000;stroke-width:2.0px;stroke-linecap:butt;stroke-linejoin:miter;stroke-miterlimit:10;stroke-opacity:1;"/>
<path d="M 269.2,76.2 L 267.8,76.2 L 267.5,76.7" style="fill:none;stroke:#000000;stroke-width:2.0px;stroke-linecap:butt;stroke-linejoin:miter;stroke-miterlimit:10;stroke-opacity:1;"/>
<path d="M 351.3,112.3 L 351.3,113.7 L 350.7,113.9" style="fill:none;stroke:#000000;stroke-width:2.0px;stroke-linecap:butt;stroke-linejoin:miter;stroke-miterlimit:10;stroke-opacity:1;"/>
<path d="M 351.3,87.6 L 351.3,86.2 L 350.7,86.1" style="fill:none;stroke:#000000;stroke-width:2.0px;stroke-linecap:butt;stroke-linejoin:miter;stroke-miterlimit:10;stroke-opacity:1;"/>
<path class="atom-7" d="M 243.5 96.1 L 244.6 96.1 L 244.6 99.4 L 248.5 99.4 L 248.5 96.1 L 249.6 96.1 L 249.6 103.9 L 248.5 103.9 L 248.5 100.3 L 244.6 100.3 L 244.6 103.9 L 243.5 103.9 L 243.5 96.1 " fill="#0000FF"/>
<path class="atom-7" d="M 252.4 96.1 L 254.9 100.2 Q 255.2 100.6, 255.6 101.3 Q 256.0 102.1, 256.0 102.1 L 256.0 96.1 L 257.0 96.1 L 257.0 103.9 L 256.0 103.9 L 253.2 99.4 Q 252.9 98.8, 252.6 98.2 Q 252.2 97.6, 252.1 97.4 L 252.1 103.9 L 251.1 103.9 L 251.1 96.1 L 252.4 96.1 " fill="#0000FF"/>
<path class="atom-8" d="M 321.6 122.2 Q 321.6 120.3, 322.5 119.3 Q 323.4 118.3, 325.2 118.3 Q 326.9 118.3, 327.8 119.3 Q 328.7 120.3, 328.7 122.2 Q 328.7 124.1, 327.8 125.2 Q 326.9 126.2, 325.2 126.2 Q 323.4 126.2, 322.5 125.2 Q 321.6 124.1, 321.6 122.2 M 325.2 125.4 Q 326.3 125.4, 327.0 124.6 Q 327.6 123.8, 327.6 122.2 Q 327.6 120.7, 327.0 119.9 Q 326.3 119.1, 325.2 119.1 Q 324.0 119.1, 323.3 119.9 Q 322.7 120.7, 322.7 122.2 Q 322.7 123.8, 323.3 124.6 Q 324.0 125.4, 325.2 125.4 " fill="#FF0000"/>
<path class="atom-9" d="M 321.6 77.8 Q 321.6 75.9, 322.5 74.9 Q 323.4 73.8, 325.2 73.8 Q 326.9 73.8, 327.8 74.9 Q 328.7 75.9, 328.7 77.8 Q 328.7 79.7, 327.8 80.7 Q 326.9 81.8, 325.2 81.8 Q 323.4 81.8, 322.5 80.7 Q 321.6 79.7, 321.6 77.8 M 325.2 80.9 Q 326.3 80.9, 327.0 80.1 Q 327.6 79.3, 327.6 77.8 Q 327.6 76.2, 327.0 75.5 Q 326.3 74.7, 325.2 74.7 Q 324.0 74.7, 323.3 75.5 Q 322.7 76.2, 322.7 77.8 Q 322.7 79.3, 323.3 80.1 Q 324.0 80.9, 325.2 80.9 " fill="#FF0000"/>
<path class="note" d="M 297.6 129.7 Q 296.9 129.7, 296.5 129.2 Q 296.2 128.7, 296.2 127.7 Q 296.2 126.8, 296.5 126.3 Q 296.9 125.8, 297.6 125.8 Q 298.3 125.8, 298.6 126.3 Q 299.0 126.8, 299.0 127.7 Q 299.0 128.7, 298.6 129.2 Q 298.3 129.7, 297.6 129.7 M 297.6 129.3 Q 298.0 129.3, 298.2 128.9 Q 298.4 128.5, 298.4 127.7 Q 298.4 127.0, 298.2 126.6 Q 298.0 126.2, 297.6 126.2 Q 297.2 126.2, 296.9 126.6 Q 296.7 127.0, 296.7 127.7 Q 296.7 128.5, 296.9 128.9 Q 297.2 129.3, 297.6 129.3 " fill="#000000"/>
<path class="note" d="M 296.6 73.7 L 297.5 73.7 L 297.5 70.8 L 296.5 71.1 L 296.4 70.8 L 297.6 70.3 L 298.0 70.3 L 298.0 73.7 L 298.7 73.7 L 298.7 74.2 L 296.6 74.2 L 296.6 73.7 " fill="#000000"/>
<path class="note" d="M 264.2 126.5 Q 264.4 126.2, 264.7 126.0 Q 265.1 125.8, 265.5 125.8 Q 266.1 125.8, 266.4 126.1 Q 266.8 126.4, 266.8 127.0 Q 266.8 127.5, 266.3 128.1 Q 265.9 128.6, 265.0 129.2 L 266.8 129.2 L 266.8 129.7 L 264.2 129.7 L 264.2 129.3 Q 264.9 128.8, 265.4 128.4 Q 265.8 128.0, 266.0 127.7 Q 266.2 127.3, 266.2 127.0 Q 266.2 126.6, 266.0 126.4 Q 265.9 126.2, 265.5 126.2 Q 265.2 126.2, 265.0 126.3 Q 264.8 126.4, 264.6 126.7 L 264.2 126.5 " fill="#000000"/>
<path class="note" d="M 266.1 72.1 Q 266.5 72.3, 266.7 72.5 Q 266.8 72.7, 266.8 73.1 Q 266.8 73.5, 266.7 73.7 Q 266.5 74.0, 266.2 74.1 Q 265.9 74.2, 265.5 74.2 Q 265.1 74.2, 264.8 74.1 Q 264.5 74.0, 264.2 73.7 L 264.5 73.3 Q 264.8 73.6, 265.0 73.7 Q 265.2 73.8, 265.5 73.8 Q 265.9 73.8, 266.1 73.6 Q 266.3 73.4, 266.3 73.1 Q 266.3 72.7, 266.1 72.5 Q 265.8 72.4, 265.4 72.4 L 265.1 72.4 L 265.1 72.0 L 265.3 72.0 Q 265.8 72.0, 266.0 71.8 Q 266.2 71.6, 266.2 71.3 Q 266.2 71.0, 266.0 70.8 Q 265.8 70.7, 265.5 70.7 Q 265.2 70.7, 265.0 70.8 Q 264.8 70.9, 264.6 71.2 L 264.3 71.0 Q 264.4 70.7, 264.7 70.5 Q 265.1 70.3, 265.5 70.3 Q 266.1 70.3, 266.4 70.5 Q 266.8 70.8, 266.8 71.3 Q 266.8 71.6, 266.6 71.8 Q 266.4 72.0, 266.1 72.1 " fill="#000000"/>
<path class="note" d="M 356.0 117.0 L 356.5 117.0 L 356.5 117.4 L 356.0 117.4 L 356.0 118.3 L 355.5 118.3 L 355.5 117.4 L 353.5 117.4 L 353.5 117.1 L 355.2 114.5 L 356.0 114.5 L 356.0 117.0 M 354.1 117.0 L 355.5 117.0 L 355.5 114.8 L 354.1 117.0 " fill="#000000"/>
<path class="note" d="M 355.1 83.1 Q 355.4 83.1, 355.7 83.2 Q 356.0 83.4, 356.1 83.6 Q 356.3 83.9, 356.3 84.3 Q 356.3 84.7, 356.1 85.0 Q 355.9 85.2, 355.6 85.4 Q 355.3 85.5, 354.9 85.5 Q 354.6 85.5, 354.2 85.4 Q 353.9 85.3, 353.7 85.0 L 354.0 84.7 Q 354.2 84.9, 354.4 85.0 Q 354.7 85.1, 354.9 85.1 Q 355.3 85.1, 355.5 84.9 Q 355.8 84.7, 355.8 84.3 Q 355.8 83.9, 355.5 83.7 Q 355.3 83.5, 354.9 83.5 Q 354.6 83.5, 354.2 83.6 L 353.9 83.5 L 354.1 81.6 L 356.1 81.6 L 356.0 82.0 L 354.5 82.0 L 354.4 83.2 Q 354.7 83.1, 355.1 83.1 " fill="#000000"/>
<path class="note" d="M 304.6 99.5 Q 305.0 99.5, 305.2 99.7 Q 305.5 99.8, 305.6 100.1 Q 305.8 100.3, 305.8 100.7 Q 305.8 101.1, 305.6 101.4 Q 305.5 101.7, 305.2 101.8 Q 304.9 102.0, 304.5 102.0 Q 303.8 102.0, 303.4 101.5 Q 303.1 101.0, 303.1 100.1 Q 303.1 99.1, 303.5 98.5 Q 304.0 98.0, 304.8 98.0 Q 305.0 98.0, 305.2 98.1 Q 305.4 98.1, 305.6 98.2 L 305.4 98.6 Q 305.1 98.4, 304.8 98.4 Q 304.2 98.4, 304.0 98.8 Q 303.7 99.2, 303.6 99.9 Q 303.8 99.7, 304.1 99.6 Q 304.3 99.5, 304.6 99.5 M 304.5 101.5 Q 304.7 101.5, 304.9 101.4 Q 305.0 101.3, 305.1 101.1 Q 305.2 100.9, 305.2 100.7 Q 305.2 100.3, 305.0 100.1 Q 304.9 100.0, 304.5 100.0 Q 304.3 100.0, 304.0 100.0 Q 303.8 100.1, 303.6 100.3 Q 303.7 101.0, 303.9 101.2 Q 304.1 101.5, 304.5 101.5 " fill="#000000"/>
<path class="note" d="M 250.3 90.5 L 248.2 90.5 L 248.2 90.1 L 250.8 90.1 L 250.8 90.5 L 249.2 94.0 L 248.7 94.0 L 250.3 90.5 " fill="#000000"/>
<path class="note" d="M 322.9 130.8 Q 323.3 131.0, 323.5 131.2 Q 323.7 131.4, 323.7 131.8 Q 323.7 132.1, 323.5 132.4 Q 323.4 132.6, 323.1 132.8 Q 322.8 132.9, 322.4 132.9 Q 321.7 132.9, 321.3 132.6 Q 321.0 132.3, 321.0 131.8 Q 321.0 131.5, 321.1 131.2 Q 321.3 131.0, 321.6 130.8 Q 321.4 130.7, 321.2 130.5 Q 321.1 130.3, 321.1 129.9 Q 321.1 129.5, 321.4 129.2 Q 321.8 128.9, 322.3 128.9 Q 322.9 128.9, 323.2 129.2 Q 323.6 129.5, 323.6 129.9 Q 323.6 130.2, 323.4 130.4 Q 323.2 130.6, 322.9 130.8 M 322.3 129.3 Q 322.0 129.3, 321.8 129.5 Q 321.7 129.7, 321.7 129.9 Q 321.7 130.1, 321.8 130.3 Q 321.9 130.4, 322.1 130.5 Q 322.2 130.6, 322.6 130.7 Q 322.8 130.5, 322.9 130.3 Q 323.0 130.2, 323.0 129.9 Q 323.0 129.7, 322.8 129.5 Q 322.7 129.3, 322.3 129.3 M 322.4 132.5 Q 322.7 132.5, 322.9 132.3 Q 323.2 132.1, 323.2 131.8 Q 323.2 131.6, 323.0 131.5 Q 322.9 131.3, 322.7 131.2 Q 322.6 131.2, 322.3 131.1 L 322.0 131.0 Q 321.7 131.2, 321.6 131.3 Q 321.5 131.5, 321.5 131.8 Q 321.5 132.1, 321.7 132.3 Q 322.0 132.5, 322.4 132.5 " fill="#000000"/>
<path class="note" d="M 322.3 67.1 Q 323.0 67.1, 323.3 67.6 Q 323.7 68.0, 323.7 69.0 Q 323.7 70.0, 323.2 70.5 Q 322.8 71.1, 322.0 71.1 Q 321.7 71.1, 321.5 71.0 Q 321.3 70.9, 321.1 70.8 L 321.4 70.5 Q 321.6 70.6, 322.0 70.6 Q 322.5 70.6, 322.8 70.3 Q 323.1 69.9, 323.1 69.2 Q 322.9 69.4, 322.7 69.5 Q 322.4 69.6, 322.2 69.6 Q 321.8 69.6, 321.5 69.4 Q 321.3 69.3, 321.1 69.0 Q 321.0 68.7, 321.0 68.4 Q 321.0 68.0, 321.1 67.7 Q 321.3 67.4, 321.6 67.2 Q 321.9 67.1, 322.3 67.1 M 321.5 68.4 Q 321.5 68.7, 321.7 68.9 Q 321.9 69.1, 322.3 69.1 Q 322.5 69.1, 322.7 69.0 Q 323.0 68.9, 323.1 68.8 Q 323.1 68.1, 322.9 67.8 Q 322.7 67.5, 322.3 67.5 Q 322.1 67.5, 321.9 67.6 Q 321.7 67.7, 321.6 67.9 Q 321.5 68.1, 321.5 68.4 " fill="#000000"/>
<path class="bond-0 atom-0 atom-1" d="M 509.1,122.2 L 535.2,113.7" style="fill:none;fill-rule:evenodd;stroke:#000000;stroke-width:2.0px;stroke-linecap:butt;stroke-linejoin:miter;stroke-opacity:1"/>
<path class="bond-1 atom-0 atom-3" d="M 509.1,122.2 L 493.0,100.0" style="fill:none;fill-rule:evenodd;stroke:#000000;stroke-width:2.0px;stroke-linecap:butt;stroke-linejoin:miter;stroke-opacity:1"/>
<path class="bond-2 atom-1 atom-4" d="M 535.2,113.7 L 535.2,102.4" style="fill:none;fill-rule:evenodd;stroke:#000000;stroke-width:2.0px;stroke-linecap:butt;stroke-linejoin:miter;stroke-opacity:1"/>
<path class="bond-2 atom-1 atom-4" d="M 535.2,102.4 L 535.2,91.0" style="fill:none;fill-rule:evenodd;stroke:#0000FF;stroke-width:2.0px;stroke-linecap:butt;stroke-linejoin:miter;stroke-opacity:1"/>
<path class="bond-3 atom-2 atom-3" d="M 509.1,77.8 L 493.0,100.0" style="fill:none;fill-rule:evenodd;stroke:#000000;stroke-width:2.0px;stroke-linecap:butt;stroke-linejoin:miter;stroke-opacity:1"/>
<path class="bond-4 atom-2 atom-4" d="M 509.1,77.8 L 520.2,81.4" style="fill:none;fill-rule:evenodd;stroke:#000000;stroke-width:2.0px;stroke-linecap:butt;stroke-linejoin:miter;stroke-opacity:1"/>
<path class="bond-4 atom-2 atom-4" d="M 520.2,81.4 L 531.4,85.0" style="fill:none;fill-rule:evenodd;stroke:#0000FF;stroke-width:2.0px;stroke-linecap:butt;stroke-linejoin:miter;stroke-opacity:1"/>
<path class="bond-5 atom-3 atom-5" d="M 493.0,100.0 L 481.5,100.0" style="fill:none;fill-rule:evenodd;stroke:#000000;stroke-width:2.0px;stroke-linecap:butt;stroke-linejoin:miter;stroke-opacity:1"/>
<path class="bond-5 atom-3 atom-5" d="M 481.5,100.0 L 470.0,100.0" style="fill:none;fill-rule:evenodd;stroke:#FF0000;stroke-width:2.0px;stroke-linecap:butt;stroke-linejoin:miter;stroke-opacity:1"/>
<path d="M 510.4,121.8 L 509.1,122.2 L 508.3,121.1" style="fill:none;stroke:#000000;stroke-width:2.0px;stroke-linecap:butt;stroke-linejoin:miter;stroke-miterlimit:10;stroke-opacity:1;"/>
<path d="M 533.9,114.1 L 535.2,113.7 L 535.2,113.1" style="fill:none;stroke:#000000;stroke-width:2.0px;stroke-linecap:butt;stroke-linejoin:miter;stroke-miterlimit:10;stroke-opacity:1;"/>
<path d="M 508.3,78.9 L 509.1,77.8 L 509.7,77.9" style="fill:none;stroke:#000000;stroke-width:2.0px;stroke-linecap:butt;stroke-linejoin:miter;stroke-miterlimit:10;stroke-opacity:1;"/>
<path class="atom-4" d="M 533.5 82.4 L 536.0 86.5 Q 536.3 86.9, 536.7 87.6 Q 537.1 88.4, 537.1 88.4 L 537.1 82.4 L 538.2 82.4 L 538.2 90.1 L 537.1 90.1 L 534.4 85.6 Q 534.0 85.1, 533.7 84.5 Q 533.4 83.9, 533.3 83.7 L 533.3 90.1 L 532.3 90.1 L 532.3 82.4 L 533.5 82.4 " fill="#0000FF"/>
<path class="atom-4" d="M 539.7 82.4 L 540.7 82.4 L 540.7 85.7 L 544.7 85.7 L 544.7 82.4 L 545.8 82.4 L 545.8 90.1 L 544.7 90.1 L 544.7 86.5 L 540.7 86.5 L 540.7 90.1 L 539.7 90.1 L 539.7 82.4 " fill="#0000FF"/>
<path class="atom-5" d="M 454.2 96.1 L 455.3 96.1 L 455.3 99.4 L 459.3 99.4 L 459.3 96.1 L 460.3 96.1 L 460.3 103.9 L 459.3 103.9 L 459.3 100.3 L 455.3 100.3 L 455.3 103.9 L 454.2 103.9 L 454.2 96.1 " fill="#FF0000"/>
<path class="atom-5" d="M 461.9 100.0 Q 461.9 98.1, 462.8 97.1 Q 463.8 96.0, 465.5 96.0 Q 467.2 96.0, 468.1 97.1 Q 469.1 98.1, 469.1 100.0 Q 469.1 101.9, 468.1 103.0 Q 467.2 104.0, 465.5 104.0 Q 463.8 104.0, 462.8 103.0 Q 461.9 101.9, 461.9 100.0 M 465.5 103.2 Q 466.7 103.2, 467.3 102.4 Q 468.0 101.6, 468.0 100.0 Q 468.0 98.5, 467.3 97.7 Q 466.7 96.9, 465.5 96.9 Q 464.3 96.9, 463.7 97.7 Q 463.0 98.5, 463.0 100.0 Q 463.0 101.6, 463.7 102.4 Q 464.3 103.2, 465.5 103.2 " fill="#FF0000"/>
<path class="note" d="M 507.7 128.6 Q 507.0 128.6, 506.6 128.0 Q 506.3 127.5, 506.3 126.6 Q 506.3 125.6, 506.6 125.1 Q 507.0 124.6, 507.7 124.6 Q 508.4 124.6, 508.8 125.1 Q 509.1 125.6, 509.1 126.6 Q 509.1 127.5, 508.7 128.0 Q 508.4 128.6, 507.7 128.6 M 507.7 128.1 Q 508.1 128.1, 508.3 127.7 Q 508.6 127.3, 508.6 126.6 Q 508.6 125.8, 508.3 125.4 Q 508.1 125.0, 507.7 125.0 Q 507.3 125.0, 507.0 125.4 Q 506.8 125.8, 506.8 126.6 Q 506.8 127.3, 507.0 127.7 Q 507.3 128.1, 507.7 128.1 " fill="#000000"/>
<path class="note" d="M 538.0 117.9 L 538.8 117.9 L 538.8 115.0 L 537.9 115.3 L 537.7 115.0 L 538.9 114.4 L 539.3 114.5 L 539.3 117.9 L 540.1 117.9 L 540.1 118.4 L 538.0 118.4 L 538.0 117.9 " fill="#000000"/>
<path class="note" d="M 506.4 72.2 Q 506.5 71.9, 506.9 71.6 Q 507.2 71.4, 507.7 71.4 Q 508.3 71.4, 508.6 71.8 Q 508.9 72.1, 508.9 72.6 Q 508.9 73.2, 508.5 73.8 Q 508.1 74.3, 507.2 74.9 L 509.0 74.9 L 509.0 75.4 L 506.4 75.4 L 506.4 75.0 Q 507.1 74.5, 507.5 74.1 Q 508.0 73.7, 508.2 73.4 Q 508.4 73.0, 508.4 72.7 Q 508.4 72.3, 508.2 72.1 Q 508.0 71.9, 507.7 71.9 Q 507.4 71.9, 507.2 72.0 Q 506.9 72.1, 506.8 72.4 L 506.4 72.2 " fill="#000000"/>
<path class="note" d="M 498.1 99.9 Q 498.5 100.0, 498.7 100.3 Q 498.8 100.5, 498.8 100.9 Q 498.8 101.2, 498.7 101.5 Q 498.5 101.7, 498.2 101.9 Q 497.9 102.0, 497.5 102.0 Q 497.1 102.0, 496.8 101.9 Q 496.5 101.7, 496.2 101.4 L 496.5 101.1 Q 496.8 101.4, 497.0 101.5 Q 497.2 101.6, 497.5 101.6 Q 497.9 101.6, 498.1 101.4 Q 498.3 101.2, 498.3 100.9 Q 498.3 100.5, 498.1 100.3 Q 497.8 100.1, 497.4 100.1 L 497.1 100.1 L 497.1 99.7 L 497.3 99.7 Q 497.8 99.7, 498.0 99.5 Q 498.2 99.4, 498.2 99.0 Q 498.2 98.8, 498.0 98.6 Q 497.8 98.5, 497.5 98.5 Q 497.2 98.5, 497.0 98.6 Q 496.8 98.7, 496.6 99.0 L 496.3 98.8 Q 496.4 98.4, 496.7 98.2 Q 497.1 98.0, 497.5 98.0 Q 498.1 98.0, 498.4 98.3 Q 498.8 98.5, 498.8 99.0 Q 498.8 99.3, 498.6 99.5 Q 498.4 99.8, 498.1 99.9 " fill="#000000"/>
<path class="note" d="M 541.6 94.3 L 542.1 94.3 L 542.1 94.7 L 541.6 94.7 L 541.6 95.6 L 541.1 95.6 L 541.1 94.7 L 539.1 94.7 L 539.1 94.4 L 540.8 91.7 L 541.6 91.7 L 541.6 94.3 M 539.7 94.3 L 541.1 94.3 L 541.1 92.1 L 539.7 94.3 " fill="#000000"/>
<path class="note" d="M 461.0 91.6 Q 461.3 91.6, 461.6 91.7 Q 461.9 91.9, 462.1 92.1 Q 462.2 92.4, 462.2 92.8 Q 462.2 93.2, 462.0 93.5 Q 461.8 93.7, 461.5 93.9 Q 461.2 94.0, 460.8 94.0 Q 460.5 94.0, 460.1 93.9 Q 459.8 93.8, 459.6 93.5 L 459.9 93.2 Q 460.1 93.4, 460.4 93.5 Q 460.6 93.6, 460.9 93.6 Q 461.2 93.6, 461.4 93.4 Q 461.7 93.2, 461.7 92.8 Q 461.7 92.4, 461.4 92.2 Q 461.2 92.0, 460.8 92.0 Q 460.5 92.0, 460.1 92.1 L 459.8 92.0 L 460.0 90.1 L 462.0 90.1 L 461.9 90.5 L 460.4 90.5 L 460.3 91.7 Q 460.7 91.6, 461.0 91.6 " fill="#000000"/>
</svg>