<svg xmlns="http://www.w3.org/2000/svg" xmlns:rdkit="http://www.rdkit.org/xml" xmlns:xlink="http://www.w3.org/1999/xlink" version="1.1" baseProfile="full" xml:space="preserve" width="600px" height="200px" viewBox="0 0 600 200">
<!-- END OF HEADER -->
<rect style="opacity:1.0;fill:#FFFFFF;stroke:none" width="200.0" height="200.0" x="0.0" y="0.0"> </rect>
<path class="bond-0 atom-0 atom-1" d="M 114.3,79.9 L 86.2,102.1" style="fill:none;fill-rule:evenodd;stroke:#000000;stroke-width:2.0px;stroke-linecap:butt;stroke-linejoin:miter;stroke-opacity:1"/>
<path class="bond-1 atom-1 atom-2" d="M 86.2,102.1 L 52.9,88.8" style="fill:none;fill-rule:evenodd;stroke:#000000;stroke-width:2.0px;stroke-linecap:butt;stroke-linejoin:miter;stroke-opacity:1"/>
<path class="bond-2 atom-2 atom-3" d="M 55.7,89.9 L 53.5,74.7" style="fill:none;fill-rule:evenodd;stroke:#000000;stroke-width:2.0px;stroke-linecap:butt;stroke-linejoin:miter;stroke-opacity:1"/>
<path class="bond-2 atom-2 atom-3" d="M 53.5,74.7 L 51.3,59.4" style="fill:none;fill-rule:evenodd;stroke:#FF0000;stroke-width:2.0px;stroke-linecap:butt;stroke-linejoin:miter;stroke-opacity:1"/>
<path class="bond-2 atom-2 atom-3" d="M 50.4,90.7 L 48.2,75.4" style="fill:none;fill-rule:evenodd;stroke:#000000;stroke-width:2.0px;stroke-linecap:butt;stroke-linejoin:miter;stroke-opacity:1"/>
<path class="bond-2 atom-2 atom-3" d="M 48.2,75.4 L 46.0,60.2" style="fill:none;fill-rule:evenodd;stroke:#FF0000;stroke-width:2.0px;stroke-linecap:butt;stroke-linejoin:miter;stroke-opacity:1"/>
<path class="bond-3 atom-2 atom-4" d="M 52.9,88.8 L 41.7,97.6" style="fill:none;fill-rule:evenodd;stroke:#000000;stroke-width:2.0px;stroke-linecap:butt;stroke-linejoin:miter;stroke-opacity:1"/>
<path class="bond-3 atom-2 atom-4" d="M 41.7,97.6 L 30.5,106.4" style="fill:none;fill-rule:evenodd;stroke:#FF0000;stroke-width:2.0px;stroke-linecap:butt;stroke-linejoin:miter;stroke-opacity:1"/>
<path class="bond-4 atom-1 atom-5" d="M 86.2,102.1 L 89.5,115.9 L 86.9,116.3 Z" style="fill:#000000;fill-rule:evenodd;fill-opacity:1;stroke:#000000;stroke-width:0.5px;stroke-linecap:butt;stroke-linejoin:miter;stroke-miterlimit:10;stroke-opacity:1;"/>
<path class="bond-4 atom-1 atom-5" d="M 89.5,115.9 L 87.6,130.5 L 92.9,129.7 Z" style="fill:#FF0000;fill-rule:evenodd;fill-opacity:1;stroke:#FF0000;stroke-width:0.5px;stroke-linecap:butt;stroke-linejoin:miter;stroke-miterlimit:10;stroke-opacity:1;"/>
<path class="bond-4 atom-1 atom-5" d="M 89.5,115.9 L 86.9,116.3 L 87.6,130.5 Z" style="fill:#FF0000;fill-rule:evenodd;fill-opacity:1;stroke:#FF0000;stroke-width:0.5px;stroke-linecap:butt;stroke-linejoin:miter;stroke-miterlimit:10;stroke-opacity:1;"/>
<path class="bond-5 atom-0 atom-6" d="M 114.3,79.9 L 147.6,93.2" style="fill:none;fill-rule:evenodd;stroke:#000000;stroke-width:2.0px;stroke-linecap:butt;stroke-linejoin:miter;stroke-opacity:1"/>
<path class="bond-6 atom-6 atom-7" d="M 144.8,92.0 L 147.0,107.4" style="fill:none;fill-rule:evenodd;stroke:#000000;stroke-width:2.0px;stroke-linecap:butt;stroke-linejoin:miter;stroke-opacity:1"/>
<path class="bond-6 atom-6 atom-7" d="M 147.0,107.4 L 149.2,122.7" style="fill:none;fill-rule:evenodd;stroke:#FF0000;stroke-width:2.0px;stroke-linecap:butt;stroke-linejoin:miter;stroke-opacity:1"/>
<path class="bond-6 atom-6 atom-7" d="M 150.1,91.3 L 152.3,106.6" style="fill:none;fill-rule:evenodd;stroke:#000000;stroke-width:2.0px;stroke-linecap:butt;stroke-linejoin:miter;stroke-opacity:1"/>
<path class="bond-6 atom-6 atom-7" d="M 152.3,106.6 L 154.5,122.0" style="fill:none;fill-rule:evenodd;stroke:#FF0000;stroke-width:2.0px;stroke-linecap:butt;stroke-linejoin:miter;stroke-opacity:1"/>
<path class="bond-7 atom-6 atom-8" d="M 147.6,93.2 L 158.8,84.4" style="fill:none;fill-rule:evenodd;stroke:#000000;stroke-width:2.0px;stroke-linecap:butt;stroke-linejoin:miter;stroke-opacity:1"/>
<path class="bond-7 atom-6 atom-8" d="M 158.8,84.4 L 170.0,75.6" style="fill:none;fill-rule:evenodd;stroke:#FF0000;stroke-width:2.0px;stroke-linecap:butt;stroke-linejoin:miter;stroke-opacity:1"/>
<path class="bond-8 atom-0 atom-9" d="M 114.3,79.9 L 111.0,66.2 L 113.7,65.8 Z" style="fill:#000000;fill-rule:evenodd;fill-opacity:1;stroke:#000000;stroke-width:0.5px;stroke-linecap:butt;stroke-linejoin:miter;stroke-miterlimit:10;stroke-opacity:1;"/>
<path class="bond-8 atom-0 atom-9" d="M 111.0,66.2 L 113.0,51.7 L 107.6,52.4 Z" style="fill:#FF0000;fill-rule:evenodd;fill-opacity:1;stroke:#FF0000;stroke-width:0.5px;stroke-linecap:butt;stroke-linejoin:miter;stroke-miterlimit:10;stroke-opacity:1;"/>
<path class="bond-8 atom-0 atom-9" d="M 111.0,66.2 L 113.7,65.8 L 113.0,51.7 Z" style="fill:#FF0000;fill-rule:evenodd;fill-opacity:1;stroke:#FF0000;stroke-width:0.5px;stroke-linecap:butt;stroke-linejoin:miter;stroke-miterlimit:10;stroke-opacity:1;"/>
<path d="M 112.9,81.0 L 114.3,79.9 L 116.0,80.6" style="fill:none;stroke:#000000;stroke-width:2.0px;stroke-linecap:butt;stroke-linejoin:miter;stroke-miterlimit:10;stroke-opacity:1;"/>
<path d="M 87.6,101.0 L 86.2,102.1 L 84.5,101.4" style="fill:none;stroke:#000000;stroke-width:2.0px;stroke-linecap:butt;stroke-linejoin:miter;stroke-miterlimit:10;stroke-opacity:1;"/>
<path d="M 54.5,89.5 L 52.9,88.8 L 52.3,89.2" style="fill:none;stroke:#000000;stroke-width:2.0px;stroke-linecap:butt;stroke-linejoin:miter;stroke-miterlimit:10;stroke-opacity:1;"/>
<path d="M 146.0,92.5 L 147.6,93.2 L 148.2,92.7" style="fill:none;stroke:#000000;stroke-width:2.0px;stroke-linecap:butt;stroke-linejoin:miter;stroke-miterlimit:10;stroke-opacity:1;"/>
<path class="atom-3" d="M 43.1 53.3 Q 43.1 50.9, 44.3 49.5 Q 45.5 48.2, 47.7 48.2 Q 50.0 48.2, 51.2 49.5 Q 52.4 50.9, 52.4 53.3 Q 52.4 55.8, 51.2 57.2 Q 49.9 58.6, 47.7 58.6 Q 45.5 58.6, 44.3 57.2 Q 43.1 55.8, 43.1 53.3 M 47.7 57.4 Q 49.3 57.4, 50.1 56.4 Q 51.0 55.4, 51.0 53.3 Q 51.0 51.3, 50.1 50.3 Q 49.3 49.3, 47.7 49.3 Q 46.2 49.3, 45.3 50.3 Q 44.5 51.3, 44.5 53.3 Q 44.5 55.4, 45.3 56.4 Q 46.2 57.4, 47.7 57.4 " fill="#FF0000"/>
<path class="atom-4" d="M 10.0 106.0 L 11.4 106.0 L 11.4 110.3 L 16.6 110.3 L 16.6 106.0 L 17.9 106.0 L 17.9 116.1 L 16.6 116.1 L 16.6 111.4 L 11.4 111.4 L 11.4 116.1 L 10.0 116.1 L 10.0 106.0 " fill="#FF0000"/>
<path class="atom-4" d="M 20.0 111.0 Q 20.0 108.6, 21.2 107.2 Q 22.4 105.8, 24.7 105.8 Q 26.9 105.8, 28.1 107.2 Q 29.4 108.6, 29.4 111.0 Q 29.4 113.5, 28.1 114.9 Q 26.9 116.3, 24.7 116.3 Q 22.5 116.3, 21.2 114.9 Q 20.0 113.5, 20.0 111.0 M 24.7 115.1 Q 26.2 115.1, 27.1 114.1 Q 27.9 113.0, 27.9 111.0 Q 27.9 109.0, 27.1 108.0 Q 26.2 107.0, 24.7 107.0 Q 23.1 107.0, 22.3 108.0 Q 21.5 109.0, 21.5 111.0 Q 21.5 113.1, 22.3 114.1 Q 23.1 115.1, 24.7 115.1 " fill="#FF0000"/>
<path class="atom-5" d="M 86.6 137.6 Q 86.6 135.2, 87.8 133.8 Q 89.1 132.4, 91.3 132.4 Q 93.6 132.4, 94.8 133.8 Q 96.0 135.2, 96.0 137.6 Q 96.0 140.1, 94.7 141.5 Q 93.5 142.9, 91.3 142.9 Q 89.1 142.9, 87.8 141.5 Q 86.6 140.1, 86.6 137.6 M 91.3 141.7 Q 92.9 141.7, 93.7 140.7 Q 94.5 139.6, 94.5 137.6 Q 94.5 135.6, 93.7 134.6 Q 92.9 133.6, 91.3 133.6 Q 89.8 133.6, 88.9 134.6 Q 88.1 135.6, 88.1 137.6 Q 88.1 139.7, 88.9 140.7 Q 89.8 141.7, 91.3 141.7 " fill="#FF0000"/>
<path class="atom-5" d="M 97.5 132.6 L 98.9 132.6 L 98.9 136.9 L 104.1 136.9 L 104.1 132.6 L 105.5 132.6 L 105.5 142.7 L 104.1 142.7 L 104.1 138.0 L 98.9 138.0 L 98.9 142.7 L 97.5 142.7 L 97.5 132.6 " fill="#FF0000"/>
<path class="atom-7" d="M 148.1 128.7 Q 148.1 126.3, 149.3 124.9 Q 150.5 123.5, 152.8 123.5 Q 155.0 123.5, 156.2 124.9 Q 157.4 126.3, 157.4 128.7 Q 157.4 131.2, 156.2 132.6 Q 155.0 134.0, 152.8 134.0 Q 150.5 134.0, 149.3 132.6 Q 148.1 131.2, 148.1 128.7 M 152.8 132.8 Q 154.3 132.8, 155.2 131.8 Q 156.0 130.7, 156.0 128.7 Q 156.0 126.7, 155.2 125.7 Q 154.3 124.7, 152.8 124.7 Q 151.2 124.7, 150.4 125.7 Q 149.6 126.7, 149.6 128.7 Q 149.6 130.8, 150.4 131.8 Q 151.2 132.8, 152.8 132.8 " fill="#FF0000"/>
<path class="atom-8" d="M 171.1 71.0 Q 171.1 68.6, 172.4 67.2 Q 173.6 65.9, 175.8 65.9 Q 178.1 65.9, 179.3 67.2 Q 180.5 68.6, 180.5 71.0 Q 180.5 73.5, 179.3 74.9 Q 178.0 76.3, 175.8 76.3 Q 173.6 76.3, 172.4 74.9 Q 171.1 73.5, 171.1 71.0 M 175.8 75.1 Q 177.4 75.1, 178.2 74.1 Q 179.0 73.1, 179.0 71.0 Q 179.0 69.0, 178.2 68.0 Q 177.4 67.0, 175.8 67.0 Q 174.3 67.0, 173.4 68.0 Q 172.6 69.0, 172.6 71.0 Q 172.6 73.1, 173.4 74.1 Q 174.3 75.1, 175.8 75.1 " fill="#FF0000"/>
<path class="atom-8" d="M 182.1 66.0 L 183.4 66.0 L 183.4 70.3 L 188.6 70.3 L 188.6 66.0 L 190.0 66.0 L 190.0 76.1 L 188.6 76.1 L 188.6 71.4 L 183.4 71.4 L 183.4 76.1 L 182.1 76.1 L 182.1 66.0 " fill="#FF0000"/>
<path class="atom-9" d="M 104.5 44.4 Q 104.5 42.0, 105.7 40.6 Q 106.9 39.3, 109.2 39.3 Q 111.4 39.3, 112.7 40.6 Q 113.9 42.0, 113.9 44.4 Q 113.9 46.9, 112.6 48.3 Q 111.4 49.7, 109.2 49.7 Q 107.0 49.7, 105.7 48.3 Q 104.5 46.9, 104.5 44.4 M 109.2 48.5 Q 110.7 48.5, 111.6 47.5 Q 112.4 46.5, 112.4 44.4 Q 112.4 42.4, 111.6 41.4 Q 110.7 40.4, 109.2 40.4 Q 107.6 40.4, 106.8 41.4 Q 106.0 42.4, 106.0 44.4 Q 106.0 46.5, 106.8 47.5 Q 107.6 48.5, 109.2 48.5 " fill="#FF0000"/>
<path class="atom-9" d="M 115.4 39.4 L 116.8 39.4 L 116.8 43.7 L 122.0 43.7 L 122.0 39.4 L 123.4 39.4 L 123.4 49.5 L 122.0 49.5 L 122.0 44.8 L 116.8 44.8 L 116.8 49.5 L 115.4 49.5 L 115.4 39.4 " fill="#FF0000"/>
<path class="note" d="M 115.2 88.4 Q 114.3 88.4, 113.8 87.7 Q 113.3 87.1, 113.3 85.8 Q 113.3 84.6, 113.8 83.9 Q 114.3 83.2, 115.2 83.2 Q 116.1 83.2, 116.6 83.9 Q 117.0 84.6, 117.0 85.8 Q 117.0 87.1, 116.6 87.7 Q 116.1 88.4, 115.2 88.4 M 115.2 87.9 Q 115.7 87.9, 116.0 87.3 Q 116.3 86.8, 116.3 85.8 Q 116.3 84.8, 116.0 84.3 Q 115.7 83.8, 115.2 83.8 Q 114.6 83.8, 114.3 84.3 Q 114.1 84.8, 114.1 85.8 Q 114.1 86.8, 114.3 87.3 Q 114.6 87.9, 115.2 87.9 " fill="#000000"/>
<path class="note" d="M 84.1 98.1 L 85.2 98.1 L 85.2 94.4 L 83.9 94.7 L 83.8 94.3 L 85.3 93.6 L 85.8 93.7 L 85.8 98.1 L 86.8 98.1 L 86.8 98.7 L 84.1 98.7 L 84.1 98.1 " fill="#000000"/>
<path class="note" d="M 52.0 93.2 Q 52.2 92.7, 52.7 92.4 Q 53.1 92.1, 53.7 92.1 Q 54.5 92.1, 54.9 92.6 Q 55.3 93.0, 55.3 93.7 Q 55.3 94.5, 54.8 95.2 Q 54.2 95.9, 53.1 96.7 L 55.4 96.7 L 55.4 97.3 L 52.0 97.3 L 52.0 96.8 Q 53.0 96.1, 53.5 95.6 Q 54.1 95.1, 54.4 94.7 Q 54.6 94.2, 54.6 93.7 Q 54.6 93.3, 54.4 93.0 Q 54.1 92.7, 53.7 92.7 Q 53.3 92.7, 53.0 92.9 Q 52.8 93.0, 52.6 93.4 L 52.0 93.2 " fill="#000000"/>
<path class="note" d="M 46.7 41.4 Q 47.2 41.5, 47.5 41.8 Q 47.7 42.1, 47.7 42.6 Q 47.7 43.1, 47.5 43.4 Q 47.3 43.7, 46.9 43.9 Q 46.5 44.1, 46.0 44.1 Q 45.4 44.1, 45.0 43.9 Q 44.6 43.7, 44.3 43.3 L 44.7 42.9 Q 45.0 43.3, 45.3 43.4 Q 45.6 43.5, 46.0 43.5 Q 46.4 43.5, 46.7 43.3 Q 47.0 43.0, 47.0 42.6 Q 47.0 42.1, 46.7 41.9 Q 46.4 41.7, 45.8 41.7 L 45.4 41.7 L 45.4 41.1 L 45.8 41.1 Q 46.3 41.1, 46.6 40.9 Q 46.9 40.6, 46.9 40.2 Q 46.9 39.9, 46.6 39.7 Q 46.4 39.5, 46.0 39.5 Q 45.6 39.5, 45.3 39.6 Q 45.0 39.8, 44.8 40.2 L 44.3 39.9 Q 44.5 39.5, 45.0 39.2 Q 45.4 38.9, 46.0 38.9 Q 46.7 38.9, 47.2 39.2 Q 47.6 39.6, 47.6 40.2 Q 47.6 40.6, 47.4 40.9 Q 47.2 41.2, 46.7 41.4 " fill="#000000"/>
<path class="note" d="M 24.3 99.9 L 24.9 99.9 L 24.9 100.5 L 24.3 100.5 L 24.3 101.7 L 23.7 101.7 L 23.7 100.5 L 21.0 100.5 L 21.0 100.1 L 23.2 96.6 L 24.3 96.6 L 24.3 99.9 M 21.9 99.9 L 23.7 99.9 L 23.7 97.1 L 21.9 99.9 " fill="#000000"/>
<path class="note" d="M 93.1 148.8 Q 93.6 148.8, 94.0 149.0 Q 94.3 149.1, 94.5 149.5 Q 94.7 149.9, 94.7 150.3 Q 94.7 150.9, 94.5 151.2 Q 94.2 151.6, 93.8 151.8 Q 93.4 152.0, 92.9 152.0 Q 92.5 152.0, 92.0 151.8 Q 91.6 151.7, 91.3 151.3 L 91.7 150.9 Q 92.0 151.1, 92.3 151.3 Q 92.6 151.4, 92.9 151.4 Q 93.4 151.4, 93.7 151.1 Q 94.0 150.9, 94.0 150.4 Q 94.0 149.8, 93.7 149.6 Q 93.4 149.3, 92.9 149.3 Q 92.5 149.3, 92.0 149.5 L 91.6 149.3 L 91.8 146.9 L 94.4 146.9 L 94.3 147.4 L 92.4 147.4 L 92.2 148.9 Q 92.7 148.8, 93.1 148.8 " fill="#000000"/>
<path class="note" d="M 147.0 86.7 Q 147.5 86.7, 147.8 86.9 Q 148.2 87.1, 148.4 87.4 Q 148.5 87.8, 148.5 88.2 Q 148.5 88.7, 148.3 89.1 Q 148.1 89.5, 147.7 89.7 Q 147.3 89.9, 146.8 89.9 Q 145.9 89.9, 145.5 89.3 Q 145.0 88.7, 145.0 87.4 Q 145.0 86.1, 145.6 85.4 Q 146.2 84.7, 147.2 84.7 Q 147.5 84.7, 147.8 84.8 Q 148.1 84.8, 148.3 85.0 L 148.1 85.5 Q 147.7 85.3, 147.2 85.3 Q 146.5 85.3, 146.2 85.7 Q 145.8 86.2, 145.7 87.2 Q 146.0 86.9, 146.3 86.8 Q 146.7 86.7, 147.0 86.7 M 146.8 89.3 Q 147.1 89.3, 147.3 89.2 Q 147.6 89.0, 147.7 88.8 Q 147.8 88.5, 147.8 88.2 Q 147.8 87.8, 147.6 87.5 Q 147.3 87.2, 146.9 87.2 Q 146.6 87.2, 146.3 87.4 Q 146.0 87.5, 145.7 87.7 Q 145.8 88.5, 146.0 88.9 Q 146.3 89.3, 146.8 89.3 " fill="#000000"/>
<path class="note" d="M 155.5 138.5 L 152.8 138.5 L 152.8 138.0 L 156.2 138.0 L 156.2 138.5 L 154.1 143.0 L 153.4 143.0 L 155.5 138.5 " fill="#000000"/>
<path class="note" d="M 178.3 82.7 Q 178.8 82.9, 179.1 83.2 Q 179.3 83.5, 179.3 84.0 Q 179.3 84.4, 179.1 84.8 Q 178.9 85.1, 178.5 85.3 Q 178.1 85.5, 177.6 85.5 Q 176.7 85.5, 176.2 85.1 Q 175.7 84.7, 175.7 84.0 Q 175.7 83.6, 175.9 83.3 Q 176.2 83.0, 176.6 82.7 Q 176.3 82.5, 176.1 82.3 Q 175.9 82.0, 175.9 81.6 Q 175.9 81.0, 176.3 80.6 Q 176.8 80.3, 177.5 80.3 Q 178.3 80.3, 178.7 80.6 Q 179.1 81.0, 179.1 81.6 Q 179.1 81.9, 178.9 82.2 Q 178.7 82.5, 178.3 82.7 M 177.5 80.8 Q 177.1 80.8, 176.9 81.0 Q 176.6 81.2, 176.6 81.6 Q 176.6 81.8, 176.8 82.0 Q 176.9 82.2, 177.2 82.3 Q 177.4 82.4, 177.8 82.5 Q 178.1 82.3, 178.3 82.1 Q 178.4 81.8, 178.4 81.6 Q 178.4 81.2, 178.2 81.0 Q 177.9 80.8, 177.5 80.8 M 177.6 84.9 Q 178.0 84.9, 178.3 84.7 Q 178.6 84.4, 178.6 84.0 Q 178.6 83.7, 178.4 83.5 Q 178.3 83.4, 178.1 83.3 Q 177.8 83.2, 177.4 83.0 L 177.1 82.9 Q 176.8 83.1, 176.6 83.4 Q 176.4 83.7, 176.4 84.0 Q 176.4 84.4, 176.7 84.7 Q 177.0 84.9, 177.6 84.9 " fill="#000000"/>
<path class="note" d="M 107.4 30.0 Q 108.3 30.0, 108.8 30.6 Q 109.2 31.2, 109.2 32.4 Q 109.2 33.8, 108.7 34.5 Q 108.1 35.2, 107.0 35.2 Q 106.7 35.2, 106.4 35.1 Q 106.2 35.0, 105.9 34.9 L 106.2 34.4 Q 106.6 34.6, 107.0 34.6 Q 107.7 34.6, 108.1 34.2 Q 108.5 33.7, 108.5 32.7 Q 108.3 33.0, 107.9 33.1 Q 107.6 33.2, 107.3 33.2 Q 106.8 33.2, 106.5 33.0 Q 106.1 32.8, 105.9 32.5 Q 105.7 32.1, 105.7 31.7 Q 105.7 31.2, 105.9 30.8 Q 106.2 30.4, 106.5 30.2 Q 106.9 30.0, 107.4 30.0 M 106.4 31.7 Q 106.4 32.1, 106.7 32.4 Q 106.9 32.7, 107.4 32.7 Q 107.7 32.7, 108.0 32.5 Q 108.3 32.4, 108.5 32.2 Q 108.5 31.3, 108.2 31.0 Q 108.0 30.6, 107.4 30.6 Q 107.2 30.6, 106.9 30.7 Q 106.7 30.9, 106.6 31.1 Q 106.4 31.4, 106.4 31.7 " fill="#000000"/>
<path class="CIP_Code" d="M 99.5 76.3 Q 99.5 75.2, 99.8 74.4 Q 100.1 73.5, 100.7 72.6 L 101.1 72.9 Q 100.6 73.7, 100.4 74.5 Q 100.2 75.3, 100.2 76.3 Q 100.2 77.2, 100.4 78.0 Q 100.6 78.7, 101.1 79.6 L 100.7 79.9 Q 100.1 79.0, 99.8 78.1 Q 99.5 77.3, 99.5 76.3 " fill="#000000"/>
<path class="CIP_Code" d="M 104.2 78.3 L 103.0 76.2 L 103.0 76.2 L 102.2 76.2 L 102.2 78.3 L 101.5 78.3 L 101.5 73.2 L 103.0 73.2 Q 103.9 73.2, 104.3 73.6 Q 104.7 74.0, 104.7 74.7 Q 104.7 75.2, 104.5 75.6 Q 104.2 76.0, 103.7 76.1 L 105.0 78.3 L 104.2 78.3 M 102.2 75.6 L 103.0 75.6 Q 103.5 75.6, 103.7 75.4 Q 104.0 75.2, 104.0 74.7 Q 104.0 74.3, 103.7 74.0 Q 103.5 73.8, 103.0 73.8 L 102.2 73.8 L 102.2 75.6 " fill="#000000"/>
<path class="CIP_Code" d="M 107.0 76.3 Q 107.0 77.3, 106.7 78.1 Q 106.4 79.0, 105.8 79.9 L 105.4 79.6 Q 105.8 78.7, 106.1 78.0 Q 106.3 77.2, 106.3 76.3 Q 106.3 75.3, 106.1 74.5 Q 105.8 73.7, 105.4 72.9 L 105.8 72.6 Q 106.4 73.5, 106.7 74.4 Q 107.0 75.2, 107.0 76.3 " fill="#000000"/>
<path class="CIP_Code" d="M 94.3 101.2 Q 94.3 100.1, 94.6 99.3 Q 94.9 98.5, 95.5 97.5 L 95.9 97.8 Q 95.4 98.6, 95.2 99.4 Q 94.9 100.2, 94.9 101.2 Q 94.9 102.1, 95.2 102.9 Q 95.4 103.7, 95.9 104.5 L 95.5 104.8 Q 94.9 103.9, 94.6 103.1 Q 94.3 102.2, 94.3 101.2 " fill="#000000"/>
<path class="CIP_Code" d="M 99.0 103.2 L 97.8 101.1 L 97.8 101.1 L 96.9 101.1 L 96.9 103.2 L 96.3 103.2 L 96.3 98.1 L 97.8 98.1 Q 98.6 98.1, 99.1 98.5 Q 99.5 98.9, 99.5 99.6 Q 99.5 100.2, 99.2 100.5 Q 99.0 100.9, 98.5 101.0 L 99.7 103.2 L 99.0 103.2 M 96.9 100.6 L 97.8 100.6 Q 98.2 100.6, 98.5 100.3 Q 98.8 100.1, 98.8 99.6 Q 98.8 99.2, 98.5 98.9 Q 98.3 98.7, 97.8 98.7 L 96.9 98.7 L 96.9 100.6 " fill="#000000"/>
<path class="CIP_Code" d="M 101.7 101.2 Q 101.7 102.2, 101.4 103.1 Q 101.1 103.9, 100.5 104.8 L 100.1 104.5 Q 100.6 103.7, 100.8 102.9 Q 101.1 102.1, 101.1 101.2 Q 101.1 100.2, 100.8 99.4 Q 100.6 98.6, 100.1 97.8 L 100.5 97.5 Q 101.1 98.5, 101.4 99.3 Q 101.7 100.1, 101.7 101.2 " fill="#000000"/>
<path class="legend" d="M 10.0 180.3 L 14.8 180.3 L 14.8 181.2 L 11.1 181.2 L 11.1 183.7 L 14.4 183.7 L 14.4 184.6 L 11.1 184.6 L 11.1 188.4 L 10.0 188.4 L 10.0 180.3 " fill="#000000"/>
<path class="legend" d="M 15.6 180.3 L 20.5 180.3 L 20.5 181.2 L 16.7 181.2 L 16.7 183.7 L 20.1 183.7 L 20.1 184.6 L 16.7 184.6 L 16.7 187.4 L 20.6 187.4 L 20.6 188.4 L 15.6 188.4 L 15.6 180.3 " fill="#000000"/>
<path class="legend" d="M 31.8 180.3 L 32.9 180.3 L 30.8 188.4 L 29.1 188.4 L 27.3 181.6 L 25.6 188.4 L 23.9 188.4 L 21.7 180.3 L 22.8 180.3 L 24.8 187.4 L 26.6 180.3 L 28.1 180.3 L 29.9 187.4 L 31.8 180.3 " fill="#000000"/>
<path class="legend" d="M 33.8 189.1 Q 33.8 189.2, 34.3 188.9 Q 34.8 188.6, 35.2 188.1 Q 35.6 187.6, 35.6 187.0 L 35.6 181.2 L 34.1 181.2 L 34.1 180.3 L 36.7 180.3 L 36.7 187.0 Q 36.7 187.9, 36.2 188.6 Q 35.6 189.3, 35.0 189.7 Q 34.3 190.0, 34.3 190.0 L 33.8 189.1 " fill="#000000"/>
<path class="legend" d="M 40.7 180.3 Q 42.1 180.3, 42.8 180.9 Q 43.5 181.5, 43.5 182.7 Q 43.5 183.8, 42.7 184.4 Q 42.0 185.1, 40.7 185.1 L 39.4 185.1 L 39.4 188.4 L 38.3 188.4 L 38.3 180.3 L 40.7 180.3 M 40.7 184.1 Q 41.5 184.1, 41.9 183.8 Q 42.3 183.4, 42.3 182.7 Q 42.3 181.9, 41.9 181.6 Q 41.5 181.2, 40.7 181.2 L 39.4 181.2 L 39.4 184.1 L 40.7 184.1 " fill="#000000"/>
<path class="legend" d="M 44.6 187.5 L 48.7 181.2 L 44.7 181.2 L 44.7 180.3 L 50.0 180.3 L 50.0 181.1 L 45.9 187.4 L 50.0 187.4 L 50.0 188.4 L 44.6 188.4 L 44.6 187.5 " fill="#000000"/>
<path class="legend" d="M 51.1 180.2 L 52.2 180.2 L 52.2 188.4 L 51.1 188.4 L 51.1 180.2 " fill="#000000"/>
<path class="legend" d="M 53.8 180.3 L 58.6 180.3 L 58.6 181.2 L 54.9 181.2 L 54.9 183.7 L 58.2 183.7 L 58.2 184.6 L 54.9 184.6 L 54.9 187.4 L 58.7 187.4 L 58.7 188.4 L 53.8 188.4 L 53.8 180.3 " fill="#000000"/>
<path class="legend" d="M 70.0 180.3 L 71.1 180.3 L 68.9 188.4 L 67.2 188.4 L 65.5 181.6 L 63.7 188.4 L 62.0 188.4 L 59.8 180.3 L 61.0 180.3 L 62.9 187.4 L 64.7 180.3 L 66.2 180.3 L 68.0 187.4 L 70.0 180.3 " fill="#000000"/>
<path class="legend" d="M 71.9 184.3 Q 71.9 182.4, 72.9 181.3 Q 73.9 180.2, 75.7 180.2 Q 77.5 180.2, 78.4 181.3 Q 79.4 182.4, 79.4 184.3 Q 79.4 186.3, 78.4 187.4 Q 77.5 188.5, 75.7 188.5 Q 73.9 188.5, 72.9 187.4 Q 71.9 186.3, 71.9 184.3 M 75.7 187.6 Q 76.9 187.6, 77.6 186.8 Q 78.3 185.9, 78.3 184.3 Q 78.3 182.7, 77.6 181.9 Q 76.9 181.1, 75.7 181.1 Q 74.4 181.1, 73.8 181.9 Q 73.1 182.7, 73.1 184.3 Q 73.1 185.9, 73.8 186.8 Q 74.4 187.6, 75.7 187.6 " fill="#000000"/>
<path class="legend" d="M 80.5 180.3 L 81.6 180.3 L 81.6 188.4 L 80.5 188.4 L 80.5 180.3 M 85.1 180.3 L 86.5 180.3 L 83.3 184.0 L 86.8 188.4 L 85.4 188.4 L 81.9 184.0 L 85.1 180.3 " fill="#000000"/>
<path class="legend" d="M 91.8 188.4 L 89.9 185.1 L 89.8 185.1 L 88.5 185.1 L 88.5 188.4 L 87.4 188.4 L 87.4 180.3 L 89.8 180.3 Q 91.2 180.3, 91.9 180.9 Q 92.6 181.5, 92.6 182.7 Q 92.6 183.5, 92.2 184.1 Q 91.8 184.7, 91.0 184.9 L 93.0 188.4 L 91.8 188.4 M 88.5 184.1 L 89.8 184.1 Q 90.6 184.1, 91.1 183.8 Q 91.5 183.4, 91.5 182.7 Q 91.5 181.9, 91.1 181.6 Q 90.6 181.2, 89.8 181.2 L 88.5 181.2 L 88.5 184.1 " fill="#000000"/>
<path class="legend" d="M 97.8 184.1 Q 98.6 184.3, 99.0 184.8 Q 99.4 185.3, 99.4 186.0 Q 99.4 187.1, 98.7 187.8 Q 98.0 188.4, 96.6 188.4 L 93.9 188.4 L 93.9 180.3 L 96.3 180.3 Q 97.7 180.3, 98.4 180.8 Q 99.1 181.4, 99.1 182.4 Q 99.1 183.7, 97.8 184.1 M 95.0 181.2 L 95.0 183.7 L 96.3 183.7 Q 97.1 183.7, 97.5 183.4 Q 97.9 183.1, 97.9 182.4 Q 97.9 181.2, 96.3 181.2 L 95.0 181.2 M 96.6 187.5 Q 97.4 187.5, 97.8 187.1 Q 98.2 186.7, 98.2 186.0 Q 98.2 185.3, 97.8 185.0 Q 97.3 184.7, 96.4 184.7 L 95.0 184.7 L 95.0 187.5 L 96.6 187.5 " fill="#000000"/>
<path class="legend" d="M 100.5 180.3 L 105.3 180.3 L 105.3 181.2 L 101.6 181.2 L 101.6 183.7 L 104.9 183.7 L 104.9 184.6 L 101.6 184.6 L 101.6 187.4 L 105.4 187.4 L 105.4 188.4 L 100.5 188.4 L 100.5 180.3 " fill="#000000"/>
<path class="legend" d="M 106.6 184.3 L 110.8 184.3 L 110.8 185.2 L 106.6 185.2 L 106.6 184.3 " fill="#000000"/>
<path class="legend" d="M 111.9 189.1 Q 111.9 189.2, 112.4 188.9 Q 112.9 188.6, 113.3 188.1 Q 113.7 187.6, 113.7 187.0 L 113.7 181.2 L 112.1 181.2 L 112.1 180.3 L 114.8 180.3 L 114.8 187.0 Q 114.8 187.9, 114.3 188.6 Q 113.7 189.3, 113.1 189.7 Q 112.4 190.0, 112.4 190.0 L 111.9 189.1 " fill="#000000"/>
<path class="legend" d="M 116.4 184.3 Q 116.4 182.3, 117.3 181.2 Q 118.3 180.2, 120.1 180.2 Q 121.7 180.2, 122.6 181.4 L 121.9 182.0 Q 121.2 181.1, 120.1 181.1 Q 118.8 181.1, 118.2 181.9 Q 117.5 182.8, 117.5 184.3 Q 117.5 185.9, 118.2 186.8 Q 118.9 187.6, 120.2 187.6 Q 121.1 187.6, 122.1 187.0 L 122.4 187.9 Q 122.0 188.2, 121.4 188.3 Q 120.7 188.5, 120.0 188.5 Q 118.3 188.5, 117.3 187.4 Q 116.4 186.3, 116.4 184.3 " fill="#000000"/>
<path class="legend" d="M 126.3 185.0 L 123.7 180.3 L 124.9 180.3 L 126.9 183.9 L 128.9 180.3 L 130.1 180.3 L 127.4 185.0 L 127.4 188.4 L 126.3 188.4 L 126.3 185.0 " fill="#000000"/>
<path class="legend" d="M 136.7 188.4 L 135.9 186.0 L 132.6 186.0 L 131.8 188.4 L 130.7 188.4 L 133.5 180.3 L 134.9 180.3 L 137.8 188.4 L 136.7 188.4 M 133.0 185.1 L 135.5 185.1 L 134.2 181.4 L 133.0 185.1 " fill="#000000"/>
<path class="legend" d="M 141.2 185.0 L 138.5 180.3 L 139.7 180.3 L 141.7 183.9 L 143.8 180.3 L 145.0 180.3 L 142.3 185.0 L 142.3 188.4 L 141.2 188.4 L 141.2 185.0 " fill="#000000"/>
<path class="legend" d="M 145.5 180.3 L 146.6 180.3 L 146.6 183.7 L 150.8 183.7 L 150.8 180.3 L 151.9 180.3 L 151.9 188.4 L 150.8 188.4 L 150.8 184.6 L 146.6 184.6 L 146.6 188.4 L 145.5 188.4 L 145.5 180.3 " fill="#000000"/>
<path class="legend" d="M 153.4 189.1 Q 153.4 189.2, 153.9 188.9 Q 154.4 188.6, 154.8 188.1 Q 155.2 187.6, 155.2 187.0 L 155.2 181.2 L 153.7 181.2 L 153.7 180.3 L 156.3 180.3 L 156.3 187.0 Q 156.3 187.9, 155.8 188.6 Q 155.2 189.3, 154.6 189.7 Q 153.9 190.0, 153.9 190.0 L 153.4 189.1 " fill="#000000"/>
<path class="legend" d="M 157.9 187.5 L 162.0 181.2 L 158.0 181.2 L 158.0 180.3 L 163.4 180.3 L 163.4 181.1 L 159.2 187.4 L 163.3 187.4 L 163.3 188.4 L 157.9 188.4 L 157.9 187.5 " fill="#000000"/>
<path class="legend" d="M 164.7 187.1 Q 164.8 187.2, 165.2 187.3 Q 165.6 187.5, 166.0 187.6 Q 166.4 187.7, 166.8 187.7 Q 167.6 187.7, 168.0 187.3 Q 168.5 186.9, 168.5 186.3 Q 168.5 185.8, 168.3 185.6 Q 168.0 185.3, 167.7 185.1 Q 167.3 185.0, 166.8 184.8 Q 166.1 184.6, 165.6 184.4 Q 165.2 184.2, 164.9 183.7 Q 164.6 183.3, 164.6 182.6 Q 164.6 181.6, 165.3 180.9 Q 166.0 180.3, 167.3 180.3 Q 168.3 180.3, 169.4 180.7 L 169.1 181.6 Q 168.1 181.2, 167.4 181.2 Q 166.6 181.2, 166.2 181.6 Q 165.7 181.9, 165.7 182.4 Q 165.7 182.9, 165.9 183.1 Q 166.2 183.4, 166.5 183.5 Q 166.8 183.7, 167.4 183.9 Q 168.1 184.1, 168.6 184.3 Q 169.0 184.6, 169.3 185.0 Q 169.6 185.5, 169.6 186.3 Q 169.6 187.4, 168.9 188.0 Q 168.1 188.6, 166.9 188.6 Q 166.1 188.6, 165.6 188.5 Q 165.1 188.3, 164.4 188.0 L 164.7 187.1 " fill="#000000"/>
<path class="legend" d="M 176.7 188.4 L 175.9 186.0 L 172.6 186.0 L 171.8 188.4 L 170.7 188.4 L 173.5 180.3 L 174.9 180.3 L 177.8 188.4 L 176.7 188.4 M 173.0 185.1 L 175.5 185.1 L 174.2 181.4 L 173.0 185.1 " fill="#000000"/>
<path class="legend" d="M 178.5 184.3 L 182.7 184.3 L 182.7 185.2 L 178.5 185.2 L 178.5 184.3 " fill="#000000"/>
<path class="legend" d="M 185.1 180.3 L 187.8 184.6 Q 188.0 185.0, 188.5 185.8 Q 188.9 186.5, 188.9 186.6 L 188.9 180.3 L 190.0 180.3 L 190.0 188.4 L 188.9 188.4 L 186.0 183.7 Q 185.7 183.1, 185.3 182.5 Q 185.0 181.9, 184.9 181.7 L 184.9 188.4 L 183.8 188.4 L 183.8 180.3 L 185.1 180.3 " fill="#000000"/>
<path class="bond-0 atom-0 atom-1" d="M 314.3,79.9 L 286.2,102.1" style="fill:none;fill-rule:evenodd;stroke:#000000;stroke-width:2.0px;stroke-linecap:butt;stroke-linejoin:miter;stroke-opacity:1"/>
<path class="bond-1 atom-1 atom-2" d="M 286.2,102.1 L 252.9,88.8" style="fill:none;fill-rule:evenodd;stroke:#000000;stroke-width:2.0px;stroke-linecap:butt;stroke-linejoin:miter;stroke-opacity:1"/>
<path class="bond-2 atom-2 atom-3" d="M 255.7,89.9 L 253.5,74.7" style="fill:none;fill-rule:evenodd;stroke:#000000;stroke-width:2.0px;stroke-linecap:butt;stroke-linejoin:miter;stroke-opacity:1"/>
<path class="bond-2 atom-2 atom-3" d="M 253.5,74.7 L 251.3,59.4" style="fill:none;fill-rule:evenodd;stroke:#FF0000;stroke-width:2.0px;stroke-linecap:butt;stroke-linejoin:miter;stroke-opacity:1"/>
<path class="bond-2 atom-2 atom-3" d="M 250.4,90.7 L 248.2,75.4" style="fill:none;fill-rule:evenodd;stroke:#000000;stroke-width:2.0px;stroke-linecap:butt;stroke-linejoin:miter;stroke-opacity:1"/>
<path class="bond-2 atom-2 atom-3" d="M 248.2,75.4 L 246.0,60.2" style="fill:none;fill-rule:evenodd;stroke:#FF0000;stroke-width:2.0px;stroke-linecap:butt;stroke-linejoin:miter;stroke-opacity:1"/>
<path class="bond-3 atom-2 atom-4" d="M 252.9,88.8 L 241.7,97.6" style="fill:none;fill-rule:evenodd;stroke:#000000;stroke-width:2.0px;stroke-linecap:butt;stroke-linejoin:miter;stroke-opacity:1"/>
<path class="bond-3 atom-2 atom-4" d="M 241.7,97.6 L 230.5,106.4" style="fill:none;fill-rule:evenodd;stroke:#FF0000;stroke-width:2.0px;stroke-linecap:butt;stroke-linejoin:miter;stroke-opacity:1"/>
<path class="bond-4 atom-1 atom-5" d="M 287.0,105.5 L 286.3,105.6" style="fill:none;fill-rule:evenodd;stroke:#000000;stroke-width:1.0px;stroke-linecap:butt;stroke-linejoin:miter;stroke-opacity:1"/>
<path class="bond-4 atom-1 atom-5" d="M 287.8,109.0 L 286.5,109.2" style="fill:none;fill-rule:evenodd;stroke:#000000;stroke-width:1.0px;stroke-linecap:butt;stroke-linejoin:miter;stroke-opacity:1"/>
<path class="bond-4 atom-1 atom-5" d="M 288.7,112.4 L 286.7,112.7" style="fill:none;fill-rule:evenodd;stroke:#000000;stroke-width:1.0px;stroke-linecap:butt;stroke-linejoin:miter;stroke-opacity:1"/>
<path class="bond-4 atom-1 atom-5" d="M 289.5,115.9 L 286.9,116.3" style="fill:none;fill-rule:evenodd;stroke:#000000;stroke-width:1.0px;stroke-linecap:butt;stroke-linejoin:miter;stroke-opacity:1"/>
<path class="bond-4 atom-1 atom-5" d="M 290.4,119.3 L 287.0,119.8" style="fill:none;fill-rule:evenodd;stroke:#FF0000;stroke-width:1.0px;stroke-linecap:butt;stroke-linejoin:miter;stroke-opacity:1"/>
<path class="bond-4 atom-1 atom-5" d="M 291.2,122.8 L 287.2,123.4" style="fill:none;fill-rule:evenodd;stroke:#FF0000;stroke-width:1.0px;stroke-linecap:butt;stroke-linejoin:miter;stroke-opacity:1"/>
<path class="bond-4 atom-1 atom-5" d="M 292.0,126.2 L 287.4,126.9" style="fill:none;fill-rule:evenodd;stroke:#FF0000;stroke-width:1.0px;stroke-linecap:butt;stroke-linejoin:miter;stroke-opacity:1"/>
<path class="bond-4 atom-1 atom-5" d="M 292.9,129.7 L 287.6,130.5" style="fill:none;fill-rule:evenodd;stroke:#FF0000;stroke-width:1.0px;stroke-linecap:butt;stroke-linejoin:miter;stroke-opacity:1"/>
<path class="bond-5 atom-0 atom-6" d="M 314.3,79.9 L 347.6,93.2" style="fill:none;fill-rule:evenodd;stroke:#000000;stroke-width:2.0px;stroke-linecap:butt;stroke-linejoin:miter;stroke-opacity:1"/>
<path class="bond-6 atom-6 atom-7" d="M 344.8,92.0 L 347.0,107.4" style="fill:none;fill-rule:evenodd;stroke:#000000;stroke-width:2.0px;stroke-linecap:butt;stroke-linejoin:miter;stroke-opacity:1"/>
<path class="bond-6 atom-6 atom-7" d="M 347.0,107.4 L 349.2,122.7" style="fill:none;fill-rule:evenodd;stroke:#FF0000;stroke-width:2.0px;stroke-linecap:butt;stroke-linejoin:miter;stroke-opacity:1"/>
<path class="bond-6 atom-6 atom-7" d="M 350.1,91.3 L 352.3,106.6" style="fill:none;fill-rule:evenodd;stroke:#000000;stroke-width:2.0px;stroke-linecap:butt;stroke-linejoin:miter;stroke-opacity:1"/>
<path class="bond-6 atom-6 atom-7" d="M 352.3,106.6 L 354.5,122.0" style="fill:none;fill-rule:evenodd;stroke:#FF0000;stroke-width:2.0px;stroke-linecap:butt;stroke-linejoin:miter;stroke-opacity:1"/>
<path class="bond-7 atom-6 atom-8" d="M 347.6,93.2 L 358.8,84.4" style="fill:none;fill-rule:evenodd;stroke:#000000;stroke-width:2.0px;stroke-linecap:butt;stroke-linejoin:miter;stroke-opacity:1"/>
<path class="bond-7 atom-6 atom-8" d="M 358.8,84.4 L 370.0,75.6" style="fill:none;fill-rule:evenodd;stroke:#FF0000;stroke-width:2.0px;stroke-linecap:butt;stroke-linejoin:miter;stroke-opacity:1"/>
<path class="bond-8 atom-0 atom-9" d="M 313.5,76.5 L 314.2,76.4" style="fill:none;fill-rule:evenodd;stroke:#000000;stroke-width:1.0px;stroke-linecap:butt;stroke-linejoin:miter;stroke-opacity:1"/>
<path class="bond-8 atom-0 atom-9" d="M 312.7,73.0 L 314.0,72.8" style="fill:none;fill-rule:evenodd;stroke:#000000;stroke-width:1.0px;stroke-linecap:butt;stroke-linejoin:miter;stroke-opacity:1"/>
<path class="bond-8 atom-0 atom-9" d="M 311.8,69.6 L 313.8,69.3" style="fill:none;fill-rule:evenodd;stroke:#000000;stroke-width:1.0px;stroke-linecap:butt;stroke-linejoin:miter;stroke-opacity:1"/>
<path class="bond-8 atom-0 atom-9" d="M 311.0,66.2 L 313.7,65.8" style="fill:none;fill-rule:evenodd;stroke:#000000;stroke-width:1.0px;stroke-linecap:butt;stroke-linejoin:miter;stroke-opacity:1"/>
<path class="bond-8 atom-0 atom-9" d="M 310.2,62.7 L 313.5,62.3" style="fill:none;fill-rule:evenodd;stroke:#FF0000;stroke-width:1.0px;stroke-linecap:butt;stroke-linejoin:miter;stroke-opacity:1"/>
<path class="bond-8 atom-0 atom-9" d="M 309.3,59.3 L 313.3,58.7" style="fill:none;fill-rule:evenodd;stroke:#FF0000;stroke-width:1.0px;stroke-linecap:butt;stroke-linejoin:miter;stroke-opacity:1"/>
<path class="bond-8 atom-0 atom-9" d="M 308.5,55.9 L 313.1,55.2" style="fill:none;fill-rule:evenodd;stroke:#FF0000;stroke-width:1.0px;stroke-linecap:butt;stroke-linejoin:miter;stroke-opacity:1"/>
<path class="bond-8 atom-0 atom-9" d="M 307.6,52.4 L 313.0,51.7" style="fill:none;fill-rule:evenodd;stroke:#FF0000;stroke-width:1.0px;stroke-linecap:butt;stroke-linejoin:miter;stroke-opacity:1"/>
<path d="M 312.9,81.0 L 314.3,79.9 L 316.0,80.6" style="fill:none;stroke:#000000;stroke-width:2.0px;stroke-linecap:butt;stroke-linejoin:miter;stroke-miterlimit:10;stroke-opacity:1;"/>
<path d="M 287.6,101.0 L 286.2,102.1 L 284.5,101.4" style="fill:none;stroke:#000000;stroke-width:2.0px;stroke-linecap:butt;stroke-linejoin:miter;stroke-miterlimit:10;stroke-opacity:1;"/>
<path d="M 254.5,89.5 L 252.9,88.8 L 252.3,89.2" style="fill:none;stroke:#000000;stroke-width:2.0px;stroke-linecap:butt;stroke-linejoin:miter;stroke-miterlimit:10;stroke-opacity:1;"/>
<path d="M 346.0,92.5 L 347.6,93.2 L 348.2,92.7" style="fill:none;stroke:#000000;stroke-width:2.0px;stroke-linecap:butt;stroke-linejoin:miter;stroke-miterlimit:10;stroke-opacity:1;"/>
<path class="atom-3" d="M 243.1 53.3 Q 243.1 50.9, 244.3 49.5 Q 245.5 48.2, 247.7 48.2 Q 250.0 48.2, 251.2 49.5 Q 252.4 50.9, 252.4 53.3 Q 252.4 55.8, 251.2 57.2 Q 249.9 58.6, 247.7 58.6 Q 245.5 58.6, 244.3 57.2 Q 243.1 55.8, 243.1 53.3 M 247.7 57.4 Q 249.3 57.4, 250.1 56.4 Q 251.0 55.4, 251.0 53.3 Q 251.0 51.3, 250.1 50.3 Q 249.3 49.3, 247.7 49.3 Q 246.2 49.3, 245.3 50.3 Q 244.5 51.3, 244.5 53.3 Q 244.5 55.4, 245.3 56.4 Q 246.2 57.4, 247.7 57.4 " fill="#FF0000"/>
<path class="atom-4" d="M 210.0 106.0 L 211.4 106.0 L 211.4 110.3 L 216.6 110.3 L 216.6 106.0 L 217.9 106.0 L 217.9 116.1 L 216.6 116.1 L 216.6 111.4 L 211.4 111.4 L 211.4 116.1 L 210.0 116.1 L 210.0 106.0 " fill="#FF0000"/>
<path class="atom-4" d="M 220.0 111.0 Q 220.0 108.6, 221.2 107.2 Q 222.4 105.8, 224.7 105.8 Q 226.9 105.8, 228.1 107.2 Q 229.4 108.6, 229.4 111.0 Q 229.4 113.5, 228.1 114.9 Q 226.9 116.3, 224.7 116.3 Q 222.5 116.3, 221.2 114.9 Q 220.0 113.5, 220.0 111.0 M 224.7 115.1 Q 226.2 115.1, 227.1 114.1 Q 227.9 113.0, 227.9 111.0 Q 227.9 109.0, 227.1 108.0 Q 226.2 107.0, 224.7 107.0 Q 223.1 107.0, 222.3 108.0 Q 221.5 109.0, 221.5 111.0 Q 221.5 113.1, 222.3 114.1 Q 223.1 115.1, 224.7 115.1 " fill="#FF0000"/>
<path class="atom-5" d="M 286.6 137.6 Q 286.6 135.2, 287.8 133.8 Q 289.1 132.4, 291.3 132.4 Q 293.6 132.4, 294.8 133.8 Q 296.0 135.2, 296.0 137.6 Q 296.0 140.1, 294.7 141.5 Q 293.5 142.9, 291.3 142.9 Q 289.1 142.9, 287.8 141.5 Q 286.6 140.1, 286.6 137.6 M 291.3 141.7 Q 292.9 141.7, 293.7 140.7 Q 294.5 139.6, 294.5 137.6 Q 294.5 135.6, 293.7 134.6 Q 292.9 133.6, 291.3 133.6 Q 289.8 133.6, 288.9 134.6 Q 288.1 135.6, 288.1 137.6 Q 288.1 139.7, 288.9 140.7 Q 289.8 141.7, 291.3 141.7 " fill="#FF0000"/>
<path class="atom-5" d="M 297.5 132.6 L 298.9 132.6 L 298.9 136.9 L 304.1 136.9 L 304.1 132.6 L 305.5 132.6 L 305.5 142.7 L 304.1 142.7 L 304.1 138.0 L 298.9 138.0 L 298.9 142.7 L 297.5 142.7 L 297.5 132.6 " fill="#FF0000"/>
<path class="atom-7" d="M 348.1 128.7 Q 348.1 126.3, 349.3 124.9 Q 350.5 123.5, 352.8 123.5 Q 355.0 123.5, 356.2 124.9 Q 357.4 126.3, 357.4 128.7 Q 357.4 131.2, 356.2 132.6 Q 355.0 134.0, 352.8 134.0 Q 350.5 134.0, 349.3 132.6 Q 348.1 131.2, 348.1 128.7 M 352.8 132.8 Q 354.3 132.8, 355.2 131.8 Q 356.0 130.7, 356.0 128.7 Q 356.0 126.7, 355.2 125.7 Q 354.3 124.7, 352.8 124.7 Q 351.2 124.7, 350.4 125.7 Q 349.6 126.7, 349.6 128.7 Q 349.6 130.8, 350.4 131.8 Q 351.2 132.8, 352.8 132.8 " fill="#FF0000"/>
<path class="atom-8" d="M 371.1 71.0 Q 371.1 68.6, 372.4 67.2 Q 373.6 65.9, 375.8 65.9 Q 378.1 65.9, 379.3 67.2 Q 380.5 68.6, 380.5 71.0 Q 380.5 73.5, 379.3 74.9 Q 378.0 76.3, 375.8 76.3 Q 373.6 76.3, 372.4 74.9 Q 371.1 73.5, 371.1 71.0 M 375.8 75.1 Q 377.4 75.1, 378.2 74.1 Q 379.0 73.1, 379.0 71.0 Q 379.0 69.0, 378.2 68.0 Q 377.4 67.0, 375.8 67.0 Q 374.3 67.0, 373.4 68.0 Q 372.6 69.0, 372.6 71.0 Q 372.6 73.1, 373.4 74.1 Q 374.3 75.1, 375.8 75.1 " fill="#FF0000"/>
<path class="atom-8" d="M 382.1 66.0 L 383.4 66.0 L 383.4 70.3 L 388.6 70.3 L 388.6 66.0 L 390.0 66.0 L 390.0 76.1 L 388.6 76.1 L 388.6 71.4 L 383.4 71.4 L 383.4 76.1 L 382.1 76.1 L 382.1 66.0 " fill="#FF0000"/>
<path class="atom-9" d="M 304.5 44.4 Q 304.5 42.0, 305.7 40.6 Q 306.9 39.3, 309.2 39.3 Q 311.4 39.3, 312.7 40.6 Q 313.9 42.0, 313.9 44.4 Q 313.9 46.9, 312.6 48.3 Q 311.4 49.7, 309.2 49.7 Q 307.0 49.7, 305.7 48.3 Q 304.5 46.9, 304.5 44.4 M 309.2 48.5 Q 310.7 48.5, 311.6 47.5 Q 312.4 46.5, 312.4 44.4 Q 312.4 42.4, 311.6 41.4 Q 310.7 40.4, 309.2 40.4 Q 307.6 40.4, 306.8 41.4 Q 306.0 42.4, 306.0 44.4 Q 306.0 46.5, 306.8 47.5 Q 307.6 48.5, 309.2 48.5 " fill="#FF0000"/>
<path class="atom-9" d="M 315.4 39.4 L 316.8 39.4 L 316.8 43.7 L 322.0 43.7 L 322.0 39.4 L 323.4 39.4 L 323.4 49.5 L 322.0 49.5 L 322.0 44.8 L 316.8 44.8 L 316.8 49.5 L 315.4 49.5 L 315.4 39.4 " fill="#FF0000"/>
<path class="note" d="M 315.2 88.4 Q 314.3 88.4, 313.8 87.7 Q 313.3 87.1, 313.3 85.8 Q 313.3 84.6, 313.8 83.9 Q 314.3 83.2, 315.2 83.2 Q 316.1 83.2, 316.6 83.9 Q 317.0 84.6, 317.0 85.8 Q 317.0 87.1, 316.6 87.7 Q 316.1 88.4, 315.2 88.4 M 315.2 87.9 Q 315.7 87.9, 316.0 87.3 Q 316.3 86.8, 316.3 85.8 Q 316.3 84.8, 316.0 84.3 Q 315.7 83.8, 315.2 83.8 Q 314.6 83.8, 314.3 84.3 Q 314.1 84.8, 314.1 85.8 Q 314.1 86.8, 314.3 87.3 Q 314.6 87.9, 315.2 87.9 " fill="#000000"/>
<path class="note" d="M 284.1 98.1 L 285.2 98.1 L 285.2 94.4 L 283.9 94.7 L 283.8 94.3 L 285.3 93.6 L 285.8 93.7 L 285.8 98.1 L 286.8 98.1 L 286.8 98.7 L 284.1 98.7 L 284.1 98.1 " fill="#000000"/>
<path class="note" d="M 252.0 93.2 Q 252.2 92.7, 252.7 92.4 Q 253.1 92.1, 253.7 92.1 Q 254.5 92.1, 254.9 92.6 Q 255.3 93.0, 255.3 93.7 Q 255.3 94.5, 254.8 95.2 Q 254.2 95.9, 253.1 96.7 L 255.4 96.7 L 255.4 97.3 L 252.0 97.3 L 252.0 96.8 Q 253.0 96.1, 253.5 95.6 Q 254.1 95.1, 254.4 94.7 Q 254.6 94.2, 254.6 93.7 Q 254.6 93.3, 254.4 93.0 Q 254.1 92.7, 253.7 92.7 Q 253.3 92.7, 253.0 92.9 Q 252.8 93.0, 252.6 93.4 L 252.0 93.2 " fill="#000000"/>
<path class="note" d="M 246.7 41.4 Q 247.2 41.5, 247.5 41.8 Q 247.7 42.1, 247.7 42.6 Q 247.7 43.1, 247.5 43.4 Q 247.3 43.7, 246.9 43.9 Q 246.5 44.1, 246.0 44.1 Q 245.4 44.1, 245.0 43.9 Q 244.6 43.7, 244.3 43.3 L 244.7 42.9 Q 245.0 43.3, 245.3 43.4 Q 245.6 43.5, 246.0 43.5 Q 246.4 43.5, 246.7 43.3 Q 247.0 43.0, 247.0 42.6 Q 247.0 42.1, 246.7 41.9 Q 246.4 41.7, 245.8 41.7 L 245.4 41.7 L 245.4 41.1 L 245.8 41.1 Q 246.3 41.1, 246.6 40.9 Q 246.9 40.6, 246.9 40.2 Q 246.9 39.9, 246.6 39.7 Q 246.4 39.5, 246.0 39.5 Q 245.6 39.5, 245.3 39.6 Q 245.0 39.8, 244.8 40.2 L 244.3 39.9 Q 244.5 39.5, 245.0 39.2 Q 245.4 38.9, 246.0 38.9 Q 246.7 38.9, 247.2 39.2 Q 247.6 39.6, 247.6 40.2 Q 247.6 40.6, 247.4 40.9 Q 247.2 41.2, 246.7 41.4 " fill="#000000"/>
<path class="note" d="M 224.3 99.9 L 224.9 99.9 L 224.9 100.5 L 224.3 100.5 L 224.3 101.7 L 223.7 101.7 L 223.7 100.5 L 221.0 100.5 L 221.0 100.1 L 223.2 96.6 L 224.3 96.6 L 224.3 99.9 M 221.9 99.9 L 223.7 99.9 L 223.7 97.1 L 221.9 99.9 " fill="#000000"/>
<path class="note" d="M 293.1 148.8 Q 293.6 148.8, 294.0 149.0 Q 294.3 149.1, 294.5 149.5 Q 294.7 149.9, 294.7 150.3 Q 294.7 150.9, 294.5 151.2 Q 294.2 151.6, 293.8 151.8 Q 293.4 152.0, 292.9 152.0 Q 292.5 152.0, 292.0 151.8 Q 291.6 151.7, 291.3 151.3 L 291.7 150.9 Q 292.0 151.1, 292.3 151.3 Q 292.6 151.4, 292.9 151.4 Q 293.4 151.4, 293.7 151.1 Q 294.0 150.9, 294.0 150.4 Q 294.0 149.8, 293.7 149.6 Q 293.4 149.3, 292.9 149.3 Q 292.5 149.3, 292.0 149.5 L 291.6 149.3 L 291.8 146.9 L 294.4 146.9 L 294.3 147.4 L 292.4 147.4 L 292.2 148.9 Q 292.7 148.8, 293.1 148.8 " fill="#000000"/>
<path class="note" d="M 347.0 86.7 Q 347.5 86.7, 347.8 86.9 Q 348.2 87.1, 348.4 87.4 Q 348.5 87.8, 348.5 88.2 Q 348.5 88.7, 348.3 89.1 Q 348.1 89.5, 347.7 89.7 Q 347.3 89.9, 346.8 89.9 Q 345.9 89.9, 345.5 89.3 Q 345.0 88.7, 345.0 87.4 Q 345.0 86.1, 345.6 85.4 Q 346.2 84.7, 347.2 84.7 Q 347.5 84.7, 347.8 84.8 Q 348.1 84.8, 348.3 85.0 L 348.1 85.5 Q 347.7 85.3, 347.2 85.3 Q 346.5 85.3, 346.2 85.7 Q 345.8 86.2, 345.7 87.2 Q 346.0 86.9, 346.3 86.8 Q 346.7 86.7, 347.0 86.7 M 346.8 89.3 Q 347.1 89.3, 347.3 89.2 Q 347.6 89.0, 347.7 88.8 Q 347.8 88.5, 347.8 88.2 Q 347.8 87.8, 347.6 87.5 Q 347.3 87.2, 346.9 87.2 Q 346.6 87.2, 346.3 87.4 Q 346.0 87.5, 345.7 87.7 Q 345.8 88.5, 346.0 88.9 Q 346.3 89.3, 346.8 89.3 " fill="#000000"/>
<path class="note" d="M 355.5 138.5 L 352.8 138.5 L 352.8 138.0 L 356.2 138.0 L 356.2 138.5 L 354.1 143.0 L 353.4 143.0 L 355.5 138.5 " fill="#000000"/>
<path class="note" d="M 378.3 82.7 Q 378.8 82.9, 379.1 83.2 Q 379.3 83.5, 379.3 84.0 Q 379.3 84.4, 379.1 84.8 Q 378.9 85.1, 378.5 85.3 Q 378.1 85.5, 377.6 85.5 Q 376.7 85.5, 376.2 85.1 Q 375.7 84.7, 375.7 84.0 Q 375.7 83.6, 375.9 83.3 Q 376.2 83.0, 376.6 82.7 Q 376.3 82.5, 376.1 82.3 Q 375.9 82.0, 375.9 81.6 Q 375.9 81.0, 376.3 80.6 Q 376.8 80.3, 377.5 80.3 Q 378.3 80.3, 378.7 80.6 Q 379.1 81.0, 379.1 81.6 Q 379.1 81.9, 378.9 82.2 Q 378.7 82.5, 378.3 82.7 M 377.5 80.8 Q 377.1 80.8, 376.9 81.0 Q 376.6 81.2, 376.6 81.6 Q 376.6 81.8, 376.8 82.0 Q 376.9 82.2, 377.2 82.3 Q 377.4 82.4, 377.8 82.5 Q 378.1 82.3, 378.3 82.1 Q 378.4 81.8, 378.4 81.6 Q 378.4 81.2, 378.2 81.0 Q 377.9 80.8, 377.5 80.8 M 377.6 84.9 Q 378.0 84.9, 378.3 84.7 Q 378.6 84.4, 378.6 84.0 Q 378.6 83.7, 378.4 83.5 Q 378.3 83.4, 378.1 83.3 Q 377.8 83.2, 377.4 83.0 L 377.1 82.9 Q 376.8 83.1, 376.6 83.4 Q 376.4 83.7, 376.4 84.0 Q 376.4 84.4, 376.7 84.7 Q 377.0 84.9, 377.6 84.9 " fill="#000000"/>
<path class="note" d="M 307.4 30.0 Q 308.3 30.0, 308.8 30.6 Q 309.2 31.2, 309.2 32.4 Q 309.2 33.8, 308.7 34.5 Q 308.1 35.2, 307.0 35.2 Q 306.7 35.2, 306.4 35.1 Q 306.2 35.0, 305.9 34.9 L 306.2 34.4 Q 306.6 34.6, 307.0 34.6 Q 307.7 34.6, 308.1 34.2 Q 308.5 33.7, 308.5 32.7 Q 308.3 33.0, 307.9 33.1 Q 307.6 33.2, 307.3 33.2 Q 306.8 33.2, 306.5 33.0 Q 306.1 32.8, 305.9 32.5 Q 305.7 32.1, 305.7 31.7 Q 305.7 31.2, 305.9 30.8 Q 306.2 30.4, 306.5 30.2 Q 306.9 30.0, 307.4 30.0 M 306.4 31.7 Q 306.4 32.1, 306.7 32.4 Q 306.9 32.7, 307.4 32.7 Q 307.7 32.7, 308.0 32.5 Q 308.3 32.4, 308.5 32.2 Q 308.5 31.3, 308.2 31.0 Q 308.0 30.6, 307.4 30.6 Q 307.2 30.6, 306.9 30.7 Q 306.7 30.9, 306.6 31.1 Q 306.4 31.4, 306.4 31.7 " fill="#000000"/>
<path class="CIP_Code" d="M 299.6 76.3 Q 299.6 75.2, 299.8 74.4 Q 300.2 73.5, 300.7 72.6 L 301.1 72.9 Q 300.7 73.7, 300.4 74.5 Q 300.2 75.3, 300.2 76.3 Q 300.2 77.2, 300.4 78.0 Q 300.7 78.7, 301.1 79.6 L 300.7 79.9 Q 300.2 79.0, 299.8 78.1 Q 299.6 77.3, 299.6 76.3 " fill="#000000"/>
<path class="CIP_Code" d="M 301.7 77.5 Q 301.8 77.5, 302.0 77.6 Q 302.3 77.7, 302.5 77.8 Q 302.8 77.9, 303.0 77.9 Q 303.5 77.9, 303.8 77.6 Q 304.1 77.4, 304.1 77.0 Q 304.1 76.7, 303.9 76.5 Q 303.8 76.4, 303.6 76.3 Q 303.4 76.2, 303.0 76.1 Q 302.6 75.9, 302.3 75.8 Q 302.0 75.7, 301.8 75.4 Q 301.6 75.1, 301.6 74.7 Q 301.6 74.0, 302.1 73.6 Q 302.5 73.2, 303.4 73.2 Q 304.0 73.2, 304.6 73.5 L 304.5 74.1 Q 303.8 73.8, 303.4 73.8 Q 302.9 73.8, 302.6 74.0 Q 302.3 74.2, 302.4 74.6 Q 302.4 74.8, 302.5 75.0 Q 302.6 75.2, 302.8 75.3 Q 303.0 75.4, 303.4 75.5 Q 303.8 75.6, 304.1 75.8 Q 304.4 75.9, 304.6 76.2 Q 304.8 76.5, 304.8 77.0 Q 304.8 77.7, 304.3 78.1 Q 303.8 78.4, 303.1 78.4 Q 302.6 78.4, 302.3 78.3 Q 301.9 78.2, 301.5 78.1 L 301.7 77.5 " fill="#000000"/>
<path class="CIP_Code" d="M 306.9 76.3 Q 306.9 77.3, 306.6 78.1 Q 306.3 79.0, 305.7 79.9 L 305.3 79.6 Q 305.8 78.7, 306.0 78.0 Q 306.3 77.2, 306.3 76.3 Q 306.3 75.3, 306.0 74.5 Q 305.8 73.7, 305.3 72.9 L 305.7 72.6 Q 306.3 73.5, 306.6 74.4 Q 306.9 75.2, 306.9 76.3 " fill="#000000"/>
<path class="CIP_Code" d="M 294.3 101.2 Q 294.3 100.1, 294.6 99.3 Q 294.9 98.5, 295.5 97.5 L 295.9 97.8 Q 295.4 98.6, 295.2 99.4 Q 295.0 100.2, 295.0 101.2 Q 295.0 102.1, 295.2 102.9 Q 295.4 103.7, 295.9 104.5 L 295.5 104.8 Q 294.9 103.9, 294.6 103.1 Q 294.3 102.2, 294.3 101.2 " fill="#000000"/>
<path class="CIP_Code" d="M 296.5 102.4 Q 296.5 102.4, 296.8 102.5 Q 297.0 102.6, 297.3 102.7 Q 297.5 102.8, 297.8 102.8 Q 298.3 102.8, 298.6 102.5 Q 298.8 102.3, 298.8 101.9 Q 298.8 101.6, 298.7 101.4 Q 298.6 101.3, 298.3 101.2 Q 298.1 101.1, 297.8 101.0 Q 297.3 100.8, 297.0 100.7 Q 296.8 100.6, 296.6 100.3 Q 296.4 100.0, 296.4 99.6 Q 296.4 98.9, 296.8 98.5 Q 297.3 98.1, 298.1 98.1 Q 298.7 98.1, 299.4 98.4 L 299.2 99.0 Q 298.6 98.7, 298.1 98.7 Q 297.7 98.7, 297.4 98.9 Q 297.1 99.1, 297.1 99.5 Q 297.1 99.8, 297.3 99.9 Q 297.4 100.1, 297.6 100.2 Q 297.8 100.3, 298.1 100.4 Q 298.6 100.5, 298.9 100.7 Q 299.2 100.8, 299.3 101.1 Q 299.5 101.4, 299.5 101.9 Q 299.5 102.6, 299.1 103.0 Q 298.6 103.3, 297.8 103.3 Q 297.4 103.3, 297.0 103.2 Q 296.7 103.2, 296.3 103.0 L 296.5 102.4 " fill="#000000"/>
<path class="CIP_Code" d="M 301.7 101.2 Q 301.7 102.2, 301.4 103.1 Q 301.1 103.9, 300.5 104.8 L 300.1 104.5 Q 300.6 103.7, 300.8 102.9 Q 301.0 102.1, 301.0 101.2 Q 301.0 100.2, 300.8 99.4 Q 300.6 98.6, 300.1 97.8 L 300.5 97.5 Q 301.1 98.5, 301.4 99.3 Q 301.7 100.1, 301.7 101.2 " fill="#000000"/>
<path class="legend" d="M 210.0 180.8 L 214.6 180.8 L 214.6 181.6 L 211.0 181.6 L 211.0 184.0 L 214.2 184.0 L 214.2 184.9 L 211.0 184.9 L 211.0 188.5 L 210.0 188.5 L 210.0 180.8 " fill="#000000"/>
<path class="legend" d="M 215.4 180.8 L 220.0 180.8 L 220.0 181.6 L 216.4 181.6 L 216.4 184.0 L 219.6 184.0 L 219.6 184.9 L 216.4 184.9 L 216.4 187.6 L 220.1 187.6 L 220.1 188.5 L 215.4 188.5 L 215.4 180.8 " fill="#000000"/>
<path class="legend" d="M 230.8 180.8 L 231.8 180.8 L 229.8 188.5 L 228.2 188.5 L 226.5 182.0 L 224.8 188.5 L 223.3 188.5 L 221.2 180.8 L 222.3 180.8 L 224.1 187.5 L 225.8 180.8 L 227.2 180.8 L 229.0 187.5 L 230.8 180.8 " fill="#000000"/>
<path class="legend" d="M 232.7 189.2 Q 232.7 189.2, 233.2 188.9 Q 233.7 188.6, 234.0 188.2 Q 234.4 187.7, 234.4 187.2 L 234.4 181.6 L 232.9 181.6 L 232.9 180.8 L 235.5 180.8 L 235.5 187.2 Q 235.5 188.0, 234.9 188.7 Q 234.4 189.3, 233.8 189.7 Q 233.2 190.0, 233.2 190.0 L 232.7 189.2 " fill="#000000"/>
<path class="legend" d="M 239.2 180.8 Q 240.5 180.8, 241.2 181.4 Q 241.9 182.0, 241.9 183.0 Q 241.9 184.1, 241.2 184.7 Q 240.5 185.3, 239.2 185.3 L 238.0 185.3 L 238.0 188.5 L 237.0 188.5 L 237.0 180.8 L 239.2 180.8 M 239.2 184.4 Q 240.0 184.4, 240.4 184.1 Q 240.8 183.7, 240.8 183.0 Q 240.8 182.3, 240.4 182.0 Q 240.0 181.6, 239.2 181.6 L 238.0 181.6 L 238.0 184.4 L 239.2 184.4 " fill="#000000"/>
<path class="legend" d="M 243.0 187.7 L 246.8 181.6 L 243.1 181.6 L 243.1 180.8 L 248.1 180.8 L 248.1 181.5 L 244.2 187.6 L 248.1 187.6 L 248.1 188.5 L 243.0 188.5 L 243.0 187.7 " fill="#000000"/>
<path class="legend" d="M 249.2 180.7 L 250.2 180.7 L 250.2 188.5 L 249.2 188.5 L 249.2 180.7 " fill="#000000"/>
<path class="legend" d="M 251.7 180.8 L 256.3 180.8 L 256.3 181.6 L 252.8 181.6 L 252.8 184.0 L 256.0 184.0 L 256.0 184.9 L 252.8 184.9 L 252.8 187.6 L 256.4 187.6 L 256.4 188.5 L 251.7 188.5 L 251.7 180.8 " fill="#000000"/>
<path class="legend" d="M 267.1 180.8 L 268.2 180.8 L 266.1 188.5 L 264.5 188.5 L 262.9 182.0 L 261.2 188.5 L 259.6 188.5 L 257.5 180.8 L 258.6 180.8 L 260.4 187.5 L 262.2 180.8 L 263.5 180.8 L 265.3 187.5 L 267.1 180.8 " fill="#000000"/>
<path class="legend" d="M 269.1 184.6 Q 269.1 182.7, 270.0 181.7 Q 270.9 180.7, 272.6 180.7 Q 274.3 180.7, 275.2 181.7 Q 276.1 182.7, 276.1 184.6 Q 276.1 186.5, 275.2 187.5 Q 274.3 188.6, 272.6 188.6 Q 270.9 188.6, 270.0 187.5 Q 269.1 186.5, 269.1 184.6 M 272.6 187.7 Q 273.8 187.7, 274.4 186.9 Q 275.0 186.1, 275.0 184.6 Q 275.0 183.1, 274.4 182.3 Q 273.8 181.5, 272.6 181.5 Q 271.4 181.5, 270.8 182.3 Q 270.1 183.1, 270.1 184.6 Q 270.1 186.2, 270.8 186.9 Q 271.4 187.7, 272.6 187.7 " fill="#000000"/>
<path class="legend" d="M 277.2 180.8 L 278.3 180.8 L 278.3 188.5 L 277.2 188.5 L 277.2 180.8 M 281.5 180.8 L 282.9 180.8 L 279.9 184.3 L 283.2 188.5 L 281.8 188.5 L 278.5 184.3 L 281.5 180.8 " fill="#000000"/>
<path class="legend" d="M 288.0 188.5 L 286.1 185.3 L 286.1 185.3 L 284.9 185.3 L 284.9 188.5 L 283.8 188.5 L 283.8 180.8 L 286.1 180.8 Q 287.4 180.8, 288.1 181.4 Q 288.7 182.0, 288.7 183.0 Q 288.7 183.8, 288.3 184.4 Q 288.0 184.9, 287.2 185.2 L 289.1 188.5 L 288.0 188.5 M 284.9 184.4 L 286.1 184.4 Q 286.9 184.4, 287.3 184.1 Q 287.7 183.7, 287.7 183.0 Q 287.7 182.3, 287.3 182.0 Q 286.9 181.6, 286.1 181.6 L 284.9 181.6 L 284.9 184.4 " fill="#000000"/>
<path class="legend" d="M 293.7 184.4 Q 294.4 184.6, 294.8 185.1 Q 295.2 185.5, 295.2 186.2 Q 295.2 187.3, 294.5 187.9 Q 293.8 188.5, 292.5 188.5 L 290.0 188.5 L 290.0 180.8 L 292.2 180.8 Q 293.5 180.8, 294.2 181.3 Q 294.9 181.8, 294.9 182.8 Q 294.9 184.0, 293.7 184.4 M 291.0 181.6 L 291.0 184.1 L 292.2 184.1 Q 293.0 184.1, 293.4 183.7 Q 293.8 183.4, 293.8 182.8 Q 293.8 181.6, 292.2 181.6 L 291.0 181.6 M 292.5 187.6 Q 293.3 187.6, 293.7 187.2 Q 294.1 186.9, 294.1 186.2 Q 294.1 185.6, 293.7 185.3 Q 293.2 184.9, 292.4 184.9 L 291.0 184.9 L 291.0 187.6 L 292.5 187.6 " fill="#000000"/>
<path class="legend" d="M 296.3 180.8 L 300.8 180.8 L 300.8 181.6 L 297.3 181.6 L 297.3 184.0 L 300.5 184.0 L 300.5 184.9 L 297.3 184.9 L 297.3 187.6 L 301.0 187.6 L 301.0 188.5 L 296.3 188.5 L 296.3 180.8 " fill="#000000"/>
<path class="legend" d="M 302.1 184.6 L 306.1 184.6 L 306.1 185.4 L 302.1 185.4 L 302.1 184.6 " fill="#000000"/>
<path class="legend" d="M 307.2 180.8 L 308.2 180.8 L 308.2 187.6 L 311.7 187.6 L 311.7 188.5 L 307.2 188.5 L 307.2 180.8 " fill="#000000"/>
<path class="legend" d="M 322.2 180.8 L 323.2 180.8 L 321.2 188.5 L 319.6 188.5 L 317.9 182.0 L 316.2 188.5 L 314.7 188.5 L 312.6 180.8 L 313.7 180.8 L 315.5 187.5 L 317.2 180.8 L 318.6 180.8 L 320.4 187.5 L 322.2 180.8 " fill="#000000"/>
<path class="legend" d="M 332.9 188.5 L 331.9 188.5 L 331.1 182.2 L 329.0 188.5 L 328.0 188.5 L 325.9 182.2 L 325.1 188.5 L 324.1 188.5 L 325.1 180.8 L 326.4 180.8 L 328.5 187.0 L 330.7 180.8 L 331.9 180.8 L 332.9 188.5 " fill="#000000"/>
<path class="legend" d="M 337.9 184.4 Q 338.7 184.6, 339.1 185.1 Q 339.4 185.5, 339.4 186.2 Q 339.4 187.3, 338.8 187.9 Q 338.1 188.5, 336.8 188.5 L 334.2 188.5 L 334.2 180.8 L 336.5 180.8 Q 337.8 180.8, 338.5 181.3 Q 339.1 181.8, 339.1 182.8 Q 339.1 184.0, 337.9 184.4 M 335.2 181.6 L 335.2 184.1 L 336.5 184.1 Q 337.2 184.1, 337.6 183.7 Q 338.0 183.4, 338.0 182.8 Q 338.0 181.6, 336.5 181.6 L 335.2 181.6 M 336.8 187.6 Q 337.5 187.6, 337.9 187.2 Q 338.3 186.9, 338.3 186.2 Q 338.3 185.6, 337.9 185.3 Q 337.5 184.9, 336.6 184.9 L 335.2 184.9 L 335.2 187.6 L 336.8 187.6 " fill="#000000"/>
<path class="legend" d="M 342.8 180.8 Q 344.1 180.8, 344.8 181.4 Q 345.4 182.0, 345.4 183.0 Q 345.4 184.1, 344.7 184.7 Q 344.1 185.3, 342.8 185.3 L 341.6 185.3 L 341.6 188.5 L 340.5 188.5 L 340.5 180.8 L 342.8 180.8 M 342.8 184.4 Q 343.5 184.4, 343.9 184.1 Q 344.3 183.7, 344.3 183.0 Q 344.3 182.3, 343.9 182.0 Q 343.5 181.6, 342.8 181.6 L 341.6 181.6 L 341.6 184.4 L 342.8 184.4 " fill="#000000"/>
<path class="legend" d="M 348.8 180.8 Q 350.1 180.8, 350.8 181.4 Q 351.4 182.0, 351.4 183.0 Q 351.4 184.1, 350.7 184.7 Q 350.1 185.3, 348.8 185.3 L 347.6 185.3 L 347.6 188.5 L 346.5 188.5 L 346.5 180.8 L 348.8 180.8 M 348.8 184.4 Q 349.5 184.4, 349.9 184.1 Q 350.3 183.7, 350.3 183.0 Q 350.3 182.3, 349.9 182.0 Q 349.5 181.6, 348.8 181.6 L 347.6 181.6 L 347.6 184.4 L 348.8 184.4 " fill="#000000"/>
<path class="legend" d="M 353.7 180.8 L 356.3 184.8 Q 356.5 185.3, 356.9 186.0 Q 357.3 186.7, 357.3 186.8 L 357.3 180.8 L 358.4 180.8 L 358.4 188.5 L 357.3 188.5 L 354.6 184.0 Q 354.3 183.5, 353.9 182.9 Q 353.6 182.3, 353.5 182.1 L 353.5 188.5 L 352.5 188.5 L 352.5 180.8 L 353.7 180.8 " fill="#000000"/>
<path class="legend" d="M 359.8 180.8 L 364.4 180.8 L 364.4 181.6 L 360.9 181.6 L 360.9 184.0 L 364.0 184.0 L 364.0 184.9 L 360.9 184.9 L 360.9 187.6 L 364.5 187.6 L 364.5 188.5 L 359.8 188.5 L 359.8 180.8 " fill="#000000"/>
<path class="legend" d="M 365.9 187.3 Q 366.0 187.3, 366.4 187.5 Q 366.7 187.6, 367.1 187.7 Q 367.5 187.8, 367.9 187.8 Q 368.6 187.8, 369.1 187.5 Q 369.5 187.1, 369.5 186.5 Q 369.5 186.0, 369.3 185.8 Q 369.1 185.5, 368.7 185.4 Q 368.4 185.2, 367.9 185.1 Q 367.2 184.9, 366.8 184.7 Q 366.4 184.5, 366.1 184.1 Q 365.8 183.7, 365.8 183.0 Q 365.8 182.0, 366.4 181.4 Q 367.1 180.8, 368.4 180.8 Q 369.3 180.8, 370.3 181.2 L 370.1 182.0 Q 369.1 181.7, 368.4 181.7 Q 367.7 181.7, 367.3 182.0 Q 366.9 182.3, 366.9 182.8 Q 366.9 183.2, 367.1 183.5 Q 367.3 183.7, 367.6 183.9 Q 367.9 184.0, 368.4 184.2 Q 369.1 184.4, 369.6 184.6 Q 370.0 184.8, 370.3 185.3 Q 370.6 185.7, 370.6 186.5 Q 370.6 187.5, 369.9 188.1 Q 369.1 188.7, 368.0 188.7 Q 367.3 188.7, 366.7 188.5 Q 366.2 188.4, 365.6 188.1 L 365.9 187.3 " fill="#000000"/>
<path class="legend" d="M 377.3 188.5 L 376.5 186.2 L 373.5 186.2 L 372.7 188.5 L 371.6 188.5 L 374.3 180.8 L 375.6 180.8 L 378.3 188.5 L 377.3 188.5 M 373.8 185.3 L 376.2 185.3 L 375.0 181.8 L 373.8 185.3 " fill="#000000"/>
<path class="legend" d="M 379.0 184.6 L 383.0 184.6 L 383.0 185.4 L 379.0 185.4 L 379.0 184.6 " fill="#000000"/>
<path class="legend" d="M 385.4 180.8 L 387.9 184.8 Q 388.1 185.3, 388.6 186.0 Q 389.0 186.7, 389.0 186.8 L 389.0 180.8 L 390.0 180.8 L 390.0 188.5 L 388.9 188.5 L 386.2 184.0 Q 385.9 183.5, 385.6 182.9 Q 385.3 182.3, 385.2 182.1 L 385.2 188.5 L 384.2 188.5 L 384.2 180.8 L 385.4 180.8 " fill="#000000"/>
<path class="bond-0 atom-0 atom-1" d="M 514.3,79.9 L 486.2,102.1" style="fill:none;fill-rule:evenodd;stroke:#000000;stroke-width:2.0px;stroke-linecap:butt;stroke-linejoin:miter;stroke-opacity:1"/>
<path class="bond-1 atom-1 atom-2" d="M 486.2,102.1 L 452.9,88.8" style="fill:none;fill-rule:evenodd;stroke:#000000;stroke-width:2.0px;stroke-linecap:butt;stroke-linejoin:miter;stroke-opacity:1"/>
<path class="bond-2 atom-2 atom-3" d="M 455.7,89.9 L 453.5,74.7" style="fill:none;fill-rule:evenodd;stroke:#000000;stroke-width:2.0px;stroke-linecap:butt;stroke-linejoin:miter;stroke-opacity:1"/>
<path class="bond-2 atom-2 atom-3" d="M 453.5,74.7 L 451.3,59.4" style="fill:none;fill-rule:evenodd;stroke:#FF0000;stroke-width:2.0px;stroke-linecap:butt;stroke-linejoin:miter;stroke-opacity:1"/>
<path class="bond-2 atom-2 atom-3" d="M 450.4,90.7 L 448.2,75.4" style="fill:none;fill-rule:evenodd;stroke:#000000;stroke-width:2.0px;stroke-linecap:butt;stroke-linejoin:miter;stroke-opacity:1"/>
<path class="bond-2 atom-2 atom-3" d="M 448.2,75.4 L 446.0,60.2" style="fill:none;fill-rule:evenodd;stroke:#FF0000;stroke-width:2.0px;stroke-linecap:butt;stroke-linejoin:miter;stroke-opacity:1"/>
<path class="bond-3 atom-2 atom-4" d="M 452.9,88.8 L 441.7,97.6" style="fill:none;fill-rule:evenodd;stroke:#000000;stroke-width:2.0px;stroke-linecap:butt;stroke-linejoin:miter;stroke-opacity:1"/>
<path class="bond-3 atom-2 atom-4" d="M 441.7,97.6 L 430.5,106.4" style="fill:none;fill-rule:evenodd;stroke:#FF0000;stroke-width:2.0px;stroke-linecap:butt;stroke-linejoin:miter;stroke-opacity:1"/>
<path class="bond-4 atom-1 atom-5" d="M 486.2,102.1 L 488.3,116.7" style="fill:none;fill-rule:evenodd;stroke:#000000;stroke-width:2.0px;stroke-linecap:butt;stroke-linejoin:miter;stroke-opacity:1"/>
<path class="bond-4 atom-1 atom-5" d="M 488.3,116.7 L 490.4,131.3" style="fill:none;fill-rule:evenodd;stroke:#FF0000;stroke-width:2.0px;stroke-linecap:butt;stroke-linejoin:miter;stroke-opacity:1"/>
<path class="bond-5 atom-0 atom-6" d="M 514.3,79.9 L 547.6,93.2" style="fill:none;fill-rule:evenodd;stroke:#000000;stroke-width:2.0px;stroke-linecap:butt;stroke-linejoin:miter;stroke-opacity:1"/>
<path class="bond-6 atom-6 atom-7" d="M 544.8,92.0 L 547.0,107.4" style="fill:none;fill-rule:evenodd;stroke:#000000;stroke-width:2.0px;stroke-linecap:butt;stroke-linejoin:miter;stroke-opacity:1"/>
<path class="bond-6 atom-6 atom-7" d="M 547.0,107.4 L 549.2,122.7" style="fill:none;fill-rule:evenodd;stroke:#FF0000;stroke-width:2.0px;stroke-linecap:butt;stroke-linejoin:miter;stroke-opacity:1"/>
<path class="bond-6 atom-6 atom-7" d="M 550.1,91.3 L 552.3,106.6" style="fill:none;fill-rule:evenodd;stroke:#000000;stroke-width:2.0px;stroke-linecap:butt;stroke-linejoin:miter;stroke-opacity:1"/>
<path class="bond-6 atom-6 atom-7" d="M 552.3,106.6 L 554.5,122.0" style="fill:none;fill-rule:evenodd;stroke:#FF0000;stroke-width:2.0px;stroke-linecap:butt;stroke-linejoin:miter;stroke-opacity:1"/>
<path class="bond-7 atom-6 atom-8" d="M 547.6,93.2 L 558.8,84.4" style="fill:none;fill-rule:evenodd;stroke:#000000;stroke-width:2.0px;stroke-linecap:butt;stroke-linejoin:miter;stroke-opacity:1"/>
<path class="bond-7 atom-6 atom-8" d="M 558.8,84.4 L 570.0,75.6" style="fill:none;fill-rule:evenodd;stroke:#FF0000;stroke-width:2.0px;stroke-linecap:butt;stroke-linejoin:miter;stroke-opacity:1"/>
<path class="bond-8 atom-0 atom-9" d="M 514.3,79.9 L 512.2,65.4" style="fill:none;fill-rule:evenodd;stroke:#000000;stroke-width:2.0px;stroke-linecap:butt;stroke-linejoin:miter;stroke-opacity:1"/>
<path class="bond-8 atom-0 atom-9" d="M 512.2,65.4 L 510.1,50.9" style="fill:none;fill-rule:evenodd;stroke:#FF0000;stroke-width:2.0px;stroke-linecap:butt;stroke-linejoin:miter;stroke-opacity:1"/>
<path d="M 454.5,89.5 L 452.9,88.8 L 452.3,89.2" style="fill:none;stroke:#000000;stroke-width:2.0px;stroke-linecap:butt;stroke-linejoin:miter;stroke-miterlimit:10;stroke-opacity:1;"/>
<path d="M 546.0,92.5 L 547.6,93.2 L 548.2,92.7" style="fill:none;stroke:#000000;stroke-width:2.0px;stroke-linecap:butt;stroke-linejoin:miter;stroke-miterlimit:10;stroke-opacity:1;"/>
<path class="atom-3" d="M 443.1 53.3 Q 443.1 50.9, 444.3 49.5 Q 445.5 48.2, 447.7 48.2 Q 450.0 48.2, 451.2 49.5 Q 452.4 50.9, 452.4 53.3 Q 452.4 55.8, 451.2 57.2 Q 449.9 58.6, 447.7 58.6 Q 445.5 58.6, 444.3 57.2 Q 443.1 55.8, 443.1 53.3 M 447.7 57.4 Q 449.3 57.4, 450.1 56.4 Q 451.0 55.4, 451.0 53.3 Q 451.0 51.3, 450.1 50.3 Q 449.3 49.3, 447.7 49.3 Q 446.2 49.3, 445.3 50.3 Q 444.5 51.3, 444.5 53.3 Q 444.5 55.4, 445.3 56.4 Q 446.2 57.4, 447.7 57.4 " fill="#FF0000"/>
<path class="atom-4" d="M 410.0 106.0 L 411.4 106.0 L 411.4 110.3 L 416.6 110.3 L 416.6 106.0 L 417.9 106.0 L 417.9 116.1 L 416.6 116.1 L 416.6 111.4 L 411.4 111.4 L 411.4 116.1 L 410.0 116.1 L 410.0 106.0 " fill="#FF0000"/>
<path class="atom-4" d="M 420.0 111.0 Q 420.0 108.6, 421.2 107.2 Q 422.4 105.8, 424.7 105.8 Q 426.9 105.8, 428.1 107.2 Q 429.4 108.6, 429.4 111.0 Q 429.4 113.5, 428.1 114.9 Q 426.9 116.3, 424.7 116.3 Q 422.5 116.3, 421.2 114.9 Q 420.0 113.5, 420.0 111.0 M 424.7 115.1 Q 426.2 115.1, 427.1 114.1 Q 427.9 113.0, 427.9 111.0 Q 427.9 109.0, 427.1 108.0 Q 426.2 107.0, 424.7 107.0 Q 423.1 107.0, 422.3 108.0 Q 421.5 109.0, 421.5 111.0 Q 421.5 113.1, 422.3 114.1 Q 423.1 115.1, 424.7 115.1 " fill="#FF0000"/>
<path class="atom-5" d="M 486.6 137.6 Q 486.6 135.2, 487.8 133.8 Q 489.1 132.4, 491.3 132.4 Q 493.6 132.4, 494.8 133.8 Q 496.0 135.2, 496.0 137.6 Q 496.0 140.1, 494.7 141.5 Q 493.5 142.9, 491.3 142.9 Q 489.1 142.9, 487.8 141.5 Q 486.6 140.1, 486.6 137.6 M 491.3 141.7 Q 492.9 141.7, 493.7 140.7 Q 494.5 139.6, 494.5 137.6 Q 494.5 135.6, 493.7 134.6 Q 492.9 133.6, 491.3 133.6 Q 489.8 133.6, 488.9 134.6 Q 488.1 135.6, 488.1 137.6 Q 488.1 139.7, 488.9 140.7 Q 489.8 141.7, 491.3 141.7 " fill="#FF0000"/>
<path class="atom-5" d="M 497.5 132.6 L 498.9 132.6 L 498.9 136.9 L 504.1 136.9 L 504.1 132.6 L 505.5 132.6 L 505.5 142.7 L 504.1 142.7 L 504.1 138.0 L 498.9 138.0 L 498.9 142.7 L 497.5 142.7 L 497.5 132.6 " fill="#FF0000"/>
<path class="atom-7" d="M 548.1 128.7 Q 548.1 126.3, 549.3 124.9 Q 550.5 123.5, 552.8 123.5 Q 555.0 123.5, 556.2 124.9 Q 557.4 126.3, 557.4 128.7 Q 557.4 131.2, 556.2 132.6 Q 555.0 134.0, 552.8 134.0 Q 550.5 134.0, 549.3 132.6 Q 548.1 131.2, 548.1 128.7 M 552.8 132.8 Q 554.3 132.8, 555.2 131.8 Q 556.0 130.7, 556.0 128.7 Q 556.0 126.7, 555.2 125.7 Q 554.3 124.7, 552.8 124.7 Q 551.2 124.7, 550.4 125.7 Q 549.6 126.7, 549.6 128.7 Q 549.6 130.8, 550.4 131.8 Q 551.2 132.8, 552.8 132.8 " fill="#FF0000"/>
<path class="atom-8" d="M 571.1 71.0 Q 571.1 68.6, 572.4 67.2 Q 573.6 65.9, 575.8 65.9 Q 578.1 65.9, 579.3 67.2 Q 580.5 68.6, 580.5 71.0 Q 580.5 73.5, 579.3 74.9 Q 578.0 76.3, 575.8 76.3 Q 573.6 76.3, 572.4 74.9 Q 571.1 73.5, 571.1 71.0 M 575.8 75.1 Q 577.4 75.1, 578.2 74.1 Q 579.0 73.1, 579.0 71.0 Q 579.0 69.0, 578.2 68.0 Q 577.4 67.0, 575.8 67.0 Q 574.3 67.0, 573.4 68.0 Q 572.6 69.0, 572.6 71.0 Q 572.6 73.1, 573.4 74.1 Q 574.3 75.1, 575.8 75.1 " fill="#FF0000"/>
<path class="atom-8" d="M 582.1 66.0 L 583.4 66.0 L 583.4 70.3 L 588.6 70.3 L 588.6 66.0 L 590.0 66.0 L 590.0 76.1 L 588.6 76.1 L 588.6 71.4 L 583.4 71.4 L 583.4 76.1 L 582.1 76.1 L 582.1 66.0 " fill="#FF0000"/>
<path class="atom-9" d="M 504.5 44.4 Q 504.5 42.0, 505.7 40.6 Q 506.9 39.3, 509.2 39.3 Q 511.4 39.3, 512.7 40.6 Q 513.9 42.0, 513.9 44.4 Q 513.9 46.9, 512.6 48.3 Q 511.4 49.7, 509.2 49.7 Q 507.0 49.7, 505.7 48.3 Q 504.5 46.9, 504.5 44.4 M 509.2 48.5 Q 510.7 48.5, 511.6 47.5 Q 512.4 46.5, 512.4 44.4 Q 512.4 42.4, 511.6 41.4 Q 510.7 40.4, 509.2 40.4 Q 507.6 40.4, 506.8 41.4 Q 506.0 42.4, 506.0 44.4 Q 506.0 46.5, 506.8 47.5 Q 507.6 48.5, 509.2 48.5 " fill="#FF0000"/>
<path class="atom-9" d="M 515.4 39.4 L 516.8 39.4 L 516.8 43.7 L 522.0 43.7 L 522.0 39.4 L 523.4 39.4 L 523.4 49.5 L 522.0 49.5 L 522.0 44.8 L 516.8 44.8 L 516.8 49.5 L 515.4 49.5 L 515.4 39.4 " fill="#FF0000"/>
<path class="note" d="M 515.2 88.4 Q 514.3 88.4, 513.8 87.7 Q 513.3 87.1, 513.3 85.8 Q 513.3 84.6, 513.8 83.9 Q 514.3 83.2, 515.2 83.2 Q 516.1 83.2, 516.6 83.9 Q 517.0 84.6, 517.0 85.8 Q 517.0 87.1, 516.6 87.7 Q 516.1 88.4, 515.2 88.4 M 515.2 87.9 Q 515.7 87.9, 516.0 87.3 Q 516.3 86.8, 516.3 85.8 Q 516.3 84.8, 516.0 84.3 Q 515.7 83.8, 515.2 83.8 Q 514.6 83.8, 514.3 84.3 Q 514.1 84.8, 514.1 85.8 Q 514.1 86.8, 514.3 87.3 Q 514.6 87.9, 515.2 87.9 " fill="#000000"/>
<path class="note" d="M 484.1 98.1 L 485.2 98.1 L 485.2 94.4 L 483.9 94.7 L 483.8 94.3 L 485.3 93.6 L 485.8 93.7 L 485.8 98.1 L 486.8 98.1 L 486.8 98.7 L 484.1 98.7 L 484.1 98.1 " fill="#000000"/>
<path class="note" d="M 452.0 93.2 Q 452.2 92.7, 452.7 92.4 Q 453.1 92.1, 453.7 92.1 Q 454.5 92.1, 454.9 92.6 Q 455.3 93.0, 455.3 93.7 Q 455.3 94.5, 454.8 95.2 Q 454.2 95.9, 453.1 96.7 L 455.4 96.7 L 455.4 97.3 L 452.0 97.3 L 452.0 96.8 Q 453.0 96.1, 453.5 95.6 Q 454.1 95.1, 454.4 94.7 Q 454.6 94.2, 454.6 93.7 Q 454.6 93.3, 454.4 93.0 Q 454.1 92.7, 453.7 92.7 Q 453.3 92.7, 453.0 92.9 Q 452.8 93.0, 452.6 93.4 L 452.0 93.2 " fill="#000000"/>
<path class="note" d="M 446.7 41.4 Q 447.2 41.5, 447.5 41.8 Q 447.7 42.1, 447.7 42.6 Q 447.7 43.1, 447.5 43.4 Q 447.3 43.7, 446.9 43.9 Q 446.5 44.1, 446.0 44.1 Q 445.4 44.1, 445.0 43.9 Q 444.6 43.7, 444.3 43.3 L 444.7 42.9 Q 445.0 43.3, 445.3 43.4 Q 445.6 43.5, 446.0 43.5 Q 446.4 43.5, 446.7 43.3 Q 447.0 43.0, 447.0 42.6 Q 447.0 42.1, 446.7 41.9 Q 446.4 41.7, 445.8 41.7 L 445.4 41.7 L 445.4 41.1 L 445.8 41.1 Q 446.3 41.1, 446.6 40.9 Q 446.9 40.6, 446.9 40.2 Q 446.9 39.9, 446.6 39.7 Q 446.4 39.5, 446.0 39.5 Q 445.6 39.5, 445.3 39.6 Q 445.0 39.8, 444.8 40.2 L 444.3 39.9 Q 444.5 39.5, 445.0 39.2 Q 445.4 38.9, 446.0 38.9 Q 446.7 38.9, 447.2 39.2 Q 447.6 39.6, 447.6 40.2 Q 447.6 40.6, 447.4 40.9 Q 447.2 41.2, 446.7 41.4 " fill="#000000"/>
<path class="note" d="M 424.3 99.9 L 424.9 99.9 L 424.9 100.5 L 424.3 100.5 L 424.3 101.7 L 423.7 101.7 L 423.7 100.5 L 421.0 100.5 L 421.0 100.1 L 423.2 96.6 L 424.3 96.6 L 424.3 99.9 M 421.9 99.9 L 423.7 99.9 L 423.7 97.1 L 421.9 99.9 " fill="#000000"/>
<path class="note" d="M 493.1 148.8 Q 493.6 148.8, 494.0 149.0 Q 494.3 149.1, 494.5 149.5 Q 494.7 149.9, 494.7 150.3 Q 494.7 150.9, 494.5 151.2 Q 494.2 151.6, 493.8 151.8 Q 493.4 152.0, 492.9 152.0 Q 492.5 152.0, 492.0 151.8 Q 491.6 151.7, 491.3 151.3 L 491.7 150.9 Q 492.0 151.1, 492.3 151.3 Q 492.6 151.4, 492.9 151.4 Q 493.4 151.4, 493.7 151.1 Q 494.0 150.9, 494.0 150.4 Q 494.0 149.8, 493.7 149.6 Q 493.4 149.3, 492.9 149.3 Q 492.5 149.3, 492.0 149.5 L 491.6 149.3 L 491.8 146.9 L 494.4 146.9 L 494.3 147.4 L 492.4 147.4 L 492.2 148.9 Q 492.7 148.8, 493.1 148.8 " fill="#000000"/>
<path class="note" d="M 547.0 86.7 Q 547.5 86.7, 547.8 86.9 Q 548.2 87.1, 548.4 87.4 Q 548.5 87.8, 548.5 88.2 Q 548.5 88.7, 548.3 89.1 Q 548.1 89.5, 547.7 89.7 Q 547.3 89.9, 546.8 89.9 Q 545.9 89.9, 545.5 89.3 Q 545.0 88.7, 545.0 87.4 Q 545.0 86.1, 545.6 85.4 Q 546.2 84.7, 547.2 84.7 Q 547.5 84.7, 547.8 84.8 Q 548.1 84.8, 548.3 85.0 L 548.1 85.5 Q 547.7 85.3, 547.2 85.3 Q 546.5 85.3, 546.2 85.7 Q 545.8 86.2, 545.7 87.2 Q 546.0 86.9, 546.3 86.8 Q 546.7 86.7, 547.0 86.7 M 546.8 89.3 Q 547.1 89.3, 547.3 89.2 Q 547.6 89.0, 547.7 88.8 Q 547.8 88.5, 547.8 88.2 Q 547.8 87.8, 547.6 87.5 Q 547.3 87.2, 546.9 87.2 Q 546.6 87.2, 546.3 87.4 Q 546.0 87.5, 545.7 87.7 Q 545.8 88.5, 546.0 88.9 Q 546.3 89.3, 546.8 89.3 " fill="#000000"/>
<path class="note" d="M 555.5 138.5 L 552.8 138.5 L 552.8 138.0 L 556.2 138.0 L 556.2 138.5 L 554.1 143.0 L 553.4 143.0 L 555.5 138.5 " fill="#000000"/>
<path class="note" d="M 578.3 82.7 Q 578.8 82.9, 579.1 83.2 Q 579.3 83.5, 579.3 84.0 Q 579.3 84.4, 579.1 84.8 Q 578.9 85.1, 578.5 85.3 Q 578.1 85.5, 577.6 85.5 Q 576.7 85.5, 576.2 85.1 Q 575.7 84.7, 575.7 84.0 Q 575.7 83.6, 575.9 83.3 Q 576.2 83.0, 576.6 82.7 Q 576.3 82.5, 576.1 82.3 Q 575.9 82.0, 575.9 81.6 Q 575.9 81.0, 576.3 80.6 Q 576.8 80.3, 577.5 80.3 Q 578.3 80.3, 578.7 80.6 Q 579.1 81.0, 579.1 81.6 Q 579.1 81.9, 578.9 82.2 Q 578.7 82.5, 578.3 82.7 M 577.5 80.8 Q 577.1 80.8, 576.9 81.0 Q 576.6 81.2, 576.6 81.6 Q 576.6 81.8, 576.8 82.0 Q 576.9 82.2, 577.2 82.3 Q 577.4 82.4, 577.8 82.5 Q 578.1 82.3, 578.3 82.1 Q 578.4 81.8, 578.4 81.6 Q 578.4 81.2, 578.2 81.0 Q 577.9 80.8, 577.5 80.8 M 577.6 84.9 Q 578.0 84.9, 578.3 84.7 Q 578.6 84.4, 578.6 84.0 Q 578.6 83.7, 578.4 83.5 Q 578.3 83.4, 578.1 83.3 Q 577.8 83.2, 577.4 83.0 L 577.1 82.9 Q 576.8 83.1, 576.6 83.4 Q 576.4 83.7, 576.4 84.0 Q 576.4 84.4, 576.7 84.7 Q 577.0 84.9, 577.6 84.9 " fill="#000000"/>
<path class="note" d="M 507.4 30.0 Q 508.3 30.0, 508.8 30.6 Q 509.2 31.2, 509.2 32.4 Q 509.2 33.8, 508.7 34.5 Q 508.1 35.2, 507.0 35.2 Q 506.7 35.2, 506.4 35.1 Q 506.2 35.0, 505.9 34.9 L 506.2 34.4 Q 506.6 34.6, 507.0 34.6 Q 507.7 34.6, 508.1 34.2 Q 508.5 33.7, 508.5 32.7 Q 508.3 33.0, 507.9 33.1 Q 507.6 33.2, 507.3 33.2 Q 506.8 33.2, 506.5 33.0 Q 506.1 32.8, 505.9 32.5 Q 505.7 32.1, 505.7 31.7 Q 505.7 31.2, 505.9 30.8 Q 506.2 30.4, 506.5 30.2 Q 506.9 30.0, 507.4 30.0 M 506.4 31.7 Q 506.4 32.1, 506.7 32.4 Q 506.9 32.7, 507.4 32.7 Q 507.7 32.7, 508.0 32.5 Q 508.3 32.4, 508.5 32.2 Q 508.5 31.3, 508.2 31.0 Q 508.0 30.6, 507.4 30.6 Q 507.2 30.6, 506.9 30.7 Q 506.7 30.9, 506.6 31.1 Q 506.4 31.4, 506.4 31.7 " fill="#000000"/>
<path class="legend" d="M 410.0 180.5 L 414.7 180.5 L 414.7 181.4 L 411.1 181.4 L 411.1 183.8 L 414.3 183.8 L 414.3 184.7 L 411.1 184.7 L 411.1 188.4 L 410.0 188.4 L 410.0 180.5 " fill="#000000"/>
<path class="legend" d="M 415.5 180.5 L 420.3 180.5 L 420.3 181.4 L 416.6 181.4 L 416.6 183.8 L 419.9 183.8 L 419.9 184.7 L 416.6 184.7 L 416.6 187.5 L 420.4 187.5 L 420.4 188.4 L 415.5 188.4 L 415.5 180.5 " fill="#000000"/>
<path class="legend" d="M 431.4 180.5 L 432.5 180.5 L 430.4 188.4 L 428.7 188.4 L 427.0 181.8 L 425.3 188.4 L 423.6 188.4 L 421.5 180.5 L 422.6 180.5 L 424.5 187.4 L 426.3 180.5 L 427.7 180.5 L 429.5 187.5 L 431.4 180.5 " fill="#000000"/>
<path class="legend" d="M 433.4 189.1 Q 433.4 189.2, 433.9 188.9 Q 434.3 188.6, 434.7 188.1 Q 435.1 187.7, 435.1 187.1 L 435.1 181.4 L 433.6 181.4 L 433.6 180.5 L 436.2 180.5 L 436.2 187.1 Q 436.2 188.0, 435.7 188.6 Q 435.1 189.3, 434.5 189.7 Q 433.8 190.0, 433.8 190.0 L 433.4 189.1 " fill="#000000"/>
<path class="legend" d="M 440.1 180.5 Q 441.4 180.5, 442.1 181.1 Q 442.8 181.7, 442.8 182.8 Q 442.8 183.9, 442.1 184.5 Q 441.4 185.2, 440.1 185.2 L 438.8 185.2 L 438.8 188.4 L 437.7 188.4 L 437.7 180.5 L 440.1 180.5 M 440.1 184.3 Q 440.8 184.3, 441.3 183.9 Q 441.7 183.5, 441.7 182.8 Q 441.7 182.1, 441.3 181.7 Q 440.9 181.4, 440.1 181.4 L 438.8 181.4 L 438.8 184.3 L 440.1 184.3 " fill="#000000"/>
<path class="legend" d="M 443.9 187.6 L 447.9 181.4 L 444.0 181.4 L 444.0 180.5 L 449.3 180.5 L 449.3 181.3 L 445.2 187.5 L 449.2 187.5 L 449.2 188.4 L 443.9 188.4 L 443.9 187.6 " fill="#000000"/>
<path class="legend" d="M 450.3 180.4 L 451.4 180.4 L 451.4 188.4 L 450.3 188.4 L 450.3 180.4 " fill="#000000"/>
<path class="legend" d="M 452.9 180.5 L 457.7 180.5 L 457.7 181.4 L 454.0 181.4 L 454.0 183.8 L 457.3 183.8 L 457.3 184.7 L 454.0 184.7 L 454.0 187.5 L 457.8 187.5 L 457.8 188.4 L 452.9 188.4 L 452.9 180.5 " fill="#000000"/>
<path class="legend" d="M 468.8 180.5 L 469.9 180.5 L 467.7 188.4 L 466.1 188.4 L 464.4 181.8 L 462.6 188.4 L 461.0 188.4 L 458.9 180.5 L 460.0 180.5 L 461.8 187.4 L 463.7 180.5 L 465.1 180.5 L 466.9 187.5 L 468.8 180.5 " fill="#000000"/>
<path class="legend" d="M 470.7 184.4 Q 470.7 182.5, 471.7 181.5 Q 472.6 180.4, 474.4 180.4 Q 476.2 180.4, 477.1 181.5 Q 478.0 182.5, 478.0 184.4 Q 478.0 186.4, 477.1 187.5 Q 476.1 188.6, 474.4 188.6 Q 472.6 188.6, 471.7 187.5 Q 470.7 186.4, 470.7 184.4 M 474.4 187.7 Q 475.6 187.7, 476.3 186.8 Q 476.9 186.0, 476.9 184.4 Q 476.9 182.9, 476.3 182.1 Q 475.6 181.3, 474.4 181.3 Q 473.2 181.3, 472.5 182.1 Q 471.9 182.9, 471.9 184.4 Q 471.9 186.0, 472.5 186.8 Q 473.2 187.7, 474.4 187.7 " fill="#000000"/>
<path class="legend" d="M 479.2 180.5 L 480.2 180.5 L 480.2 188.4 L 479.2 188.4 L 479.2 180.5 M 483.6 180.5 L 485.0 180.5 L 481.9 184.1 L 485.3 188.4 L 483.9 188.4 L 480.5 184.1 L 483.6 180.5 " fill="#000000"/>
<path class="legend" d="M 490.2 188.4 L 488.3 185.2 L 488.3 185.2 L 487.0 185.2 L 487.0 188.4 L 485.9 188.4 L 485.9 180.5 L 488.3 180.5 Q 489.6 180.5, 490.3 181.1 Q 491.0 181.7, 491.0 182.8 Q 491.0 183.7, 490.6 184.2 Q 490.2 184.8, 489.4 185.0 L 491.4 188.4 L 490.2 188.4 M 487.0 184.3 L 488.3 184.3 Q 489.1 184.3, 489.5 183.9 Q 489.9 183.5, 489.9 182.8 Q 489.9 182.1, 489.5 181.7 Q 489.1 181.4, 488.3 181.4 L 487.0 181.4 L 487.0 184.3 " fill="#000000"/>
<path class="legend" d="M 496.1 184.3 Q 496.9 184.5, 497.2 184.9 Q 497.6 185.4, 497.6 186.1 Q 497.6 187.2, 496.9 187.8 Q 496.2 188.4, 494.9 188.4 L 492.2 188.4 L 492.2 180.5 L 494.6 180.5 Q 495.9 180.5, 496.6 181.0 Q 497.3 181.6, 497.3 182.6 Q 497.3 183.8, 496.1 184.3 M 493.3 181.4 L 493.3 183.9 L 494.6 183.9 Q 495.4 183.9, 495.8 183.6 Q 496.2 183.2, 496.2 182.6 Q 496.2 181.4, 494.6 181.4 L 493.3 181.4 M 494.9 187.5 Q 495.7 187.5, 496.1 187.2 Q 496.5 186.8, 496.5 186.1 Q 496.5 185.4, 496.1 185.1 Q 495.6 184.8, 494.7 184.8 L 493.3 184.8 L 493.3 187.5 L 494.9 187.5 " fill="#000000"/>
<path class="legend" d="M 498.7 180.5 L 503.5 180.5 L 503.5 181.4 L 499.8 181.4 L 499.8 183.8 L 503.1 183.8 L 503.1 184.7 L 499.8 184.7 L 499.8 187.5 L 503.6 187.5 L 503.6 188.4 L 498.7 188.4 L 498.7 180.5 " fill="#000000"/>
<path class="legend" d="M 504.7 184.4 L 508.8 184.4 L 508.8 185.3 L 504.7 185.3 L 504.7 184.4 " fill="#000000"/>
<path class="legend" d="M 511.0 180.5 L 511.0 185.8 Q 511.0 186.7, 511.5 187.2 Q 512.0 187.6, 513.0 187.6 Q 514.0 187.6, 514.6 187.2 Q 515.1 186.8, 515.1 185.9 L 515.1 180.5 L 516.2 180.5 L 516.2 185.9 Q 516.2 187.1, 515.4 187.8 Q 514.6 188.5, 513.0 188.5 Q 511.5 188.5, 510.7 187.8 Q 509.9 187.1, 509.9 185.9 L 509.9 180.5 L 511.0 180.5 " fill="#000000"/>
<path class="legend" d="M 517.6 180.5 L 518.7 180.5 L 518.7 183.9 L 522.7 183.9 L 522.7 180.5 L 523.8 180.5 L 523.8 188.4 L 522.7 188.4 L 522.7 184.8 L 518.7 184.8 L 518.7 188.4 L 517.6 188.4 L 517.6 180.5 " fill="#000000"/>
<path class="legend" d="M 525.3 180.5 L 530.1 180.5 L 530.1 181.4 L 526.4 181.4 L 526.4 183.8 L 529.7 183.8 L 529.7 184.7 L 526.4 184.7 L 526.4 188.4 L 525.3 188.4 L 525.3 180.5 " fill="#000000"/>
<path class="legend" d="M 530.9 180.5 L 535.6 180.5 L 535.6 181.4 L 531.9 181.4 L 531.9 183.8 L 535.2 183.8 L 535.2 184.7 L 531.9 184.7 L 531.9 188.4 L 530.9 188.4 L 530.9 180.5 " fill="#000000"/>
<path class="legend" d="M 536.4 180.5 L 541.1 180.5 L 541.1 181.4 L 537.5 181.4 L 537.5 183.8 L 540.7 183.8 L 540.7 184.7 L 537.5 184.7 L 537.5 188.4 L 536.4 188.4 L 536.4 180.5 " fill="#000000"/>
<path class="legend" d="M 547.8 188.4 L 547.0 186.1 L 543.8 186.1 L 543.0 188.4 L 542.0 188.4 L 544.7 180.5 L 546.0 180.5 L 548.9 188.4 L 547.8 188.4 M 544.2 185.2 L 546.7 185.2 L 545.4 181.6 L 544.2 185.2 " fill="#000000"/>
<path class="legend" d="M 549.6 184.4 Q 549.6 182.5, 550.5 181.5 Q 551.5 180.4, 553.2 180.4 Q 555.0 180.4, 555.9 181.5 Q 556.9 182.5, 556.9 184.4 Q 556.9 186.4, 555.9 187.5 Q 555.0 188.6, 553.2 188.6 Q 551.5 188.6, 550.5 187.5 Q 549.6 186.4, 549.6 184.4 M 553.2 187.7 Q 554.4 187.7, 555.1 186.8 Q 555.7 186.0, 555.7 184.4 Q 555.7 182.9, 555.1 182.1 Q 554.4 181.3, 553.2 181.3 Q 552.0 181.3, 551.3 182.1 Q 550.7 182.9, 550.7 184.4 Q 550.7 186.0, 551.3 186.8 Q 552.0 187.7, 553.2 187.7 " fill="#000000"/>
<path class="legend" d="M 560.6 185.1 L 558.0 180.5 L 559.2 180.5 L 561.2 184.0 L 563.2 180.5 L 564.3 180.5 L 561.7 185.1 L 561.7 188.4 L 560.6 188.4 L 560.6 185.1 " fill="#000000"/>
<path class="legend" d="M 565.2 187.2 Q 565.3 187.2, 565.7 187.4 Q 566.1 187.5, 566.5 187.6 Q 566.9 187.7, 567.3 187.7 Q 568.0 187.7, 568.5 187.4 Q 568.9 187.0, 568.9 186.4 Q 568.9 185.9, 568.7 185.7 Q 568.5 185.4, 568.1 185.2 Q 567.8 185.1, 567.2 184.9 Q 566.5 184.7, 566.1 184.5 Q 565.7 184.3, 565.4 183.9 Q 565.1 183.5, 565.1 182.7 Q 565.1 181.7, 565.8 181.1 Q 566.4 180.5, 567.8 180.5 Q 568.7 180.5, 569.8 180.9 L 569.5 181.8 Q 568.5 181.4, 567.8 181.4 Q 567.1 181.4, 566.6 181.7 Q 566.2 182.1, 566.2 182.6 Q 566.2 183.0, 566.4 183.3 Q 566.6 183.5, 567.0 183.7 Q 567.3 183.8, 567.8 184.0 Q 568.5 184.2, 569.0 184.5 Q 569.4 184.7, 569.7 185.1 Q 570.0 185.6, 570.0 186.4 Q 570.0 187.5, 569.3 188.1 Q 568.5 188.6, 567.3 188.6 Q 566.6 188.6, 566.1 188.5 Q 565.5 188.3, 564.9 188.1 L 565.2 187.2 " fill="#000000"/>
<path class="legend" d="M 577.0 188.4 L 576.1 186.1 L 573.0 186.1 L 572.2 188.4 L 571.1 188.4 L 573.9 180.5 L 575.2 180.5 L 578.0 188.4 L 577.0 188.4 M 573.3 185.2 L 575.8 185.2 L 574.5 181.6 L 573.3 185.2 " fill="#000000"/>
<path class="legend" d="M 578.7 184.4 L 582.8 184.4 L 582.8 185.3 L 578.7 185.3 L 578.7 184.4 " fill="#000000"/>
<path class="legend" d="M 585.2 180.5 L 587.8 184.7 Q 588.1 185.1, 588.5 185.9 Q 588.9 186.6, 588.9 186.7 L 588.9 180.5 L 590.0 180.5 L 590.0 188.4 L 588.9 188.4 L 586.1 183.8 Q 585.8 183.3, 585.4 182.7 Q 585.1 182.1, 585.0 181.9 L 585.0 188.4 L 584.0 188.4 L 584.0 180.5 L 585.2 180.5 " fill="#000000"/>
</svg>