<svg xmlns="http://www.w3.org/2000/svg" xmlns:rdkit="http://www.rdkit.org/xml" xmlns:xlink="http://www.w3.org/1999/xlink" version="1.1" baseProfile="full" xml:space="preserve" width="1200px" height="300px" viewBox="0 0 1200 300">
<!-- END OF HEADER -->
<rect style="opacity:1.0;fill:#FFFFFF;stroke:none" width="300.0" height="300.0" x="0.0" y="0.0"> </rect>
<ellipse cx="64.0" cy="125.4" rx="6.2" ry="6.2" class="atom-3" style="fill:#FF7F7F;fill-rule:evenodd;stroke:#FF7F7F;stroke-width:1.0px;stroke-linecap:butt;stroke-linejoin:miter;stroke-opacity:1"/>
<ellipse cx="104.9" cy="160.2" rx="6.2" ry="6.2" class="atom-4" style="fill:#FF7F7F;fill-rule:evenodd;stroke:#FF7F7F;stroke-width:1.0px;stroke-linecap:butt;stroke-linejoin:miter;stroke-opacity:1"/>
<path class="bond-0 atom-0 atom-18" d="M 237.3,211.9 L 224.2,209.5" style="fill:none;fill-rule:evenodd;stroke:#000000;stroke-width:2.0px;stroke-linecap:butt;stroke-linejoin:miter;stroke-opacity:1"/>
<path class="bond-0 atom-0 atom-18" d="M 224.2,209.5 L 211.1,207.1" style="fill:none;fill-rule:evenodd;stroke:#0000FF;stroke-width:2.0px;stroke-linecap:butt;stroke-linejoin:miter;stroke-opacity:1"/>
<path class="bond-1 atom-1 atom-18" d="M 186.7,229.9 L 194.6,220.7" style="fill:none;fill-rule:evenodd;stroke:#000000;stroke-width:2.0px;stroke-linecap:butt;stroke-linejoin:miter;stroke-opacity:1"/>
<path class="bond-1 atom-1 atom-18" d="M 194.6,220.7 L 202.4,211.4" style="fill:none;fill-rule:evenodd;stroke:#0000FF;stroke-width:2.0px;stroke-linecap:butt;stroke-linejoin:miter;stroke-opacity:1"/>
<path class="bond-2 atom-2 atom-3" d="M 74.4,154.6 L 64.0,125.4" style="fill:none;fill-rule:evenodd;stroke:#000000;stroke-width:2.0px;stroke-linecap:butt;stroke-linejoin:miter;stroke-opacity:1"/>
<path class="bond-2 atom-2 atom-3" d="M 77.9,150.5 L 69.3,126.4" style="fill:none;fill-rule:evenodd;stroke:#000000;stroke-width:2.0px;stroke-linecap:butt;stroke-linejoin:miter;stroke-opacity:1"/>
<path class="bond-3 atom-2 atom-4" d="M 74.4,154.6 L 104.9,160.2" style="fill:none;fill-rule:evenodd;stroke:#000000;stroke-width:2.0px;stroke-linecap:butt;stroke-linejoin:miter;stroke-opacity:1"/>
<path class="bond-4 atom-3 atom-10" d="M 64.0,125.4 L 84.1,101.8" style="fill:none;fill-rule:evenodd;stroke:#000000;stroke-width:2.0px;stroke-linecap:butt;stroke-linejoin:miter;stroke-opacity:1"/>
<path class="bond-5 atom-4 atom-15" d="M 104.9,160.2 L 125.0,136.6" style="fill:none;fill-rule:evenodd;stroke:#000000;stroke-width:2.0px;stroke-linecap:butt;stroke-linejoin:miter;stroke-opacity:1"/>
<path class="bond-5 atom-4 atom-15" d="M 103.1,155.2 L 119.7,135.6" style="fill:none;fill-rule:evenodd;stroke:#000000;stroke-width:2.0px;stroke-linecap:butt;stroke-linejoin:miter;stroke-opacity:1"/>
<path class="bond-6 atom-5 atom-7" d="M 165.2,89.4 L 185.4,65.8" style="fill:none;fill-rule:evenodd;stroke:#000000;stroke-width:2.0px;stroke-linecap:butt;stroke-linejoin:miter;stroke-opacity:1"/>
<path class="bond-6 atom-5 atom-7" d="M 170.5,90.4 L 187.2,70.8" style="fill:none;fill-rule:evenodd;stroke:#000000;stroke-width:2.0px;stroke-linecap:butt;stroke-linejoin:miter;stroke-opacity:1"/>
<path class="bond-7 atom-5 atom-12" d="M 165.2,89.4 L 175.6,118.6" style="fill:none;fill-rule:evenodd;stroke:#000000;stroke-width:2.0px;stroke-linecap:butt;stroke-linejoin:miter;stroke-opacity:1"/>
<path class="bond-8 atom-6 atom-8" d="M 206.1,124.2 L 226.3,100.6" style="fill:none;fill-rule:evenodd;stroke:#000000;stroke-width:2.0px;stroke-linecap:butt;stroke-linejoin:miter;stroke-opacity:1"/>
<path class="bond-9 atom-6 atom-12" d="M 206.1,124.2 L 175.6,118.6" style="fill:none;fill-rule:evenodd;stroke:#000000;stroke-width:2.0px;stroke-linecap:butt;stroke-linejoin:miter;stroke-opacity:1"/>
<path class="bond-9 atom-6 atom-12" d="M 204.3,119.2 L 179.1,114.5" style="fill:none;fill-rule:evenodd;stroke:#000000;stroke-width:2.0px;stroke-linecap:butt;stroke-linejoin:miter;stroke-opacity:1"/>
<path class="bond-10 atom-7 atom-13" d="M 185.4,65.8 L 215.9,71.4" style="fill:none;fill-rule:evenodd;stroke:#000000;stroke-width:2.0px;stroke-linecap:butt;stroke-linejoin:miter;stroke-opacity:1"/>
<path class="bond-11 atom-8 atom-13" d="M 226.3,100.6 L 215.9,71.4" style="fill:none;fill-rule:evenodd;stroke:#000000;stroke-width:2.0px;stroke-linecap:butt;stroke-linejoin:miter;stroke-opacity:1"/>
<path class="bond-11 atom-8 atom-13" d="M 221.0,99.7 L 212.4,75.5" style="fill:none;fill-rule:evenodd;stroke:#000000;stroke-width:2.0px;stroke-linecap:butt;stroke-linejoin:miter;stroke-opacity:1"/>
<path class="bond-12 atom-9 atom-11" d="M 165.9,171.5 L 196.4,177.1" style="fill:none;fill-rule:evenodd;stroke:#000000;stroke-width:2.0px;stroke-linecap:butt;stroke-linejoin:miter;stroke-opacity:1"/>
<path class="bond-13 atom-9 atom-14" d="M 165.9,171.5 L 155.5,142.2" style="fill:none;fill-rule:evenodd;stroke:#000000;stroke-width:2.0px;stroke-linecap:butt;stroke-linejoin:miter;stroke-opacity:1"/>
<path class="bond-14 atom-10 atom-17" d="M 84.1,101.8 L 97.2,104.2" style="fill:none;fill-rule:evenodd;stroke:#000000;stroke-width:2.0px;stroke-linecap:butt;stroke-linejoin:miter;stroke-opacity:1"/>
<path class="bond-14 atom-10 atom-17" d="M 97.2,104.2 L 110.3,106.6" style="fill:none;fill-rule:evenodd;stroke:#0000FF;stroke-width:2.0px;stroke-linecap:butt;stroke-linejoin:miter;stroke-opacity:1"/>
<path class="bond-14 atom-10 atom-17" d="M 85.9,106.8 L 97.7,109.0" style="fill:none;fill-rule:evenodd;stroke:#000000;stroke-width:2.0px;stroke-linecap:butt;stroke-linejoin:miter;stroke-opacity:1"/>
<path class="bond-14 atom-10 atom-17" d="M 97.7,109.0 L 109.4,111.2" style="fill:none;fill-rule:evenodd;stroke:#0000FF;stroke-width:2.0px;stroke-linecap:butt;stroke-linejoin:miter;stroke-opacity:1"/>
<path class="bond-15 atom-11 atom-18" d="M 196.4,177.1 L 200.6,189.0" style="fill:none;fill-rule:evenodd;stroke:#000000;stroke-width:2.0px;stroke-linecap:butt;stroke-linejoin:miter;stroke-opacity:1"/>
<path class="bond-15 atom-11 atom-18" d="M 200.6,189.0 L 204.9,200.9" style="fill:none;fill-rule:evenodd;stroke:#0000FF;stroke-width:2.0px;stroke-linecap:butt;stroke-linejoin:miter;stroke-opacity:1"/>
<path class="bond-16 atom-12 atom-14" d="M 175.6,118.6 L 155.5,142.2" style="fill:none;fill-rule:evenodd;stroke:#000000;stroke-width:2.0px;stroke-linecap:butt;stroke-linejoin:miter;stroke-opacity:1"/>
<path class="bond-17 atom-13 atom-16" d="M 215.9,71.4 L 223.7,62.2" style="fill:none;fill-rule:evenodd;stroke:#000000;stroke-width:2.0px;stroke-linecap:butt;stroke-linejoin:miter;stroke-opacity:1"/>
<path class="bond-17 atom-13 atom-16" d="M 223.7,62.2 L 231.6,53.0" style="fill:none;fill-rule:evenodd;stroke:#00CC00;stroke-width:2.0px;stroke-linecap:butt;stroke-linejoin:miter;stroke-opacity:1"/>
<path class="bond-18 atom-14 atom-15" d="M 155.5,142.2 L 125.0,136.6" style="fill:none;fill-rule:evenodd;stroke:#000000;stroke-width:2.0px;stroke-linecap:butt;stroke-linejoin:miter;stroke-opacity:1"/>
<path class="bond-19 atom-15 atom-17" d="M 125.0,136.6 L 120.8,124.7" style="fill:none;fill-rule:evenodd;stroke:#000000;stroke-width:2.0px;stroke-linecap:butt;stroke-linejoin:miter;stroke-opacity:1"/>
<path class="bond-19 atom-15 atom-17" d="M 120.8,124.7 L 116.5,112.8" style="fill:none;fill-rule:evenodd;stroke:#0000FF;stroke-width:2.0px;stroke-linecap:butt;stroke-linejoin:miter;stroke-opacity:1"/>
<path d="M 73.9,153.1 L 74.4,154.6 L 75.9,154.9" style="fill:none;stroke:#000000;stroke-width:2.0px;stroke-linecap:butt;stroke-linejoin:miter;stroke-miterlimit:10;stroke-opacity:1;"/>
<path d="M 64.5,126.8 L 64.0,125.4 L 65.0,124.2" style="fill:none;stroke:#000000;stroke-width:2.0px;stroke-linecap:butt;stroke-linejoin:miter;stroke-miterlimit:10;stroke-opacity:1;"/>
<path d="M 103.4,159.9 L 104.9,160.2 L 105.9,159.0" style="fill:none;stroke:#000000;stroke-width:2.0px;stroke-linecap:butt;stroke-linejoin:miter;stroke-miterlimit:10;stroke-opacity:1;"/>
<path d="M 166.2,88.2 L 165.2,89.4 L 165.8,90.9" style="fill:none;stroke:#000000;stroke-width:2.0px;stroke-linecap:butt;stroke-linejoin:miter;stroke-miterlimit:10;stroke-opacity:1;"/>
<path d="M 207.1,123.1 L 206.1,124.2 L 204.6,124.0" style="fill:none;stroke:#000000;stroke-width:2.0px;stroke-linecap:butt;stroke-linejoin:miter;stroke-miterlimit:10;stroke-opacity:1;"/>
<path d="M 184.4,67.0 L 185.4,65.8 L 186.9,66.1" style="fill:none;stroke:#000000;stroke-width:2.0px;stroke-linecap:butt;stroke-linejoin:miter;stroke-miterlimit:10;stroke-opacity:1;"/>
<path d="M 225.2,101.8 L 226.3,100.6 L 225.7,99.2" style="fill:none;stroke:#000000;stroke-width:2.0px;stroke-linecap:butt;stroke-linejoin:miter;stroke-miterlimit:10;stroke-opacity:1;"/>
<path d="M 167.4,171.7 L 165.9,171.5 L 165.4,170.0" style="fill:none;stroke:#000000;stroke-width:2.0px;stroke-linecap:butt;stroke-linejoin:miter;stroke-miterlimit:10;stroke-opacity:1;"/>
<path d="M 83.1,102.9 L 84.1,101.8 L 84.8,101.9" style="fill:none;stroke:#000000;stroke-width:2.0px;stroke-linecap:butt;stroke-linejoin:miter;stroke-miterlimit:10;stroke-opacity:1;"/>
<path d="M 194.9,176.8 L 196.4,177.1 L 196.6,177.7" style="fill:none;stroke:#000000;stroke-width:2.0px;stroke-linecap:butt;stroke-linejoin:miter;stroke-miterlimit:10;stroke-opacity:1;"/>
<path class="atom-16" d="M 232.6 48.1 Q 232.6 45.9, 233.6 44.8 Q 234.6 43.6, 236.6 43.6 Q 238.4 43.6, 239.4 44.9 L 238.5 45.6 Q 237.8 44.6, 236.6 44.6 Q 235.3 44.6, 234.6 45.5 Q 233.9 46.4, 233.9 48.1 Q 233.9 49.8, 234.6 50.7 Q 235.3 51.6, 236.7 51.6 Q 237.7 51.6, 238.8 51.0 L 239.2 52.0 Q 238.7 52.3, 238.0 52.4 Q 237.3 52.6, 236.6 52.6 Q 234.6 52.6, 233.6 51.5 Q 232.6 50.3, 232.6 48.1 " fill="#00CC00"/>
<path class="atom-16" d="M 240.3 43.1 L 241.4 43.1 L 241.4 52.5 L 240.3 52.5 L 240.3 43.1 " fill="#00CC00"/>
<path class="atom-17" d="M 112.7 103.0 L 115.6 107.6 Q 115.8 108.1, 116.3 108.9 Q 116.8 109.8, 116.8 109.8 L 116.8 103.0 L 118.0 103.0 L 118.0 111.8 L 116.7 111.8 L 113.7 106.7 Q 113.3 106.1, 112.9 105.4 Q 112.5 104.7, 112.4 104.5 L 112.4 111.8 L 111.3 111.8 L 111.3 103.0 L 112.7 103.0 " fill="#0000FF"/>
<path class="atom-18" d="M 204.8 201.9 L 207.7 206.6 Q 208.0 207.0, 208.5 207.9 Q 208.9 208.7, 209.0 208.7 L 209.0 201.9 L 210.1 201.9 L 210.1 210.7 L 208.9 210.7 L 205.8 205.6 Q 205.5 205.0, 205.1 204.3 Q 204.7 203.6, 204.6 203.4 L 204.6 210.7 L 203.5 210.7 L 203.5 201.9 L 204.8 201.9 " fill="#0000FF"/>
<path class="note" d="M 236.4 219.3 Q 235.6 219.3, 235.1 218.7 Q 234.8 218.1, 234.8 217.0 Q 234.8 216.0, 235.1 215.4 Q 235.5 214.8, 236.4 214.8 Q 237.2 214.8, 237.6 215.4 Q 238.0 216.0, 238.0 217.0 Q 238.0 218.1, 237.6 218.7 Q 237.2 219.3, 236.4 219.3 M 236.4 218.8 Q 236.8 218.8, 237.1 218.3 Q 237.3 217.9, 237.3 217.0 Q 237.3 216.2, 237.1 215.7 Q 236.8 215.3, 236.4 215.3 Q 235.9 215.3, 235.6 215.7 Q 235.4 216.2, 235.4 217.0 Q 235.4 217.9, 235.6 218.3 Q 235.9 218.8, 236.4 218.8 " fill="#000000"/>
<path class="note" d="M 181.7 228.3 L 182.6 228.3 L 182.6 225.0 L 181.6 225.3 L 181.4 225.0 L 182.8 224.4 L 183.2 224.4 L 183.2 228.3 L 184.1 228.3 L 184.1 228.8 L 181.7 228.8 L 181.7 228.3 " fill="#000000"/>
<path class="note" d="M 69.6 157.2 Q 69.7 156.8, 70.1 156.6 Q 70.5 156.3, 71.0 156.3 Q 71.7 156.3, 72.1 156.7 Q 72.4 157.0, 72.4 157.7 Q 72.4 158.3, 72.0 158.9 Q 71.5 159.5, 70.5 160.3 L 72.5 160.3 L 72.5 160.8 L 69.6 160.8 L 69.6 160.3 Q 70.4 159.8, 70.9 159.3 Q 71.3 158.9, 71.6 158.5 Q 71.8 158.1, 71.8 157.7 Q 71.8 157.3, 71.6 157.1 Q 71.4 156.8, 71.0 156.8 Q 70.7 156.8, 70.4 157.0 Q 70.2 157.1, 70.0 157.4 L 69.6 157.2 " fill="#000000"/>
<path class="note" d="M 59.5 124.3 Q 60.0 124.5, 60.2 124.8 Q 60.4 125.0, 60.4 125.5 Q 60.4 125.8, 60.2 126.1 Q 60.0 126.4, 59.7 126.6 Q 59.3 126.7, 58.9 126.7 Q 58.4 126.7, 58.1 126.6 Q 57.7 126.4, 57.4 126.1 L 57.8 125.7 Q 58.1 126.0, 58.3 126.1 Q 58.5 126.2, 58.9 126.2 Q 59.3 126.2, 59.5 126.0 Q 59.8 125.8, 59.8 125.5 Q 59.8 125.0, 59.5 124.8 Q 59.3 124.6, 58.7 124.6 L 58.4 124.6 L 58.4 124.2 L 58.7 124.2 Q 59.2 124.1, 59.4 123.9 Q 59.7 123.7, 59.7 123.3 Q 59.7 123.1, 59.5 122.9 Q 59.3 122.7, 58.9 122.7 Q 58.5 122.7, 58.3 122.8 Q 58.1 123.0, 57.9 123.3 L 57.5 123.1 Q 57.6 122.7, 58.0 122.5 Q 58.4 122.2, 58.9 122.2 Q 59.5 122.2, 59.9 122.5 Q 60.3 122.8, 60.3 123.3 Q 60.3 123.7, 60.1 124.0 Q 59.9 124.2, 59.5 124.3 " fill="#000000"/>
<path class="note" d="M 107.8 165.8 L 108.3 165.8 L 108.3 166.3 L 107.8 166.3 L 107.8 167.3 L 107.2 167.3 L 107.2 166.3 L 104.9 166.3 L 104.9 165.9 L 106.9 162.9 L 107.8 162.9 L 107.8 165.8 M 105.6 165.8 L 107.2 165.8 L 107.2 163.3 L 105.6 165.8 " fill="#000000"/>
<path class="note" d="M 160.3 87.9 Q 160.7 87.9, 161.0 88.1 Q 161.3 88.2, 161.5 88.5 Q 161.6 88.9, 161.6 89.3 Q 161.6 89.7, 161.4 90.0 Q 161.2 90.4, 160.8 90.5 Q 160.5 90.7, 160.1 90.7 Q 159.7 90.7, 159.3 90.6 Q 158.9 90.4, 158.7 90.1 L 159.0 89.7 Q 159.2 90.0, 159.5 90.1 Q 159.8 90.2, 160.1 90.2 Q 160.5 90.2, 160.7 90.0 Q 161.0 89.7, 161.0 89.3 Q 161.0 88.8, 160.7 88.6 Q 160.5 88.4, 160.1 88.4 Q 159.7 88.4, 159.2 88.5 L 158.9 88.4 L 159.1 86.3 L 161.4 86.3 L 161.3 86.8 L 159.6 86.8 L 159.5 88.1 Q 159.9 87.9, 160.3 87.9 " fill="#000000"/>
<path class="note" d="M 208.1 128.6 Q 208.4 128.6, 208.7 128.8 Q 209.1 128.9, 209.2 129.2 Q 209.4 129.5, 209.4 129.9 Q 209.4 130.3, 209.2 130.7 Q 209.0 131.0, 208.7 131.2 Q 208.3 131.4, 207.9 131.4 Q 207.1 131.4, 206.7 130.9 Q 206.3 130.3, 206.3 129.3 Q 206.3 128.1, 206.8 127.5 Q 207.3 126.9, 208.3 126.9 Q 208.5 126.9, 208.8 127.0 Q 209.0 127.0, 209.2 127.1 L 209.0 127.6 Q 208.6 127.4, 208.3 127.4 Q 207.6 127.4, 207.3 127.8 Q 207.0 128.2, 207.0 129.0 Q 207.2 128.8, 207.5 128.7 Q 207.8 128.6, 208.1 128.6 M 207.9 130.9 Q 208.2 130.9, 208.3 130.7 Q 208.5 130.6, 208.7 130.4 Q 208.8 130.2, 208.8 129.9 Q 208.8 129.5, 208.5 129.3 Q 208.3 129.1, 207.9 129.1 Q 207.7 129.1, 207.4 129.2 Q 207.2 129.3, 207.0 129.5 Q 207.0 130.2, 207.2 130.5 Q 207.5 130.9, 207.9 130.9 " fill="#000000"/>
<path class="note" d="M 184.5 59.2 L 182.2 59.2 L 182.2 58.7 L 185.1 58.7 L 185.1 59.2 L 183.3 63.1 L 182.7 63.1 L 184.5 59.2 " fill="#000000"/>
<path class="note" d="M 232.0 101.5 Q 232.4 101.6, 232.7 101.9 Q 232.9 102.2, 232.9 102.6 Q 232.9 103.0, 232.7 103.2 Q 232.5 103.5, 232.2 103.7 Q 231.8 103.9, 231.4 103.9 Q 230.6 103.9, 230.2 103.5 Q 229.8 103.2, 229.8 102.6 Q 229.8 102.2, 230.0 102.0 Q 230.2 101.7, 230.5 101.5 Q 230.3 101.3, 230.1 101.1 Q 229.9 100.8, 229.9 100.5 Q 229.9 100.0, 230.3 99.7 Q 230.7 99.3, 231.3 99.3 Q 232.0 99.3, 232.3 99.7 Q 232.7 100.0, 232.7 100.5 Q 232.7 100.8, 232.5 101.0 Q 232.4 101.3, 232.0 101.5 M 231.3 99.8 Q 231.0 99.8, 230.8 100.0 Q 230.6 100.2, 230.6 100.5 Q 230.6 100.7, 230.7 100.9 Q 230.8 101.0, 231.0 101.1 Q 231.2 101.2, 231.6 101.3 Q 231.9 101.1, 232.0 100.9 Q 232.1 100.7, 232.1 100.5 Q 232.1 100.2, 231.9 100.0 Q 231.7 99.8, 231.3 99.8 M 231.4 103.4 Q 231.8 103.4, 232.0 103.2 Q 232.3 102.9, 232.3 102.6 Q 232.3 102.3, 232.1 102.2 Q 232.0 102.0, 231.8 102.0 Q 231.6 101.9, 231.3 101.8 L 231.0 101.7 Q 230.7 101.9, 230.5 102.1 Q 230.4 102.3, 230.4 102.6 Q 230.4 102.9, 230.7 103.2 Q 230.9 103.4, 231.4 103.4 " fill="#000000"/>
<path class="note" d="M 162.5 173.2 Q 163.3 173.2, 163.7 173.7 Q 164.1 174.2, 164.1 175.3 Q 164.1 176.5, 163.6 177.1 Q 163.1 177.7, 162.2 177.7 Q 161.9 177.7, 161.6 177.6 Q 161.4 177.5, 161.2 177.4 L 161.4 177.0 Q 161.8 177.2, 162.2 177.2 Q 162.8 177.2, 163.1 176.8 Q 163.4 176.4, 163.4 175.5 Q 163.2 175.7, 162.9 175.9 Q 162.7 176.0, 162.3 176.0 Q 162.0 176.0, 161.7 175.8 Q 161.4 175.6, 161.2 175.3 Q 161.0 175.0, 161.0 174.6 Q 161.0 174.2, 161.2 173.9 Q 161.4 173.5, 161.7 173.4 Q 162.1 173.2, 162.5 173.2 M 161.6 174.6 Q 161.6 175.0, 161.9 175.2 Q 162.1 175.5, 162.5 175.5 Q 162.7 175.5, 163.0 175.4 Q 163.3 175.3, 163.4 175.1 Q 163.4 174.3, 163.2 174.0 Q 163.0 173.7, 162.5 173.7 Q 162.3 173.7, 162.1 173.8 Q 161.9 173.9, 161.8 174.1 Q 161.6 174.4, 161.6 174.6 " fill="#000000"/>
<path class="note" d="M 79.4 98.6 L 80.4 98.6 L 80.4 95.3 L 79.3 95.7 L 79.2 95.3 L 80.5 94.7 L 81.0 94.8 L 81.0 98.6 L 81.8 98.6 L 81.8 99.1 L 79.4 99.1 L 79.4 98.6 " fill="#000000"/>
<path class="note" d="M 84.0 99.2 Q 83.2 99.2, 82.8 98.6 Q 82.4 98.0, 82.4 96.9 Q 82.4 95.9, 82.8 95.3 Q 83.2 94.7, 84.0 94.7 Q 84.8 94.7, 85.2 95.3 Q 85.6 95.9, 85.6 96.9 Q 85.6 98.0, 85.2 98.6 Q 84.8 99.2, 84.0 99.2 M 84.0 98.7 Q 84.5 98.7, 84.7 98.2 Q 85.0 97.8, 85.0 96.9 Q 85.0 96.1, 84.7 95.6 Q 84.5 95.2, 84.0 95.2 Q 83.5 95.2, 83.3 95.6 Q 83.0 96.1, 83.0 96.9 Q 83.0 97.8, 83.3 98.2 Q 83.5 98.7, 84.0 98.7 " fill="#000000"/>
<path class="note" d="M 197.1 174.9 L 198.0 174.9 L 198.0 171.6 L 197.0 171.9 L 196.8 171.5 L 198.2 170.9 L 198.6 171.0 L 198.6 174.9 L 199.5 174.9 L 199.5 175.3 L 197.1 175.3 L 197.1 174.9 " fill="#000000"/>
<path class="note" d="M 200.3 174.9 L 201.2 174.9 L 201.2 171.6 L 200.2 171.9 L 200.0 171.5 L 201.4 170.9 L 201.8 171.0 L 201.8 174.9 L 202.7 174.9 L 202.7 175.3 L 200.3 175.3 L 200.3 174.9 " fill="#000000"/>
<path class="note" d="M 179.5 112.5 L 180.5 112.5 L 180.5 109.2 L 179.4 109.5 L 179.3 109.2 L 180.6 108.6 L 181.0 108.6 L 181.0 112.5 L 181.9 112.5 L 181.9 113.0 L 179.5 113.0 L 179.5 112.5 " fill="#000000"/>
<path class="note" d="M 182.5 109.4 Q 182.6 109.0, 183.0 108.8 Q 183.4 108.5, 183.9 108.5 Q 184.6 108.5, 185.0 108.9 Q 185.3 109.3, 185.3 109.9 Q 185.3 110.5, 184.9 111.2 Q 184.4 111.8, 183.4 112.5 L 185.4 112.5 L 185.4 113.0 L 182.4 113.0 L 182.4 112.6 Q 183.3 112.0, 183.8 111.5 Q 184.2 111.1, 184.5 110.7 Q 184.7 110.3, 184.7 109.9 Q 184.7 109.5, 184.5 109.3 Q 184.3 109.0, 183.9 109.0 Q 183.6 109.0, 183.3 109.2 Q 183.1 109.3, 182.9 109.6 L 182.5 109.4 " fill="#000000"/>
<path class="note" d="M 203.3 76.6 L 204.3 76.6 L 204.3 73.3 L 203.2 73.6 L 203.0 73.3 L 204.4 72.7 L 204.8 72.7 L 204.8 76.6 L 205.7 76.6 L 205.7 77.1 L 203.3 77.1 L 203.3 76.6 " fill="#000000"/>
<path class="note" d="M 208.3 74.8 Q 208.8 74.9, 209.0 75.2 Q 209.2 75.5, 209.2 75.9 Q 209.2 76.3, 209.0 76.5 Q 208.8 76.8, 208.5 77.0 Q 208.1 77.2, 207.7 77.2 Q 207.2 77.2, 206.9 77.0 Q 206.5 76.8, 206.2 76.5 L 206.6 76.1 Q 206.9 76.4, 207.1 76.5 Q 207.3 76.7, 207.7 76.7 Q 208.1 76.7, 208.3 76.4 Q 208.6 76.2, 208.6 75.9 Q 208.6 75.4, 208.3 75.2 Q 208.1 75.0, 207.5 75.0 L 207.2 75.0 L 207.2 74.6 L 207.5 74.6 Q 208.0 74.6, 208.2 74.4 Q 208.5 74.2, 208.5 73.8 Q 208.5 73.5, 208.3 73.3 Q 208.1 73.1, 207.7 73.1 Q 207.3 73.1, 207.1 73.3 Q 206.9 73.4, 206.7 73.7 L 206.3 73.5 Q 206.4 73.1, 206.8 72.9 Q 207.2 72.6, 207.7 72.6 Q 208.3 72.6, 208.7 73.0 Q 209.1 73.3, 209.1 73.8 Q 209.1 74.1, 208.9 74.4 Q 208.7 74.6, 208.3 74.8 " fill="#000000"/>
<path class="note" d="M 162.6 145.8 L 163.6 145.8 L 163.6 142.5 L 162.5 142.9 L 162.4 142.5 L 163.7 141.9 L 164.2 142.0 L 164.2 145.8 L 165.0 145.8 L 165.0 146.3 L 162.6 146.3 L 162.6 145.8 " fill="#000000"/>
<path class="note" d="M 168.4 144.8 L 169.0 144.8 L 169.0 145.3 L 168.4 145.3 L 168.4 146.3 L 167.9 146.3 L 167.9 145.3 L 165.6 145.3 L 165.6 144.9 L 167.5 141.9 L 168.4 141.9 L 168.4 144.8 M 166.3 144.8 L 167.9 144.8 L 167.9 142.3 L 166.3 144.8 " fill="#000000"/>
<path class="note" d="M 125.6 148.1 L 126.6 148.1 L 126.6 144.8 L 125.5 145.1 L 125.4 144.7 L 126.7 144.1 L 127.2 144.2 L 127.2 148.1 L 128.0 148.1 L 128.0 148.6 L 125.6 148.6 L 125.6 148.1 " fill="#000000"/>
<path class="note" d="M 130.2 145.8 Q 130.6 145.8, 130.9 146.0 Q 131.2 146.1, 131.4 146.5 Q 131.5 146.8, 131.5 147.2 Q 131.5 147.6, 131.3 148.0 Q 131.1 148.3, 130.7 148.4 Q 130.4 148.6, 130.0 148.6 Q 129.6 148.6, 129.2 148.5 Q 128.8 148.3, 128.6 148.0 L 129.0 147.6 Q 129.2 147.9, 129.4 148.0 Q 129.7 148.1, 130.0 148.1 Q 130.4 148.1, 130.7 147.9 Q 130.9 147.6, 130.9 147.2 Q 130.9 146.7, 130.7 146.5 Q 130.4 146.3, 130.0 146.3 Q 129.6 146.3, 129.1 146.4 L 128.8 146.3 L 129.0 144.2 L 131.3 144.2 L 131.2 144.7 L 129.5 144.7 L 129.4 146.0 Q 129.8 145.8, 130.2 145.8 " fill="#000000"/>
<path class="note" d="M 236.6 59.3 L 237.5 59.3 L 237.5 56.0 L 236.5 56.3 L 236.3 55.9 L 237.7 55.3 L 238.1 55.4 L 238.1 59.3 L 239.0 59.3 L 239.0 59.8 L 236.6 59.8 L 236.6 59.3 " fill="#000000"/>
<path class="note" d="M 241.2 57.0 Q 241.6 57.0, 241.9 57.2 Q 242.2 57.4, 242.4 57.7 Q 242.6 58.0, 242.6 58.3 Q 242.6 58.8, 242.4 59.1 Q 242.2 59.4, 241.8 59.6 Q 241.5 59.8, 241.1 59.8 Q 240.3 59.8, 239.9 59.3 Q 239.5 58.7, 239.5 57.7 Q 239.5 56.5, 240.0 55.9 Q 240.5 55.3, 241.4 55.3 Q 241.7 55.3, 241.9 55.4 Q 242.2 55.4, 242.4 55.6 L 242.1 56.0 Q 241.8 55.8, 241.4 55.8 Q 240.8 55.8, 240.5 56.2 Q 240.2 56.6, 240.1 57.4 Q 240.4 57.2, 240.6 57.1 Q 240.9 57.0, 241.2 57.0 M 241.1 59.3 Q 241.3 59.3, 241.5 59.2 Q 241.7 59.1, 241.8 58.8 Q 241.9 58.6, 241.9 58.4 Q 241.9 58.0, 241.7 57.7 Q 241.5 57.5, 241.1 57.5 Q 240.9 57.5, 240.6 57.6 Q 240.3 57.7, 240.1 57.9 Q 240.2 58.6, 240.4 59.0 Q 240.6 59.3, 241.1 59.3 " fill="#000000"/>
<path class="note" d="M 121.6 105.6 L 122.5 105.6 L 122.5 102.4 L 121.5 102.7 L 121.3 102.3 L 122.7 101.7 L 123.1 101.8 L 123.1 105.6 L 124.0 105.6 L 124.0 106.1 L 121.6 106.1 L 121.6 105.6 " fill="#000000"/>
<path class="note" d="M 126.8 102.2 L 124.5 102.2 L 124.5 101.7 L 127.4 101.7 L 127.4 102.2 L 125.6 106.1 L 125.0 106.1 L 126.8 102.2 " fill="#000000"/>
<path class="note" d="M 207.3 217.8 L 208.3 217.8 L 208.3 214.5 L 207.2 214.8 L 207.1 214.5 L 208.4 213.8 L 208.9 213.9 L 208.9 217.8 L 209.8 217.8 L 209.8 218.3 L 207.3 218.3 L 207.3 217.8 " fill="#000000"/>
<path class="note" d="M 212.5 215.9 Q 212.9 216.1, 213.2 216.4 Q 213.4 216.6, 213.4 217.1 Q 213.4 217.4, 213.2 217.7 Q 213.0 218.0, 212.7 218.2 Q 212.3 218.3, 211.9 218.3 Q 211.1 218.3, 210.7 218.0 Q 210.3 217.7, 210.3 217.1 Q 210.3 216.7, 210.5 216.4 Q 210.7 216.2, 211.1 216.0 Q 210.8 215.8, 210.6 215.6 Q 210.5 215.3, 210.5 214.9 Q 210.5 214.4, 210.8 214.1 Q 211.2 213.8, 211.8 213.8 Q 212.5 213.8, 212.9 214.1 Q 213.2 214.4, 213.2 214.9 Q 213.2 215.3, 213.1 215.5 Q 212.9 215.7, 212.5 215.9 M 211.8 214.3 Q 211.5 214.3, 211.3 214.5 Q 211.1 214.6, 211.1 214.9 Q 211.1 215.2, 211.2 215.3 Q 211.4 215.5, 211.5 215.6 Q 211.7 215.7, 212.1 215.8 Q 212.4 215.6, 212.5 215.4 Q 212.6 215.2, 212.6 214.9 Q 212.6 214.6, 212.4 214.5 Q 212.2 214.3, 211.8 214.3 M 211.9 217.9 Q 212.3 217.9, 212.5 217.6 Q 212.8 217.4, 212.8 217.1 Q 212.8 216.8, 212.7 216.7 Q 212.5 216.5, 212.3 216.4 Q 212.1 216.3, 211.8 216.2 L 211.5 216.1 Q 211.2 216.3, 211.1 216.6 Q 210.9 216.8, 210.9 217.1 Q 210.9 217.4, 211.2 217.6 Q 211.4 217.9, 211.9 217.9 " fill="#000000"/>
<path class="legend" d="M 89.5 277.0 Q 89.5 275.0, 90.5 273.8 Q 91.4 272.7, 93.4 272.7 Q 95.3 272.7, 96.2 274.1 L 95.2 274.8 Q 94.9 274.4, 94.4 274.1 Q 94.0 273.9, 93.4 273.9 Q 92.3 273.9, 91.6 274.7 Q 91.0 275.4, 91.0 277.0 Q 91.0 278.5, 91.6 279.3 Q 92.3 280.0, 93.5 280.0 Q 94.2 280.0, 94.6 279.9 Q 95.1 279.7, 95.7 279.5 L 96.1 280.5 Q 94.9 281.2, 93.4 281.2 Q 91.4 281.2, 90.5 280.1 Q 89.5 278.9, 89.5 277.0 " fill="#000000"/>
<path class="legend" d="M 101.5 272.7 Q 102.8 272.7, 103.5 273.5 Q 104.2 274.2, 104.2 275.6 L 104.2 281.1 L 102.7 281.1 L 102.7 275.8 Q 102.7 274.8, 102.3 274.3 Q 102.0 273.9, 101.1 273.9 Q 100.4 273.9, 99.8 274.2 Q 99.1 274.6, 98.7 275.2 L 98.7 281.1 L 97.2 281.1 L 97.2 268.9 L 98.7 268.9 L 98.7 273.9 Q 99.8 272.7, 101.5 272.7 " fill="#000000"/>
<path class="legend" d="M 106.1 268.9 L 107.5 268.9 L 107.5 281.1 L 106.1 281.1 L 106.1 268.9 " fill="#000000"/>
<path class="legend" d="M 109.5 277.0 Q 109.5 275.0, 110.5 273.8 Q 111.6 272.7, 113.4 272.7 Q 115.3 272.7, 116.3 273.8 Q 117.3 275.0, 117.3 277.0 Q 117.3 279.0, 116.3 280.1 Q 115.3 281.2, 113.4 281.2 Q 111.6 281.2, 110.5 280.1 Q 109.5 279.0, 109.5 277.0 M 111.1 277.0 Q 111.1 278.5, 111.7 279.2 Q 112.3 280.0, 113.4 280.0 Q 114.6 280.0, 115.2 279.2 Q 115.8 278.5, 115.8 277.0 Q 115.8 275.4, 115.2 274.7 Q 114.6 273.9, 113.4 273.9 Q 112.3 273.9, 111.7 274.7 Q 111.1 275.4, 111.1 277.0 " fill="#000000"/>
<path class="legend" d="M 119.9 272.9 L 120.1 274.0 Q 120.9 272.7, 122.3 272.7 Q 122.8 272.7, 123.4 272.9 L 123.2 274.2 Q 122.5 274.1, 122.1 274.1 Q 121.4 274.1, 121.0 274.3 Q 120.5 274.6, 120.2 275.2 L 120.2 281.1 L 118.7 281.1 L 118.7 272.9 L 119.9 272.9 " fill="#000000"/>
<path class="legend" d="M 128.1 272.7 Q 129.8 272.7, 130.7 273.8 Q 131.7 274.8, 131.7 276.8 Q 131.7 278.9, 130.6 280.1 Q 129.4 281.2, 127.5 281.2 Q 126.5 281.2, 125.8 281.0 L 125.8 285.0 L 124.3 285.0 L 124.3 272.9 L 125.5 272.9 L 125.7 273.8 Q 126.1 273.3, 126.7 273.0 Q 127.3 272.7, 128.1 272.7 M 127.5 280.0 Q 128.7 280.0, 129.4 279.2 Q 130.2 278.3, 130.2 276.8 Q 130.2 275.4, 129.6 274.7 Q 129.0 273.9, 128.0 273.9 Q 127.2 273.9, 126.6 274.3 Q 126.0 274.8, 125.8 275.5 L 125.8 279.8 Q 126.6 280.0, 127.5 280.0 " fill="#000000"/>
<path class="legend" d="M 137.3 272.7 Q 138.6 272.7, 139.3 273.5 Q 140.0 274.2, 140.0 275.6 L 140.0 281.1 L 138.5 281.1 L 138.5 275.8 Q 138.5 274.8, 138.1 274.3 Q 137.8 273.9, 136.9 273.9 Q 136.2 273.9, 135.6 274.2 Q 134.9 274.6, 134.5 275.2 L 134.5 281.1 L 133.0 281.1 L 133.0 268.9 L 134.5 268.9 L 134.5 273.9 Q 135.6 272.7, 137.3 272.7 " fill="#000000"/>
<path class="legend" d="M 141.9 277.0 Q 141.9 274.9, 142.9 273.8 Q 143.9 272.7, 145.7 272.7 Q 147.5 272.7, 148.3 273.8 Q 149.1 274.9, 149.1 276.9 L 149.1 277.2 L 143.4 277.2 Q 143.4 278.6, 144.0 279.3 Q 144.7 280.0, 145.8 280.0 Q 146.5 280.0, 147.1 279.9 Q 147.7 279.7, 148.4 279.4 L 148.8 280.4 Q 148.0 280.8, 147.3 281.0 Q 146.5 281.2, 145.8 281.2 Q 143.9 281.2, 142.9 280.1 Q 141.9 279.0, 141.9 277.0 M 145.7 273.9 Q 144.8 273.9, 144.2 274.4 Q 143.6 275.0, 143.5 276.0 L 147.6 276.0 Q 147.4 274.9, 147.0 274.4 Q 146.5 273.9, 145.7 273.9 " fill="#000000"/>
<path class="legend" d="M 154.6 272.7 Q 156.0 272.7, 156.6 273.5 Q 157.3 274.2, 157.3 275.6 L 157.3 281.1 L 155.8 281.1 L 155.8 275.8 Q 155.8 274.8, 155.5 274.3 Q 155.1 273.9, 154.3 273.9 Q 153.5 273.9, 152.9 274.2 Q 152.3 274.6, 151.9 275.2 L 151.9 281.1 L 150.4 281.1 L 150.4 272.9 L 151.6 272.9 L 151.8 274.0 Q 152.9 272.7, 154.6 272.7 " fill="#000000"/>
<path class="legend" d="M 159.2 269.8 L 160.7 269.8 L 160.7 271.1 L 159.2 271.1 L 159.2 269.8 M 159.2 272.9 L 160.7 272.9 L 160.7 281.1 L 159.2 281.1 L 159.2 272.9 " fill="#000000"/>
<path class="legend" d="M 163.9 272.9 L 164.0 274.0 Q 164.9 272.7, 166.3 272.7 Q 166.8 272.7, 167.4 272.9 L 167.1 274.2 Q 166.4 274.1, 166.1 274.1 Q 165.4 274.1, 164.9 274.3 Q 164.5 274.6, 164.1 275.2 L 164.1 281.1 L 162.6 281.1 L 162.6 272.9 L 163.9 272.9 " fill="#000000"/>
<path class="legend" d="M 168.2 278.9 Q 168.2 277.5, 169.3 276.8 Q 170.3 276.1, 172.3 276.1 L 173.5 276.1 L 173.5 275.8 Q 173.5 274.8, 173.0 274.3 Q 172.6 273.9, 171.6 273.9 Q 170.9 273.9, 170.4 274.0 Q 169.9 274.1, 169.1 274.5 L 168.7 273.4 Q 170.2 272.7, 171.6 272.7 Q 173.4 272.7, 174.2 273.5 Q 175.0 274.2, 175.0 275.8 L 175.0 281.1 L 173.8 281.1 Q 173.8 281.0, 173.7 280.8 Q 173.7 280.5, 173.6 280.1 Q 172.5 281.3, 170.9 281.3 Q 169.7 281.3, 168.9 280.6 Q 168.2 280.0, 168.2 278.9 M 169.7 278.8 Q 169.7 279.4, 170.1 279.8 Q 170.5 280.1, 171.2 280.1 Q 171.8 280.1, 172.5 279.8 Q 173.1 279.5, 173.5 279.0 L 173.5 277.2 L 172.4 277.2 Q 171.0 277.2, 170.4 277.6 Q 169.7 278.0, 169.7 278.8 " fill="#000000"/>
<path class="legend" d="M 186.3 272.7 Q 187.7 272.7, 188.4 273.5 Q 189.1 274.2, 189.1 275.6 L 189.1 281.1 L 187.6 281.1 L 187.6 275.8 Q 187.6 274.8, 187.2 274.3 Q 186.9 273.9, 186.0 273.9 Q 185.3 273.9, 184.7 274.2 Q 184.1 274.6, 183.7 275.2 Q 183.7 275.3, 183.7 275.6 L 183.7 281.1 L 182.2 281.1 L 182.2 275.8 Q 182.2 274.8, 181.8 274.3 Q 181.5 273.9, 180.6 273.9 Q 179.9 273.9, 179.3 274.2 Q 178.7 274.6, 178.3 275.2 L 178.3 281.1 L 176.8 281.1 L 176.8 272.9 L 178.1 272.9 L 178.2 274.0 Q 179.3 272.7, 180.9 272.7 Q 182.9 272.7, 183.5 274.2 Q 184.6 272.7, 186.3 272.7 " fill="#000000"/>
<path class="legend" d="M 191.0 269.8 L 192.4 269.8 L 192.4 271.1 L 191.0 271.1 L 191.0 269.8 M 191.0 272.9 L 192.4 272.9 L 192.4 281.1 L 191.0 281.1 L 191.0 272.9 " fill="#000000"/>
<path class="legend" d="M 198.7 272.7 Q 200.0 272.7, 200.7 273.5 Q 201.4 274.2, 201.4 275.6 L 201.4 281.1 L 199.9 281.1 L 199.9 275.8 Q 199.9 274.8, 199.5 274.3 Q 199.2 273.9, 198.3 273.9 Q 197.6 273.9, 197.0 274.2 Q 196.3 274.6, 195.9 275.2 L 195.9 281.1 L 194.4 281.1 L 194.4 272.9 L 195.7 272.9 L 195.8 274.0 Q 196.9 272.7, 198.7 272.7 " fill="#000000"/>
<path class="legend" d="M 203.3 277.0 Q 203.3 274.9, 204.3 273.8 Q 205.3 272.7, 207.1 272.7 Q 208.9 272.7, 209.7 273.8 Q 210.5 274.9, 210.5 276.9 L 210.5 277.2 L 204.8 277.2 Q 204.8 278.6, 205.4 279.3 Q 206.1 280.0, 207.2 280.0 Q 207.9 280.0, 208.5 279.9 Q 209.1 279.7, 209.8 279.4 L 210.2 280.4 Q 209.4 280.8, 208.7 281.0 Q 207.9 281.2, 207.2 281.2 Q 205.3 281.2, 204.3 280.1 Q 203.3 279.0, 203.3 277.0 M 207.1 273.9 Q 206.2 273.9, 205.6 274.4 Q 205.0 275.0, 204.9 276.0 L 209.0 276.0 Q 208.8 274.9, 208.4 274.4 Q 207.9 273.9, 207.1 273.9 " fill="#000000"/>
<ellipse cx="353.5" cy="241.2" rx="6.2" ry="6.2" class="atom-2" style="fill:#FF7F7F;fill-rule:evenodd;stroke:#FF7F7F;stroke-width:1.0px;stroke-linecap:butt;stroke-linejoin:miter;stroke-opacity:1"/>
<ellipse cx="344.6" cy="188.3" rx="6.2" ry="6.2" class="atom-15" style="fill:#FF7F7F;fill-rule:evenodd;stroke:#FF7F7F;stroke-width:1.0px;stroke-linecap:butt;stroke-linejoin:miter;stroke-opacity:1"/>
<path class="bond-0 atom-0 atom-1" d="M 579.1,113.0 L 562.0,138.9" style="fill:none;fill-rule:evenodd;stroke:#000000;stroke-width:2.0px;stroke-linecap:butt;stroke-linejoin:miter;stroke-opacity:1"/>
<path class="bond-1 atom-1 atom-26" d="M 562.0,138.9 L 549.1,138.2" style="fill:none;fill-rule:evenodd;stroke:#000000;stroke-width:2.0px;stroke-linecap:butt;stroke-linejoin:miter;stroke-opacity:1"/>
<path class="bond-1 atom-1 atom-26" d="M 549.1,138.2 L 536.1,137.4" style="fill:none;fill-rule:evenodd;stroke:#FF0000;stroke-width:2.0px;stroke-linecap:butt;stroke-linejoin:miter;stroke-opacity:1"/>
<path class="bond-2 atom-2 atom-3" d="M 353.5,241.2 L 333.7,217.3" style="fill:none;fill-rule:evenodd;stroke:#000000;stroke-width:2.0px;stroke-linecap:butt;stroke-linejoin:miter;stroke-opacity:1"/>
<path class="bond-2 atom-2 atom-3" d="M 355.4,236.2 L 339.0,216.4" style="fill:none;fill-rule:evenodd;stroke:#000000;stroke-width:2.0px;stroke-linecap:butt;stroke-linejoin:miter;stroke-opacity:1"/>
<path class="bond-3 atom-2 atom-10" d="M 353.5,241.2 L 384.1,236.1" style="fill:none;fill-rule:evenodd;stroke:#000000;stroke-width:2.0px;stroke-linecap:butt;stroke-linejoin:miter;stroke-opacity:1"/>
<path class="bond-4 atom-3 atom-15" d="M 333.7,217.3 L 344.6,188.3" style="fill:none;fill-rule:evenodd;stroke:#000000;stroke-width:2.0px;stroke-linecap:butt;stroke-linejoin:miter;stroke-opacity:1"/>
<path class="bond-5 atom-4 atom-5" d="M 321.5,167.6 L 323.2,136.6" style="fill:none;fill-rule:evenodd;stroke:#000000;stroke-width:2.0px;stroke-linecap:butt;stroke-linejoin:miter;stroke-opacity:1"/>
<path class="bond-6 atom-4 atom-15" d="M 321.5,167.6 L 344.6,188.3" style="fill:none;fill-rule:evenodd;stroke:#000000;stroke-width:2.0px;stroke-linecap:butt;stroke-linejoin:miter;stroke-opacity:1"/>
<path class="bond-7 atom-5 atom-16" d="M 323.2,136.6 L 348.6,118.7" style="fill:none;fill-rule:evenodd;stroke:#000000;stroke-width:2.0px;stroke-linecap:butt;stroke-linejoin:miter;stroke-opacity:1"/>
<path class="bond-8 atom-6 atom-7" d="M 393.3,75.7 L 400.7,105.8" style="fill:none;fill-rule:evenodd;stroke:#000000;stroke-width:2.0px;stroke-linecap:butt;stroke-linejoin:miter;stroke-opacity:1"/>
<path class="bond-9 atom-6 atom-17" d="M 393.3,75.7 L 363.5,67.1" style="fill:none;fill-rule:evenodd;stroke:#000000;stroke-width:2.0px;stroke-linecap:butt;stroke-linejoin:miter;stroke-opacity:1"/>
<path class="bond-9 atom-6 atom-17" d="M 389.4,79.4 L 364.8,72.3" style="fill:none;fill-rule:evenodd;stroke:#000000;stroke-width:2.0px;stroke-linecap:butt;stroke-linejoin:miter;stroke-opacity:1"/>
<path class="bond-10 atom-7 atom-18" d="M 400.7,105.8 L 378.4,127.3" style="fill:none;fill-rule:evenodd;stroke:#000000;stroke-width:2.0px;stroke-linecap:butt;stroke-linejoin:miter;stroke-opacity:1"/>
<path class="bond-10 atom-7 atom-18" d="M 395.6,104.3 L 377.1,122.1" style="fill:none;fill-rule:evenodd;stroke:#000000;stroke-width:2.0px;stroke-linecap:butt;stroke-linejoin:miter;stroke-opacity:1"/>
<path class="bond-11 atom-8 atom-11" d="M 438.2,131.8 L 469.1,133.6" style="fill:none;fill-rule:evenodd;stroke:#000000;stroke-width:2.0px;stroke-linecap:butt;stroke-linejoin:miter;stroke-opacity:1"/>
<path class="bond-12 atom-8 atom-14" d="M 438.2,131.8 L 421.2,157.8" style="fill:none;fill-rule:evenodd;stroke:#000000;stroke-width:2.0px;stroke-linecap:butt;stroke-linejoin:miter;stroke-opacity:1"/>
<path class="bond-13 atom-9 atom-12" d="M 435.1,185.5 L 466.1,187.2" style="fill:none;fill-rule:evenodd;stroke:#000000;stroke-width:2.0px;stroke-linecap:butt;stroke-linejoin:miter;stroke-opacity:1"/>
<path class="bond-14 atom-9 atom-14" d="M 435.1,185.5 L 421.2,157.8" style="fill:none;fill-rule:evenodd;stroke:#000000;stroke-width:2.0px;stroke-linecap:butt;stroke-linejoin:miter;stroke-opacity:1"/>
<path class="bond-15 atom-10 atom-23" d="M 384.1,236.1 L 388.5,224.3" style="fill:none;fill-rule:evenodd;stroke:#000000;stroke-width:2.0px;stroke-linecap:butt;stroke-linejoin:miter;stroke-opacity:1"/>
<path class="bond-15 atom-10 atom-23" d="M 388.5,224.3 L 392.9,212.4" style="fill:none;fill-rule:evenodd;stroke:#0000FF;stroke-width:2.0px;stroke-linecap:butt;stroke-linejoin:miter;stroke-opacity:1"/>
<path class="bond-15 atom-10 atom-23" d="M 380.7,231.9 L 384.6,221.4" style="fill:none;fill-rule:evenodd;stroke:#000000;stroke-width:2.0px;stroke-linecap:butt;stroke-linejoin:miter;stroke-opacity:1"/>
<path class="bond-15 atom-10 atom-23" d="M 384.6,221.4 L 388.5,210.8" style="fill:none;fill-rule:evenodd;stroke:#0000FF;stroke-width:2.0px;stroke-linecap:butt;stroke-linejoin:miter;stroke-opacity:1"/>
<path class="bond-16 atom-11 atom-24" d="M 469.1,133.6 L 474.8,144.7" style="fill:none;fill-rule:evenodd;stroke:#000000;stroke-width:2.0px;stroke-linecap:butt;stroke-linejoin:miter;stroke-opacity:1"/>
<path class="bond-16 atom-11 atom-24" d="M 474.8,144.7 L 480.4,155.9" style="fill:none;fill-rule:evenodd;stroke:#0000FF;stroke-width:2.0px;stroke-linecap:butt;stroke-linejoin:miter;stroke-opacity:1"/>
<path class="bond-17 atom-12 atom-24" d="M 466.1,187.2 L 472.8,177.0" style="fill:none;fill-rule:evenodd;stroke:#000000;stroke-width:2.0px;stroke-linecap:butt;stroke-linejoin:miter;stroke-opacity:1"/>
<path class="bond-17 atom-12 atom-24" d="M 472.8,177.0 L 479.5,166.7" style="fill:none;fill-rule:evenodd;stroke:#0000FF;stroke-width:2.0px;stroke-linecap:butt;stroke-linejoin:miter;stroke-opacity:1"/>
<path class="bond-18 atom-13 atom-16" d="M 341.1,88.6 L 348.6,118.7" style="fill:none;fill-rule:evenodd;stroke:#000000;stroke-width:2.0px;stroke-linecap:butt;stroke-linejoin:miter;stroke-opacity:1"/>
<path class="bond-18 atom-13 atom-16" d="M 346.3,90.1 L 352.4,115.0" style="fill:none;fill-rule:evenodd;stroke:#000000;stroke-width:2.0px;stroke-linecap:butt;stroke-linejoin:miter;stroke-opacity:1"/>
<path class="bond-19 atom-13 atom-17" d="M 341.1,88.6 L 363.5,67.1" style="fill:none;fill-rule:evenodd;stroke:#000000;stroke-width:2.0px;stroke-linecap:butt;stroke-linejoin:miter;stroke-opacity:1"/>
<path class="bond-20 atom-14 atom-19" d="M 421.2,157.8 L 390.2,156.0" style="fill:none;fill-rule:evenodd;stroke:#000000;stroke-width:2.0px;stroke-linecap:butt;stroke-linejoin:miter;stroke-opacity:1"/>
<path class="bond-20 atom-14 atom-19" d="M 418.7,153.0 L 393.4,151.5" style="fill:none;fill-rule:evenodd;stroke:#000000;stroke-width:2.0px;stroke-linecap:butt;stroke-linejoin:miter;stroke-opacity:1"/>
<path class="bond-21 atom-15 atom-20" d="M 344.6,188.3 L 375.2,183.1" style="fill:none;fill-rule:evenodd;stroke:#000000;stroke-width:2.0px;stroke-linecap:butt;stroke-linejoin:miter;stroke-opacity:1"/>
<path class="bond-21 atom-15 atom-20" d="M 348.0,192.4 L 373.3,188.1" style="fill:none;fill-rule:evenodd;stroke:#000000;stroke-width:2.0px;stroke-linecap:butt;stroke-linejoin:miter;stroke-opacity:1"/>
<path class="bond-22 atom-16 atom-18" d="M 348.6,118.7 L 378.4,127.3" style="fill:none;fill-rule:evenodd;stroke:#000000;stroke-width:2.0px;stroke-linecap:butt;stroke-linejoin:miter;stroke-opacity:1"/>
<path class="bond-23 atom-17 atom-22" d="M 363.5,67.1 L 360.5,54.9" style="fill:none;fill-rule:evenodd;stroke:#000000;stroke-width:2.0px;stroke-linecap:butt;stroke-linejoin:miter;stroke-opacity:1"/>
<path class="bond-23 atom-17 atom-22" d="M 360.5,54.9 L 357.5,42.8" style="fill:none;fill-rule:evenodd;stroke:#00CC00;stroke-width:2.0px;stroke-linecap:butt;stroke-linejoin:miter;stroke-opacity:1"/>
<path class="bond-24 atom-18 atom-19" d="M 378.4,127.3 L 390.2,156.0" style="fill:none;fill-rule:evenodd;stroke:#000000;stroke-width:2.0px;stroke-linecap:butt;stroke-linejoin:miter;stroke-opacity:1"/>
<path class="bond-25 atom-19 atom-20" d="M 390.2,156.0 L 375.2,183.1" style="fill:none;fill-rule:evenodd;stroke:#000000;stroke-width:2.0px;stroke-linecap:butt;stroke-linejoin:miter;stroke-opacity:1"/>
<path class="bond-26 atom-20 atom-23" d="M 375.2,183.1 L 382.9,192.4" style="fill:none;fill-rule:evenodd;stroke:#000000;stroke-width:2.0px;stroke-linecap:butt;stroke-linejoin:miter;stroke-opacity:1"/>
<path class="bond-26 atom-20 atom-23" d="M 382.9,192.4 L 390.6,201.7" style="fill:none;fill-rule:evenodd;stroke:#0000FF;stroke-width:2.0px;stroke-linecap:butt;stroke-linejoin:miter;stroke-opacity:1"/>
<path class="bond-27 atom-21 atom-24" d="M 514.1,163.1 L 500.8,162.3" style="fill:none;fill-rule:evenodd;stroke:#000000;stroke-width:2.0px;stroke-linecap:butt;stroke-linejoin:miter;stroke-opacity:1"/>
<path class="bond-27 atom-21 atom-24" d="M 500.8,162.3 L 487.4,161.6" style="fill:none;fill-rule:evenodd;stroke:#0000FF;stroke-width:2.0px;stroke-linecap:butt;stroke-linejoin:miter;stroke-opacity:1"/>
<path class="bond-28 atom-21 atom-25" d="M 511.4,162.9 L 517.3,174.6" style="fill:none;fill-rule:evenodd;stroke:#000000;stroke-width:2.0px;stroke-linecap:butt;stroke-linejoin:miter;stroke-opacity:1"/>
<path class="bond-28 atom-21 atom-25" d="M 517.3,174.6 L 523.2,186.4" style="fill:none;fill-rule:evenodd;stroke:#FF0000;stroke-width:2.0px;stroke-linecap:butt;stroke-linejoin:miter;stroke-opacity:1"/>
<path class="bond-28 atom-21 atom-25" d="M 515.5,160.8 L 521.4,172.6" style="fill:none;fill-rule:evenodd;stroke:#000000;stroke-width:2.0px;stroke-linecap:butt;stroke-linejoin:miter;stroke-opacity:1"/>
<path class="bond-28 atom-21 atom-25" d="M 521.4,172.6 L 527.3,184.3" style="fill:none;fill-rule:evenodd;stroke:#FF0000;stroke-width:2.0px;stroke-linecap:butt;stroke-linejoin:miter;stroke-opacity:1"/>
<path class="bond-29 atom-21 atom-26" d="M 514.1,163.1 L 520.7,152.9" style="fill:none;fill-rule:evenodd;stroke:#000000;stroke-width:2.0px;stroke-linecap:butt;stroke-linejoin:miter;stroke-opacity:1"/>
<path class="bond-29 atom-21 atom-26" d="M 520.7,152.9 L 527.4,142.8" style="fill:none;fill-rule:evenodd;stroke:#FF0000;stroke-width:2.0px;stroke-linecap:butt;stroke-linejoin:miter;stroke-opacity:1"/>
<path d="M 562.9,137.6 L 562.0,138.9 L 561.4,138.9" style="fill:none;stroke:#000000;stroke-width:2.0px;stroke-linecap:butt;stroke-linejoin:miter;stroke-miterlimit:10;stroke-opacity:1;"/>
<path d="M 352.5,240.0 L 353.5,241.2 L 355.0,241.0" style="fill:none;stroke:#000000;stroke-width:2.0px;stroke-linecap:butt;stroke-linejoin:miter;stroke-miterlimit:10;stroke-opacity:1;"/>
<path d="M 334.7,218.5 L 333.7,217.3 L 334.3,215.9" style="fill:none;stroke:#000000;stroke-width:2.0px;stroke-linecap:butt;stroke-linejoin:miter;stroke-miterlimit:10;stroke-opacity:1;"/>
<path d="M 321.6,166.0 L 321.5,167.6 L 322.6,168.6" style="fill:none;stroke:#000000;stroke-width:2.0px;stroke-linecap:butt;stroke-linejoin:miter;stroke-miterlimit:10;stroke-opacity:1;"/>
<path d="M 323.2,138.1 L 323.2,136.6 L 324.5,135.7" style="fill:none;stroke:#000000;stroke-width:2.0px;stroke-linecap:butt;stroke-linejoin:miter;stroke-miterlimit:10;stroke-opacity:1;"/>
<path d="M 393.7,77.2 L 393.3,75.7 L 391.8,75.3" style="fill:none;stroke:#000000;stroke-width:2.0px;stroke-linecap:butt;stroke-linejoin:miter;stroke-miterlimit:10;stroke-opacity:1;"/>
<path d="M 400.4,104.3 L 400.7,105.8 L 399.6,106.9" style="fill:none;stroke:#000000;stroke-width:2.0px;stroke-linecap:butt;stroke-linejoin:miter;stroke-miterlimit:10;stroke-opacity:1;"/>
<path d="M 439.7,131.9 L 438.2,131.8 L 437.3,133.1" style="fill:none;stroke:#000000;stroke-width:2.0px;stroke-linecap:butt;stroke-linejoin:miter;stroke-miterlimit:10;stroke-opacity:1;"/>
<path d="M 436.7,185.5 L 435.1,185.5 L 434.4,184.1" style="fill:none;stroke:#000000;stroke-width:2.0px;stroke-linecap:butt;stroke-linejoin:miter;stroke-miterlimit:10;stroke-opacity:1;"/>
<path d="M 382.6,236.3 L 384.1,236.1 L 384.3,235.5" style="fill:none;stroke:#000000;stroke-width:2.0px;stroke-linecap:butt;stroke-linejoin:miter;stroke-miterlimit:10;stroke-opacity:1;"/>
<path d="M 467.6,133.5 L 469.1,133.6 L 469.4,134.2" style="fill:none;stroke:#000000;stroke-width:2.0px;stroke-linecap:butt;stroke-linejoin:miter;stroke-miterlimit:10;stroke-opacity:1;"/>
<path d="M 464.5,187.1 L 466.1,187.2 L 466.4,186.7" style="fill:none;stroke:#000000;stroke-width:2.0px;stroke-linecap:butt;stroke-linejoin:miter;stroke-miterlimit:10;stroke-opacity:1;"/>
<path d="M 341.5,90.1 L 341.1,88.6 L 342.3,87.5" style="fill:none;stroke:#000000;stroke-width:2.0px;stroke-linecap:butt;stroke-linejoin:miter;stroke-miterlimit:10;stroke-opacity:1;"/>
<path d="M 513.4,163.0 L 514.1,163.1 L 514.4,162.6" style="fill:none;stroke:#000000;stroke-width:2.0px;stroke-linecap:butt;stroke-linejoin:miter;stroke-miterlimit:10;stroke-opacity:1;"/>
<path class="atom-22" d="M 352.7 37.3 Q 352.7 35.1, 353.7 33.9 Q 354.7 32.8, 356.7 32.8 Q 358.5 32.8, 359.5 34.1 L 358.6 34.7 Q 357.9 33.8, 356.7 33.8 Q 355.4 33.8, 354.6 34.7 Q 354.0 35.6, 354.0 37.3 Q 354.0 39.0, 354.7 39.9 Q 355.4 40.8, 356.8 40.8 Q 357.8 40.8, 358.9 40.2 L 359.3 41.1 Q 358.8 41.4, 358.1 41.6 Q 357.4 41.8, 356.6 41.8 Q 354.7 41.8, 353.7 40.6 Q 352.7 39.4, 352.7 37.3 " fill="#00CC00"/>
<path class="atom-22" d="M 360.4 32.2 L 361.5 32.2 L 361.5 41.7 L 360.4 41.7 L 360.4 32.2 " fill="#00CC00"/>
<path class="atom-23" d="M 393.0 202.6 L 395.9 207.3 Q 396.1 207.7, 396.6 208.6 Q 397.1 209.4, 397.1 209.4 L 397.1 202.6 L 398.2 202.6 L 398.2 211.4 L 397.0 211.4 L 394.0 206.3 Q 393.6 205.7, 393.2 205.0 Q 392.8 204.4, 392.7 204.1 L 392.7 211.4 L 391.6 211.4 L 391.6 202.6 L 393.0 202.6 " fill="#0000FF"/>
<path class="atom-24" d="M 481.2 156.9 L 484.0 161.6 Q 484.3 162.0, 484.8 162.9 Q 485.2 163.7, 485.3 163.7 L 485.3 156.9 L 486.4 156.9 L 486.4 165.7 L 485.2 165.7 L 482.1 160.6 Q 481.8 160.0, 481.4 159.3 Q 481.0 158.7, 480.9 158.4 L 480.9 165.7 L 479.8 165.7 L 479.8 156.9 L 481.2 156.9 " fill="#0000FF"/>
<path class="atom-25" d="M 524.0 190.8 Q 524.0 188.7, 525.0 187.5 Q 526.1 186.3, 528.0 186.3 Q 530.0 186.3, 531.0 187.5 Q 532.0 188.7, 532.0 190.8 Q 532.0 192.9, 531.0 194.2 Q 529.9 195.4, 528.0 195.4 Q 526.1 195.4, 525.0 194.2 Q 524.0 193.0, 524.0 190.8 M 528.0 194.4 Q 529.3 194.4, 530.1 193.5 Q 530.8 192.6, 530.8 190.8 Q 530.8 189.1, 530.1 188.2 Q 529.3 187.3, 528.0 187.3 Q 526.7 187.3, 525.9 188.2 Q 525.2 189.1, 525.2 190.8 Q 525.2 192.6, 525.9 193.5 Q 526.7 194.4, 528.0 194.4 " fill="#FF0000"/>
<path class="atom-26" d="M 527.1 137.2 Q 527.1 135.1, 528.1 133.9 Q 529.1 132.7, 531.1 132.7 Q 533.0 132.7, 534.1 133.9 Q 535.1 135.1, 535.1 137.2 Q 535.1 139.3, 534.1 140.5 Q 533.0 141.7, 531.1 141.7 Q 529.1 141.7, 528.1 140.5 Q 527.1 139.3, 527.1 137.2 M 531.1 140.7 Q 532.4 140.7, 533.1 139.8 Q 533.9 138.9, 533.9 137.2 Q 533.9 135.5, 533.1 134.6 Q 532.4 133.7, 531.1 133.7 Q 529.7 133.7, 529.0 134.6 Q 528.3 135.4, 528.3 137.2 Q 528.3 139.0, 529.0 139.8 Q 529.7 140.7, 531.1 140.7 " fill="#FF0000"/>
<path class="note" d="M 583.4 118.1 Q 582.6 118.1, 582.2 117.5 Q 581.8 116.9, 581.8 115.9 Q 581.8 114.8, 582.2 114.2 Q 582.6 113.6, 583.4 113.6 Q 584.2 113.6, 584.6 114.2 Q 585.0 114.8, 585.0 115.9 Q 585.0 116.9, 584.6 117.5 Q 584.2 118.1, 583.4 118.1 M 583.4 117.6 Q 583.9 117.6, 584.1 117.2 Q 584.4 116.7, 584.4 115.9 Q 584.4 115.0, 584.1 114.6 Q 583.9 114.1, 583.4 114.1 Q 582.9 114.1, 582.7 114.6 Q 582.4 115.0, 582.4 115.9 Q 582.4 116.7, 582.7 117.2 Q 582.9 117.6, 583.4 117.6 " fill="#000000"/>
<path class="note" d="M 563.3 145.3 L 564.3 145.3 L 564.3 142.0 L 563.2 142.3 L 563.0 141.9 L 564.4 141.3 L 564.8 141.4 L 564.8 145.3 L 565.7 145.3 L 565.7 145.8 L 563.3 145.8 L 563.3 145.3 " fill="#000000"/>
<path class="note" d="M 350.2 244.7 Q 350.4 244.3, 350.8 244.1 Q 351.2 243.9, 351.7 243.9 Q 352.4 243.9, 352.7 244.2 Q 353.1 244.6, 353.1 245.2 Q 353.1 245.9, 352.6 246.5 Q 352.1 247.1, 351.2 247.8 L 353.2 247.8 L 353.2 248.3 L 350.2 248.3 L 350.2 247.9 Q 351.0 247.3, 351.5 246.9 Q 352.0 246.4, 352.2 246.0 Q 352.5 245.7, 352.5 245.2 Q 352.5 244.8, 352.3 244.6 Q 352.1 244.4, 351.7 244.4 Q 351.3 244.4, 351.1 244.5 Q 350.9 244.6, 350.7 245.0 L 350.2 244.7 " fill="#000000"/>
<path class="note" d="M 329.3 218.1 Q 329.7 218.2, 329.9 218.5 Q 330.1 218.8, 330.1 219.2 Q 330.1 219.6, 329.9 219.9 Q 329.8 220.2, 329.4 220.3 Q 329.1 220.5, 328.6 220.5 Q 328.2 220.5, 327.8 220.3 Q 327.5 220.1, 327.2 219.8 L 327.5 219.4 Q 327.8 219.7, 328.0 219.9 Q 328.3 220.0, 328.6 220.0 Q 329.0 220.0, 329.3 219.8 Q 329.5 219.5, 329.5 219.2 Q 329.5 218.8, 329.2 218.6 Q 329.0 218.3, 328.5 218.3 L 328.1 218.3 L 328.1 217.9 L 328.4 217.9 Q 328.9 217.9, 329.2 217.7 Q 329.4 217.5, 329.4 217.1 Q 329.4 216.8, 329.2 216.6 Q 329.0 216.5, 328.6 216.5 Q 328.3 216.5, 328.0 216.6 Q 327.8 216.7, 327.6 217.1 L 327.2 216.8 Q 327.4 216.5, 327.7 216.2 Q 328.1 216.0, 328.6 216.0 Q 329.3 216.0, 329.7 216.3 Q 330.0 216.6, 330.0 217.1 Q 330.0 217.4, 329.8 217.7 Q 329.6 218.0, 329.3 218.1 " fill="#000000"/>
<path class="note" d="M 317.9 170.2 L 318.4 170.2 L 318.4 170.7 L 317.9 170.7 L 317.9 171.7 L 317.3 171.7 L 317.3 170.7 L 315.0 170.7 L 315.0 170.3 L 316.9 167.3 L 317.9 167.3 L 317.9 170.2 M 315.7 170.2 L 317.3 170.2 L 317.3 167.7 L 315.7 170.2 " fill="#000000"/>
<path class="note" d="M 318.8 133.5 Q 319.2 133.5, 319.5 133.7 Q 319.9 133.9, 320.0 134.2 Q 320.2 134.5, 320.2 134.9 Q 320.2 135.3, 320.0 135.7 Q 319.8 136.0, 319.4 136.2 Q 319.1 136.3, 318.6 136.3 Q 318.2 136.3, 317.9 136.2 Q 317.5 136.0, 317.2 135.8 L 317.6 135.4 Q 317.8 135.6, 318.1 135.7 Q 318.4 135.8, 318.7 135.8 Q 319.1 135.8, 319.3 135.6 Q 319.6 135.3, 319.6 134.9 Q 319.6 134.4, 319.3 134.2 Q 319.1 134.0, 318.6 134.0 Q 318.2 134.0, 317.8 134.2 L 317.5 134.0 L 317.7 131.9 L 319.9 131.9 L 319.9 132.4 L 318.2 132.4 L 318.1 133.7 Q 318.4 133.5, 318.8 133.5 " fill="#000000"/>
<path class="note" d="M 397.2 71.6 Q 397.6 71.6, 397.9 71.8 Q 398.2 71.9, 398.4 72.2 Q 398.5 72.5, 398.5 72.9 Q 398.5 73.3, 398.4 73.7 Q 398.2 74.0, 397.8 74.2 Q 397.5 74.4, 397.1 74.4 Q 396.3 74.4, 395.9 73.9 Q 395.5 73.3, 395.5 72.3 Q 395.5 71.1, 396.0 70.5 Q 396.5 69.9, 397.4 69.9 Q 397.7 69.9, 397.9 70.0 Q 398.1 70.0, 398.4 70.1 L 398.1 70.6 Q 397.8 70.4, 397.4 70.4 Q 396.8 70.4, 396.5 70.8 Q 396.2 71.2, 396.1 72.0 Q 396.4 71.8, 396.6 71.7 Q 396.9 71.6, 397.2 71.6 M 397.1 73.9 Q 397.3 73.9, 397.5 73.8 Q 397.7 73.6, 397.8 73.4 Q 397.9 73.2, 397.9 72.9 Q 397.9 72.5, 397.7 72.3 Q 397.5 72.1, 397.1 72.1 Q 396.8 72.1, 396.6 72.2 Q 396.3 72.3, 396.1 72.5 Q 396.2 73.2, 396.4 73.5 Q 396.6 73.9, 397.1 73.9 " fill="#000000"/>
<path class="note" d="M 406.5 105.5 L 404.2 105.5 L 404.2 105.1 L 407.1 105.1 L 407.1 105.5 L 405.4 109.4 L 404.8 109.4 L 406.5 105.5 " fill="#000000"/>
<path class="note" d="M 436.5 127.1 Q 437.0 127.3, 437.2 127.5 Q 437.4 127.8, 437.4 128.2 Q 437.4 128.6, 437.2 128.9 Q 437.0 129.2, 436.7 129.3 Q 436.3 129.5, 435.9 129.5 Q 435.2 129.5, 434.7 129.2 Q 434.3 128.8, 434.3 128.2 Q 434.3 127.9, 434.5 127.6 Q 434.7 127.3, 435.1 127.1 Q 434.8 127.0, 434.6 126.7 Q 434.5 126.5, 434.5 126.1 Q 434.5 125.6, 434.8 125.3 Q 435.2 125.0, 435.9 125.0 Q 436.5 125.0, 436.9 125.3 Q 437.2 125.6, 437.2 126.1 Q 437.2 126.4, 437.1 126.7 Q 436.9 126.9, 436.5 127.1 M 435.9 125.4 Q 435.5 125.4, 435.3 125.6 Q 435.1 125.8, 435.1 126.1 Q 435.1 126.3, 435.2 126.5 Q 435.4 126.6, 435.6 126.7 Q 435.8 126.8, 436.1 126.9 Q 436.4 126.8, 436.5 126.6 Q 436.6 126.4, 436.6 126.1 Q 436.6 125.8, 436.4 125.6 Q 436.2 125.4, 435.9 125.4 M 435.9 129.0 Q 436.3 129.0, 436.5 128.8 Q 436.8 128.6, 436.8 128.2 Q 436.8 128.0, 436.7 127.8 Q 436.5 127.7, 436.3 127.6 Q 436.1 127.5, 435.8 127.4 L 435.5 127.3 Q 435.2 127.5, 435.1 127.7 Q 434.9 127.9, 434.9 128.2 Q 434.9 128.6, 435.2 128.8 Q 435.4 129.0, 435.9 129.0 " fill="#000000"/>
<path class="note" d="M 432.2 187.6 Q 433.0 187.6, 433.4 188.1 Q 433.8 188.6, 433.8 189.7 Q 433.8 190.8, 433.3 191.4 Q 432.8 192.0, 431.9 192.0 Q 431.6 192.0, 431.4 192.0 Q 431.1 191.9, 430.9 191.8 L 431.2 191.4 Q 431.5 191.6, 431.9 191.6 Q 432.5 191.6, 432.8 191.2 Q 433.1 190.8, 433.2 189.9 Q 432.9 190.1, 432.7 190.2 Q 432.4 190.3, 432.1 190.3 Q 431.7 190.3, 431.4 190.2 Q 431.1 190.0, 430.9 189.7 Q 430.7 189.4, 430.7 189.0 Q 430.7 188.6, 430.9 188.3 Q 431.1 187.9, 431.5 187.7 Q 431.8 187.6, 432.2 187.6 M 431.4 189.0 Q 431.4 189.4, 431.6 189.6 Q 431.8 189.9, 432.2 189.9 Q 432.5 189.9, 432.7 189.7 Q 433.0 189.6, 433.2 189.4 Q 433.1 188.7, 432.9 188.4 Q 432.7 188.1, 432.2 188.1 Q 432.0 188.1, 431.8 188.2 Q 431.6 188.3, 431.5 188.5 Q 431.4 188.7, 431.4 189.0 " fill="#000000"/>
<path class="note" d="M 384.4 241.8 L 385.4 241.8 L 385.4 238.5 L 384.3 238.8 L 384.2 238.5 L 385.5 237.9 L 386.0 237.9 L 386.0 241.8 L 386.8 241.8 L 386.8 242.3 L 384.4 242.3 L 384.4 241.8 " fill="#000000"/>
<path class="note" d="M 389.0 242.3 Q 388.2 242.3, 387.8 241.7 Q 387.4 241.1, 387.4 240.1 Q 387.4 239.0, 387.8 238.4 Q 388.2 237.8, 389.0 237.8 Q 389.8 237.8, 390.2 238.4 Q 390.6 239.0, 390.6 240.1 Q 390.6 241.1, 390.2 241.7 Q 389.8 242.3, 389.0 242.3 M 389.0 241.8 Q 389.5 241.8, 389.7 241.4 Q 390.0 240.9, 390.0 240.1 Q 390.0 239.2, 389.7 238.8 Q 389.5 238.3, 389.0 238.3 Q 388.5 238.3, 388.3 238.8 Q 388.0 239.2, 388.0 240.1 Q 388.0 240.9, 388.3 241.4 Q 388.5 241.8, 389.0 241.8 " fill="#000000"/>
<path class="note" d="M 469.3 131.0 L 470.3 131.0 L 470.3 127.7 L 469.2 128.0 L 469.1 127.7 L 470.4 127.1 L 470.9 127.1 L 470.9 131.0 L 471.7 131.0 L 471.7 131.5 L 469.3 131.5 L 469.3 131.0 " fill="#000000"/>
<path class="note" d="M 472.5 131.0 L 473.5 131.0 L 473.5 127.7 L 472.4 128.0 L 472.2 127.7 L 473.6 127.1 L 474.0 127.1 L 474.0 131.0 L 474.9 131.0 L 474.9 131.5 L 472.5 131.5 L 472.5 131.0 " fill="#000000"/>
<path class="note" d="M 465.6 193.6 L 466.5 193.6 L 466.5 190.3 L 465.5 190.6 L 465.3 190.3 L 466.7 189.7 L 467.1 189.7 L 467.1 193.6 L 468.0 193.6 L 468.0 194.1 L 465.6 194.1 L 465.6 193.6 " fill="#000000"/>
<path class="note" d="M 468.5 190.5 Q 468.7 190.1, 469.1 189.9 Q 469.5 189.6, 470.0 189.6 Q 470.7 189.6, 471.0 190.0 Q 471.4 190.4, 471.4 191.0 Q 471.4 191.6, 470.9 192.2 Q 470.4 192.9, 469.4 193.6 L 471.5 193.6 L 471.5 194.1 L 468.5 194.1 L 468.5 193.7 Q 469.3 193.1, 469.8 192.6 Q 470.3 192.2, 470.5 191.8 Q 470.8 191.4, 470.8 191.0 Q 470.8 190.6, 470.6 190.4 Q 470.4 190.1, 470.0 190.1 Q 469.6 190.1, 469.4 190.3 Q 469.2 190.4, 469.0 190.7 L 468.5 190.5 " fill="#000000"/>
<path class="note" d="M 333.3 88.9 L 334.3 88.9 L 334.3 85.6 L 333.2 85.9 L 333.1 85.5 L 334.4 84.9 L 334.9 85.0 L 334.9 88.9 L 335.7 88.9 L 335.7 89.3 L 333.3 89.3 L 333.3 88.9 " fill="#000000"/>
<path class="note" d="M 338.4 87.0 Q 338.8 87.2, 339.0 87.4 Q 339.2 87.7, 339.2 88.1 Q 339.2 88.5, 339.1 88.8 Q 338.9 89.1, 338.5 89.3 Q 338.2 89.4, 337.7 89.4 Q 337.3 89.4, 336.9 89.2 Q 336.6 89.1, 336.3 88.7 L 336.6 88.4 Q 336.9 88.7, 337.1 88.8 Q 337.4 88.9, 337.7 88.9 Q 338.1 88.9, 338.4 88.7 Q 338.6 88.5, 338.6 88.1 Q 338.6 87.7, 338.4 87.5 Q 338.1 87.3, 337.6 87.3 L 337.3 87.3 L 337.3 86.8 L 337.5 86.8 Q 338.0 86.8, 338.3 86.6 Q 338.5 86.4, 338.5 86.0 Q 338.5 85.7, 338.3 85.6 Q 338.1 85.4, 337.7 85.4 Q 337.4 85.4, 337.2 85.5 Q 336.9 85.7, 336.8 86.0 L 336.3 85.8 Q 336.5 85.4, 336.9 85.2 Q 337.2 84.9, 337.7 84.9 Q 338.4 84.9, 338.8 85.2 Q 339.1 85.5, 339.1 86.0 Q 339.1 86.4, 339.0 86.6 Q 338.8 86.9, 338.4 87.0 " fill="#000000"/>
<path class="note" d="M 428.4 160.1 L 429.4 160.1 L 429.4 156.8 L 428.3 157.1 L 428.2 156.7 L 429.5 156.1 L 430.0 156.2 L 430.0 160.1 L 430.8 160.1 L 430.8 160.6 L 428.4 160.6 L 428.4 160.1 " fill="#000000"/>
<path class="note" d="M 434.3 159.0 L 434.8 159.0 L 434.8 159.5 L 434.3 159.5 L 434.3 160.6 L 433.7 160.6 L 433.7 159.5 L 431.4 159.5 L 431.4 159.1 L 433.3 156.2 L 434.3 156.2 L 434.3 159.0 M 432.1 159.0 L 433.7 159.0 L 433.7 156.6 L 432.1 159.0 " fill="#000000"/>
<path class="note" d="M 331.7 192.4 L 332.7 192.4 L 332.7 189.2 L 331.6 189.5 L 331.5 189.1 L 332.8 188.5 L 333.2 188.6 L 333.2 192.4 L 334.1 192.4 L 334.1 192.9 L 331.7 192.9 L 331.7 192.4 " fill="#000000"/>
<path class="note" d="M 336.2 190.2 Q 336.6 190.2, 336.9 190.4 Q 337.3 190.5, 337.4 190.8 Q 337.6 191.1, 337.6 191.6 Q 337.6 192.0, 337.4 192.3 Q 337.2 192.7, 336.8 192.8 Q 336.5 193.0, 336.0 193.0 Q 335.6 193.0, 335.3 192.8 Q 334.9 192.7, 334.6 192.4 L 335.0 192.0 Q 335.2 192.2, 335.5 192.4 Q 335.8 192.5, 336.1 192.5 Q 336.5 192.5, 336.7 192.2 Q 337.0 192.0, 337.0 191.6 Q 337.0 191.1, 336.7 190.9 Q 336.5 190.7, 336.0 190.7 Q 335.6 190.7, 335.2 190.8 L 334.9 190.7 L 335.1 188.6 L 337.3 188.6 L 337.3 189.0 L 335.6 189.0 L 335.5 190.4 Q 335.9 190.2, 336.2 190.2 " fill="#000000"/>
<path class="note" d="M 336.0 116.8 L 337.0 116.8 L 337.0 113.5 L 335.9 113.8 L 335.8 113.5 L 337.1 112.9 L 337.5 112.9 L 337.5 116.8 L 338.4 116.8 L 338.4 117.3 L 336.0 117.3 L 336.0 116.8 " fill="#000000"/>
<path class="note" d="M 340.7 114.5 Q 341.1 114.5, 341.4 114.7 Q 341.7 114.9, 341.8 115.2 Q 342.0 115.5, 342.0 115.9 Q 342.0 116.3, 341.8 116.6 Q 341.6 117.0, 341.3 117.2 Q 340.9 117.3, 340.5 117.3 Q 339.7 117.3, 339.3 116.8 Q 339.0 116.3, 339.0 115.2 Q 339.0 114.1, 339.4 113.5 Q 339.9 112.8, 340.9 112.8 Q 341.1 112.8, 341.4 112.9 Q 341.6 113.0, 341.8 113.1 L 341.6 113.5 Q 341.3 113.3, 340.9 113.3 Q 340.2 113.3, 339.9 113.7 Q 339.6 114.1, 339.6 115.0 Q 339.8 114.8, 340.1 114.7 Q 340.4 114.5, 340.7 114.5 M 340.5 116.8 Q 340.8 116.8, 341.0 116.7 Q 341.2 116.6, 341.3 116.4 Q 341.4 116.1, 341.4 115.9 Q 341.4 115.5, 341.2 115.3 Q 340.9 115.0, 340.6 115.0 Q 340.3 115.0, 340.0 115.2 Q 339.8 115.3, 339.6 115.4 Q 339.6 116.2, 339.8 116.5 Q 340.1 116.8, 340.5 116.8 " fill="#000000"/>
<path class="note" d="M 363.2 78.8 L 364.1 78.8 L 364.1 75.5 L 363.1 75.9 L 362.9 75.5 L 364.3 74.9 L 364.7 75.0 L 364.7 78.8 L 365.6 78.8 L 365.6 79.3 L 363.2 79.3 L 363.2 78.8 " fill="#000000"/>
<path class="note" d="M 368.4 75.4 L 366.1 75.4 L 366.1 74.9 L 369.0 74.9 L 369.0 75.4 L 367.3 79.3 L 366.7 79.3 L 368.4 75.4 " fill="#000000"/>
<path class="note" d="M 385.5 126.6 L 386.5 126.6 L 386.5 123.3 L 385.4 123.6 L 385.2 123.2 L 386.6 122.6 L 387.0 122.7 L 387.0 126.6 L 387.9 126.6 L 387.9 127.0 L 385.5 127.0 L 385.5 126.6 " fill="#000000"/>
<path class="note" d="M 390.7 124.7 Q 391.1 124.9, 391.3 125.2 Q 391.5 125.4, 391.5 125.8 Q 391.5 126.2, 391.4 126.5 Q 391.2 126.8, 390.8 127.0 Q 390.5 127.1, 390.0 127.1 Q 389.3 127.1, 388.9 126.8 Q 388.4 126.4, 388.4 125.8 Q 388.4 125.5, 388.6 125.2 Q 388.8 124.9, 389.2 124.7 Q 388.9 124.6, 388.8 124.3 Q 388.6 124.1, 388.6 123.7 Q 388.6 123.2, 389.0 122.9 Q 389.4 122.6, 390.0 122.6 Q 390.6 122.6, 391.0 122.9 Q 391.4 123.2, 391.4 123.7 Q 391.4 124.1, 391.2 124.3 Q 391.0 124.5, 390.7 124.7 M 390.0 123.1 Q 389.6 123.1, 389.4 123.2 Q 389.2 123.4, 389.2 123.7 Q 389.2 124.0, 389.4 124.1 Q 389.5 124.3, 389.7 124.3 Q 389.9 124.4, 390.3 124.6 Q 390.5 124.4, 390.6 124.2 Q 390.8 124.0, 390.8 123.7 Q 390.8 123.4, 390.6 123.2 Q 390.4 123.1, 390.0 123.1 M 390.0 126.6 Q 390.4 126.6, 390.7 126.4 Q 390.9 126.2, 390.9 125.8 Q 390.9 125.6, 390.8 125.5 Q 390.7 125.3, 390.5 125.2 Q 390.3 125.1, 389.9 125.0 L 389.6 124.9 Q 389.3 125.1, 389.2 125.3 Q 389.1 125.6, 389.1 125.8 Q 389.1 126.2, 389.3 126.4 Q 389.6 126.6, 390.0 126.6 " fill="#000000"/>
<path class="note" d="M 393.3 149.3 L 394.3 149.3 L 394.3 146.0 L 393.2 146.3 L 393.1 146.0 L 394.4 145.4 L 394.9 145.4 L 394.9 149.3 L 395.7 149.3 L 395.7 149.8 L 393.3 149.8 L 393.3 149.3 " fill="#000000"/>
<path class="note" d="M 397.7 145.3 Q 398.5 145.3, 398.9 145.9 Q 399.3 146.4, 399.3 147.4 Q 399.3 148.6, 398.8 149.2 Q 398.3 149.8, 397.4 149.8 Q 397.1 149.8, 396.9 149.8 Q 396.7 149.7, 396.4 149.6 L 396.7 149.1 Q 397.0 149.3, 397.4 149.3 Q 398.0 149.3, 398.3 148.9 Q 398.6 148.5, 398.7 147.7 Q 398.5 147.9, 398.2 148.0 Q 397.9 148.1, 397.6 148.1 Q 397.2 148.1, 396.9 148.0 Q 396.6 147.8, 396.4 147.5 Q 396.3 147.2, 396.3 146.8 Q 396.3 146.4, 396.4 146.0 Q 396.6 145.7, 397.0 145.5 Q 397.3 145.3, 397.7 145.3 M 396.9 146.8 Q 396.9 147.2, 397.1 147.4 Q 397.3 147.6, 397.7 147.6 Q 398.0 147.6, 398.2 147.5 Q 398.5 147.4, 398.7 147.2 Q 398.7 146.5, 398.4 146.2 Q 398.2 145.8, 397.7 145.8 Q 397.5 145.8, 397.3 146.0 Q 397.1 146.1, 397.0 146.3 Q 396.9 146.5, 396.9 146.8 " fill="#000000"/>
<path class="note" d="M 365.8 173.3 Q 365.9 172.9, 366.3 172.7 Q 366.7 172.4, 367.2 172.4 Q 367.9 172.4, 368.3 172.8 Q 368.6 173.2, 368.6 173.8 Q 368.6 174.5, 368.2 175.1 Q 367.7 175.7, 366.7 176.4 L 368.7 176.4 L 368.7 176.9 L 365.8 176.9 L 365.8 176.5 Q 366.6 175.9, 367.1 175.5 Q 367.6 175.0, 367.8 174.6 Q 368.0 174.2, 368.0 173.8 Q 368.0 173.4, 367.8 173.2 Q 367.6 172.9, 367.2 172.9 Q 366.9 172.9, 366.6 173.1 Q 366.4 173.2, 366.2 173.5 L 365.8 173.3 " fill="#000000"/>
<path class="note" d="M 371.0 176.9 Q 370.2 176.9, 369.8 176.3 Q 369.4 175.7, 369.4 174.7 Q 369.4 173.6, 369.8 173.0 Q 370.2 172.4, 371.0 172.4 Q 371.8 172.4, 372.2 173.0 Q 372.6 173.6, 372.6 174.7 Q 372.6 175.7, 372.2 176.3 Q 371.8 176.9, 371.0 176.9 M 371.0 176.4 Q 371.5 176.4, 371.7 176.0 Q 372.0 175.5, 372.0 174.7 Q 372.0 173.8, 371.7 173.4 Q 371.5 172.9, 371.0 172.9 Q 370.5 172.9, 370.3 173.4 Q 370.0 173.8, 370.0 174.7 Q 370.0 175.5, 370.3 176.0 Q 370.5 176.4, 371.0 176.4 " fill="#000000"/>
<path class="note" d="M 505.3 170.4 Q 505.4 170.0, 505.8 169.7 Q 506.2 169.5, 506.7 169.5 Q 507.4 169.5, 507.8 169.9 Q 508.1 170.2, 508.1 170.9 Q 508.1 171.5, 507.7 172.1 Q 507.2 172.7, 506.2 173.5 L 508.2 173.5 L 508.2 173.9 L 505.3 173.9 L 505.3 173.5 Q 506.1 172.9, 506.6 172.5 Q 507.0 172.1, 507.3 171.7 Q 507.5 171.3, 507.5 170.9 Q 507.5 170.5, 507.3 170.2 Q 507.1 170.0, 506.7 170.0 Q 506.4 170.0, 506.1 170.1 Q 505.9 170.3, 505.7 170.6 L 505.3 170.4 " fill="#000000"/>
<path class="note" d="M 509.1 173.5 L 510.1 173.5 L 510.1 170.2 L 509.0 170.5 L 508.9 170.1 L 510.2 169.5 L 510.7 169.6 L 510.7 173.5 L 511.5 173.5 L 511.5 173.9 L 509.1 173.9 L 509.1 173.5 " fill="#000000"/>
<path class="note" d="M 350.3 25.6 Q 350.5 25.2, 350.9 24.9 Q 351.2 24.7, 351.8 24.7 Q 352.4 24.7, 352.8 25.1 Q 353.2 25.4, 353.2 26.1 Q 353.2 26.7, 352.7 27.3 Q 352.2 27.9, 351.2 28.6 L 353.3 28.6 L 353.3 29.1 L 350.3 29.1 L 350.3 28.7 Q 351.1 28.1, 351.6 27.7 Q 352.1 27.3, 352.3 26.9 Q 352.6 26.5, 352.6 26.1 Q 352.6 25.7, 352.4 25.4 Q 352.1 25.2, 351.8 25.2 Q 351.4 25.2, 351.2 25.3 Q 351.0 25.5, 350.8 25.8 L 350.3 25.6 " fill="#000000"/>
<path class="note" d="M 353.9 25.6 Q 354.1 25.2, 354.5 24.9 Q 354.9 24.7, 355.4 24.7 Q 356.1 24.7, 356.4 25.1 Q 356.8 25.4, 356.8 26.1 Q 356.8 26.7, 356.3 27.3 Q 355.9 27.9, 354.9 28.6 L 356.9 28.6 L 356.9 29.1 L 353.9 29.1 L 353.9 28.7 Q 354.7 28.1, 355.2 27.7 Q 355.7 27.3, 356.0 26.9 Q 356.2 26.5, 356.2 26.1 Q 356.2 25.7, 356.0 25.4 Q 355.8 25.2, 355.4 25.2 Q 355.1 25.2, 354.8 25.3 Q 354.6 25.5, 354.4 25.8 L 353.9 25.6 " fill="#000000"/>
<path class="note" d="M 401.8 204.0 Q 402.0 203.5, 402.4 203.3 Q 402.8 203.1, 403.3 203.1 Q 404.0 203.1, 404.3 203.4 Q 404.7 203.8, 404.7 204.4 Q 404.7 205.1, 404.2 205.7 Q 403.7 206.3, 402.8 207.0 L 404.8 207.0 L 404.8 207.5 L 401.8 207.5 L 401.8 207.1 Q 402.6 206.5, 403.1 206.1 Q 403.6 205.6, 403.9 205.3 Q 404.1 204.9, 404.1 204.5 Q 404.1 204.0, 403.9 203.8 Q 403.7 203.6, 403.3 203.6 Q 402.9 203.6, 402.7 203.7 Q 402.5 203.9, 402.3 204.2 L 401.8 204.0 " fill="#000000"/>
<path class="note" d="M 407.6 205.2 Q 408.0 205.3, 408.2 205.6 Q 408.4 205.9, 408.4 206.3 Q 408.4 206.7, 408.2 207.0 Q 408.0 207.3, 407.7 207.4 Q 407.3 207.6, 406.9 207.6 Q 406.4 207.6, 406.1 207.4 Q 405.7 207.2, 405.4 206.9 L 405.8 206.6 Q 406.1 206.8, 406.3 207.0 Q 406.5 207.1, 406.9 207.1 Q 407.3 207.1, 407.5 206.9 Q 407.8 206.7, 407.8 206.3 Q 407.8 205.9, 407.5 205.7 Q 407.3 205.5, 406.7 205.5 L 406.4 205.5 L 406.4 205.0 L 406.7 205.0 Q 407.2 205.0, 407.4 204.8 Q 407.7 204.6, 407.7 204.2 Q 407.7 203.9, 407.5 203.7 Q 407.3 203.6, 406.9 203.6 Q 406.5 203.6, 406.3 203.7 Q 406.1 203.8, 405.9 204.2 L 405.5 203.9 Q 405.6 203.6, 406.0 203.3 Q 406.4 203.1, 406.9 203.1 Q 407.6 203.1, 407.9 203.4 Q 408.3 203.7, 408.3 204.2 Q 408.3 204.5, 408.1 204.8 Q 407.9 205.1, 407.6 205.2 " fill="#000000"/>
<path class="note" d="M 469.3 159.4 Q 469.4 159.0, 469.8 158.7 Q 470.2 158.5, 470.7 158.5 Q 471.4 158.5, 471.8 158.9 Q 472.1 159.2, 472.1 159.9 Q 472.1 160.5, 471.7 161.1 Q 471.2 161.7, 470.2 162.4 L 472.2 162.4 L 472.2 162.9 L 469.3 162.9 L 469.3 162.5 Q 470.1 161.9, 470.6 161.5 Q 471.0 161.1, 471.3 160.7 Q 471.5 160.3, 471.5 159.9 Q 471.5 159.5, 471.3 159.2 Q 471.1 159.0, 470.7 159.0 Q 470.4 159.0, 470.1 159.1 Q 469.9 159.3, 469.7 159.6 L 469.3 159.4 " fill="#000000"/>
<path class="note" d="M 475.8 161.4 L 476.3 161.4 L 476.3 161.9 L 475.8 161.9 L 475.8 162.9 L 475.2 162.9 L 475.2 161.9 L 472.9 161.9 L 472.9 161.5 L 474.8 158.5 L 475.8 158.5 L 475.8 161.4 M 473.6 161.4 L 475.2 161.4 L 475.2 158.9 L 473.6 161.4 " fill="#000000"/>
<path class="note" d="M 529.4 198.7 Q 529.5 198.3, 529.9 198.0 Q 530.3 197.8, 530.8 197.8 Q 531.5 197.8, 531.9 198.2 Q 532.2 198.5, 532.2 199.2 Q 532.2 199.8, 531.8 200.4 Q 531.3 201.0, 530.3 201.7 L 532.3 201.7 L 532.3 202.2 L 529.4 202.2 L 529.4 201.8 Q 530.2 201.2, 530.7 200.8 Q 531.1 200.4, 531.4 200.0 Q 531.6 199.6, 531.6 199.2 Q 531.6 198.8, 531.4 198.5 Q 531.2 198.3, 530.8 198.3 Q 530.5 198.3, 530.2 198.4 Q 530.0 198.6, 529.8 198.9 L 529.4 198.7 " fill="#000000"/>
<path class="note" d="M 534.6 199.5 Q 535.0 199.5, 535.3 199.7 Q 535.6 199.8, 535.8 200.1 Q 536.0 200.4, 536.0 200.9 Q 536.0 201.3, 535.7 201.6 Q 535.5 202.0, 535.2 202.1 Q 534.8 202.3, 534.4 202.3 Q 534.0 202.3, 533.6 202.1 Q 533.2 202.0, 533.0 201.7 L 533.4 201.3 Q 533.6 201.6, 533.8 201.7 Q 534.1 201.8, 534.4 201.8 Q 534.8 201.8, 535.1 201.6 Q 535.3 201.3, 535.3 200.9 Q 535.3 200.4, 535.1 200.2 Q 534.8 200.0, 534.4 200.0 Q 534.0 200.0, 533.6 200.1 L 533.2 200.0 L 533.4 197.9 L 535.7 197.9 L 535.6 198.3 L 533.9 198.3 L 533.8 199.7 Q 534.2 199.5, 534.6 199.5 " fill="#000000"/>
<path class="note" d="M 523.1 126.6 Q 523.3 126.2, 523.7 125.9 Q 524.0 125.7, 524.6 125.7 Q 525.2 125.7, 525.6 126.1 Q 526.0 126.4, 526.0 127.1 Q 526.0 127.7, 525.5 128.3 Q 525.0 128.9, 524.0 129.6 L 526.1 129.6 L 526.1 130.1 L 523.1 130.1 L 523.1 129.7 Q 523.9 129.1, 524.4 128.7 Q 524.9 128.3, 525.1 127.9 Q 525.4 127.5, 525.4 127.1 Q 525.4 126.7, 525.1 126.4 Q 524.9 126.2, 524.6 126.2 Q 524.2 126.2, 524.0 126.3 Q 523.7 126.5, 523.6 126.8 L 523.1 126.6 " fill="#000000"/>
<path class="note" d="M 528.4 127.4 Q 528.8 127.4, 529.1 127.6 Q 529.4 127.7, 529.6 128.0 Q 529.8 128.3, 529.8 128.7 Q 529.8 129.2, 529.6 129.5 Q 529.4 129.8, 529.1 130.0 Q 528.7 130.2, 528.3 130.2 Q 527.5 130.2, 527.1 129.7 Q 526.7 129.1, 526.7 128.1 Q 526.7 126.9, 527.2 126.3 Q 527.7 125.7, 528.6 125.7 Q 528.9 125.7, 529.1 125.8 Q 529.4 125.8, 529.6 126.0 L 529.4 126.4 Q 529.0 126.2, 528.6 126.2 Q 528.0 126.2, 527.7 126.6 Q 527.4 127.0, 527.4 127.8 Q 527.6 127.6, 527.9 127.5 Q 528.1 127.4, 528.4 127.4 M 528.3 129.7 Q 528.5 129.7, 528.7 129.6 Q 528.9 129.4, 529.0 129.2 Q 529.2 129.0, 529.2 128.7 Q 529.2 128.3, 528.9 128.1 Q 528.7 127.9, 528.3 127.9 Q 528.1 127.9, 527.8 128.0 Q 527.5 128.1, 527.4 128.3 Q 527.4 129.0, 527.6 129.4 Q 527.8 129.7, 528.3 129.7 " fill="#000000"/>
<path class="legend" d="M 417.6 272.7 L 419.0 272.7 L 419.0 284.8 L 417.6 284.8 L 417.6 272.7 " fill="#000000"/>
<path class="legend" d="M 420.9 280.7 Q 420.9 278.7, 421.9 277.6 Q 422.9 276.4, 424.8 276.4 Q 426.7 276.4, 427.7 277.6 Q 428.7 278.7, 428.7 280.7 Q 428.7 282.7, 427.7 283.8 Q 426.7 284.9, 424.8 284.9 Q 422.9 284.9, 421.9 283.8 Q 420.9 282.7, 420.9 280.7 M 422.5 280.7 Q 422.5 282.2, 423.1 283.0 Q 423.7 283.8, 424.8 283.8 Q 426.0 283.8, 426.6 283.0 Q 427.2 282.2, 427.2 280.7 Q 427.2 279.2, 426.6 278.4 Q 426.0 277.6, 424.8 277.6 Q 423.7 277.6, 423.1 278.4 Q 422.5 279.2, 422.5 280.7 " fill="#000000"/>
<path class="legend" d="M 431.2 276.6 L 431.4 277.7 Q 432.2 276.4, 433.6 276.4 Q 434.1 276.4, 434.7 276.6 L 434.5 277.9 Q 433.8 277.8, 433.4 277.8 Q 432.7 277.8, 432.3 278.1 Q 431.8 278.3, 431.5 278.9 L 431.5 284.8 L 430.0 284.8 L 430.0 276.6 L 431.2 276.6 " fill="#000000"/>
<path class="legend" d="M 435.4 282.6 Q 435.4 281.3, 436.5 280.6 Q 437.6 279.8, 439.5 279.8 L 440.7 279.8 L 440.7 279.5 Q 440.7 278.5, 440.3 278.1 Q 439.9 277.6, 438.8 277.6 Q 438.2 277.6, 437.7 277.8 Q 437.2 277.9, 436.4 278.2 L 435.9 277.2 Q 437.4 276.4, 438.9 276.4 Q 440.6 276.4, 441.4 277.2 Q 442.2 277.9, 442.2 279.5 L 442.2 284.8 L 441.0 284.8 Q 441.0 284.7, 441.0 284.5 Q 440.9 284.2, 440.8 283.8 Q 439.7 285.0, 438.1 285.0 Q 436.9 285.0, 436.2 284.3 Q 435.4 283.7, 435.4 282.6 M 436.9 282.6 Q 436.9 283.2, 437.3 283.5 Q 437.7 283.8, 438.4 283.8 Q 439.1 283.8, 439.7 283.5 Q 440.3 283.2, 440.7 282.7 L 440.7 281.0 L 439.6 281.0 Q 438.3 281.0, 437.6 281.4 Q 436.9 281.8, 436.9 282.6 " fill="#000000"/>
<path class="legend" d="M 444.0 277.7 L 444.0 276.6 L 445.5 276.6 L 445.8 274.2 L 446.9 274.2 L 446.9 276.6 L 449.4 276.6 L 449.4 277.7 L 446.9 277.7 L 446.9 282.3 Q 446.9 283.7, 448.1 283.7 Q 448.6 283.7, 449.3 283.5 L 449.5 284.5 Q 448.7 284.9, 447.8 284.9 Q 446.8 284.9, 446.1 284.3 Q 445.4 283.6, 445.4 282.4 L 445.4 277.7 L 444.0 277.7 " fill="#000000"/>
<path class="legend" d="M 450.4 273.5 L 451.9 273.5 L 451.9 274.9 L 450.4 274.9 L 450.4 273.5 M 450.4 276.6 L 451.9 276.6 L 451.9 284.8 L 450.4 284.8 L 450.4 276.6 " fill="#000000"/>
<path class="legend" d="M 461.3 272.7 L 461.3 284.8 L 460.1 284.8 L 459.9 283.8 Q 458.9 284.9, 457.4 284.9 Q 455.7 284.9, 454.7 283.9 Q 453.8 282.8, 453.8 280.8 Q 453.8 278.8, 454.9 277.6 Q 456.1 276.4, 458.0 276.4 Q 458.9 276.4, 459.8 276.7 L 459.8 272.7 L 461.3 272.7 M 457.5 283.8 Q 458.3 283.8, 458.9 283.3 Q 459.5 282.8, 459.8 282.0 L 459.8 277.9 Q 459.0 277.6, 458.0 277.6 Q 456.8 277.6, 456.1 278.5 Q 455.3 279.3, 455.3 280.8 Q 455.3 282.2, 455.9 283.0 Q 456.5 283.8, 457.5 283.8 " fill="#000000"/>
<path class="legend" d="M 463.1 273.5 L 464.5 273.5 L 464.5 274.9 L 463.1 274.9 L 463.1 273.5 M 463.1 276.6 L 464.5 276.6 L 464.5 284.8 L 463.1 284.8 L 463.1 276.6 " fill="#000000"/>
<path class="legend" d="M 470.7 276.4 Q 472.0 276.4, 472.7 277.2 Q 473.4 277.9, 473.4 279.4 L 473.4 284.8 L 471.9 284.8 L 471.9 279.5 Q 471.9 278.5, 471.5 278.1 Q 471.2 277.6, 470.3 277.6 Q 469.6 277.6, 469.0 278.0 Q 468.3 278.3, 467.9 278.9 L 467.9 284.8 L 466.4 284.8 L 466.4 276.6 L 467.7 276.6 L 467.8 277.7 Q 468.9 276.4, 470.7 276.4 " fill="#000000"/>
<path class="legend" d="M 475.2 280.7 Q 475.2 278.7, 476.2 277.6 Q 477.2 276.4, 479.0 276.4 Q 480.8 276.4, 481.6 277.5 Q 482.4 278.6, 482.4 280.6 L 482.4 280.9 L 476.7 280.9 Q 476.7 282.3, 477.4 283.0 Q 478.0 283.8, 479.1 283.8 Q 479.8 283.8, 480.4 283.6 Q 481.0 283.4, 481.7 283.1 L 482.1 284.2 Q 481.3 284.6, 480.6 284.8 Q 479.8 284.9, 479.1 284.9 Q 477.2 284.9, 476.2 283.8 Q 475.2 282.7, 475.2 280.7 M 479.0 277.6 Q 478.1 277.6, 477.5 278.2 Q 476.9 278.7, 476.8 279.8 L 480.9 279.8 Q 480.7 278.7, 480.3 278.2 Q 479.8 277.6, 479.0 277.6 " fill="#000000"/>
<ellipse cx="656.7" cy="224.1" rx="6.2" ry="6.2" class="atom-2" style="fill:#FF7F7F;fill-rule:evenodd;stroke:#FF7F7F;stroke-width:1.0px;stroke-linecap:butt;stroke-linejoin:miter;stroke-opacity:1"/>
<ellipse cx="708.4" cy="209.3" rx="6.2" ry="6.2" class="atom-5" style="fill:#FF7F7F;fill-rule:evenodd;stroke:#FF7F7F;stroke-width:1.0px;stroke-linecap:butt;stroke-linejoin:miter;stroke-opacity:1"/>
<ellipse cx="803.2" cy="149.9" rx="6.2" ry="6.2" class="atom-20" style="fill:#FF7F7F;fill-rule:evenodd;stroke:#FF7F7F;stroke-width:1.0px;stroke-linecap:butt;stroke-linejoin:miter;stroke-opacity:1"/>
<path class="bond-0 atom-0 atom-15" d="M 687.3,37.9 L 695.9,67.7" style="fill:none;fill-rule:evenodd;stroke:#000000;stroke-width:2.0px;stroke-linecap:butt;stroke-linejoin:miter;stroke-opacity:1"/>
<path class="bond-1 atom-1 atom-2" d="M 686.8,231.6 L 656.7,224.1" style="fill:none;fill-rule:evenodd;stroke:#000000;stroke-width:2.0px;stroke-linecap:butt;stroke-linejoin:miter;stroke-opacity:1"/>
<path class="bond-1 atom-1 atom-2" d="M 685.3,226.4 L 660.5,220.2" style="fill:none;fill-rule:evenodd;stroke:#000000;stroke-width:2.0px;stroke-linecap:butt;stroke-linejoin:miter;stroke-opacity:1"/>
<path class="bond-2 atom-1 atom-5" d="M 686.8,231.6 L 708.4,209.3" style="fill:none;fill-rule:evenodd;stroke:#000000;stroke-width:2.0px;stroke-linecap:butt;stroke-linejoin:miter;stroke-opacity:1"/>
<path class="bond-3 atom-2 atom-11" d="M 656.7,224.1 L 648.2,194.2" style="fill:none;fill-rule:evenodd;stroke:#000000;stroke-width:2.0px;stroke-linecap:butt;stroke-linejoin:miter;stroke-opacity:1"/>
<path class="bond-4 atom-3 atom-4" d="M 845.7,176.6 L 853.2,146.5" style="fill:none;fill-rule:evenodd;stroke:#000000;stroke-width:2.0px;stroke-linecap:butt;stroke-linejoin:miter;stroke-opacity:1"/>
<path class="bond-5 atom-3 atom-12" d="M 845.7,176.6 L 814.8,178.7" style="fill:none;fill-rule:evenodd;stroke:#000000;stroke-width:2.0px;stroke-linecap:butt;stroke-linejoin:miter;stroke-opacity:1"/>
<path class="bond-6 atom-4 atom-13" d="M 853.2,146.5 L 826.9,130.0" style="fill:none;fill-rule:evenodd;stroke:#000000;stroke-width:2.0px;stroke-linecap:butt;stroke-linejoin:miter;stroke-opacity:1"/>
<path class="bond-7 atom-5 atom-18" d="M 708.4,209.3 L 699.9,179.5" style="fill:none;fill-rule:evenodd;stroke:#000000;stroke-width:2.0px;stroke-linecap:butt;stroke-linejoin:miter;stroke-opacity:1"/>
<path class="bond-7 atom-5 atom-18" d="M 703.2,208.0 L 696.1,183.3" style="fill:none;fill-rule:evenodd;stroke:#000000;stroke-width:2.0px;stroke-linecap:butt;stroke-linejoin:miter;stroke-opacity:1"/>
<path class="bond-8 atom-6 atom-8" d="M 725.9,75.2 L 734.5,105.1" style="fill:none;fill-rule:evenodd;stroke:#000000;stroke-width:2.0px;stroke-linecap:butt;stroke-linejoin:miter;stroke-opacity:1"/>
<path class="bond-8 atom-6 atom-8" d="M 722.2,79.1 L 729.3,103.8" style="fill:none;fill-rule:evenodd;stroke:#000000;stroke-width:2.0px;stroke-linecap:butt;stroke-linejoin:miter;stroke-opacity:1"/>
<path class="bond-9 atom-6 atom-15" d="M 725.9,75.2 L 695.9,67.7" style="fill:none;fill-rule:evenodd;stroke:#000000;stroke-width:2.0px;stroke-linecap:butt;stroke-linejoin:miter;stroke-opacity:1"/>
<path class="bond-10 atom-7 atom-9" d="M 674.3,90.0 L 682.8,119.8" style="fill:none;fill-rule:evenodd;stroke:#000000;stroke-width:2.0px;stroke-linecap:butt;stroke-linejoin:miter;stroke-opacity:1"/>
<path class="bond-11 atom-7 atom-15" d="M 674.3,90.0 L 695.9,67.7" style="fill:none;fill-rule:evenodd;stroke:#000000;stroke-width:2.0px;stroke-linecap:butt;stroke-linejoin:miter;stroke-opacity:1"/>
<path class="bond-11 atom-7 atom-15" d="M 679.5,91.3 L 697.3,72.9" style="fill:none;fill-rule:evenodd;stroke:#000000;stroke-width:2.0px;stroke-linecap:butt;stroke-linejoin:miter;stroke-opacity:1"/>
<path class="bond-12 atom-8 atom-16" d="M 734.5,105.1 L 712.9,127.4" style="fill:none;fill-rule:evenodd;stroke:#000000;stroke-width:2.0px;stroke-linecap:butt;stroke-linejoin:miter;stroke-opacity:1"/>
<path class="bond-13 atom-9 atom-16" d="M 682.8,119.8 L 712.9,127.4" style="fill:none;fill-rule:evenodd;stroke:#000000;stroke-width:2.0px;stroke-linecap:butt;stroke-linejoin:miter;stroke-opacity:1"/>
<path class="bond-13 atom-9 atom-16" d="M 686.5,116.0 L 711.4,122.2" style="fill:none;fill-rule:evenodd;stroke:#000000;stroke-width:2.0px;stroke-linecap:butt;stroke-linejoin:miter;stroke-opacity:1"/>
<path class="bond-14 atom-10 atom-14" d="M 751.5,164.7 L 773.1,142.4" style="fill:none;fill-rule:evenodd;stroke:#000000;stroke-width:2.0px;stroke-linecap:butt;stroke-linejoin:miter;stroke-opacity:1"/>
<path class="bond-15 atom-10 atom-17" d="M 751.5,164.7 L 721.4,157.2" style="fill:none;fill-rule:evenodd;stroke:#000000;stroke-width:2.0px;stroke-linecap:butt;stroke-linejoin:miter;stroke-opacity:1"/>
<path class="bond-15 atom-10 atom-17" d="M 750.0,159.5 L 725.2,153.3" style="fill:none;fill-rule:evenodd;stroke:#000000;stroke-width:2.0px;stroke-linecap:butt;stroke-linejoin:miter;stroke-opacity:1"/>
<path class="bond-16 atom-11 atom-19" d="M 648.2,194.2 L 656.8,185.3" style="fill:none;fill-rule:evenodd;stroke:#000000;stroke-width:2.0px;stroke-linecap:butt;stroke-linejoin:miter;stroke-opacity:1"/>
<path class="bond-16 atom-11 atom-19" d="M 656.8,185.3 L 665.4,176.4" style="fill:none;fill-rule:evenodd;stroke:#0000FF;stroke-width:2.0px;stroke-linecap:butt;stroke-linejoin:miter;stroke-opacity:1"/>
<path class="bond-16 atom-11 atom-19" d="M 653.4,195.5 L 661.1,187.6" style="fill:none;fill-rule:evenodd;stroke:#000000;stroke-width:2.0px;stroke-linecap:butt;stroke-linejoin:miter;stroke-opacity:1"/>
<path class="bond-16 atom-11 atom-19" d="M 661.1,187.6 L 668.8,179.7" style="fill:none;fill-rule:evenodd;stroke:#0000FF;stroke-width:2.0px;stroke-linecap:butt;stroke-linejoin:miter;stroke-opacity:1"/>
<path class="bond-17 atom-12 atom-20" d="M 814.8,178.7 L 805.4,155.4" style="fill:none;fill-rule:evenodd;stroke:#000000;stroke-width:2.0px;stroke-linecap:butt;stroke-linejoin:miter;stroke-opacity:1"/>
<path class="bond-18 atom-13 atom-20" d="M 826.9,130.0 L 807.5,146.3" style="fill:none;fill-rule:evenodd;stroke:#000000;stroke-width:2.0px;stroke-linecap:butt;stroke-linejoin:miter;stroke-opacity:1"/>
<path class="bond-19 atom-14 atom-20" d="M 773.1,142.4 L 798.8,148.9" style="fill:none;fill-rule:evenodd;stroke:#000000;stroke-width:2.0px;stroke-linecap:butt;stroke-linejoin:miter;stroke-opacity:1"/>
<path class="bond-20 atom-16 atom-17" d="M 712.9,127.4 L 721.4,157.2" style="fill:none;fill-rule:evenodd;stroke:#000000;stroke-width:2.0px;stroke-linecap:butt;stroke-linejoin:miter;stroke-opacity:1"/>
<path class="bond-21 atom-17 atom-18" d="M 721.4,157.2 L 699.9,179.5" style="fill:none;fill-rule:evenodd;stroke:#000000;stroke-width:2.0px;stroke-linecap:butt;stroke-linejoin:miter;stroke-opacity:1"/>
<path class="bond-22 atom-18 atom-19" d="M 699.9,179.5 L 687.0,176.2" style="fill:none;fill-rule:evenodd;stroke:#000000;stroke-width:2.0px;stroke-linecap:butt;stroke-linejoin:miter;stroke-opacity:1"/>
<path class="bond-22 atom-18 atom-19" d="M 687.0,176.2 L 674.1,173.0" style="fill:none;fill-rule:evenodd;stroke:#0000FF;stroke-width:2.0px;stroke-linecap:butt;stroke-linejoin:miter;stroke-opacity:1"/>
<path d="M 685.3,231.2 L 686.8,231.6 L 687.9,230.5" style="fill:none;stroke:#000000;stroke-width:2.0px;stroke-linecap:butt;stroke-linejoin:miter;stroke-miterlimit:10;stroke-opacity:1;"/>
<path d="M 658.2,224.4 L 656.7,224.1 L 656.3,222.6" style="fill:none;stroke:#000000;stroke-width:2.0px;stroke-linecap:butt;stroke-linejoin:miter;stroke-miterlimit:10;stroke-opacity:1;"/>
<path d="M 846.1,175.1 L 845.7,176.6 L 844.2,176.7" style="fill:none;stroke:#000000;stroke-width:2.0px;stroke-linecap:butt;stroke-linejoin:miter;stroke-miterlimit:10;stroke-opacity:1;"/>
<path d="M 852.9,148.0 L 853.2,146.5 L 851.9,145.7" style="fill:none;stroke:#000000;stroke-width:2.0px;stroke-linecap:butt;stroke-linejoin:miter;stroke-miterlimit:10;stroke-opacity:1;"/>
<path d="M 707.3,210.4 L 708.4,209.3 L 708.0,207.8" style="fill:none;stroke:#000000;stroke-width:2.0px;stroke-linecap:butt;stroke-linejoin:miter;stroke-miterlimit:10;stroke-opacity:1;"/>
<path d="M 726.4,76.7 L 725.9,75.2 L 724.4,74.9" style="fill:none;stroke:#000000;stroke-width:2.0px;stroke-linecap:butt;stroke-linejoin:miter;stroke-miterlimit:10;stroke-opacity:1;"/>
<path d="M 674.7,91.5 L 674.3,90.0 L 675.4,88.9" style="fill:none;stroke:#000000;stroke-width:2.0px;stroke-linecap:butt;stroke-linejoin:miter;stroke-miterlimit:10;stroke-opacity:1;"/>
<path d="M 734.0,103.6 L 734.5,105.1 L 733.4,106.2" style="fill:none;stroke:#000000;stroke-width:2.0px;stroke-linecap:butt;stroke-linejoin:miter;stroke-miterlimit:10;stroke-opacity:1;"/>
<path d="M 682.4,118.3 L 682.8,119.8 L 684.3,120.2" style="fill:none;stroke:#000000;stroke-width:2.0px;stroke-linecap:butt;stroke-linejoin:miter;stroke-miterlimit:10;stroke-opacity:1;"/>
<path d="M 752.6,163.6 L 751.5,164.7 L 750.0,164.3" style="fill:none;stroke:#000000;stroke-width:2.0px;stroke-linecap:butt;stroke-linejoin:miter;stroke-miterlimit:10;stroke-opacity:1;"/>
<path d="M 648.6,195.7 L 648.2,194.2 L 648.6,193.8" style="fill:none;stroke:#000000;stroke-width:2.0px;stroke-linecap:butt;stroke-linejoin:miter;stroke-miterlimit:10;stroke-opacity:1;"/>
<path d="M 816.3,178.6 L 814.8,178.7 L 814.3,177.5" style="fill:none;stroke:#000000;stroke-width:2.0px;stroke-linecap:butt;stroke-linejoin:miter;stroke-miterlimit:10;stroke-opacity:1;"/>
<path d="M 828.3,130.9 L 826.9,130.0 L 826.0,130.8" style="fill:none;stroke:#000000;stroke-width:2.0px;stroke-linecap:butt;stroke-linejoin:miter;stroke-miterlimit:10;stroke-opacity:1;"/>
<path d="M 772.0,143.5 L 773.1,142.4 L 774.4,142.7" style="fill:none;stroke:#000000;stroke-width:2.0px;stroke-linecap:butt;stroke-linejoin:miter;stroke-miterlimit:10;stroke-opacity:1;"/>
<path class="atom-19" d="M 667.8 167.5 L 670.7 172.2 Q 671.0 172.7, 671.5 173.5 Q 671.9 174.3, 671.9 174.4 L 671.9 167.5 L 673.1 167.5 L 673.1 176.3 L 671.9 176.3 L 668.8 171.2 Q 668.4 170.6, 668.1 170.0 Q 667.7 169.3, 667.6 169.1 L 667.6 176.3 L 666.4 176.3 L 666.4 167.5 L 667.8 167.5 " fill="#0000FF"/>
<path class="atom-20" d="M 801.2 145.6 L 804.1 150.2 Q 804.4 150.7, 804.9 151.5 Q 805.3 152.3, 805.3 152.4 L 805.3 145.6 L 806.5 145.6 L 806.5 154.3 L 805.3 154.3 L 802.2 149.2 Q 801.8 148.7, 801.5 148.0 Q 801.1 147.3, 801.0 147.1 L 801.0 154.3 L 799.8 154.3 L 799.8 145.6 L 801.2 145.6 " fill="#000000"/>
<path class="note" d="M 692.3 38.7 Q 691.5 38.7, 691.1 38.1 Q 690.7 37.5, 690.7 36.5 Q 690.7 35.4, 691.1 34.8 Q 691.5 34.2, 692.3 34.2 Q 693.1 34.2, 693.5 34.8 Q 693.9 35.4, 693.9 36.5 Q 693.9 37.5, 693.5 38.1 Q 693.1 38.7, 692.3 38.7 M 692.3 38.2 Q 692.8 38.2, 693.0 37.8 Q 693.3 37.3, 693.3 36.5 Q 693.3 35.6, 693.0 35.2 Q 692.8 34.7, 692.3 34.7 Q 691.8 34.7, 691.6 35.2 Q 691.3 35.6, 691.3 36.5 Q 691.3 37.3, 691.6 37.8 Q 691.8 38.2, 692.3 38.2 " fill="#000000"/>
<path class="note" d="M 687.2 238.3 L 688.1 238.3 L 688.1 235.0 L 687.1 235.3 L 686.9 234.9 L 688.3 234.3 L 688.7 234.4 L 688.7 238.3 L 689.6 238.3 L 689.6 238.8 L 687.2 238.8 L 687.2 238.3 " fill="#000000"/>
<path class="note" d="M 651.7 226.4 Q 651.8 226.0, 652.2 225.8 Q 652.6 225.5, 653.1 225.5 Q 653.8 225.5, 654.2 225.9 Q 654.5 226.3, 654.5 226.9 Q 654.5 227.6, 654.1 228.2 Q 653.6 228.8, 652.6 229.5 L 654.6 229.5 L 654.6 230.0 L 651.7 230.0 L 651.7 229.6 Q 652.5 229.0, 653.0 228.6 Q 653.4 228.1, 653.7 227.7 Q 653.9 227.3, 653.9 226.9 Q 653.9 226.5, 653.7 226.3 Q 653.5 226.0, 653.1 226.0 Q 652.8 226.0, 652.5 226.2 Q 652.3 226.3, 652.1 226.6 L 651.7 226.4 " fill="#000000"/>
<path class="note" d="M 849.7 180.4 Q 850.1 180.6, 850.3 180.9 Q 850.5 181.1, 850.5 181.6 Q 850.5 181.9, 850.3 182.2 Q 850.1 182.5, 849.8 182.7 Q 849.4 182.8, 849.0 182.8 Q 848.5 182.8, 848.2 182.7 Q 847.8 182.5, 847.6 182.2 L 847.9 181.8 Q 848.2 182.1, 848.4 182.2 Q 848.6 182.3, 849.0 182.3 Q 849.4 182.3, 849.6 182.1 Q 849.9 181.9, 849.9 181.6 Q 849.9 181.1, 849.6 180.9 Q 849.4 180.7, 848.8 180.7 L 848.5 180.7 L 848.5 180.3 L 848.8 180.3 Q 849.3 180.2, 849.5 180.0 Q 849.8 179.8, 849.8 179.4 Q 849.8 179.2, 849.6 179.0 Q 849.4 178.8, 849.0 178.8 Q 848.6 178.8, 848.4 178.9 Q 848.2 179.1, 848.0 179.4 L 847.6 179.2 Q 847.7 178.8, 848.1 178.6 Q 848.5 178.3, 849.0 178.3 Q 849.7 178.3, 850.0 178.6 Q 850.4 178.9, 850.4 179.4 Q 850.4 179.8, 850.2 180.0 Q 850.0 180.3, 849.7 180.4 " fill="#000000"/>
<path class="note" d="M 859.2 145.2 L 859.7 145.2 L 859.7 145.7 L 859.2 145.7 L 859.2 146.8 L 858.6 146.8 L 858.6 145.7 L 856.3 145.7 L 856.3 145.3 L 858.3 142.4 L 859.2 142.4 L 859.2 145.2 M 857.1 145.2 L 858.6 145.2 L 858.6 142.8 L 857.1 145.2 " fill="#000000"/>
<path class="note" d="M 713.5 210.0 Q 713.9 210.0, 714.2 210.2 Q 714.5 210.3, 714.7 210.6 Q 714.9 210.9, 714.9 211.4 Q 714.9 211.8, 714.7 212.1 Q 714.4 212.5, 714.1 212.6 Q 713.7 212.8, 713.3 212.8 Q 712.9 212.8, 712.5 212.6 Q 712.2 212.5, 711.9 212.2 L 712.3 211.8 Q 712.5 212.0, 712.8 212.2 Q 713.0 212.3, 713.3 212.3 Q 713.7 212.3, 714.0 212.0 Q 714.3 211.8, 714.3 211.4 Q 714.3 210.9, 714.0 210.7 Q 713.7 210.5, 713.3 210.5 Q 712.9 210.5, 712.5 210.6 L 712.1 210.5 L 712.4 208.3 L 714.6 208.3 L 714.5 208.8 L 712.9 208.8 L 712.7 210.1 Q 713.1 210.0, 713.5 210.0 " fill="#000000"/>
<path class="note" d="M 729.7 71.0 Q 730.1 71.0, 730.4 71.2 Q 730.7 71.3, 730.9 71.6 Q 731.1 71.9, 731.1 72.3 Q 731.1 72.8, 730.9 73.1 Q 730.7 73.4, 730.4 73.6 Q 730.0 73.8, 729.6 73.8 Q 728.8 73.8, 728.4 73.3 Q 728.0 72.7, 728.0 71.7 Q 728.0 70.5, 728.5 69.9 Q 729.0 69.3, 729.9 69.3 Q 730.2 69.3, 730.4 69.4 Q 730.7 69.4, 730.9 69.6 L 730.6 70.0 Q 730.3 69.8, 729.9 69.8 Q 729.3 69.8, 729.0 70.2 Q 728.7 70.6, 728.6 71.4 Q 728.9 71.2, 729.1 71.1 Q 729.4 71.0, 729.7 71.0 M 729.6 73.3 Q 729.8 73.3, 730.0 73.2 Q 730.2 73.0, 730.3 72.8 Q 730.4 72.6, 730.4 72.3 Q 730.4 71.9, 730.2 71.7 Q 730.0 71.5, 729.6 71.5 Q 729.4 71.5, 729.1 71.6 Q 728.8 71.7, 728.6 71.9 Q 728.7 72.6, 728.9 73.0 Q 729.1 73.3, 729.6 73.3 " fill="#000000"/>
<path class="note" d="M 670.1 87.0 L 667.8 87.0 L 667.8 86.5 L 670.7 86.5 L 670.7 87.0 L 669.0 90.9 L 668.4 90.9 L 670.1 87.0 " fill="#000000"/>
<path class="note" d="M 740.2 106.2 Q 740.6 106.4, 740.8 106.6 Q 741.0 106.9, 741.0 107.3 Q 741.0 107.7, 740.8 108.0 Q 740.7 108.3, 740.3 108.4 Q 740.0 108.6, 739.5 108.6 Q 738.8 108.6, 738.4 108.3 Q 737.9 107.9, 737.9 107.3 Q 737.9 107.0, 738.1 106.7 Q 738.3 106.4, 738.7 106.2 Q 738.4 106.1, 738.2 105.8 Q 738.1 105.6, 738.1 105.2 Q 738.1 104.7, 738.5 104.4 Q 738.8 104.1, 739.5 104.1 Q 740.1 104.1, 740.5 104.4 Q 740.9 104.7, 740.9 105.2 Q 740.9 105.5, 740.7 105.8 Q 740.5 106.0, 740.2 106.2 M 739.5 104.6 Q 739.1 104.6, 738.9 104.7 Q 738.7 104.9, 738.7 105.2 Q 738.7 105.4, 738.9 105.6 Q 739.0 105.7, 739.2 105.8 Q 739.4 105.9, 739.8 106.1 Q 740.0 105.9, 740.1 105.7 Q 740.3 105.5, 740.3 105.2 Q 740.3 104.9, 740.0 104.7 Q 739.9 104.6, 739.5 104.6 M 739.5 108.1 Q 739.9 108.1, 740.2 107.9 Q 740.4 107.7, 740.4 107.3 Q 740.4 107.1, 740.3 106.9 Q 740.2 106.8, 740.0 106.7 Q 739.8 106.6, 739.4 106.5 L 739.1 106.4 Q 738.8 106.6, 738.7 106.8 Q 738.6 107.0, 738.6 107.3 Q 738.6 107.7, 738.8 107.9 Q 739.1 108.1, 739.5 108.1 " fill="#000000"/>
<path class="note" d="M 679.2 121.3 Q 680.0 121.3, 680.3 121.8 Q 680.7 122.4, 680.7 123.4 Q 680.7 124.6, 680.3 125.2 Q 679.8 125.8, 678.8 125.8 Q 678.6 125.8, 678.3 125.7 Q 678.1 125.7, 677.9 125.6 L 678.1 125.1 Q 678.4 125.3, 678.8 125.3 Q 679.4 125.3, 679.8 124.9 Q 680.1 124.5, 680.1 123.7 Q 679.9 123.9, 679.6 124.0 Q 679.3 124.1, 679.0 124.1 Q 678.6 124.1, 678.3 123.9 Q 678.0 123.8, 677.9 123.5 Q 677.7 123.2, 677.7 122.8 Q 677.7 122.3, 677.9 122.0 Q 678.1 121.7, 678.4 121.5 Q 678.7 121.3, 679.2 121.3 M 678.3 122.8 Q 678.3 123.2, 678.5 123.4 Q 678.8 123.6, 679.1 123.6 Q 679.4 123.6, 679.7 123.5 Q 679.9 123.4, 680.1 123.2 Q 680.1 122.5, 679.9 122.2 Q 679.6 121.8, 679.2 121.8 Q 678.9 121.8, 678.7 121.9 Q 678.5 122.1, 678.4 122.3 Q 678.3 122.5, 678.3 122.8 " fill="#000000"/>
<path class="note" d="M 750.0 171.4 L 750.9 171.4 L 750.9 168.1 L 749.9 168.4 L 749.7 168.1 L 751.1 167.5 L 751.5 167.6 L 751.5 171.4 L 752.4 171.4 L 752.4 171.9 L 750.0 171.9 L 750.0 171.4 " fill="#000000"/>
<path class="note" d="M 754.5 171.9 Q 753.7 171.9, 753.3 171.4 Q 752.9 170.8, 752.9 169.7 Q 752.9 168.6, 753.3 168.0 Q 753.7 167.5, 754.5 167.5 Q 755.3 167.5, 755.7 168.0 Q 756.1 168.6, 756.1 169.7 Q 756.1 170.8, 755.7 171.4 Q 755.3 171.9, 754.5 171.9 M 754.5 171.4 Q 755.0 171.4, 755.3 171.0 Q 755.5 170.6, 755.5 169.7 Q 755.5 168.8, 755.3 168.4 Q 755.0 168.0, 754.5 168.0 Q 754.1 168.0, 753.8 168.4 Q 753.5 168.8, 753.5 169.7 Q 753.5 170.6, 753.8 171.0 Q 754.1 171.4, 754.5 171.4 " fill="#000000"/>
<path class="note" d="M 640.5 194.7 L 641.5 194.7 L 641.5 191.4 L 640.4 191.7 L 640.3 191.4 L 641.6 190.8 L 642.1 190.8 L 642.1 194.7 L 642.9 194.7 L 642.9 195.2 L 640.5 195.2 L 640.5 194.7 " fill="#000000"/>
<path class="note" d="M 643.7 194.7 L 644.7 194.7 L 644.7 191.4 L 643.6 191.7 L 643.5 191.4 L 644.8 190.8 L 645.2 190.8 L 645.2 194.7 L 646.1 194.7 L 646.1 195.2 L 643.7 195.2 L 643.7 194.7 " fill="#000000"/>
<path class="note" d="M 809.2 184.8 L 810.1 184.8 L 810.1 181.5 L 809.1 181.9 L 808.9 181.5 L 810.3 180.9 L 810.7 181.0 L 810.7 184.8 L 811.6 184.8 L 811.6 185.3 L 809.2 185.3 L 809.2 184.8 " fill="#000000"/>
<path class="note" d="M 812.1 181.8 Q 812.3 181.3, 812.7 181.1 Q 813.1 180.9, 813.6 180.9 Q 814.3 180.9, 814.6 181.2 Q 815.0 181.6, 815.0 182.2 Q 815.0 182.9, 814.5 183.5 Q 814.1 184.1, 813.1 184.8 L 815.1 184.8 L 815.1 185.3 L 812.1 185.3 L 812.1 184.9 Q 813.0 184.3, 813.4 183.9 Q 813.9 183.4, 814.2 183.1 Q 814.4 182.7, 814.4 182.3 Q 814.4 181.8, 814.2 181.6 Q 814.0 181.4, 813.6 181.4 Q 813.3 181.4, 813.0 181.5 Q 812.8 181.7, 812.6 182.0 L 812.1 181.8 " fill="#000000"/>
<path class="note" d="M 823.8 126.6 L 824.7 126.6 L 824.7 123.3 L 823.7 123.6 L 823.5 123.3 L 824.9 122.7 L 825.3 122.7 L 825.3 126.6 L 826.2 126.6 L 826.2 127.1 L 823.8 127.1 L 823.8 126.6 " fill="#000000"/>
<path class="note" d="M 828.8 124.8 Q 829.2 124.9, 829.5 125.2 Q 829.7 125.5, 829.7 125.9 Q 829.7 126.3, 829.5 126.6 Q 829.3 126.8, 829.0 127.0 Q 828.6 127.2, 828.2 127.2 Q 827.7 127.2, 827.3 127.0 Q 827.0 126.8, 826.7 126.5 L 827.1 126.1 Q 827.3 126.4, 827.6 126.5 Q 827.8 126.7, 828.2 126.7 Q 828.6 126.7, 828.8 126.4 Q 829.0 126.2, 829.0 125.9 Q 829.0 125.4, 828.8 125.2 Q 828.5 125.0, 828.0 125.0 L 827.7 125.0 L 827.7 124.6 L 828.0 124.6 Q 828.4 124.6, 828.7 124.4 Q 829.0 124.2, 829.0 123.8 Q 829.0 123.5, 828.7 123.3 Q 828.5 123.1, 828.2 123.1 Q 827.8 123.1, 827.6 123.3 Q 827.4 123.4, 827.2 123.7 L 826.7 123.5 Q 826.9 123.1, 827.3 122.9 Q 827.6 122.6, 828.2 122.6 Q 828.8 122.6, 829.2 123.0 Q 829.6 123.3, 829.6 123.8 Q 829.6 124.1, 829.4 124.4 Q 829.2 124.6, 828.8 124.8 " fill="#000000"/>
<path class="note" d="M 768.6 139.2 L 769.6 139.2 L 769.6 135.9 L 768.5 136.2 L 768.4 135.8 L 769.7 135.2 L 770.2 135.3 L 770.2 139.2 L 771.0 139.2 L 771.0 139.7 L 768.6 139.7 L 768.6 139.2 " fill="#000000"/>
<path class="note" d="M 774.4 138.1 L 775.0 138.1 L 775.0 138.6 L 774.4 138.6 L 774.4 139.7 L 773.8 139.7 L 773.8 138.6 L 771.6 138.6 L 771.6 138.2 L 773.5 135.3 L 774.4 135.3 L 774.4 138.1 M 772.3 138.1 L 773.8 138.1 L 773.8 135.7 L 772.3 138.1 " fill="#000000"/>
<path class="note" d="M 700.2 62.0 L 701.2 62.0 L 701.2 58.7 L 700.1 59.0 L 700.0 58.7 L 701.3 58.1 L 701.8 58.1 L 701.8 62.0 L 702.6 62.0 L 702.6 62.5 L 700.2 62.5 L 700.2 62.0 " fill="#000000"/>
<path class="note" d="M 704.7 59.7 Q 705.1 59.7, 705.5 59.9 Q 705.8 60.1, 705.9 60.4 Q 706.1 60.7, 706.1 61.1 Q 706.1 61.5, 705.9 61.9 Q 705.7 62.2, 705.3 62.4 Q 705.0 62.5, 704.6 62.5 Q 704.2 62.5, 703.8 62.4 Q 703.4 62.2, 703.2 61.9 L 703.5 61.6 Q 703.7 61.8, 704.0 61.9 Q 704.3 62.0, 704.6 62.0 Q 705.0 62.0, 705.2 61.8 Q 705.5 61.5, 705.5 61.1 Q 705.5 60.6, 705.2 60.4 Q 705.0 60.2, 704.5 60.2 Q 704.2 60.2, 703.7 60.4 L 703.4 60.2 L 703.6 58.1 L 705.9 58.1 L 705.8 58.6 L 704.1 58.6 L 704.0 59.9 Q 704.4 59.7, 704.7 59.7 " fill="#000000"/>
<path class="note" d="M 707.2 119.1 L 708.1 119.1 L 708.1 115.9 L 707.1 116.2 L 706.9 115.8 L 708.3 115.2 L 708.7 115.3 L 708.7 119.1 L 709.6 119.1 L 709.6 119.6 L 707.2 119.6 L 707.2 119.1 " fill="#000000"/>
<path class="note" d="M 711.9 116.9 Q 712.2 116.9, 712.5 117.1 Q 712.8 117.2, 713.0 117.5 Q 713.2 117.8, 713.2 118.2 Q 713.2 118.6, 713.0 119.0 Q 712.8 119.3, 712.5 119.5 Q 712.1 119.7, 711.7 119.7 Q 710.9 119.7, 710.5 119.2 Q 710.1 118.6, 710.1 117.6 Q 710.1 116.4, 710.6 115.8 Q 711.1 115.2, 712.0 115.2 Q 712.3 115.2, 712.5 115.3 Q 712.8 115.3, 713.0 115.4 L 712.8 115.9 Q 712.4 115.7, 712.1 115.7 Q 711.4 115.7, 711.1 116.1 Q 710.8 116.5, 710.8 117.3 Q 711.0 117.1, 711.3 117.0 Q 711.6 116.9, 711.9 116.9 M 711.7 119.2 Q 711.9 119.2, 712.1 119.0 Q 712.3 118.9, 712.4 118.7 Q 712.6 118.5, 712.6 118.2 Q 712.6 117.8, 712.3 117.6 Q 712.1 117.4, 711.7 117.4 Q 711.5 117.4, 711.2 117.5 Q 710.9 117.6, 710.8 117.8 Q 710.8 118.5, 711.0 118.8 Q 711.2 119.2, 711.7 119.2 " fill="#000000"/>
<path class="note" d="M 725.8 151.5 L 726.8 151.5 L 726.8 148.2 L 725.7 148.5 L 725.6 148.1 L 726.9 147.5 L 727.3 147.6 L 727.3 151.5 L 728.2 151.5 L 728.2 152.0 L 725.8 152.0 L 725.8 151.5 " fill="#000000"/>
<path class="note" d="M 731.1 148.1 L 728.8 148.1 L 728.8 147.6 L 731.7 147.6 L 731.7 148.0 L 729.9 152.0 L 729.3 152.0 L 731.1 148.1 " fill="#000000"/>
<path class="note" d="M 707.0 183.7 L 707.9 183.7 L 707.9 180.4 L 706.9 180.7 L 706.7 180.4 L 708.1 179.8 L 708.5 179.9 L 708.5 183.7 L 709.4 183.7 L 709.4 184.2 L 707.0 184.2 L 707.0 183.7 " fill="#000000"/>
<path class="note" d="M 712.2 181.9 Q 712.6 182.0, 712.8 182.3 Q 713.0 182.6, 713.0 183.0 Q 713.0 183.4, 712.8 183.7 Q 712.7 183.9, 712.3 184.1 Q 712.0 184.3, 711.5 184.3 Q 710.8 184.3, 710.4 183.9 Q 709.9 183.6, 709.9 183.0 Q 709.9 182.6, 710.1 182.4 Q 710.3 182.1, 710.7 181.9 Q 710.4 181.7, 710.3 181.5 Q 710.1 181.3, 710.1 180.9 Q 710.1 180.4, 710.5 180.1 Q 710.8 179.8, 711.5 179.8 Q 712.1 179.8, 712.5 180.1 Q 712.9 180.4, 712.9 180.9 Q 712.9 181.2, 712.7 181.4 Q 712.5 181.7, 712.2 181.9 M 711.5 180.2 Q 711.1 180.2, 710.9 180.4 Q 710.7 180.6, 710.7 180.9 Q 710.7 181.1, 710.9 181.3 Q 711.0 181.4, 711.2 181.5 Q 711.4 181.6, 711.8 181.7 Q 712.0 181.5, 712.1 181.3 Q 712.3 181.1, 712.3 180.9 Q 712.3 180.6, 712.1 180.4 Q 711.9 180.2, 711.5 180.2 M 711.5 183.8 Q 711.9 183.8, 712.2 183.6 Q 712.4 183.4, 712.4 183.0 Q 712.4 182.8, 712.3 182.6 Q 712.2 182.5, 712.0 182.4 Q 711.8 182.3, 711.4 182.2 L 711.1 182.1 Q 710.8 182.3, 710.7 182.5 Q 710.6 182.7, 710.6 183.0 Q 710.6 183.4, 710.8 183.6 Q 711.1 183.8, 711.5 183.8 " fill="#000000"/>
<path class="note" d="M 664.1 163.7 L 665.0 163.7 L 665.0 160.4 L 664.0 160.8 L 663.8 160.4 L 665.2 159.8 L 665.6 159.9 L 665.6 163.7 L 666.5 163.7 L 666.5 164.2 L 664.1 164.2 L 664.1 163.7 " fill="#000000"/>
<path class="note" d="M 668.5 159.8 Q 669.3 159.8, 669.7 160.3 Q 670.0 160.8, 670.0 161.9 Q 670.0 163.1, 669.6 163.7 Q 669.1 164.3, 668.1 164.3 Q 667.9 164.3, 667.6 164.2 Q 667.4 164.1, 667.2 164.0 L 667.4 163.6 Q 667.7 163.8, 668.1 163.8 Q 668.8 163.8, 669.1 163.4 Q 669.4 163.0, 669.4 162.1 Q 669.2 162.3, 668.9 162.5 Q 668.6 162.6, 668.3 162.6 Q 667.9 162.6, 667.6 162.4 Q 667.3 162.2, 667.2 161.9 Q 667.0 161.6, 667.0 161.2 Q 667.0 160.8, 667.2 160.5 Q 667.4 160.1, 667.7 160.0 Q 668.1 159.8, 668.5 159.8 M 667.6 161.2 Q 667.6 161.6, 667.8 161.8 Q 668.1 162.1, 668.4 162.1 Q 668.7 162.1, 669.0 162.0 Q 669.2 161.9, 669.4 161.7 Q 669.4 160.9, 669.2 160.6 Q 668.9 160.3, 668.5 160.3 Q 668.2 160.3, 668.0 160.4 Q 667.8 160.5, 667.7 160.7 Q 667.6 161.0, 667.6 161.2 " fill="#000000"/>
<path class="note" d="M 809.8 151.1 Q 809.9 150.7, 810.3 150.5 Q 810.7 150.2, 811.3 150.2 Q 811.9 150.2, 812.3 150.6 Q 812.7 151.0, 812.7 151.6 Q 812.7 152.2, 812.2 152.9 Q 811.7 153.5, 810.7 154.2 L 812.7 154.2 L 812.7 154.7 L 809.8 154.7 L 809.8 154.3 Q 810.6 153.7, 811.1 153.2 Q 811.6 152.8, 811.8 152.4 Q 812.0 152.0, 812.0 151.6 Q 812.0 151.2, 811.8 151.0 Q 811.6 150.7, 811.3 150.7 Q 810.9 150.7, 810.7 150.9 Q 810.4 151.0, 810.3 151.3 L 809.8 151.1 " fill="#000000"/>
<path class="note" d="M 815.0 154.7 Q 814.2 154.7, 813.8 154.1 Q 813.4 153.5, 813.4 152.5 Q 813.4 151.4, 813.8 150.8 Q 814.2 150.2, 815.0 150.2 Q 815.8 150.2, 816.2 150.8 Q 816.6 151.4, 816.6 152.5 Q 816.6 153.5, 816.2 154.1 Q 815.8 154.7, 815.0 154.7 M 815.0 154.2 Q 815.5 154.2, 815.8 153.8 Q 816.0 153.3, 816.0 152.5 Q 816.0 151.6, 815.8 151.2 Q 815.5 150.7, 815.0 150.7 Q 814.5 150.7, 814.3 151.2 Q 814.0 151.6, 814.0 152.5 Q 814.0 153.3, 814.3 153.8 Q 814.5 154.2, 815.0 154.2 " fill="#000000"/>
<path class="legend" d="M 713.2 274.0 L 713.2 272.9 L 714.8 272.9 L 715.0 270.5 L 716.2 270.5 L 716.2 272.9 L 718.7 272.9 L 718.7 274.0 L 716.2 274.0 L 716.2 278.6 Q 716.2 280.0, 717.4 280.0 Q 717.8 280.0, 718.5 279.8 L 718.8 280.8 Q 717.9 281.2, 717.1 281.2 Q 716.0 281.2, 715.3 280.5 Q 714.7 279.9, 714.7 278.6 L 714.7 274.0 L 713.2 274.0 " fill="#000000"/>
<path class="legend" d="M 720.9 272.9 L 721.1 274.0 Q 721.9 272.7, 723.3 272.7 Q 723.8 272.7, 724.4 272.9 L 724.2 274.2 Q 723.5 274.1, 723.1 274.1 Q 722.4 274.1, 722.0 274.3 Q 721.5 274.6, 721.2 275.2 L 721.2 281.1 L 719.7 281.1 L 719.7 272.9 L 720.9 272.9 " fill="#000000"/>
<path class="legend" d="M 725.1 269.8 L 726.6 269.8 L 726.6 271.1 L 725.1 271.1 L 725.1 269.8 M 725.1 272.9 L 726.6 272.9 L 726.6 281.1 L 725.1 281.1 L 725.1 272.9 " fill="#000000"/>
<path class="legend" d="M 732.3 272.7 Q 734.0 272.7, 734.9 273.8 Q 735.9 274.8, 735.9 276.8 Q 735.9 278.9, 734.8 280.1 Q 733.6 281.2, 731.7 281.2 Q 730.7 281.2, 730.0 281.0 L 730.0 285.0 L 728.5 285.0 L 728.5 272.9 L 729.7 272.9 L 729.9 273.8 Q 730.3 273.3, 730.9 273.0 Q 731.5 272.7, 732.3 272.7 M 731.7 280.0 Q 732.9 280.0, 733.6 279.2 Q 734.4 278.3, 734.4 276.8 Q 734.4 275.4, 733.8 274.7 Q 733.2 273.9, 732.2 273.9 Q 731.4 273.9, 730.8 274.3 Q 730.2 274.8, 730.0 275.5 L 730.0 279.8 Q 730.8 280.0, 731.7 280.0 " fill="#000000"/>
<path class="legend" d="M 738.3 272.9 L 738.5 274.0 Q 739.4 272.7, 740.8 272.7 Q 741.2 272.7, 741.8 272.9 L 741.6 274.2 Q 740.9 274.1, 740.5 274.1 Q 739.8 274.1, 739.4 274.3 Q 739.0 274.6, 738.6 275.2 L 738.6 281.1 L 737.1 281.1 L 737.1 272.9 L 738.3 272.9 " fill="#000000"/>
<path class="legend" d="M 742.5 277.0 Q 742.5 275.0, 743.6 273.8 Q 744.6 272.7, 746.4 272.7 Q 748.3 272.7, 749.3 273.8 Q 750.4 275.0, 750.4 277.0 Q 750.4 279.0, 749.3 280.1 Q 748.3 281.2, 746.4 281.2 Q 744.6 281.2, 743.6 280.1 Q 742.5 279.0, 742.5 277.0 M 744.1 277.0 Q 744.1 278.5, 744.7 279.2 Q 745.3 280.0, 746.4 280.0 Q 747.6 280.0, 748.2 279.2 Q 748.8 278.5, 748.8 277.0 Q 748.8 275.4, 748.2 274.7 Q 747.6 273.9, 746.4 273.9 Q 745.3 273.9, 744.7 274.7 Q 744.1 275.4, 744.1 277.0 " fill="#000000"/>
<path class="legend" d="M 751.6 268.9 L 753.0 268.9 L 753.0 281.1 L 751.6 281.1 L 751.6 268.9 " fill="#000000"/>
<path class="legend" d="M 754.9 269.8 L 756.4 269.8 L 756.4 271.1 L 754.9 271.1 L 754.9 269.8 M 754.9 272.9 L 756.4 272.9 L 756.4 281.1 L 754.9 281.1 L 754.9 272.9 " fill="#000000"/>
<path class="legend" d="M 765.7 268.9 L 765.7 281.1 L 764.5 281.1 L 764.3 280.1 Q 763.4 281.2, 761.8 281.2 Q 760.1 281.2, 759.2 280.2 Q 758.2 279.1, 758.2 277.1 Q 758.2 275.0, 759.4 273.9 Q 760.5 272.7, 762.5 272.7 Q 763.3 272.7, 764.2 272.9 L 764.2 268.9 L 765.7 268.9 M 761.9 280.0 Q 762.8 280.0, 763.4 279.6 Q 764.0 279.1, 764.2 278.3 L 764.2 274.1 Q 763.4 273.9, 762.5 273.9 Q 761.2 273.9, 760.5 274.7 Q 759.8 275.6, 759.8 277.1 Q 759.8 278.5, 760.3 279.3 Q 760.9 280.0, 761.9 280.0 " fill="#000000"/>
<path class="legend" d="M 767.5 269.8 L 768.9 269.8 L 768.9 271.1 L 767.5 271.1 L 767.5 269.8 M 767.5 272.9 L 768.9 272.9 L 768.9 281.1 L 767.5 281.1 L 767.5 272.9 " fill="#000000"/>
<path class="legend" d="M 775.1 272.7 Q 776.4 272.7, 777.1 273.5 Q 777.8 274.2, 777.8 275.6 L 777.8 281.1 L 776.3 281.1 L 776.3 275.8 Q 776.3 274.8, 775.9 274.3 Q 775.5 273.9, 774.7 273.9 Q 773.9 273.9, 773.3 274.2 Q 772.7 274.6, 772.3 275.2 L 772.3 281.1 L 770.8 281.1 L 770.8 272.9 L 772.0 272.9 L 772.2 274.0 Q 773.3 272.7, 775.1 272.7 " fill="#000000"/>
<path class="legend" d="M 779.5 277.0 Q 779.5 274.9, 780.5 273.8 Q 781.5 272.7, 783.4 272.7 Q 785.2 272.7, 786.0 273.8 Q 786.8 274.9, 786.8 276.9 L 786.8 277.2 L 781.0 277.2 Q 781.1 278.6, 781.7 279.3 Q 782.3 280.0, 783.5 280.0 Q 784.1 280.0, 784.7 279.9 Q 785.3 279.7, 786.0 279.4 L 786.5 280.4 Q 785.6 280.8, 784.9 281.0 Q 784.2 281.2, 783.4 281.2 Q 781.5 281.2, 780.5 280.1 Q 779.5 279.0, 779.5 277.0 M 783.4 273.9 Q 782.4 273.9, 781.8 274.4 Q 781.3 275.0, 781.1 276.0 L 785.2 276.0 Q 785.1 274.9, 784.6 274.4 Q 784.2 273.9, 783.4 273.9 " fill="#000000"/>
</svg>