<svg xmlns="http://www.w3.org/2000/svg" xmlns:rdkit="http://www.rdkit.org/xml" xmlns:xlink="http://www.w3.org/1999/xlink" version="1.1" baseProfile="full" xml:space="preserve" width="1000px" height="200px" viewBox="0 0 1000 200">
<!-- END OF HEADER -->
<rect style="opacity:1.0;fill:#FFFFFF;stroke:none" width="200.0" height="200.0" x="0.0" y="0.0"> </rect>
<path class="bond-0 atom-0 atom-1" d="M 155.9,34.3 L 125.6,86.8" style="fill:none;fill-rule:evenodd;stroke:#000000;stroke-width:2.0px;stroke-linecap:butt;stroke-linejoin:miter;stroke-opacity:1"/>
<path class="bond-1 atom-1 atom-2" d="M 125.6,86.8 L 137.7,107.7" style="fill:none;fill-rule:evenodd;stroke:#000000;stroke-width:2.0px;stroke-linecap:butt;stroke-linejoin:miter;stroke-opacity:1"/>
<path class="bond-1 atom-1 atom-2" d="M 137.7,107.7 L 149.8,128.6" style="fill:none;fill-rule:evenodd;stroke:#0000FF;stroke-width:2.0px;stroke-linecap:butt;stroke-linejoin:miter;stroke-opacity:1"/>
<path class="bond-2 atom-1 atom-3" d="M 125.6,86.8 L 65.1,86.8" style="fill:none;fill-rule:evenodd;stroke:#000000;stroke-width:2.0px;stroke-linecap:butt;stroke-linejoin:miter;stroke-opacity:1"/>
<path class="bond-3 atom-3 atom-4" d="M 70.3,86.8 L 57.7,64.9" style="fill:none;fill-rule:evenodd;stroke:#000000;stroke-width:2.0px;stroke-linecap:butt;stroke-linejoin:miter;stroke-opacity:1"/>
<path class="bond-3 atom-3 atom-4" d="M 57.7,64.9 L 45.0,43.0" style="fill:none;fill-rule:evenodd;stroke:#FF0000;stroke-width:2.0px;stroke-linecap:butt;stroke-linejoin:miter;stroke-opacity:1"/>
<path class="bond-3 atom-3 atom-4" d="M 62.4,91.3 L 49.8,69.4" style="fill:none;fill-rule:evenodd;stroke:#000000;stroke-width:2.0px;stroke-linecap:butt;stroke-linejoin:miter;stroke-opacity:1"/>
<path class="bond-3 atom-3 atom-4" d="M 49.8,69.4 L 37.2,47.5" style="fill:none;fill-rule:evenodd;stroke:#FF0000;stroke-width:2.0px;stroke-linecap:butt;stroke-linejoin:miter;stroke-opacity:1"/>
<path class="bond-4 atom-3 atom-5" d="M 65.1,86.8 L 53.0,107.6" style="fill:none;fill-rule:evenodd;stroke:#000000;stroke-width:2.0px;stroke-linecap:butt;stroke-linejoin:miter;stroke-opacity:1"/>
<path class="bond-4 atom-3 atom-5" d="M 53.0,107.6 L 41.0,128.5" style="fill:none;fill-rule:evenodd;stroke:#FF0000;stroke-width:2.0px;stroke-linecap:butt;stroke-linejoin:miter;stroke-opacity:1"/>
<path d="M 68.1,86.8 L 65.1,86.8 L 64.5,87.8" style="fill:none;stroke:#000000;stroke-width:2.0px;stroke-linecap:butt;stroke-linejoin:miter;stroke-miterlimit:10;stroke-opacity:1;"/>
<path class="atom-2" d="M 152.1 130.6 L 157.7 139.7 Q 158.2 140.6, 159.1 142.2 Q 160.0 143.8, 160.1 143.9 L 160.1 130.6 L 162.4 130.6 L 162.4 147.8 L 160.0 147.8 L 154.0 137.8 Q 153.3 136.7, 152.5 135.3 Q 151.8 134.0, 151.6 133.6 L 151.6 147.8 L 149.4 147.8 L 149.4 130.6 L 152.1 130.6 " fill="#0000FF"/>
<path class="atom-2" d="M 165.6 130.6 L 168.0 130.6 L 168.0 137.9 L 176.7 137.9 L 176.7 130.6 L 179.1 130.6 L 179.1 147.8 L 176.7 147.8 L 176.7 139.8 L 168.0 139.8 L 168.0 147.8 L 165.6 147.8 L 165.6 130.6 " fill="#0000FF"/>
<path class="atom-2" d="M 182.4 147.2 Q 182.8 146.1, 183.8 145.5 Q 184.8 144.9, 186.2 144.9 Q 187.9 144.9, 188.8 145.8 Q 189.8 146.7, 189.8 148.4 Q 189.8 150.1, 188.6 151.6 Q 187.3 153.2, 184.8 155.0 L 190.0 155.0 L 190.0 156.3 L 182.4 156.3 L 182.4 155.3 Q 184.5 153.8, 185.7 152.6 Q 187.0 151.5, 187.6 150.5 Q 188.2 149.5, 188.2 148.5 Q 188.2 147.4, 187.7 146.8 Q 187.1 146.2, 186.2 146.2 Q 185.3 146.2, 184.7 146.5 Q 184.1 146.9, 183.6 147.7 L 182.4 147.2 " fill="#0000FF"/>
<path class="atom-4" d="M 26.9 34.4 Q 26.9 30.3, 29.0 28.0 Q 31.0 25.7, 34.8 25.7 Q 38.6 25.7, 40.6 28.0 Q 42.7 30.3, 42.7 34.4 Q 42.7 38.6, 40.6 40.9 Q 38.6 43.3, 34.8 43.3 Q 31.0 43.3, 29.0 40.9 Q 26.9 38.6, 26.9 34.4 M 34.8 41.3 Q 37.4 41.3, 38.8 39.6 Q 40.2 37.8, 40.2 34.4 Q 40.2 31.0, 38.8 29.3 Q 37.4 27.6, 34.8 27.6 Q 32.2 27.6, 30.8 29.3 Q 29.4 31.0, 29.4 34.4 Q 29.4 37.9, 30.8 39.6 Q 32.2 41.3, 34.8 41.3 " fill="#FF0000"/>
<path class="atom-5" d="M 10.0 130.7 L 12.3 130.7 L 12.3 138.0 L 21.1 138.0 L 21.1 130.7 L 23.4 130.7 L 23.4 147.9 L 21.1 147.9 L 21.1 139.9 L 12.3 139.9 L 12.3 147.9 L 10.0 147.9 L 10.0 130.7 " fill="#FF0000"/>
<path class="atom-5" d="M 26.9 139.2 Q 26.9 135.1, 29.0 132.8 Q 31.0 130.5, 34.8 130.5 Q 38.6 130.5, 40.6 132.8 Q 42.7 135.1, 42.7 139.2 Q 42.7 143.4, 40.6 145.8 Q 38.6 148.1, 34.8 148.1 Q 31.0 148.1, 29.0 145.8 Q 26.9 143.4, 26.9 139.2 M 34.8 146.2 Q 37.4 146.2, 38.8 144.4 Q 40.2 142.7, 40.2 139.2 Q 40.2 135.9, 38.8 134.2 Q 37.4 132.5, 34.8 132.5 Q 32.2 132.5, 30.8 134.1 Q 29.4 135.8, 29.4 139.2 Q 29.4 142.7, 30.8 144.4 Q 32.2 146.2, 34.8 146.2 " fill="#FF0000"/>
<path class="legend" d="M 54.0 180.8 Q 54.0 178.0, 55.4 176.5 Q 56.7 175.0, 59.2 175.0 Q 61.5 175.0, 62.8 176.6 L 61.7 177.5 Q 60.8 176.3, 59.2 176.3 Q 57.5 176.3, 56.6 177.5 Q 55.7 178.6, 55.7 180.8 Q 55.7 183.0, 56.6 184.2 Q 57.5 185.3, 59.4 185.3 Q 60.6 185.3, 62.1 184.6 L 62.5 185.8 Q 61.9 186.1, 61.0 186.4 Q 60.1 186.6, 59.1 186.6 Q 56.7 186.6, 55.4 185.1 Q 54.0 183.6, 54.0 180.8 " fill="#000000"/>
<path class="legend" d="M 64.1 180.8 Q 64.1 178.0, 65.4 176.5 Q 66.8 175.0, 69.3 175.0 Q 71.6 175.0, 72.9 176.6 L 71.8 177.5 Q 70.9 176.3, 69.3 176.3 Q 67.6 176.3, 66.6 177.5 Q 65.8 178.6, 65.8 180.8 Q 65.8 183.0, 66.7 184.2 Q 67.6 185.3, 69.4 185.3 Q 70.7 185.3, 72.2 184.6 L 72.6 185.8 Q 72.0 186.1, 71.1 186.4 Q 70.2 186.6, 69.2 186.6 Q 66.8 186.6, 65.4 185.1 Q 64.1 183.6, 64.1 180.8 " fill="#000000"/>
<path class="legend" d="M 74.2 181.9 Q 74.2 179.6, 74.9 177.7 Q 75.5 175.8, 76.8 173.8 L 77.7 174.4 Q 76.7 176.3, 76.1 178.0 Q 75.6 179.7, 75.6 181.9 Q 75.6 184.0, 76.1 185.8 Q 76.7 187.5, 77.7 189.4 L 76.8 190.0 Q 75.5 188.0, 74.9 186.1 Q 74.2 184.2, 74.2 181.9 " fill="#000000"/>
<path class="legend" d="M 80.6 175.1 L 84.3 181.1 Q 84.7 181.7, 85.3 182.8 Q 85.9 183.9, 85.9 183.9 L 85.9 175.1 L 87.4 175.1 L 87.4 186.4 L 85.9 186.4 L 81.9 179.9 Q 81.4 179.1, 80.9 178.2 Q 80.4 177.4, 80.3 177.1 L 80.3 186.4 L 78.8 186.4 L 78.8 175.1 L 80.6 175.1 " fill="#000000"/>
<path class="legend" d="M 93.0 181.9 Q 93.0 184.2, 92.3 186.1 Q 91.6 188.0, 90.3 190.0 L 89.4 189.4 Q 90.5 187.5, 91.0 185.8 Q 91.5 184.0, 91.5 181.9 Q 91.5 179.7, 91.0 178.0 Q 90.5 176.3, 89.4 174.4 L 90.3 173.8 Q 91.6 175.8, 92.3 177.7 Q 93.0 179.6, 93.0 181.9 " fill="#000000"/>
<path class="legend" d="M 94.5 180.8 Q 94.5 178.0, 95.8 176.5 Q 97.1 175.0, 99.6 175.0 Q 101.9 175.0, 103.2 176.6 L 102.1 177.5 Q 101.2 176.3, 99.6 176.3 Q 97.9 176.3, 97.0 177.5 Q 96.1 178.6, 96.1 180.8 Q 96.1 183.0, 97.0 184.2 Q 98.0 185.3, 99.8 185.3 Q 101.0 185.3, 102.5 184.6 L 102.9 185.8 Q 102.3 186.1, 101.4 186.4 Q 100.6 186.6, 99.6 186.6 Q 97.1 186.6, 95.8 185.1 Q 94.5 183.6, 94.5 180.8 " fill="#000000"/>
<path class="legend" d="M 104.5 181.9 Q 104.5 179.6, 105.2 177.7 Q 105.9 175.8, 107.2 173.8 L 108.1 174.4 Q 107.0 176.3, 106.5 178.0 Q 106.0 179.7, 106.0 181.9 Q 106.0 184.0, 106.5 185.8 Q 107.0 187.5, 108.1 189.4 L 107.2 190.0 Q 105.9 188.0, 105.2 186.1 Q 104.5 184.2, 104.5 181.9 " fill="#000000"/>
<path class="legend" d="M 109.2 179.5 L 116.5 179.5 L 116.5 180.6 L 109.2 180.6 L 109.2 179.5 M 109.2 182.9 L 116.5 182.9 L 116.5 184.1 L 109.2 184.1 L 109.2 182.9 " fill="#000000"/>
<path class="legend" d="M 118.6 180.8 Q 118.6 178.0, 120.0 176.5 Q 121.3 175.0, 123.8 175.0 Q 126.3 175.0, 127.7 176.5 Q 129.0 178.0, 129.0 180.8 Q 129.0 183.5, 127.7 185.1 Q 126.3 186.6, 123.8 186.6 Q 121.3 186.6, 120.0 185.1 Q 118.6 183.5, 118.6 180.8 M 123.8 185.3 Q 125.6 185.3, 126.5 184.2 Q 127.4 183.0, 127.4 180.8 Q 127.4 178.5, 126.5 177.4 Q 125.6 176.3, 123.8 176.3 Q 122.1 176.3, 121.2 177.4 Q 120.2 178.5, 120.2 180.8 Q 120.2 183.0, 121.2 184.2 Q 122.1 185.3, 123.8 185.3 " fill="#000000"/>
<path class="legend" d="M 134.1 181.9 Q 134.1 184.2, 133.4 186.1 Q 132.7 188.0, 131.4 190.0 L 130.5 189.4 Q 131.6 187.5, 132.1 185.8 Q 132.6 184.0, 132.6 181.9 Q 132.6 179.7, 132.1 178.0 Q 131.6 176.3, 130.5 174.4 L 131.4 173.8 Q 132.7 175.8, 133.4 177.7 Q 134.1 179.6, 134.1 181.9 " fill="#000000"/>
<path class="legend" d="M 135.6 180.8 Q 135.6 178.0, 136.9 176.5 Q 138.2 175.0, 140.8 175.0 Q 143.3 175.0, 144.6 176.5 Q 146.0 178.0, 146.0 180.8 Q 146.0 183.5, 144.6 185.1 Q 143.2 186.6, 140.8 186.6 Q 138.3 186.6, 136.9 185.1 Q 135.6 183.5, 135.6 180.8 M 140.8 185.3 Q 142.5 185.3, 143.4 184.2 Q 144.4 183.0, 144.4 180.8 Q 144.4 178.5, 143.4 177.4 Q 142.5 176.3, 140.8 176.3 Q 139.0 176.3, 138.1 177.4 Q 137.2 178.5, 137.2 180.8 Q 137.2 183.0, 138.1 184.2 Q 139.0 185.3, 140.8 185.3 " fill="#000000"/>
<path class="bond-0 atom-0 atom-1" d="M 252.7,86.7 L 278.7,86.7" style="fill:none;fill-rule:evenodd;stroke:#000000;stroke-width:2.0px;stroke-linecap:butt;stroke-linejoin:miter;stroke-opacity:1"/>
<path class="bond-0 atom-0 atom-1" d="M 278.7,86.7 L 304.7,86.7" style="fill:none;fill-rule:evenodd;stroke:#0000FF;stroke-width:2.0px;stroke-linecap:butt;stroke-linejoin:miter;stroke-opacity:1"/>
<path class="atom-1" d="M 309.4 78.1 L 315.0 87.2 Q 315.6 88.1, 316.5 89.7 Q 317.4 91.4, 317.4 91.5 L 317.4 78.1 L 319.7 78.1 L 319.7 95.3 L 317.4 95.3 L 311.3 85.4 Q 310.6 84.2, 309.9 82.9 Q 309.1 81.5, 308.9 81.1 L 308.9 95.3 L 306.7 95.3 L 306.7 78.1 L 309.4 78.1 " fill="#0000FF"/>
<path class="atom-1" d="M 323.0 78.1 L 325.3 78.1 L 325.3 85.4 L 334.1 85.4 L 334.1 78.1 L 336.4 78.1 L 336.4 95.3 L 334.1 95.3 L 334.1 87.4 L 325.3 87.4 L 325.3 95.3 L 323.0 95.3 L 323.0 78.1 " fill="#0000FF"/>
<path class="atom-1" d="M 339.7 94.7 Q 340.2 93.6, 341.1 93.0 Q 342.1 92.4, 343.5 92.4 Q 345.2 92.4, 346.2 93.3 Q 347.1 94.3, 347.1 95.9 Q 347.1 97.6, 345.9 99.2 Q 344.7 100.7, 342.1 102.6 L 347.3 102.6 L 347.3 103.9 L 339.7 103.9 L 339.7 102.8 Q 341.8 101.3, 343.1 100.2 Q 344.3 99.0, 344.9 98.0 Q 345.5 97.0, 345.5 96.0 Q 345.5 94.9, 345.0 94.3 Q 344.5 93.7, 343.5 93.7 Q 342.6 93.7, 342.0 94.1 Q 341.4 94.4, 341.0 95.2 L 339.7 94.7 " fill="#0000FF"/>
<path class="legend" d="M 290.6 184.2 Q 290.6 181.4, 291.9 179.9 Q 293.2 178.4, 295.7 178.4 Q 298.1 178.4, 299.3 180.0 L 298.3 180.9 Q 297.4 179.7, 295.7 179.7 Q 294.0 179.7, 293.1 180.9 Q 292.2 182.0, 292.2 184.2 Q 292.2 186.4, 293.1 187.6 Q 294.1 188.7, 295.9 188.7 Q 297.2 188.7, 298.6 188.0 L 299.1 189.2 Q 298.5 189.6, 297.6 189.8 Q 296.7 190.0, 295.7 190.0 Q 293.2 190.0, 291.9 188.5 Q 290.6 187.0, 290.6 184.2 " fill="#000000"/>
<path class="legend" d="M 302.6 178.5 L 306.3 184.5 Q 306.7 185.1, 307.3 186.2 Q 307.9 187.3, 307.9 187.3 L 307.9 178.5 L 309.4 178.5 L 309.4 189.9 L 307.9 189.9 L 303.9 183.3 Q 303.4 182.5, 302.9 181.6 Q 302.4 180.8, 302.3 180.5 L 302.3 189.9 L 300.8 189.9 L 300.8 178.5 L 302.6 178.5 " fill="#000000"/>
<path class="bond-0 atom-0 atom-1" d="M 572.2,91.0 L 541.9,143.4" style="fill:none;fill-rule:evenodd;stroke:#000000;stroke-width:2.0px;stroke-linecap:butt;stroke-linejoin:miter;stroke-opacity:1"/>
<path class="bond-1 atom-1 atom-2" d="M 541.9,143.4 L 481.4,143.4" style="fill:none;fill-rule:evenodd;stroke:#000000;stroke-width:2.0px;stroke-linecap:butt;stroke-linejoin:miter;stroke-opacity:1"/>
<path class="bond-2 atom-2 atom-3" d="M 481.4,143.4 L 469.3,122.5" style="fill:none;fill-rule:evenodd;stroke:#000000;stroke-width:2.0px;stroke-linecap:butt;stroke-linejoin:miter;stroke-opacity:1"/>
<path class="bond-2 atom-2 atom-3" d="M 469.3,122.5 L 457.2,101.6" style="fill:none;fill-rule:evenodd;stroke:#0000FF;stroke-width:2.0px;stroke-linecap:butt;stroke-linejoin:miter;stroke-opacity:1"/>
<path class="bond-3 atom-3 atom-4" d="M 457.2,80.4 L 469.3,59.5" style="fill:none;fill-rule:evenodd;stroke:#0000FF;stroke-width:2.0px;stroke-linecap:butt;stroke-linejoin:miter;stroke-opacity:1"/>
<path class="bond-3 atom-3 atom-4" d="M 469.3,59.5 L 481.4,38.6" style="fill:none;fill-rule:evenodd;stroke:#000000;stroke-width:2.0px;stroke-linecap:butt;stroke-linejoin:miter;stroke-opacity:1"/>
<path class="bond-4 atom-4 atom-5" d="M 481.4,38.6 L 541.9,38.6" style="fill:none;fill-rule:evenodd;stroke:#000000;stroke-width:2.0px;stroke-linecap:butt;stroke-linejoin:miter;stroke-opacity:1"/>
<path class="bond-5 atom-5 atom-0" d="M 541.9,38.6 L 572.2,91.0" style="fill:none;fill-rule:evenodd;stroke:#000000;stroke-width:2.0px;stroke-linecap:butt;stroke-linejoin:miter;stroke-opacity:1"/>
<path d="M 570.7,93.6 L 572.2,91.0 L 570.7,88.4" style="fill:none;stroke:#000000;stroke-width:2.0px;stroke-linecap:butt;stroke-linejoin:miter;stroke-miterlimit:10;stroke-opacity:1;"/>
<path d="M 543.4,140.8 L 541.9,143.4 L 538.9,143.4" style="fill:none;stroke:#000000;stroke-width:2.0px;stroke-linecap:butt;stroke-linejoin:miter;stroke-miterlimit:10;stroke-opacity:1;"/>
<path d="M 484.4,143.4 L 481.4,143.4 L 480.8,142.4" style="fill:none;stroke:#000000;stroke-width:2.0px;stroke-linecap:butt;stroke-linejoin:miter;stroke-miterlimit:10;stroke-opacity:1;"/>
<path d="M 480.8,39.6 L 481.4,38.6 L 484.4,38.6" style="fill:none;stroke:#000000;stroke-width:2.0px;stroke-linecap:butt;stroke-linejoin:miter;stroke-miterlimit:10;stroke-opacity:1;"/>
<path d="M 538.9,38.6 L 541.9,38.6 L 543.4,41.2" style="fill:none;stroke:#000000;stroke-width:2.0px;stroke-linecap:butt;stroke-linejoin:miter;stroke-miterlimit:10;stroke-opacity:1;"/>
<path class="atom-3" d="M 427.8 82.4 L 430.1 82.4 L 430.1 89.7 L 438.9 89.7 L 438.9 82.4 L 441.2 82.4 L 441.2 99.6 L 438.9 99.6 L 438.9 91.7 L 430.1 91.7 L 430.1 99.6 L 427.8 99.6 L 427.8 82.4 " fill="#0000FF"/>
<path class="atom-3" d="M 447.3 82.4 L 452.9 91.5 Q 453.5 92.4, 454.4 94.0 Q 455.3 95.6, 455.3 95.7 L 455.3 82.4 L 457.6 82.4 L 457.6 99.6 L 455.3 99.6 L 449.2 89.6 Q 448.5 88.5, 447.8 87.2 Q 447.1 85.8, 446.8 85.4 L 446.8 99.6 L 444.6 99.6 L 444.6 82.4 L 447.3 82.4 " fill="#0000FF"/>
<path class="legend" d="M 461.5 184.2 Q 461.5 181.4, 462.9 179.9 Q 464.2 178.4, 466.7 178.4 Q 469.0 178.4, 470.3 180.0 L 469.2 180.9 Q 468.3 179.7, 466.7 179.7 Q 465.0 179.7, 464.1 180.9 Q 463.2 182.0, 463.2 184.2 Q 463.2 186.4, 464.1 187.6 Q 465.1 188.7, 466.9 188.7 Q 468.1 188.7, 469.6 188.0 L 470.0 189.2 Q 469.4 189.6, 468.5 189.8 Q 467.6 190.0, 466.7 190.0 Q 464.2 190.0, 462.9 188.5 Q 461.5 187.0, 461.5 184.2 " fill="#000000"/>
<path class="legend" d="M 472.4 188.6 L 474.9 188.6 L 474.9 180.1 L 472.1 181.0 L 471.7 180.0 L 475.2 178.5 L 476.4 178.7 L 476.4 188.6 L 478.6 188.6 L 478.6 189.9 L 472.4 189.9 L 472.4 188.6 " fill="#000000"/>
<path class="legend" d="M 480.1 184.2 Q 480.1 181.4, 481.4 179.9 Q 482.7 178.4, 485.2 178.4 Q 487.6 178.4, 488.8 180.0 L 487.8 180.9 Q 486.8 179.7, 485.2 179.7 Q 483.5 179.7, 482.6 180.9 Q 481.7 182.0, 481.7 184.2 Q 481.7 186.4, 482.6 187.6 Q 483.6 188.7, 485.4 188.7 Q 486.7 188.7, 488.1 188.0 L 488.6 189.2 Q 488.0 189.6, 487.1 189.8 Q 486.2 190.0, 485.2 190.0 Q 482.7 190.0, 481.4 188.5 Q 480.1 187.0, 480.1 184.2 " fill="#000000"/>
<path class="legend" d="M 490.3 184.2 Q 490.3 181.4, 491.6 179.9 Q 492.9 178.4, 495.4 178.4 Q 497.8 178.4, 499.0 180.0 L 498.0 180.9 Q 497.0 179.7, 495.4 179.7 Q 493.7 179.7, 492.8 180.9 Q 491.9 182.0, 491.9 184.2 Q 491.9 186.4, 492.8 187.6 Q 493.8 188.7, 495.6 188.7 Q 496.9 188.7, 498.3 188.0 L 498.8 189.2 Q 498.2 189.6, 497.3 189.8 Q 496.4 190.0, 495.4 190.0 Q 492.9 190.0, 491.6 188.5 Q 490.3 187.0, 490.3 184.2 " fill="#000000"/>
<path class="legend" d="M 502.3 178.5 L 506.0 184.5 Q 506.3 185.1, 506.9 186.2 Q 507.5 187.3, 507.6 187.3 L 507.6 178.5 L 509.1 178.5 L 509.1 189.9 L 507.5 189.9 L 503.5 183.3 Q 503.1 182.5, 502.6 181.6 Q 502.1 180.8, 501.9 180.5 L 501.9 189.9 L 500.5 189.9 L 500.5 178.5 L 502.3 178.5 " fill="#000000"/>
<path class="legend" d="M 511.2 184.2 Q 511.2 181.4, 512.5 179.9 Q 513.9 178.4, 516.4 178.4 Q 518.7 178.4, 520.0 180.0 L 518.9 180.9 Q 518.0 179.7, 516.4 179.7 Q 514.7 179.7, 513.7 180.9 Q 512.9 182.0, 512.9 184.2 Q 512.9 186.4, 513.8 187.6 Q 514.7 188.7, 516.5 188.7 Q 517.8 188.7, 519.3 188.0 L 519.7 189.2 Q 519.1 189.6, 518.2 189.8 Q 517.3 190.0, 516.3 190.0 Q 513.9 190.0, 512.5 188.5 Q 511.2 187.0, 511.2 184.2 " fill="#000000"/>
<path class="legend" d="M 521.4 184.2 Q 521.4 181.4, 522.7 179.9 Q 524.1 178.4, 526.6 178.4 Q 528.9 178.4, 530.2 180.0 L 529.1 180.9 Q 528.2 179.7, 526.6 179.7 Q 524.9 179.7, 523.9 180.9 Q 523.1 182.0, 523.1 184.2 Q 523.1 186.4, 524.0 187.6 Q 524.9 188.7, 526.7 188.7 Q 528.0 188.7, 529.5 188.0 L 529.9 189.2 Q 529.3 189.6, 528.4 189.8 Q 527.5 190.0, 526.5 190.0 Q 524.1 190.0, 522.7 188.5 Q 521.4 187.0, 521.4 184.2 " fill="#000000"/>
<path class="legend" d="M 532.2 188.6 L 534.7 188.6 L 534.7 180.1 L 532.0 181.0 L 531.6 180.0 L 535.1 178.5 L 536.2 178.7 L 536.2 188.6 L 538.5 188.6 L 538.5 189.9 L 532.2 189.9 L 532.2 188.6 " fill="#000000"/>
<path class="bond-0 atom-0 atom-1" d="M 636.2,91.0 L 696.7,91.0" style="fill:none;fill-rule:evenodd;stroke:#000000;stroke-width:2.0px;stroke-linecap:butt;stroke-linejoin:miter;stroke-opacity:1"/>
<path class="bond-1 atom-1 atom-2" d="M 696.7,91.0 L 722.8,91.0" style="fill:none;fill-rule:evenodd;stroke:#000000;stroke-width:2.0px;stroke-linecap:butt;stroke-linejoin:miter;stroke-opacity:1"/>
<path class="bond-1 atom-1 atom-2" d="M 722.8,91.0 L 748.8,91.0" style="fill:none;fill-rule:evenodd;stroke:#0000FF;stroke-width:2.0px;stroke-linecap:butt;stroke-linejoin:miter;stroke-opacity:1"/>
<path class="bond-1 atom-1 atom-2" d="M 696.7,81.9 L 722.8,81.9" style="fill:none;fill-rule:evenodd;stroke:#000000;stroke-width:2.0px;stroke-linecap:butt;stroke-linejoin:miter;stroke-opacity:1"/>
<path class="bond-1 atom-1 atom-2" d="M 722.8,81.9 L 748.8,81.9" style="fill:none;fill-rule:evenodd;stroke:#0000FF;stroke-width:2.0px;stroke-linecap:butt;stroke-linejoin:miter;stroke-opacity:1"/>
<path class="bond-1 atom-1 atom-2" d="M 696.7,100.1 L 722.8,100.1" style="fill:none;fill-rule:evenodd;stroke:#000000;stroke-width:2.0px;stroke-linecap:butt;stroke-linejoin:miter;stroke-opacity:1"/>
<path class="bond-1 atom-1 atom-2" d="M 722.8,100.1 L 748.8,100.1" style="fill:none;fill-rule:evenodd;stroke:#0000FF;stroke-width:2.0px;stroke-linecap:butt;stroke-linejoin:miter;stroke-opacity:1"/>
<path d="M 693.7,91.0 L 696.7,91.0 L 698.1,91.0" style="fill:none;stroke:#000000;stroke-width:2.0px;stroke-linecap:butt;stroke-linejoin:miter;stroke-miterlimit:10;stroke-opacity:1;"/>
<path class="atom-2" d="M 753.5 82.4 L 759.1 91.5 Q 759.7 92.4, 760.6 94.0 Q 761.5 95.6, 761.5 95.7 L 761.5 82.4 L 763.8 82.4 L 763.8 99.6 L 761.4 99.6 L 755.4 89.6 Q 754.7 88.5, 754.0 87.2 Q 753.2 85.8, 753.0 85.4 L 753.0 99.6 L 750.8 99.6 L 750.8 82.4 L 753.5 82.4 " fill="#0000FF"/>
<path class="legend" d="M 679.5 184.2 Q 679.5 181.4, 680.8 179.9 Q 682.1 178.4, 684.7 178.4 Q 687.0 178.4, 688.2 180.0 L 687.2 180.9 Q 686.3 179.7, 684.7 179.7 Q 682.9 179.7, 682.0 180.9 Q 681.1 182.0, 681.1 184.2 Q 681.1 186.4, 682.1 187.6 Q 683.0 188.7, 684.8 188.7 Q 686.1 188.7, 687.5 188.0 L 688.0 189.2 Q 687.4 189.6, 686.5 189.8 Q 685.6 190.0, 684.6 190.0 Q 682.1 190.0, 680.8 188.5 Q 679.5 187.0, 679.5 184.2 " fill="#000000"/>
<path class="legend" d="M 689.8 184.2 Q 689.8 181.4, 691.1 179.9 Q 692.4 178.4, 694.9 178.4 Q 697.3 178.4, 698.5 180.0 L 697.5 180.9 Q 696.6 179.7, 694.9 179.7 Q 693.2 179.7, 692.3 180.9 Q 691.4 182.0, 691.4 184.2 Q 691.4 186.4, 692.4 187.6 Q 693.3 188.7, 695.1 188.7 Q 696.4 188.7, 697.8 188.0 L 698.3 189.2 Q 697.7 189.6, 696.8 189.8 Q 695.9 190.0, 694.9 190.0 Q 692.4 190.0, 691.1 188.5 Q 689.8 187.0, 689.8 184.2 " fill="#000000"/>
<path class="legend" d="M 710.4 182.8 L 708.2 182.8 L 707.7 185.7 L 709.9 185.7 L 709.7 186.9 L 707.6 186.9 L 707.0 189.9 L 705.8 189.9 L 706.3 186.9 L 703.6 186.9 L 703.1 189.9 L 701.8 189.9 L 702.3 186.9 L 700.1 186.9 L 700.3 185.7 L 702.5 185.7 L 703.0 182.8 L 700.8 182.8 L 701.0 181.7 L 703.2 181.7 L 703.7 178.5 L 705.0 178.5 L 704.5 181.7 L 707.2 181.7 L 707.7 178.5 L 709.0 178.5 L 708.4 181.7 L 710.6 181.7 L 710.4 182.8 M 706.5 185.7 L 707.0 182.8 L 704.3 182.8 L 703.8 185.7 L 706.5 185.7 " fill="#000000"/>
<path class="legend" d="M 713.7 178.5 L 717.4 184.5 Q 717.8 185.1, 718.4 186.2 Q 719.0 187.3, 719.0 187.3 L 719.0 178.5 L 720.5 178.5 L 720.5 189.9 L 718.9 189.9 L 715.0 183.3 Q 714.5 182.5, 714.0 181.6 Q 713.5 180.8, 713.4 180.5 L 713.4 189.9 L 711.9 189.9 L 711.9 178.5 L 713.7 178.5 " fill="#000000"/>
</svg>