<svg xmlns="http://www.w3.org/2000/svg" xmlns:rdkit="http://www.rdkit.org/xml" xmlns:xlink="http://www.w3.org/1999/xlink" version="1.1" baseProfile="full" xml:space="preserve" width="1000px" height="400px" viewBox="0 0 1000 400">
<!-- END OF HEADER -->
<rect style="opacity:1.0;fill:#FFFFFF;stroke:none" width="200.0" height="200.0" x="0.0" y="0.0"> </rect>
<path class="bond-0 atom-0 atom-1" d="M 10.0,109.2 L 55.0,83.2" style="fill:none;fill-rule:evenodd;stroke:#000000;stroke-width:2.0px;stroke-linecap:butt;stroke-linejoin:miter;stroke-opacity:1"/>
<path class="bond-1 atom-1 atom-2" d="M 55.0,83.2 L 73.3,93.7" style="fill:none;fill-rule:evenodd;stroke:#000000;stroke-width:2.0px;stroke-linecap:butt;stroke-linejoin:miter;stroke-opacity:1"/>
<path class="bond-1 atom-1 atom-2" d="M 73.3,93.7 L 91.5,104.3" style="fill:none;fill-rule:evenodd;stroke:#FF0000;stroke-width:2.0px;stroke-linecap:butt;stroke-linejoin:miter;stroke-opacity:1"/>
<path class="bond-2 atom-2 atom-3" d="M 108.5,104.3 L 126.7,93.7" style="fill:none;fill-rule:evenodd;stroke:#FF0000;stroke-width:2.0px;stroke-linecap:butt;stroke-linejoin:miter;stroke-opacity:1"/>
<path class="bond-2 atom-2 atom-3" d="M 126.7,93.7 L 145.0,83.2" style="fill:none;fill-rule:evenodd;stroke:#000000;stroke-width:2.0px;stroke-linecap:butt;stroke-linejoin:miter;stroke-opacity:1"/>
<path class="bond-3 atom-3 atom-4" d="M 145.0,83.2 L 190.0,109.2" style="fill:none;fill-rule:evenodd;stroke:#000000;stroke-width:2.0px;stroke-linecap:butt;stroke-linejoin:miter;stroke-opacity:1"/>
<path d="M 52.8,84.5 L 55.0,83.2 L 55.9,83.7" style="fill:none;stroke:#000000;stroke-width:2.0px;stroke-linecap:butt;stroke-linejoin:miter;stroke-miterlimit:10;stroke-opacity:1;"/>
<path d="M 144.1,83.7 L 145.0,83.2 L 147.2,84.5" style="fill:none;stroke:#000000;stroke-width:2.0px;stroke-linecap:butt;stroke-linejoin:miter;stroke-miterlimit:10;stroke-opacity:1;"/>
<path class="atom-2" d="M 93.2 109.2 Q 93.2 105.7, 95.0 103.7 Q 96.7 101.7, 100.0 101.7 Q 103.3 101.7, 105.0 103.7 Q 106.8 105.7, 106.8 109.2 Q 106.8 112.8, 105.0 114.8 Q 103.2 116.8, 100.0 116.8 Q 96.8 116.8, 95.0 114.8 Q 93.2 112.8, 93.2 109.2 M 100.0 115.2 Q 102.2 115.2, 103.5 113.7 Q 104.7 112.1, 104.7 109.2 Q 104.7 106.3, 103.5 104.9 Q 102.2 103.4, 100.0 103.4 Q 97.8 103.4, 96.5 104.8 Q 95.3 106.3, 95.3 109.2 Q 95.3 112.2, 96.5 113.7 Q 97.8 115.2, 100.0 115.2 " fill="#FF0000"/>
<path class="bond-0 atom-0 atom-1" d="M 244.7,138.9 L 289.7,112.9" style="fill:none;fill-rule:evenodd;stroke:#000000;stroke-width:2.0px;stroke-linecap:butt;stroke-linejoin:miter;stroke-opacity:1"/>
<path class="bond-1 atom-1 atom-2" d="M 293.6,115.1 L 293.6,92.7" style="fill:none;fill-rule:evenodd;stroke:#000000;stroke-width:2.0px;stroke-linecap:butt;stroke-linejoin:miter;stroke-opacity:1"/>
<path class="bond-1 atom-1 atom-2" d="M 293.6,92.7 L 293.6,70.3" style="fill:none;fill-rule:evenodd;stroke:#FF0000;stroke-width:2.0px;stroke-linecap:butt;stroke-linejoin:miter;stroke-opacity:1"/>
<path class="bond-1 atom-1 atom-2" d="M 285.8,115.1 L 285.8,92.7" style="fill:none;fill-rule:evenodd;stroke:#000000;stroke-width:2.0px;stroke-linecap:butt;stroke-linejoin:miter;stroke-opacity:1"/>
<path class="bond-1 atom-1 atom-2" d="M 285.8,92.7 L 285.8,70.3" style="fill:none;fill-rule:evenodd;stroke:#FF0000;stroke-width:2.0px;stroke-linecap:butt;stroke-linejoin:miter;stroke-opacity:1"/>
<path class="bond-2 atom-1 atom-3" d="M 289.7,112.9 L 308.0,123.4" style="fill:none;fill-rule:evenodd;stroke:#000000;stroke-width:2.0px;stroke-linecap:butt;stroke-linejoin:miter;stroke-opacity:1"/>
<path class="bond-2 atom-1 atom-3" d="M 308.0,123.4 L 326.3,134.0" style="fill:none;fill-rule:evenodd;stroke:#FF0000;stroke-width:2.0px;stroke-linecap:butt;stroke-linejoin:miter;stroke-opacity:1"/>
<path d="M 287.5,114.2 L 289.7,112.9 L 290.6,113.4" style="fill:none;stroke:#000000;stroke-width:2.0px;stroke-linecap:butt;stroke-linejoin:miter;stroke-miterlimit:10;stroke-opacity:1;"/>
<path class="atom-2" d="M 283.0 61.0 Q 283.0 57.4, 284.7 55.4 Q 286.5 53.5, 289.7 53.5 Q 293.0 53.5, 294.7 55.4 Q 296.5 57.4, 296.5 61.0 Q 296.5 64.5, 294.7 66.6 Q 292.9 68.6, 289.7 68.6 Q 286.5 68.6, 284.7 66.6 Q 283.0 64.6, 283.0 61.0 M 289.7 66.9 Q 292.0 66.9, 293.2 65.4 Q 294.4 63.9, 294.4 61.0 Q 294.4 58.1, 293.2 56.6 Q 292.0 55.1, 289.7 55.1 Q 287.5 55.1, 286.2 56.6 Q 285.0 58.0, 285.0 61.0 Q 285.0 63.9, 286.2 65.4 Q 287.5 66.9, 289.7 66.9 " fill="#FF0000"/>
<path class="atom-3" d="M 328.0 138.9 Q 328.0 135.4, 329.7 133.4 Q 331.5 131.4, 334.7 131.4 Q 338.0 131.4, 339.7 133.4 Q 341.5 135.4, 341.5 138.9 Q 341.5 142.5, 339.7 144.5 Q 337.9 146.5, 334.7 146.5 Q 331.5 146.5, 329.7 144.5 Q 328.0 142.5, 328.0 138.9 M 334.7 144.9 Q 337.0 144.9, 338.2 143.4 Q 339.4 141.8, 339.4 138.9 Q 339.4 136.0, 338.2 134.6 Q 337.0 133.1, 334.7 133.1 Q 332.5 133.1, 331.2 134.5 Q 330.0 136.0, 330.0 138.9 Q 330.0 141.9, 331.2 143.4 Q 332.5 144.9, 334.7 144.9 " fill="#FF0000"/>
<path class="atom-3" d="M 343.8 131.6 L 345.8 131.6 L 345.8 137.8 L 353.3 137.8 L 353.3 131.6 L 355.3 131.6 L 355.3 146.3 L 353.3 146.3 L 353.3 139.5 L 345.8 139.5 L 345.8 146.3 L 343.8 146.3 L 343.8 131.6 " fill="#FF0000"/>
<path class="bond-0 atom-0 atom-1" d="M 444.7,109.2 L 489.7,83.2" style="fill:none;fill-rule:evenodd;stroke:#000000;stroke-width:2.0px;stroke-linecap:butt;stroke-linejoin:miter;stroke-opacity:1"/>
<path class="bond-1 atom-1 atom-2" d="M 489.7,83.2 L 508.0,93.7" style="fill:none;fill-rule:evenodd;stroke:#000000;stroke-width:2.0px;stroke-linecap:butt;stroke-linejoin:miter;stroke-opacity:1"/>
<path class="bond-1 atom-1 atom-2" d="M 508.0,93.7 L 526.3,104.3" style="fill:none;fill-rule:evenodd;stroke:#FF0000;stroke-width:2.0px;stroke-linecap:butt;stroke-linejoin:miter;stroke-opacity:1"/>
<path d="M 487.5,84.5 L 489.7,83.2 L 490.6,83.7" style="fill:none;stroke:#000000;stroke-width:2.0px;stroke-linecap:butt;stroke-linejoin:miter;stroke-miterlimit:10;stroke-opacity:1;"/>
<path class="atom-2" d="M 528.0 109.2 Q 528.0 105.7, 529.7 103.7 Q 531.5 101.7, 534.7 101.7 Q 538.0 101.7, 539.7 103.7 Q 541.5 105.7, 541.5 109.2 Q 541.5 112.8, 539.7 114.8 Q 537.9 116.8, 534.7 116.8 Q 531.5 116.8, 529.7 114.8 Q 528.0 112.8, 528.0 109.2 M 534.7 115.2 Q 537.0 115.2, 538.2 113.7 Q 539.4 112.1, 539.4 109.2 Q 539.4 106.3, 538.2 104.9 Q 537.0 103.4, 534.7 103.4 Q 532.5 103.4, 531.2 104.8 Q 530.0 106.3, 530.0 109.2 Q 530.0 112.2, 531.2 113.7 Q 532.5 115.2, 534.7 115.2 " fill="#FF0000"/>
<path class="atom-2" d="M 543.8 101.9 L 545.8 101.9 L 545.8 108.1 L 553.3 108.1 L 553.3 101.9 L 555.3 101.9 L 555.3 116.6 L 553.3 116.6 L 553.3 109.8 L 545.8 109.8 L 545.8 116.6 L 543.8 116.6 L 543.8 101.9 " fill="#FF0000"/>
<path class="bond-0 atom-0 atom-1" d="M 752.0,100.0 L 726.0,145.0" style="fill:none;fill-rule:evenodd;stroke:#000000;stroke-width:2.0px;stroke-linecap:butt;stroke-linejoin:miter;stroke-opacity:1"/>
<path class="bond-0 atom-0 atom-1" d="M 743.0,100.0 L 721.5,137.2" style="fill:none;fill-rule:evenodd;stroke:#000000;stroke-width:2.0px;stroke-linecap:butt;stroke-linejoin:miter;stroke-opacity:1"/>
<path class="bond-1 atom-1 atom-2" d="M 726.0,145.0 L 674.0,145.0" style="fill:none;fill-rule:evenodd;stroke:#000000;stroke-width:2.0px;stroke-linecap:butt;stroke-linejoin:miter;stroke-opacity:1"/>
<path class="bond-2 atom-2 atom-3" d="M 674.0,145.0 L 648.0,100.0" style="fill:none;fill-rule:evenodd;stroke:#000000;stroke-width:2.0px;stroke-linecap:butt;stroke-linejoin:miter;stroke-opacity:1"/>
<path class="bond-2 atom-2 atom-3" d="M 678.5,137.2 L 657.0,100.0" style="fill:none;fill-rule:evenodd;stroke:#000000;stroke-width:2.0px;stroke-linecap:butt;stroke-linejoin:miter;stroke-opacity:1"/>
<path class="bond-3 atom-3 atom-4" d="M 648.0,100.0 L 674.0,55.0" style="fill:none;fill-rule:evenodd;stroke:#000000;stroke-width:2.0px;stroke-linecap:butt;stroke-linejoin:miter;stroke-opacity:1"/>
<path class="bond-4 atom-4 atom-5" d="M 674.0,55.0 L 726.0,55.0" style="fill:none;fill-rule:evenodd;stroke:#000000;stroke-width:2.0px;stroke-linecap:butt;stroke-linejoin:miter;stroke-opacity:1"/>
<path class="bond-4 atom-4 atom-5" d="M 678.5,62.8 L 721.5,62.8" style="fill:none;fill-rule:evenodd;stroke:#000000;stroke-width:2.0px;stroke-linecap:butt;stroke-linejoin:miter;stroke-opacity:1"/>
<path class="bond-5 atom-5 atom-0" d="M 726.0,55.0 L 752.0,100.0" style="fill:none;fill-rule:evenodd;stroke:#000000;stroke-width:2.0px;stroke-linecap:butt;stroke-linejoin:miter;stroke-opacity:1"/>
<path d="M 750.7,102.2 L 752.0,100.0 L 750.7,97.7" style="fill:none;stroke:#000000;stroke-width:2.0px;stroke-linecap:butt;stroke-linejoin:miter;stroke-miterlimit:10;stroke-opacity:1;"/>
<path d="M 727.3,142.8 L 726.0,145.0 L 723.4,145.0" style="fill:none;stroke:#000000;stroke-width:2.0px;stroke-linecap:butt;stroke-linejoin:miter;stroke-miterlimit:10;stroke-opacity:1;"/>
<path d="M 676.6,145.0 L 674.0,145.0 L 672.7,142.7" style="fill:none;stroke:#000000;stroke-width:2.0px;stroke-linecap:butt;stroke-linejoin:miter;stroke-miterlimit:10;stroke-opacity:1;"/>
<path d="M 649.3,102.2 L 648.0,100.0 L 649.3,97.7" style="fill:none;stroke:#000000;stroke-width:2.0px;stroke-linecap:butt;stroke-linejoin:miter;stroke-miterlimit:10;stroke-opacity:1;"/>
<path d="M 672.7,57.2 L 674.0,55.0 L 676.6,55.0" style="fill:none;stroke:#000000;stroke-width:2.0px;stroke-linecap:butt;stroke-linejoin:miter;stroke-miterlimit:10;stroke-opacity:1;"/>
<path d="M 723.4,55.0 L 726.0,55.0 L 727.3,57.2" style="fill:none;stroke:#000000;stroke-width:2.0px;stroke-linecap:butt;stroke-linejoin:miter;stroke-miterlimit:10;stroke-opacity:1;"/>
<path class="bond-0 atom-0 atom-1" d="M 948.0,51.4 L 922.0,96.4" style="fill:none;fill-rule:evenodd;stroke:#000000;stroke-width:2.0px;stroke-linecap:butt;stroke-linejoin:miter;stroke-opacity:1"/>
<path class="bond-1 atom-1 atom-2" d="M 922.0,96.4 L 932.3,114.3" style="fill:none;fill-rule:evenodd;stroke:#000000;stroke-width:2.0px;stroke-linecap:butt;stroke-linejoin:miter;stroke-opacity:1"/>
<path class="bond-1 atom-1 atom-2" d="M 932.3,114.3 L 942.7,132.3" style="fill:none;fill-rule:evenodd;stroke:#0000FF;stroke-width:2.0px;stroke-linecap:butt;stroke-linejoin:miter;stroke-opacity:1"/>
<path class="bond-2 atom-1 atom-3" d="M 922.0,96.4 L 870.0,96.4" style="fill:none;fill-rule:evenodd;stroke:#000000;stroke-width:2.0px;stroke-linecap:butt;stroke-linejoin:miter;stroke-opacity:1"/>
<path class="bond-3 atom-3 atom-4" d="M 874.5,96.4 L 863.7,77.6" style="fill:none;fill-rule:evenodd;stroke:#000000;stroke-width:2.0px;stroke-linecap:butt;stroke-linejoin:miter;stroke-opacity:1"/>
<path class="bond-3 atom-3 atom-4" d="M 863.7,77.6 L 852.8,58.8" style="fill:none;fill-rule:evenodd;stroke:#FF0000;stroke-width:2.0px;stroke-linecap:butt;stroke-linejoin:miter;stroke-opacity:1"/>
<path class="bond-3 atom-3 atom-4" d="M 867.8,100.3 L 856.9,81.5" style="fill:none;fill-rule:evenodd;stroke:#000000;stroke-width:2.0px;stroke-linecap:butt;stroke-linejoin:miter;stroke-opacity:1"/>
<path class="bond-3 atom-3 atom-4" d="M 856.9,81.5 L 846.1,62.7" style="fill:none;fill-rule:evenodd;stroke:#FF0000;stroke-width:2.0px;stroke-linecap:butt;stroke-linejoin:miter;stroke-opacity:1"/>
<path class="bond-4 atom-3 atom-5" d="M 870.0,96.4 L 859.7,114.3" style="fill:none;fill-rule:evenodd;stroke:#000000;stroke-width:2.0px;stroke-linecap:butt;stroke-linejoin:miter;stroke-opacity:1"/>
<path class="bond-4 atom-3 atom-5" d="M 859.7,114.3 L 849.3,132.2" style="fill:none;fill-rule:evenodd;stroke:#FF0000;stroke-width:2.0px;stroke-linecap:butt;stroke-linejoin:miter;stroke-opacity:1"/>
<path d="M 872.6,96.4 L 870.0,96.4 L 869.5,97.3" style="fill:none;stroke:#000000;stroke-width:2.0px;stroke-linecap:butt;stroke-linejoin:miter;stroke-miterlimit:10;stroke-opacity:1;"/>
<path class="atom-2" d="M 944.7 134.0 L 949.5 141.8 Q 950.0 142.6, 950.8 144.0 Q 951.5 145.4, 951.6 145.4 L 951.6 134.0 L 953.5 134.0 L 953.5 148.7 L 951.5 148.7 L 946.3 140.2 Q 945.7 139.2, 945.1 138.1 Q 944.5 136.9, 944.3 136.6 L 944.3 148.7 L 942.4 148.7 L 942.4 134.0 L 944.7 134.0 " fill="#0000FF"/>
<path class="atom-2" d="M 956.3 134.0 L 958.3 134.0 L 958.3 140.3 L 965.9 140.3 L 965.9 134.0 L 967.9 134.0 L 967.9 148.7 L 965.9 148.7 L 965.9 141.9 L 958.3 141.9 L 958.3 148.7 L 956.3 148.7 L 956.3 134.0 " fill="#0000FF"/>
<path class="atom-2" d="M 970.7 148.2 Q 971.1 147.3, 971.9 146.8 Q 972.8 146.3, 974.0 146.3 Q 975.4 146.3, 976.3 147.1 Q 977.1 147.8, 977.1 149.3 Q 977.1 150.7, 976.0 152.0 Q 975.0 153.4, 972.8 155.0 L 977.3 155.0 L 977.3 156.1 L 970.7 156.1 L 970.7 155.2 Q 972.5 153.9, 973.6 152.9 Q 974.7 151.9, 975.2 151.1 Q 975.7 150.2, 975.7 149.3 Q 975.7 148.4, 975.3 147.9 Q 974.8 147.4, 974.0 147.4 Q 973.2 147.4, 972.7 147.7 Q 972.2 148.0, 971.8 148.7 L 970.7 148.2 " fill="#0000FF"/>
<path class="atom-4" d="M 837.3 51.4 Q 837.3 47.9, 839.0 45.9 Q 840.8 43.9, 844.0 43.9 Q 847.3 43.9, 849.0 45.9 Q 850.8 47.9, 850.8 51.4 Q 850.8 55.0, 849.0 57.0 Q 847.3 59.0, 844.0 59.0 Q 840.8 59.0, 839.0 57.0 Q 837.3 55.0, 837.3 51.4 M 844.0 57.4 Q 846.3 57.4, 847.5 55.9 Q 848.7 54.4, 848.7 51.4 Q 848.7 48.5, 847.5 47.1 Q 846.3 45.6, 844.0 45.6 Q 841.8 45.6, 840.6 47.0 Q 839.4 48.5, 839.4 51.4 Q 839.4 54.4, 840.6 55.9 Q 841.8 57.4, 844.0 57.4 " fill="#FF0000"/>
<path class="atom-5" d="M 822.7 134.1 L 824.7 134.1 L 824.7 140.3 L 832.3 140.3 L 832.3 134.1 L 834.3 134.1 L 834.3 148.8 L 832.3 148.8 L 832.3 142.0 L 824.7 142.0 L 824.7 148.8 L 822.7 148.8 L 822.7 134.1 " fill="#FF0000"/>
<path class="atom-5" d="M 837.3 141.4 Q 837.3 137.9, 839.0 135.9 Q 840.8 133.9, 844.0 133.9 Q 847.3 133.9, 849.0 135.9 Q 850.8 137.9, 850.8 141.4 Q 850.8 145.0, 849.0 147.0 Q 847.3 149.0, 844.0 149.0 Q 840.8 149.0, 839.0 147.0 Q 837.3 145.0, 837.3 141.4 M 844.0 147.4 Q 846.3 147.4, 847.5 145.9 Q 848.7 144.4, 848.7 141.4 Q 848.7 138.5, 847.5 137.1 Q 846.3 135.6, 844.0 135.6 Q 841.8 135.6, 840.6 137.0 Q 839.4 138.5, 839.4 141.4 Q 839.4 144.4, 840.6 145.9 Q 841.8 147.4, 844.0 147.4 " fill="#FF0000"/>
<path class="bond-0 atom-0 atom-1" d="M 59.4,296.3 L 81.7,296.3" style="fill:none;fill-rule:evenodd;stroke:#000000;stroke-width:2.0px;stroke-linecap:butt;stroke-linejoin:miter;stroke-opacity:1"/>
<path class="bond-0 atom-0 atom-1" d="M 81.7,296.3 L 104.0,296.3" style="fill:none;fill-rule:evenodd;stroke:#0000FF;stroke-width:2.0px;stroke-linecap:butt;stroke-linejoin:miter;stroke-opacity:1"/>
<path class="atom-1" d="M 108.1 289.0 L 112.9 296.8 Q 113.4 297.5, 114.1 298.9 Q 114.9 300.3, 115.0 300.4 L 115.0 289.0 L 116.9 289.0 L 116.9 303.7 L 114.9 303.7 L 109.7 295.2 Q 109.1 294.2, 108.5 293.0 Q 107.8 291.9, 107.7 291.5 L 107.7 303.7 L 105.7 303.7 L 105.7 289.0 L 108.1 289.0 " fill="#0000FF"/>
<path class="atom-1" d="M 119.7 289.0 L 121.7 289.0 L 121.7 295.2 L 129.2 295.2 L 129.2 289.0 L 131.2 289.0 L 131.2 303.7 L 129.2 303.7 L 129.2 296.9 L 121.7 296.9 L 121.7 303.7 L 119.7 303.7 L 119.7 289.0 " fill="#0000FF"/>
<path class="atom-1" d="M 134.1 303.2 Q 134.5 302.2, 135.3 301.7 Q 136.2 301.2, 137.4 301.2 Q 138.8 301.2, 139.6 302.0 Q 140.5 302.8, 140.5 304.2 Q 140.5 305.7, 139.4 307.0 Q 138.3 308.3, 136.1 309.9 L 140.6 309.9 L 140.6 311.0 L 134.1 311.0 L 134.1 310.1 Q 135.9 308.8, 137.0 307.9 Q 138.1 306.9, 138.6 306.0 Q 139.1 305.2, 139.1 304.3 Q 139.1 303.4, 138.6 302.8 Q 138.2 302.3, 137.4 302.3 Q 136.6 302.3, 136.1 302.6 Q 135.5 302.9, 135.2 303.6 L 134.1 303.2 " fill="#0000FF"/>
<path class="bond-0 atom-0 atom-1" d="M 352.0,300.0 L 326.0,345.0" style="fill:none;fill-rule:evenodd;stroke:#000000;stroke-width:2.0px;stroke-linecap:butt;stroke-linejoin:miter;stroke-opacity:1"/>
<path class="bond-1 atom-1 atom-2" d="M 326.0,345.0 L 274.0,345.0" style="fill:none;fill-rule:evenodd;stroke:#000000;stroke-width:2.0px;stroke-linecap:butt;stroke-linejoin:miter;stroke-opacity:1"/>
<path class="bond-2 atom-2 atom-3" d="M 274.0,345.0 L 248.0,300.0" style="fill:none;fill-rule:evenodd;stroke:#000000;stroke-width:2.0px;stroke-linecap:butt;stroke-linejoin:miter;stroke-opacity:1"/>
<path class="bond-3 atom-3 atom-4" d="M 248.0,300.0 L 274.0,255.0" style="fill:none;fill-rule:evenodd;stroke:#000000;stroke-width:2.0px;stroke-linecap:butt;stroke-linejoin:miter;stroke-opacity:1"/>
<path class="bond-4 atom-4 atom-5" d="M 274.0,255.0 L 326.0,255.0" style="fill:none;fill-rule:evenodd;stroke:#000000;stroke-width:2.0px;stroke-linecap:butt;stroke-linejoin:miter;stroke-opacity:1"/>
<path class="bond-5 atom-5 atom-0" d="M 326.0,255.0 L 352.0,300.0" style="fill:none;fill-rule:evenodd;stroke:#000000;stroke-width:2.0px;stroke-linecap:butt;stroke-linejoin:miter;stroke-opacity:1"/>
<path d="M 350.7,302.2 L 352.0,300.0 L 350.7,297.8" style="fill:none;stroke:#000000;stroke-width:2.0px;stroke-linecap:butt;stroke-linejoin:miter;stroke-miterlimit:10;stroke-opacity:1;"/>
<path d="M 327.3,342.8 L 326.0,345.0 L 323.4,345.0" style="fill:none;stroke:#000000;stroke-width:2.0px;stroke-linecap:butt;stroke-linejoin:miter;stroke-miterlimit:10;stroke-opacity:1;"/>
<path d="M 276.6,345.0 L 274.0,345.0 L 272.7,342.8" style="fill:none;stroke:#000000;stroke-width:2.0px;stroke-linecap:butt;stroke-linejoin:miter;stroke-miterlimit:10;stroke-opacity:1;"/>
<path d="M 249.3,302.2 L 248.0,300.0 L 249.3,297.8" style="fill:none;stroke:#000000;stroke-width:2.0px;stroke-linecap:butt;stroke-linejoin:miter;stroke-miterlimit:10;stroke-opacity:1;"/>
<path d="M 272.7,257.2 L 274.0,255.0 L 276.6,255.0" style="fill:none;stroke:#000000;stroke-width:2.0px;stroke-linecap:butt;stroke-linejoin:miter;stroke-miterlimit:10;stroke-opacity:1;"/>
<path d="M 323.4,255.0 L 326.0,255.0 L 327.3,257.2" style="fill:none;stroke:#000000;stroke-width:2.0px;stroke-linecap:butt;stroke-linejoin:miter;stroke-miterlimit:10;stroke-opacity:1;"/>
<path class="bond-0 atom-0 atom-1" d="M 552.0,296.3 L 541.6,314.3" style="fill:none;fill-rule:evenodd;stroke:#000000;stroke-width:2.0px;stroke-linecap:butt;stroke-linejoin:miter;stroke-opacity:1"/>
<path class="bond-0 atom-0 atom-1" d="M 541.6,314.3 L 531.2,332.2" style="fill:none;fill-rule:evenodd;stroke:#0000FF;stroke-width:2.0px;stroke-linecap:butt;stroke-linejoin:miter;stroke-opacity:1"/>
<path class="bond-0 atom-0 atom-1" d="M 543.0,296.3 L 533.7,312.3" style="fill:none;fill-rule:evenodd;stroke:#000000;stroke-width:2.0px;stroke-linecap:butt;stroke-linejoin:miter;stroke-opacity:1"/>
<path class="bond-0 atom-0 atom-1" d="M 533.7,312.3 L 524.5,328.4" style="fill:none;fill-rule:evenodd;stroke:#0000FF;stroke-width:2.0px;stroke-linecap:butt;stroke-linejoin:miter;stroke-opacity:1"/>
<path class="bond-1 atom-1 atom-2" d="M 518.7,341.3 L 496.4,341.3" style="fill:none;fill-rule:evenodd;stroke:#0000FF;stroke-width:2.0px;stroke-linecap:butt;stroke-linejoin:miter;stroke-opacity:1"/>
<path class="bond-1 atom-1 atom-2" d="M 496.4,341.3 L 474.0,341.3" style="fill:none;fill-rule:evenodd;stroke:#000000;stroke-width:2.0px;stroke-linecap:butt;stroke-linejoin:miter;stroke-opacity:1"/>
<path class="bond-2 atom-2 atom-3" d="M 474.0,341.3 L 448.0,296.3" style="fill:none;fill-rule:evenodd;stroke:#000000;stroke-width:2.0px;stroke-linecap:butt;stroke-linejoin:miter;stroke-opacity:1"/>
<path class="bond-2 atom-2 atom-3" d="M 478.5,333.5 L 457.0,296.3" style="fill:none;fill-rule:evenodd;stroke:#000000;stroke-width:2.0px;stroke-linecap:butt;stroke-linejoin:miter;stroke-opacity:1"/>
<path class="bond-3 atom-3 atom-4" d="M 448.0,296.3 L 474.0,251.3" style="fill:none;fill-rule:evenodd;stroke:#000000;stroke-width:2.0px;stroke-linecap:butt;stroke-linejoin:miter;stroke-opacity:1"/>
<path class="bond-4 atom-4 atom-5" d="M 474.0,251.3 L 526.0,251.3" style="fill:none;fill-rule:evenodd;stroke:#000000;stroke-width:2.0px;stroke-linecap:butt;stroke-linejoin:miter;stroke-opacity:1"/>
<path class="bond-4 atom-4 atom-5" d="M 478.5,259.1 L 521.5,259.1" style="fill:none;fill-rule:evenodd;stroke:#000000;stroke-width:2.0px;stroke-linecap:butt;stroke-linejoin:miter;stroke-opacity:1"/>
<path class="bond-5 atom-5 atom-0" d="M 526.0,251.3 L 552.0,296.3" style="fill:none;fill-rule:evenodd;stroke:#000000;stroke-width:2.0px;stroke-linecap:butt;stroke-linejoin:miter;stroke-opacity:1"/>
<path d="M 551.4,297.2 L 552.0,296.3 L 550.7,294.1" style="fill:none;stroke:#000000;stroke-width:2.0px;stroke-linecap:butt;stroke-linejoin:miter;stroke-miterlimit:10;stroke-opacity:1;"/>
<path d="M 475.1,341.3 L 474.0,341.3 L 472.7,339.1" style="fill:none;stroke:#000000;stroke-width:2.0px;stroke-linecap:butt;stroke-linejoin:miter;stroke-miterlimit:10;stroke-opacity:1;"/>
<path d="M 449.3,298.6 L 448.0,296.3 L 449.3,294.1" style="fill:none;stroke:#000000;stroke-width:2.0px;stroke-linecap:butt;stroke-linejoin:miter;stroke-miterlimit:10;stroke-opacity:1;"/>
<path d="M 472.7,253.6 L 474.0,251.3 L 476.6,251.3" style="fill:none;stroke:#000000;stroke-width:2.0px;stroke-linecap:butt;stroke-linejoin:miter;stroke-miterlimit:10;stroke-opacity:1;"/>
<path d="M 523.4,251.3 L 526.0,251.3 L 527.3,253.6" style="fill:none;stroke:#000000;stroke-width:2.0px;stroke-linecap:butt;stroke-linejoin:miter;stroke-miterlimit:10;stroke-opacity:1;"/>
<path class="atom-1" d="M 522.7 334.0 L 527.6 341.8 Q 528.0 342.5, 528.8 343.9 Q 529.6 345.3, 529.6 345.4 L 529.6 334.0 L 531.6 334.0 L 531.6 348.7 L 529.5 348.7 L 524.4 340.2 Q 523.8 339.2, 523.1 338.0 Q 522.5 336.9, 522.3 336.5 L 522.3 348.7 L 520.4 348.7 L 520.4 334.0 L 522.7 334.0 " fill="#0000FF"/>
<path class="bond-0 atom-0 atom-1" d="M 762.0,300.0 L 736.0,345.0" style="fill:none;fill-rule:evenodd;stroke:#000000;stroke-width:2.0px;stroke-linecap:butt;stroke-linejoin:miter;stroke-opacity:1"/>
<path class="bond-1 atom-1 atom-2" d="M 736.0,345.0 L 684.0,345.0" style="fill:none;fill-rule:evenodd;stroke:#000000;stroke-width:2.0px;stroke-linecap:butt;stroke-linejoin:miter;stroke-opacity:1"/>
<path class="bond-2 atom-2 atom-3" d="M 684.0,345.0 L 673.6,327.0" style="fill:none;fill-rule:evenodd;stroke:#000000;stroke-width:2.0px;stroke-linecap:butt;stroke-linejoin:miter;stroke-opacity:1"/>
<path class="bond-2 atom-2 atom-3" d="M 673.6,327.0 L 663.3,309.1" style="fill:none;fill-rule:evenodd;stroke:#0000FF;stroke-width:2.0px;stroke-linecap:butt;stroke-linejoin:miter;stroke-opacity:1"/>
<path class="bond-3 atom-3 atom-4" d="M 663.3,290.9 L 673.6,273.0" style="fill:none;fill-rule:evenodd;stroke:#0000FF;stroke-width:2.0px;stroke-linecap:butt;stroke-linejoin:miter;stroke-opacity:1"/>
<path class="bond-3 atom-3 atom-4" d="M 673.6,273.0 L 684.0,255.0" style="fill:none;fill-rule:evenodd;stroke:#000000;stroke-width:2.0px;stroke-linecap:butt;stroke-linejoin:miter;stroke-opacity:1"/>
<path class="bond-4 atom-4 atom-5" d="M 684.0,255.0 L 736.0,255.0" style="fill:none;fill-rule:evenodd;stroke:#000000;stroke-width:2.0px;stroke-linecap:butt;stroke-linejoin:miter;stroke-opacity:1"/>
<path class="bond-5 atom-5 atom-0" d="M 736.0,255.0 L 762.0,300.0" style="fill:none;fill-rule:evenodd;stroke:#000000;stroke-width:2.0px;stroke-linecap:butt;stroke-linejoin:miter;stroke-opacity:1"/>
<path d="M 760.7,302.2 L 762.0,300.0 L 760.7,297.8" style="fill:none;stroke:#000000;stroke-width:2.0px;stroke-linecap:butt;stroke-linejoin:miter;stroke-miterlimit:10;stroke-opacity:1;"/>
<path d="M 737.3,342.8 L 736.0,345.0 L 733.4,345.0" style="fill:none;stroke:#000000;stroke-width:2.0px;stroke-linecap:butt;stroke-linejoin:miter;stroke-miterlimit:10;stroke-opacity:1;"/>
<path d="M 686.6,345.0 L 684.0,345.0 L 683.5,344.1" style="fill:none;stroke:#000000;stroke-width:2.0px;stroke-linecap:butt;stroke-linejoin:miter;stroke-miterlimit:10;stroke-opacity:1;"/>
<path d="M 683.5,255.9 L 684.0,255.0 L 686.6,255.0" style="fill:none;stroke:#000000;stroke-width:2.0px;stroke-linecap:butt;stroke-linejoin:miter;stroke-miterlimit:10;stroke-opacity:1;"/>
<path d="M 733.4,255.0 L 736.0,255.0 L 737.3,257.2" style="fill:none;stroke:#000000;stroke-width:2.0px;stroke-linecap:butt;stroke-linejoin:miter;stroke-miterlimit:10;stroke-opacity:1;"/>
<path class="atom-3" d="M 638.0 292.6 L 640.0 292.6 L 640.0 298.9 L 647.6 298.9 L 647.6 292.6 L 649.6 292.6 L 649.6 307.4 L 647.6 307.4 L 647.6 300.6 L 640.0 300.6 L 640.0 307.4 L 638.0 307.4 L 638.0 292.6 " fill="#0000FF"/>
<path class="atom-3" d="M 654.8 292.6 L 659.6 300.4 Q 660.1 301.2, 660.9 302.6 Q 661.6 304.0, 661.7 304.1 L 661.7 292.6 L 663.6 292.6 L 663.6 307.4 L 661.6 307.4 L 656.4 298.8 Q 655.8 297.8, 655.2 296.7 Q 654.6 295.6, 654.4 295.2 L 654.4 307.4 L 652.5 307.4 L 652.5 292.6 L 654.8 292.6 " fill="#0000FF"/>
<path class="bond-0 atom-0 atom-1" d="M 845.2,300.0 L 897.2,300.0" style="fill:none;fill-rule:evenodd;stroke:#000000;stroke-width:2.0px;stroke-linecap:butt;stroke-linejoin:miter;stroke-opacity:1"/>
<path class="bond-1 atom-1 atom-2" d="M 897.2,300.0 L 919.5,300.0" style="fill:none;fill-rule:evenodd;stroke:#000000;stroke-width:2.0px;stroke-linecap:butt;stroke-linejoin:miter;stroke-opacity:1"/>
<path class="bond-1 atom-1 atom-2" d="M 919.5,300.0 L 941.9,300.0" style="fill:none;fill-rule:evenodd;stroke:#0000FF;stroke-width:2.0px;stroke-linecap:butt;stroke-linejoin:miter;stroke-opacity:1"/>
<path class="bond-1 atom-1 atom-2" d="M 897.2,292.2 L 919.5,292.2" style="fill:none;fill-rule:evenodd;stroke:#000000;stroke-width:2.0px;stroke-linecap:butt;stroke-linejoin:miter;stroke-opacity:1"/>
<path class="bond-1 atom-1 atom-2" d="M 919.5,292.2 L 941.9,292.2" style="fill:none;fill-rule:evenodd;stroke:#0000FF;stroke-width:2.0px;stroke-linecap:butt;stroke-linejoin:miter;stroke-opacity:1"/>
<path class="bond-1 atom-1 atom-2" d="M 897.2,307.8 L 919.5,307.8" style="fill:none;fill-rule:evenodd;stroke:#000000;stroke-width:2.0px;stroke-linecap:butt;stroke-linejoin:miter;stroke-opacity:1"/>
<path class="bond-1 atom-1 atom-2" d="M 919.5,307.8 L 941.9,307.8" style="fill:none;fill-rule:evenodd;stroke:#0000FF;stroke-width:2.0px;stroke-linecap:butt;stroke-linejoin:miter;stroke-opacity:1"/>
<path d="M 894.6,300.0 L 897.2,300.0 L 898.3,300.0" style="fill:none;stroke:#000000;stroke-width:2.0px;stroke-linecap:butt;stroke-linejoin:miter;stroke-miterlimit:10;stroke-opacity:1;"/>
<path class="atom-2" d="M 945.9 292.6 L 950.7 300.4 Q 951.2 301.2, 952.0 302.6 Q 952.8 304.0, 952.8 304.1 L 952.8 292.6 L 954.8 292.6 L 954.8 307.4 L 952.7 307.4 L 947.6 298.8 Q 947.0 297.8, 946.3 296.7 Q 945.7 295.6, 945.5 295.2 L 945.5 307.4 L 943.6 307.4 L 943.6 292.6 L 945.9 292.6 " fill="#0000FF"/>
</svg>