<svg xmlns="http://www.w3.org/2000/svg" xmlns:rdkit="http://www.rdkit.org/xml" xmlns:xlink="http://www.w3.org/1999/xlink" version="1.1" baseProfile="full" xml:space="preserve" width="1000px" height="200px" viewBox="0 0 1000 200">
<!-- END OF HEADER -->
<rect style="opacity:1.0;fill:#FFFFFF;stroke:none" width="200.0" height="200.0" x="0.0" y="0.0"> </rect>
<path class="bond-0 atom-0 atom-1" d="M 155.9,34.3 L 125.6,86.8" style="fill:none;fill-rule:evenodd;stroke:#000000;stroke-width:2.0px;stroke-linecap:butt;stroke-linejoin:miter;stroke-opacity:1"/>
<path class="bond-1 atom-1 atom-2" d="M 125.6,86.8 L 137.7,107.7" style="fill:none;fill-rule:evenodd;stroke:#000000;stroke-width:2.0px;stroke-linecap:butt;stroke-linejoin:miter;stroke-opacity:1"/>
<path class="bond-1 atom-1 atom-2" d="M 137.7,107.7 L 149.8,128.6" style="fill:none;fill-rule:evenodd;stroke:#0000FF;stroke-width:2.0px;stroke-linecap:butt;stroke-linejoin:miter;stroke-opacity:1"/>
<path class="bond-2 atom-1 atom-3" d="M 125.6,86.8 L 65.1,86.8" style="fill:none;fill-rule:evenodd;stroke:#000000;stroke-width:2.0px;stroke-linecap:butt;stroke-linejoin:miter;stroke-opacity:1"/>
<path class="bond-3 atom-3 atom-4" d="M 70.3,86.8 L 57.7,64.9" style="fill:none;fill-rule:evenodd;stroke:#000000;stroke-width:2.0px;stroke-linecap:butt;stroke-linejoin:miter;stroke-opacity:1"/>
<path class="bond-3 atom-3 atom-4" d="M 57.7,64.9 L 45.0,43.0" style="fill:none;fill-rule:evenodd;stroke:#FF0000;stroke-width:2.0px;stroke-linecap:butt;stroke-linejoin:miter;stroke-opacity:1"/>
<path class="bond-3 atom-3 atom-4" d="M 62.4,91.3 L 49.8,69.4" style="fill:none;fill-rule:evenodd;stroke:#000000;stroke-width:2.0px;stroke-linecap:butt;stroke-linejoin:miter;stroke-opacity:1"/>
<path class="bond-3 atom-3 atom-4" d="M 49.8,69.4 L 37.2,47.5" style="fill:none;fill-rule:evenodd;stroke:#FF0000;stroke-width:2.0px;stroke-linecap:butt;stroke-linejoin:miter;stroke-opacity:1"/>
<path class="bond-4 atom-3 atom-5" d="M 65.1,86.8 L 53.0,107.6" style="fill:none;fill-rule:evenodd;stroke:#000000;stroke-width:2.0px;stroke-linecap:butt;stroke-linejoin:miter;stroke-opacity:1"/>
<path class="bond-4 atom-3 atom-5" d="M 53.0,107.6 L 41.0,128.5" style="fill:none;fill-rule:evenodd;stroke:#FF0000;stroke-width:2.0px;stroke-linecap:butt;stroke-linejoin:miter;stroke-opacity:1"/>
<path d="M 68.1,86.8 L 65.1,86.8 L 64.5,87.8" style="fill:none;stroke:#000000;stroke-width:2.0px;stroke-linecap:butt;stroke-linejoin:miter;stroke-miterlimit:10;stroke-opacity:1;"/>
<path class="atom-2" d="M 152.1 130.6 L 157.7 139.7 Q 158.2 140.6, 159.1 142.2 Q 160.0 143.8, 160.1 143.9 L 160.1 130.6 L 162.4 130.6 L 162.4 147.8 L 160.0 147.8 L 154.0 137.8 Q 153.3 136.7, 152.5 135.3 Q 151.8 134.0, 151.6 133.6 L 151.6 147.8 L 149.4 147.8 L 149.4 130.6 L 152.1 130.6 " fill="#0000FF"/>
<path class="atom-2" d="M 165.6 130.6 L 168.0 130.6 L 168.0 137.9 L 176.7 137.9 L 176.7 130.6 L 179.1 130.6 L 179.1 147.8 L 176.7 147.8 L 176.7 139.8 L 168.0 139.8 L 168.0 147.8 L 165.6 147.8 L 165.6 130.6 " fill="#0000FF"/>
<path class="atom-2" d="M 182.4 147.2 Q 182.8 146.1, 183.8 145.5 Q 184.8 144.9, 186.2 144.9 Q 187.9 144.9, 188.8 145.8 Q 189.8 146.7, 189.8 148.4 Q 189.8 150.1, 188.6 151.6 Q 187.3 153.2, 184.8 155.0 L 190.0 155.0 L 190.0 156.3 L 182.4 156.3 L 182.4 155.3 Q 184.5 153.8, 185.7 152.6 Q 187.0 151.5, 187.6 150.5 Q 188.2 149.5, 188.2 148.5 Q 188.2 147.4, 187.7 146.8 Q 187.1 146.2, 186.2 146.2 Q 185.3 146.2, 184.7 146.5 Q 184.1 146.9, 183.6 147.7 L 182.4 147.2 " fill="#0000FF"/>
<path class="atom-4" d="M 26.9 34.4 Q 26.9 30.3, 29.0 28.0 Q 31.0 25.7, 34.8 25.7 Q 38.6 25.7, 40.6 28.0 Q 42.7 30.3, 42.7 34.4 Q 42.7 38.6, 40.6 40.9 Q 38.6 43.3, 34.8 43.3 Q 31.0 43.3, 29.0 40.9 Q 26.9 38.6, 26.9 34.4 M 34.8 41.3 Q 37.4 41.3, 38.8 39.6 Q 40.2 37.8, 40.2 34.4 Q 40.2 31.0, 38.8 29.3 Q 37.4 27.6, 34.8 27.6 Q 32.2 27.6, 30.8 29.3 Q 29.4 31.0, 29.4 34.4 Q 29.4 37.9, 30.8 39.6 Q 32.2 41.3, 34.8 41.3 " fill="#FF0000"/>
<path class="atom-5" d="M 10.0 130.7 L 12.3 130.7 L 12.3 138.0 L 21.1 138.0 L 21.1 130.7 L 23.4 130.7 L 23.4 147.9 L 21.1 147.9 L 21.1 139.9 L 12.3 139.9 L 12.3 147.9 L 10.0 147.9 L 10.0 130.7 " fill="#FF0000"/>
<path class="atom-5" d="M 26.9 139.2 Q 26.9 135.1, 29.0 132.8 Q 31.0 130.5, 34.8 130.5 Q 38.6 130.5, 40.6 132.8 Q 42.7 135.1, 42.7 139.2 Q 42.7 143.4, 40.6 145.8 Q 38.6 148.1, 34.8 148.1 Q 31.0 148.1, 29.0 145.8 Q 26.9 143.4, 26.9 139.2 M 34.8 146.2 Q 37.4 146.2, 38.8 144.4 Q 40.2 142.7, 40.2 139.2 Q 40.2 135.9, 38.8 134.2 Q 37.4 132.5, 34.8 132.5 Q 32.2 132.5, 30.8 134.1 Q 29.4 135.8, 29.4 139.2 Q 29.4 142.7, 30.8 144.4 Q 32.2 146.2, 34.8 146.2 " fill="#FF0000"/>
<path class="legend" d="M 54.0 180.8 Q 54.0 178.0, 55.4 176.5 Q 56.7 175.0, 59.2 175.0 Q 61.5 175.0, 62.8 176.6 L 61.7 177.5 Q 60.8 176.3, 59.2 176.3 Q 57.5 176.3, 56.6 177.5 Q 55.7 178.6, 55.7 180.8 Q 55.7 183.0, 56.6 184.2 Q 57.5 185.3, 59.4 185.3 Q 60.6 185.3, 62.1 184.6 L 62.5 185.8 Q 61.9 186.1, 61.0 186.4 Q 60.1 186.6, 59.1 186.6 Q 56.7 186.6, 55.4 185.1 Q 54.0 183.6, 54.0 180.8 " fill="#000000"/>
<path class="legend" d="M 64.1 180.8 Q 64.1 178.0, 65.4 176.5 Q 66.8 175.0, 69.3 175.0 Q 71.6 175.0, 72.9 176.6 L 71.8 177.5 Q 70.9 176.3, 69.3 176.3 Q 67.6 176.3, 66.6 177.5 Q 65.8 178.6, 65.8 180.8 Q 65.8 183.0, 66.7 184.2 Q 67.6 185.3, 69.4 185.3 Q 70.7 185.3, 72.2 184.6 L 72.6 185.8 Q 72.0 186.1, 71.1 186.4 Q 70.2 186.6, 69.2 186.6 Q 66.8 186.6, 65.4 185.1 Q 64.1 183.6, 64.1 180.8 " fill="#000000"/>
<path class="legend" d="M 74.2 181.9 Q 74.2 179.6, 74.9 177.7 Q 75.5 175.8, 76.8 173.8 L 77.7 174.4 Q 76.7 176.3, 76.1 178.0 Q 75.6 179.7, 75.6 181.9 Q 75.6 184.0, 76.1 185.8 Q 76.7 187.5, 77.7 189.4 L 76.8 190.0 Q 75.5 188.0, 74.9 186.1 Q 74.2 184.2, 74.2 181.9 " fill="#000000"/>
<path class="legend" d="M 80.6 175.1 L 84.3 181.1 Q 84.7 181.7, 85.3 182.8 Q 85.9 183.9, 85.9 183.9 L 85.9 175.1 L 87.4 175.1 L 87.4 186.4 L 85.9 186.4 L 81.9 179.9 Q 81.4 179.1, 80.9 178.2 Q 80.4 177.4, 80.3 177.1 L 80.3 186.4 L 78.8 186.4 L 78.8 175.1 L 80.6 175.1 " fill="#000000"/>
<path class="legend" d="M 93.0 181.9 Q 93.0 184.2, 92.3 186.1 Q 91.6 188.0, 90.3 190.0 L 89.4 189.4 Q 90.5 187.5, 91.0 185.8 Q 91.5 184.0, 91.5 181.9 Q 91.5 179.7, 91.0 178.0 Q 90.5 176.3, 89.4 174.4 L 90.3 173.8 Q 91.6 175.8, 92.3 177.7 Q 93.0 179.6, 93.0 181.9 " fill="#000000"/>
<path class="legend" d="M 94.5 180.8 Q 94.5 178.0, 95.8 176.5 Q 97.1 175.0, 99.6 175.0 Q 101.9 175.0, 103.2 176.6 L 102.1 177.5 Q 101.2 176.3, 99.6 176.3 Q 97.9 176.3, 97.0 177.5 Q 96.1 178.6, 96.1 180.8 Q 96.1 183.0, 97.0 184.2 Q 98.0 185.3, 99.8 185.3 Q 101.0 185.3, 102.5 184.6 L 102.9 185.8 Q 102.3 186.1, 101.4 186.4 Q 100.6 186.6, 99.6 186.6 Q 97.1 186.6, 95.8 185.1 Q 94.5 183.6, 94.5 180.8 " fill="#000000"/>
<path class="legend" d="M 104.5 181.9 Q 104.5 179.6, 105.2 177.7 Q 105.9 175.8, 107.2 173.8 L 108.1 174.4 Q 107.0 176.3, 106.5 178.0 Q 106.0 179.7, 106.0 181.9 Q 106.0 184.0, 106.5 185.8 Q 107.0 187.5, 108.1 189.4 L 107.2 190.0 Q 105.9 188.0, 105.2 186.1 Q 104.5 184.2, 104.5 181.9 " fill="#000000"/>
<path class="legend" d="M 109.2 179.5 L 116.5 179.5 L 116.5 180.6 L 109.2 180.6 L 109.2 179.5 M 109.2 182.9 L 116.5 182.9 L 116.5 184.1 L 109.2 184.1 L 109.2 182.9 " fill="#000000"/>
<path class="legend" d="M 118.6 180.8 Q 118.6 178.0, 120.0 176.5 Q 121.3 175.0, 123.8 175.0 Q 126.3 175.0, 127.7 176.5 Q 129.0 178.0, 129.0 180.8 Q 129.0 183.5, 127.7 185.1 Q 126.3 186.6, 123.8 186.6 Q 121.3 186.6, 120.0 185.1 Q 118.6 183.5, 118.6 180.8 M 123.8 185.3 Q 125.6 185.3, 126.5 184.2 Q 127.4 183.0, 127.4 180.8 Q 127.4 178.5, 126.5 177.4 Q 125.6 176.3, 123.8 176.3 Q 122.1 176.3, 121.2 177.4 Q 120.2 178.5, 120.2 180.8 Q 120.2 183.0, 121.2 184.2 Q 122.1 185.3, 123.8 185.3 " fill="#000000"/>
<path class="legend" d="M 134.1 181.9 Q 134.1 184.2, 133.4 186.1 Q 132.7 188.0, 131.4 190.0 L 130.5 189.4 Q 131.6 187.5, 132.1 185.8 Q 132.6 184.0, 132.6 181.9 Q 132.6 179.7, 132.1 178.0 Q 131.6 176.3, 130.5 174.4 L 131.4 173.8 Q 132.7 175.8, 133.4 177.7 Q 134.1 179.6, 134.1 181.9 " fill="#000000"/>
<path class="legend" d="M 135.6 180.8 Q 135.6 178.0, 136.9 176.5 Q 138.2 175.0, 140.8 175.0 Q 143.3 175.0, 144.6 176.5 Q 146.0 178.0, 146.0 180.8 Q 146.0 183.5, 144.6 185.1 Q 143.2 186.6, 140.8 186.6 Q 138.3 186.6, 136.9 185.1 Q 135.6 183.5, 135.6 180.8 M 140.8 185.3 Q 142.5 185.3, 143.4 184.2 Q 144.4 183.0, 144.4 180.8 Q 144.4 178.5, 143.4 177.4 Q 142.5 176.3, 140.8 176.3 Q 139.0 176.3, 138.1 177.4 Q 137.2 178.5, 137.2 180.8 Q 137.2 183.0, 138.1 184.2 Q 139.0 185.3, 140.8 185.3 " fill="#000000"/>
<path class="bond-0 atom-0 atom-1" d="M 252.7,86.7 L 278.7,86.7" style="fill:none;fill-rule:evenodd;stroke:#000000;stroke-width:2.0px;stroke-linecap:butt;stroke-linejoin:miter;stroke-opacity:1"/>
<path class="bond-0 atom-0 atom-1" d="M 278.7,86.7 L 304.7,86.7" style="fill:none;fill-rule:evenodd;stroke:#0000FF;stroke-width:2.0px;stroke-linecap:butt;stroke-linejoin:miter;stroke-opacity:1"/>
<path class="atom-1" d="M 309.4 78.1 L 315.0 87.2 Q 315.6 88.1, 316.5 89.7 Q 317.4 91.4, 317.4 91.5 L 317.4 78.1 L 319.7 78.1 L 319.7 95.3 L 317.4 95.3 L 311.3 85.4 Q 310.6 84.2, 309.9 82.9 Q 309.1 81.5, 308.9 81.1 L 308.9 95.3 L 306.7 95.3 L 306.7 78.1 L 309.4 78.1 " fill="#0000FF"/>
<path class="atom-1" d="M 323.0 78.1 L 325.3 78.1 L 325.3 85.4 L 334.1 85.4 L 334.1 78.1 L 336.4 78.1 L 336.4 95.3 L 334.1 95.3 L 334.1 87.4 L 325.3 87.4 L 325.3 95.3 L 323.0 95.3 L 323.0 78.1 " fill="#0000FF"/>
<path class="atom-1" d="M 339.7 94.7 Q 340.2 93.6, 341.1 93.0 Q 342.1 92.4, 343.5 92.4 Q 345.2 92.4, 346.2 93.3 Q 347.1 94.3, 347.1 95.9 Q 347.1 97.6, 345.9 99.2 Q 344.7 100.7, 342.1 102.6 L 347.3 102.6 L 347.3 103.9 L 339.7 103.9 L 339.7 102.8 Q 341.8 101.3, 343.1 100.2 Q 344.3 99.0, 344.9 98.0 Q 345.5 97.0, 345.5 96.0 Q 345.5 94.9, 345.0 94.3 Q 344.5 93.7, 343.5 93.7 Q 342.6 93.7, 342.0 94.1 Q 341.4 94.4, 341.0 95.2 L 339.7 94.7 " fill="#0000FF"/>
<path class="legend" d="M 290.6 184.2 Q 290.6 181.4, 291.9 179.9 Q 293.2 178.4, 295.7 178.4 Q 298.1 178.4, 299.3 180.0 L 298.3 180.9 Q 297.4 179.7, 295.7 179.7 Q 294.0 179.7, 293.1 180.9 Q 292.2 182.0, 292.2 184.2 Q 292.2 186.4, 293.1 187.6 Q 294.1 188.7, 295.9 188.7 Q 297.2 188.7, 298.6 188.0 L 299.1 189.2 Q 298.5 189.6, 297.6 189.8 Q 296.7 190.0, 295.7 190.0 Q 293.2 190.0, 291.9 188.5 Q 290.6 187.0, 290.6 184.2 " fill="#000000"/>
<path class="legend" d="M 302.6 178.5 L 306.3 184.5 Q 306.7 185.1, 307.3 186.2 Q 307.9 187.3, 307.9 187.3 L 307.9 178.5 L 309.4 178.5 L 309.4 189.9 L 307.9 189.9 L 303.9 183.3 Q 303.4 182.5, 302.9 181.6 Q 302.4 180.8, 302.3 180.5 L 302.3 189.9 L 300.8 189.9 L 300.8 178.5 L 302.6 178.5 " fill="#000000"/>
<path class="bond-0 atom-0 atom-1" d="M 560.5,86.7 L 548.5,107.6" style="fill:none;fill-rule:evenodd;stroke:#000000;stroke-width:2.0px;stroke-linecap:butt;stroke-linejoin:miter;stroke-opacity:1"/>
<path class="bond-0 atom-0 atom-1" d="M 548.5,107.6 L 536.4,128.6" style="fill:none;fill-rule:evenodd;stroke:#0000FF;stroke-width:2.0px;stroke-linecap:butt;stroke-linejoin:miter;stroke-opacity:1"/>
<path class="bond-0 atom-0 atom-1" d="M 550.0,86.7 L 539.3,105.4" style="fill:none;fill-rule:evenodd;stroke:#000000;stroke-width:2.0px;stroke-linecap:butt;stroke-linejoin:miter;stroke-opacity:1"/>
<path class="bond-0 atom-0 atom-1" d="M 539.3,105.4 L 528.5,124.0" style="fill:none;fill-rule:evenodd;stroke:#0000FF;stroke-width:2.0px;stroke-linecap:butt;stroke-linejoin:miter;stroke-opacity:1"/>
<path class="bond-1 atom-1 atom-2" d="M 521.8,139.1 L 495.8,139.1" style="fill:none;fill-rule:evenodd;stroke:#0000FF;stroke-width:2.0px;stroke-linecap:butt;stroke-linejoin:miter;stroke-opacity:1"/>
<path class="bond-1 atom-1 atom-2" d="M 495.8,139.1 L 469.7,139.1" style="fill:none;fill-rule:evenodd;stroke:#000000;stroke-width:2.0px;stroke-linecap:butt;stroke-linejoin:miter;stroke-opacity:1"/>
<path class="bond-2 atom-2 atom-3" d="M 469.7,139.1 L 439.5,86.7" style="fill:none;fill-rule:evenodd;stroke:#000000;stroke-width:2.0px;stroke-linecap:butt;stroke-linejoin:miter;stroke-opacity:1"/>
<path class="bond-2 atom-2 atom-3" d="M 475.0,130.1 L 450.0,86.7" style="fill:none;fill-rule:evenodd;stroke:#000000;stroke-width:2.0px;stroke-linecap:butt;stroke-linejoin:miter;stroke-opacity:1"/>
<path class="bond-3 atom-3 atom-4" d="M 439.5,86.7 L 469.7,34.3" style="fill:none;fill-rule:evenodd;stroke:#000000;stroke-width:2.0px;stroke-linecap:butt;stroke-linejoin:miter;stroke-opacity:1"/>
<path class="bond-4 atom-4 atom-5" d="M 469.7,34.3 L 530.3,34.3" style="fill:none;fill-rule:evenodd;stroke:#000000;stroke-width:2.0px;stroke-linecap:butt;stroke-linejoin:miter;stroke-opacity:1"/>
<path class="bond-4 atom-4 atom-5" d="M 475.0,43.4 L 525.0,43.4" style="fill:none;fill-rule:evenodd;stroke:#000000;stroke-width:2.0px;stroke-linecap:butt;stroke-linejoin:miter;stroke-opacity:1"/>
<path class="bond-5 atom-5 atom-0" d="M 530.3,34.3 L 560.5,86.7" style="fill:none;fill-rule:evenodd;stroke:#000000;stroke-width:2.0px;stroke-linecap:butt;stroke-linejoin:miter;stroke-opacity:1"/>
<path d="M 559.9,87.8 L 560.5,86.7 L 559.0,84.1" style="fill:none;stroke:#000000;stroke-width:2.0px;stroke-linecap:butt;stroke-linejoin:miter;stroke-miterlimit:10;stroke-opacity:1;"/>
<path d="M 471.0,139.1 L 469.7,139.1 L 468.2,136.5" style="fill:none;stroke:#000000;stroke-width:2.0px;stroke-linecap:butt;stroke-linejoin:miter;stroke-miterlimit:10;stroke-opacity:1;"/>
<path d="M 441.0,89.3 L 439.5,86.7 L 441.0,84.1" style="fill:none;stroke:#000000;stroke-width:2.0px;stroke-linecap:butt;stroke-linejoin:miter;stroke-miterlimit:10;stroke-opacity:1;"/>
<path d="M 468.2,36.9 L 469.7,34.3 L 472.8,34.3" style="fill:none;stroke:#000000;stroke-width:2.0px;stroke-linecap:butt;stroke-linejoin:miter;stroke-miterlimit:10;stroke-opacity:1;"/>
<path d="M 527.2,34.3 L 530.3,34.3 L 531.8,36.9" style="fill:none;stroke:#000000;stroke-width:2.0px;stroke-linecap:butt;stroke-linejoin:miter;stroke-miterlimit:10;stroke-opacity:1;"/>
<path class="atom-1" d="M 526.5 130.6 L 532.1 139.6 Q 532.7 140.5, 533.5 142.2 Q 534.4 143.8, 534.5 143.9 L 534.5 130.6 L 536.8 130.6 L 536.8 147.7 L 534.4 147.7 L 528.4 137.8 Q 527.7 136.6, 526.9 135.3 Q 526.2 134.0, 526.0 133.5 L 526.0 147.7 L 523.8 147.7 L 523.8 130.6 L 526.5 130.6 " fill="#0000FF"/>
<path class="legend" d="M 468.4 185.8 Q 468.4 183.8, 469.4 182.7 Q 470.4 181.5, 472.3 181.5 Q 474.2 181.5, 475.2 182.9 L 474.2 183.6 Q 473.8 183.2, 473.4 183.0 Q 472.9 182.7, 472.3 182.7 Q 471.2 182.7, 470.6 183.5 Q 469.9 184.3, 469.9 185.8 Q 469.9 187.3, 470.6 188.1 Q 471.2 188.8, 472.4 188.8 Q 473.1 188.8, 473.6 188.7 Q 474.0 188.5, 474.6 188.3 L 475.0 189.3 Q 473.9 190.0, 472.3 190.0 Q 470.4 190.0, 469.4 188.9 Q 468.4 187.8, 468.4 185.8 " fill="#000000"/>
<path class="legend" d="M 476.9 188.6 L 479.4 188.6 L 479.4 180.2 L 476.6 181.0 L 476.3 180.1 L 479.7 178.5 L 480.9 178.7 L 480.9 188.6 L 483.1 188.6 L 483.1 189.9 L 476.9 189.9 L 476.9 188.6 " fill="#000000"/>
<path class="legend" d="M 484.4 185.8 Q 484.4 183.8, 485.4 182.7 Q 486.4 181.5, 488.4 181.5 Q 490.3 181.5, 491.2 182.9 L 490.2 183.6 Q 489.8 183.2, 489.4 183.0 Q 489.0 182.7, 488.4 182.7 Q 487.2 182.7, 486.6 183.5 Q 486.0 184.3, 486.0 185.8 Q 486.0 187.3, 486.6 188.1 Q 487.3 188.8, 488.5 188.8 Q 489.2 188.8, 489.6 188.7 Q 490.1 188.5, 490.7 188.3 L 491.1 189.3 Q 489.9 190.0, 488.4 190.0 Q 486.4 190.0, 485.4 188.9 Q 484.4 187.8, 484.4 185.8 " fill="#000000"/>
<path class="legend" d="M 492.3 185.8 Q 492.3 183.8, 493.3 182.7 Q 494.3 181.5, 496.2 181.5 Q 498.1 181.5, 499.1 182.9 L 498.1 183.6 Q 497.7 183.2, 497.2 183.0 Q 496.8 182.7, 496.2 182.7 Q 495.1 182.7, 494.5 183.5 Q 493.8 184.3, 493.8 185.8 Q 493.8 187.3, 494.5 188.1 Q 495.1 188.8, 496.3 188.8 Q 497.0 188.8, 497.5 188.7 Q 497.9 188.5, 498.5 188.3 L 498.9 189.3 Q 497.7 190.0, 496.2 190.0 Q 494.3 190.0, 493.3 188.9 Q 492.3 187.8, 492.3 185.8 " fill="#000000"/>
<path class="legend" d="M 504.4 181.5 Q 505.7 181.5, 506.4 182.3 Q 507.1 183.0, 507.1 184.5 L 507.1 189.9 L 505.6 189.9 L 505.6 184.6 Q 505.6 183.6, 505.3 183.2 Q 504.9 182.7, 504.1 182.7 Q 503.3 182.7, 502.7 183.1 Q 502.1 183.4, 501.7 184.0 L 501.7 189.9 L 500.1 189.9 L 500.1 181.7 L 501.4 181.7 L 501.6 182.8 Q 502.7 181.5, 504.4 181.5 " fill="#000000"/>
<path class="legend" d="M 509.1 185.8 Q 509.1 183.8, 510.0 182.7 Q 511.0 181.5, 513.0 181.5 Q 514.9 181.5, 515.8 182.9 L 514.8 183.6 Q 514.4 183.2, 514.0 183.0 Q 513.6 182.7, 513.0 182.7 Q 511.9 182.7, 511.2 183.5 Q 510.6 184.3, 510.6 185.8 Q 510.6 187.3, 511.2 188.1 Q 511.9 188.8, 513.1 188.8 Q 513.8 188.8, 514.2 188.7 Q 514.7 188.5, 515.3 188.3 L 515.7 189.3 Q 514.5 190.0, 513.0 190.0 Q 511.0 190.0, 510.0 188.9 Q 509.1 187.8, 509.1 185.8 " fill="#000000"/>
<path class="legend" d="M 516.9 185.8 Q 516.9 183.8, 517.9 182.7 Q 518.9 181.5, 520.8 181.5 Q 522.7 181.5, 523.7 182.9 L 522.7 183.6 Q 522.3 183.2, 521.8 183.0 Q 521.4 182.7, 520.8 182.7 Q 519.7 182.7, 519.1 183.5 Q 518.4 184.3, 518.4 185.8 Q 518.4 187.3, 519.1 188.1 Q 519.7 188.8, 520.9 188.8 Q 521.6 188.8, 522.1 188.7 Q 522.5 188.5, 523.1 188.3 L 523.5 189.3 Q 522.3 190.0, 520.8 190.0 Q 518.9 190.0, 517.9 188.9 Q 516.9 187.8, 516.9 185.8 " fill="#000000"/>
<path class="legend" d="M 525.4 188.6 L 527.9 188.6 L 527.9 180.2 L 525.1 181.0 L 524.8 180.1 L 528.2 178.5 L 529.4 178.7 L 529.4 188.6 L 531.6 188.6 L 531.6 189.9 L 525.4 189.9 L 525.4 188.6 " fill="#000000"/>
<path class="bond-0 atom-0 atom-1" d="M 772.2,91.0 L 741.9,143.4" style="fill:none;fill-rule:evenodd;stroke:#000000;stroke-width:2.0px;stroke-linecap:butt;stroke-linejoin:miter;stroke-opacity:1"/>
<path class="bond-1 atom-1 atom-2" d="M 741.9,143.4 L 681.4,143.4" style="fill:none;fill-rule:evenodd;stroke:#000000;stroke-width:2.0px;stroke-linecap:butt;stroke-linejoin:miter;stroke-opacity:1"/>
<path class="bond-2 atom-2 atom-3" d="M 681.4,143.4 L 669.3,122.5" style="fill:none;fill-rule:evenodd;stroke:#000000;stroke-width:2.0px;stroke-linecap:butt;stroke-linejoin:miter;stroke-opacity:1"/>
<path class="bond-2 atom-2 atom-3" d="M 669.3,122.5 L 657.2,101.6" style="fill:none;fill-rule:evenodd;stroke:#0000FF;stroke-width:2.0px;stroke-linecap:butt;stroke-linejoin:miter;stroke-opacity:1"/>
<path class="bond-3 atom-3 atom-4" d="M 657.2,80.4 L 669.3,59.5" style="fill:none;fill-rule:evenodd;stroke:#0000FF;stroke-width:2.0px;stroke-linecap:butt;stroke-linejoin:miter;stroke-opacity:1"/>
<path class="bond-3 atom-3 atom-4" d="M 669.3,59.5 L 681.4,38.6" style="fill:none;fill-rule:evenodd;stroke:#000000;stroke-width:2.0px;stroke-linecap:butt;stroke-linejoin:miter;stroke-opacity:1"/>
<path class="bond-4 atom-4 atom-5" d="M 681.4,38.6 L 741.9,38.6" style="fill:none;fill-rule:evenodd;stroke:#000000;stroke-width:2.0px;stroke-linecap:butt;stroke-linejoin:miter;stroke-opacity:1"/>
<path class="bond-5 atom-5 atom-0" d="M 741.9,38.6 L 772.2,91.0" style="fill:none;fill-rule:evenodd;stroke:#000000;stroke-width:2.0px;stroke-linecap:butt;stroke-linejoin:miter;stroke-opacity:1"/>
<path d="M 770.7,93.6 L 772.2,91.0 L 770.7,88.4" style="fill:none;stroke:#000000;stroke-width:2.0px;stroke-linecap:butt;stroke-linejoin:miter;stroke-miterlimit:10;stroke-opacity:1;"/>
<path d="M 743.4,140.8 L 741.9,143.4 L 738.9,143.4" style="fill:none;stroke:#000000;stroke-width:2.0px;stroke-linecap:butt;stroke-linejoin:miter;stroke-miterlimit:10;stroke-opacity:1;"/>
<path d="M 684.4,143.4 L 681.4,143.4 L 680.8,142.4" style="fill:none;stroke:#000000;stroke-width:2.0px;stroke-linecap:butt;stroke-linejoin:miter;stroke-miterlimit:10;stroke-opacity:1;"/>
<path d="M 680.8,39.6 L 681.4,38.6 L 684.4,38.6" style="fill:none;stroke:#000000;stroke-width:2.0px;stroke-linecap:butt;stroke-linejoin:miter;stroke-miterlimit:10;stroke-opacity:1;"/>
<path d="M 738.9,38.6 L 741.9,38.6 L 743.4,41.2" style="fill:none;stroke:#000000;stroke-width:2.0px;stroke-linecap:butt;stroke-linejoin:miter;stroke-miterlimit:10;stroke-opacity:1;"/>
<path class="atom-3" d="M 627.8 82.4 L 630.1 82.4 L 630.1 89.7 L 638.9 89.7 L 638.9 82.4 L 641.2 82.4 L 641.2 99.6 L 638.9 99.6 L 638.9 91.7 L 630.1 91.7 L 630.1 99.6 L 627.8 99.6 L 627.8 82.4 " fill="#0000FF"/>
<path class="atom-3" d="M 647.3 82.4 L 652.9 91.5 Q 653.5 92.4, 654.4 94.0 Q 655.3 95.6, 655.3 95.7 L 655.3 82.4 L 657.6 82.4 L 657.6 99.6 L 655.3 99.6 L 649.2 89.6 Q 648.5 88.5, 647.8 87.2 Q 647.1 85.8, 646.8 85.4 L 646.8 99.6 L 644.6 99.6 L 644.6 82.4 L 647.3 82.4 " fill="#0000FF"/>
<path class="legend" d="M 661.5 184.2 Q 661.5 181.4, 662.9 179.9 Q 664.2 178.4, 666.7 178.4 Q 669.0 178.4, 670.3 180.0 L 669.2 180.9 Q 668.3 179.7, 666.7 179.7 Q 665.0 179.7, 664.1 180.9 Q 663.2 182.0, 663.2 184.2 Q 663.2 186.4, 664.1 187.6 Q 665.1 188.7, 666.9 188.7 Q 668.1 188.7, 669.6 188.0 L 670.0 189.2 Q 669.4 189.6, 668.5 189.8 Q 667.6 190.0, 666.7 190.0 Q 664.2 190.0, 662.9 188.5 Q 661.5 187.0, 661.5 184.2 " fill="#000000"/>
<path class="legend" d="M 672.4 188.6 L 674.9 188.6 L 674.9 180.1 L 672.1 181.0 L 671.7 180.0 L 675.2 178.5 L 676.4 178.7 L 676.4 188.6 L 678.6 188.6 L 678.6 189.9 L 672.4 189.9 L 672.4 188.6 " fill="#000000"/>
<path class="legend" d="M 680.1 184.2 Q 680.1 181.4, 681.4 179.9 Q 682.7 178.4, 685.2 178.4 Q 687.6 178.4, 688.8 180.0 L 687.8 180.9 Q 686.8 179.7, 685.2 179.7 Q 683.5 179.7, 682.6 180.9 Q 681.7 182.0, 681.7 184.2 Q 681.7 186.4, 682.6 187.6 Q 683.6 188.7, 685.4 188.7 Q 686.7 188.7, 688.1 188.0 L 688.6 189.2 Q 688.0 189.6, 687.1 189.8 Q 686.2 190.0, 685.2 190.0 Q 682.7 190.0, 681.4 188.5 Q 680.1 187.0, 680.1 184.2 " fill="#000000"/>
<path class="legend" d="M 690.3 184.2 Q 690.3 181.4, 691.6 179.9 Q 692.9 178.4, 695.4 178.4 Q 697.8 178.4, 699.0 180.0 L 698.0 180.9 Q 697.0 179.7, 695.4 179.7 Q 693.7 179.7, 692.8 180.9 Q 691.9 182.0, 691.9 184.2 Q 691.9 186.4, 692.8 187.6 Q 693.8 188.7, 695.6 188.7 Q 696.9 188.7, 698.3 188.0 L 698.8 189.2 Q 698.2 189.6, 697.3 189.8 Q 696.4 190.0, 695.4 190.0 Q 692.9 190.0, 691.6 188.5 Q 690.3 187.0, 690.3 184.2 " fill="#000000"/>
<path class="legend" d="M 702.3 178.5 L 706.0 184.5 Q 706.3 185.1, 706.9 186.2 Q 707.5 187.3, 707.6 187.3 L 707.6 178.5 L 709.1 178.5 L 709.1 189.9 L 707.5 189.9 L 703.5 183.3 Q 703.1 182.5, 702.6 181.6 Q 702.1 180.8, 701.9 180.5 L 701.9 189.9 L 700.5 189.9 L 700.5 178.5 L 702.3 178.5 " fill="#000000"/>
<path class="legend" d="M 711.2 184.2 Q 711.2 181.4, 712.5 179.9 Q 713.9 178.4, 716.4 178.4 Q 718.7 178.4, 720.0 180.0 L 718.9 180.9 Q 718.0 179.7, 716.4 179.7 Q 714.7 179.7, 713.7 180.9 Q 712.9 182.0, 712.9 184.2 Q 712.9 186.4, 713.8 187.6 Q 714.7 188.7, 716.5 188.7 Q 717.8 188.7, 719.3 188.0 L 719.7 189.2 Q 719.1 189.6, 718.2 189.8 Q 717.3 190.0, 716.3 190.0 Q 713.9 190.0, 712.5 188.5 Q 711.2 187.0, 711.2 184.2 " fill="#000000"/>
<path class="legend" d="M 721.4 184.2 Q 721.4 181.4, 722.7 179.9 Q 724.1 178.4, 726.6 178.4 Q 728.9 178.4, 730.2 180.0 L 729.1 180.9 Q 728.2 179.7, 726.6 179.7 Q 724.9 179.7, 723.9 180.9 Q 723.1 182.0, 723.1 184.2 Q 723.1 186.4, 724.0 187.6 Q 724.9 188.7, 726.7 188.7 Q 728.0 188.7, 729.5 188.0 L 729.9 189.2 Q 729.3 189.6, 728.4 189.8 Q 727.5 190.0, 726.5 190.0 Q 724.1 190.0, 722.7 188.5 Q 721.4 187.0, 721.4 184.2 " fill="#000000"/>
<path class="legend" d="M 732.2 188.6 L 734.7 188.6 L 734.7 180.1 L 732.0 181.0 L 731.6 180.0 L 735.1 178.5 L 736.2 178.7 L 736.2 188.6 L 738.5 188.6 L 738.5 189.9 L 732.2 189.9 L 732.2 188.6 " fill="#000000"/>
<path class="bond-0 atom-0 atom-1" d="M 836.2,91.0 L 896.7,91.0" style="fill:none;fill-rule:evenodd;stroke:#000000;stroke-width:2.0px;stroke-linecap:butt;stroke-linejoin:miter;stroke-opacity:1"/>
<path class="bond-1 atom-1 atom-2" d="M 896.7,91.0 L 922.8,91.0" style="fill:none;fill-rule:evenodd;stroke:#000000;stroke-width:2.0px;stroke-linecap:butt;stroke-linejoin:miter;stroke-opacity:1"/>
<path class="bond-1 atom-1 atom-2" d="M 922.8,91.0 L 948.8,91.0" style="fill:none;fill-rule:evenodd;stroke:#0000FF;stroke-width:2.0px;stroke-linecap:butt;stroke-linejoin:miter;stroke-opacity:1"/>
<path class="bond-1 atom-1 atom-2" d="M 896.7,81.9 L 922.8,81.9" style="fill:none;fill-rule:evenodd;stroke:#000000;stroke-width:2.0px;stroke-linecap:butt;stroke-linejoin:miter;stroke-opacity:1"/>
<path class="bond-1 atom-1 atom-2" d="M 922.8,81.9 L 948.8,81.9" style="fill:none;fill-rule:evenodd;stroke:#0000FF;stroke-width:2.0px;stroke-linecap:butt;stroke-linejoin:miter;stroke-opacity:1"/>
<path class="bond-1 atom-1 atom-2" d="M 896.7,100.1 L 922.8,100.1" style="fill:none;fill-rule:evenodd;stroke:#000000;stroke-width:2.0px;stroke-linecap:butt;stroke-linejoin:miter;stroke-opacity:1"/>
<path class="bond-1 atom-1 atom-2" d="M 922.8,100.1 L 948.8,100.1" style="fill:none;fill-rule:evenodd;stroke:#0000FF;stroke-width:2.0px;stroke-linecap:butt;stroke-linejoin:miter;stroke-opacity:1"/>
<path d="M 893.7,91.0 L 896.7,91.0 L 898.1,91.0" style="fill:none;stroke:#000000;stroke-width:2.0px;stroke-linecap:butt;stroke-linejoin:miter;stroke-miterlimit:10;stroke-opacity:1;"/>
<path class="atom-2" d="M 953.5 82.4 L 959.1 91.5 Q 959.7 92.4, 960.6 94.0 Q 961.5 95.6, 961.5 95.7 L 961.5 82.4 L 963.8 82.4 L 963.8 99.6 L 961.4 99.6 L 955.4 89.6 Q 954.7 88.5, 954.0 87.2 Q 953.2 85.8, 953.0 85.4 L 953.0 99.6 L 950.8 99.6 L 950.8 82.4 L 953.5 82.4 " fill="#0000FF"/>
<path class="legend" d="M 879.5 184.2 Q 879.5 181.4, 880.8 179.9 Q 882.1 178.4, 884.7 178.4 Q 887.0 178.4, 888.2 180.0 L 887.2 180.9 Q 886.3 179.7, 884.7 179.7 Q 882.9 179.7, 882.0 180.9 Q 881.1 182.0, 881.1 184.2 Q 881.1 186.4, 882.1 187.6 Q 883.0 188.7, 884.8 188.7 Q 886.1 188.7, 887.5 188.0 L 888.0 189.2 Q 887.4 189.6, 886.5 189.8 Q 885.6 190.0, 884.6 190.0 Q 882.1 190.0, 880.8 188.5 Q 879.5 187.0, 879.5 184.2 " fill="#000000"/>
<path class="legend" d="M 889.8 184.2 Q 889.8 181.4, 891.1 179.9 Q 892.4 178.4, 894.9 178.4 Q 897.3 178.4, 898.5 180.0 L 897.5 180.9 Q 896.6 179.7, 894.9 179.7 Q 893.2 179.7, 892.3 180.9 Q 891.4 182.0, 891.4 184.2 Q 891.4 186.4, 892.4 187.6 Q 893.3 188.7, 895.1 188.7 Q 896.4 188.7, 897.8 188.0 L 898.3 189.2 Q 897.7 189.6, 896.8 189.8 Q 895.9 190.0, 894.9 190.0 Q 892.4 190.0, 891.1 188.5 Q 889.8 187.0, 889.8 184.2 " fill="#000000"/>
<path class="legend" d="M 910.4 182.8 L 908.2 182.8 L 907.7 185.7 L 909.9 185.7 L 909.7 186.9 L 907.6 186.9 L 907.0 189.9 L 905.8 189.9 L 906.3 186.9 L 903.6 186.9 L 903.1 189.9 L 901.8 189.9 L 902.3 186.9 L 900.1 186.9 L 900.3 185.7 L 902.5 185.7 L 903.0 182.8 L 900.8 182.8 L 901.0 181.7 L 903.2 181.7 L 903.7 178.5 L 905.0 178.5 L 904.5 181.7 L 907.2 181.7 L 907.7 178.5 L 909.0 178.5 L 908.4 181.7 L 910.6 181.7 L 910.4 182.8 M 906.5 185.7 L 907.0 182.8 L 904.3 182.8 L 903.8 185.7 L 906.5 185.7 " fill="#000000"/>
<path class="legend" d="M 913.7 178.5 L 917.4 184.5 Q 917.8 185.1, 918.4 186.2 Q 919.0 187.3, 919.0 187.3 L 919.0 178.5 L 920.5 178.5 L 920.5 189.9 L 918.9 189.9 L 915.0 183.3 Q 914.5 182.5, 914.0 181.6 Q 913.5 180.8, 913.4 180.5 L 913.4 189.9 L 911.9 189.9 L 911.9 178.5 L 913.7 178.5 " fill="#000000"/>
</svg>