<svg xmlns="http://www.w3.org/2000/svg" xmlns:rdkit="http://www.rdkit.org/xml" xmlns:xlink="http://www.w3.org/1999/xlink" version="1.1" baseProfile="full" xml:space="preserve" width="300px" height="300px" viewBox="0 0 300 300">
<!-- END OF HEADER -->
<rect style="opacity:1.0;fill:#FFFFFF;stroke:none" width="300.0" height="300.0" x="0.0" y="0.0"> </rect>
<path class="bond-14 atom-5 atom-11" d="M 44.5,105.4 L 87.7,120.7 L 84.5,129.9 L 41.3,114.6 Z" style="fill:#FF7F7F;fill-rule:evenodd;fill-opacity:1;stroke:#FF7F7F;stroke-width:0.0px;stroke-linecap:butt;stroke-linejoin:miter;stroke-miterlimit:10;stroke-opacity:1;"/>
<path class="bond-8 atom-6 atom-9" d="M 83.5,166.4 L 86.2,175.8 L 42.3,188.8 L 39.5,179.4 Z" style="fill:#FF7F7F;fill-rule:evenodd;fill-opacity:1;stroke:#FF7F7F;stroke-width:0.0px;stroke-linecap:butt;stroke-linejoin:miter;stroke-miterlimit:10;stroke-opacity:1;"/>
<ellipse cx="86.1" cy="125.3" rx="9.2" ry="9.2" class="atom-5" style="fill:#FF7F7F;fill-rule:evenodd;stroke:#FF7F7F;stroke-width:1.0px;stroke-linecap:butt;stroke-linejoin:miter;stroke-opacity:1"/>
<ellipse cx="84.9" cy="171.1" rx="9.2" ry="9.2" class="atom-6" style="fill:#FF7F7F;fill-rule:evenodd;stroke:#FF7F7F;stroke-width:1.0px;stroke-linecap:butt;stroke-linejoin:miter;stroke-opacity:1"/>
<ellipse cx="40.9" cy="184.2" rx="9.2" ry="9.4" class="atom-9" style="fill:#FF7F7F;fill-rule:evenodd;stroke:#FF7F7F;stroke-width:1.0px;stroke-linecap:butt;stroke-linejoin:miter;stroke-opacity:1"/>
<ellipse cx="42.9" cy="110.1" rx="9.2" ry="9.4" class="atom-11" style="fill:#FF7F7F;fill-rule:evenodd;stroke:#FF7F7F;stroke-width:1.0px;stroke-linecap:butt;stroke-linejoin:miter;stroke-opacity:1"/>
<path class="bond-0 atom-0 atom-1" d="M 285.0,107.7 L 244.7,129.6" style="fill:none;fill-rule:evenodd;stroke:#000000;stroke-width:2.0px;stroke-linecap:butt;stroke-linejoin:miter;stroke-opacity:1"/>
<path class="bond-1 atom-1 atom-2" d="M 244.7,129.6 L 205.7,105.6" style="fill:none;fill-rule:evenodd;stroke:#000000;stroke-width:2.0px;stroke-linecap:butt;stroke-linejoin:miter;stroke-opacity:1"/>
<path class="bond-2 atom-2 atom-3" d="M 205.7,105.6 L 165.4,127.4" style="fill:none;fill-rule:evenodd;stroke:#000000;stroke-width:2.0px;stroke-linecap:butt;stroke-linejoin:miter;stroke-opacity:1"/>
<path class="bond-3 atom-3 atom-4" d="M 165.4,127.4 L 126.4,103.5" style="fill:none;fill-rule:evenodd;stroke:#000000;stroke-width:2.0px;stroke-linecap:butt;stroke-linejoin:miter;stroke-opacity:1"/>
<path class="bond-3 atom-3 atom-4" d="M 158.4,131.2 L 126.1,111.4" style="fill:none;fill-rule:evenodd;stroke:#000000;stroke-width:2.0px;stroke-linecap:butt;stroke-linejoin:miter;stroke-opacity:1"/>
<path class="bond-4 atom-4 atom-5" d="M 126.4,103.5 L 86.1,125.3" style="fill:none;fill-rule:evenodd;stroke:#000000;stroke-width:2.0px;stroke-linecap:butt;stroke-linejoin:miter;stroke-opacity:1"/>
<path class="bond-5 atom-5 atom-6" d="M 86.1,125.3 L 84.9,171.1" style="fill:none;fill-rule:evenodd;stroke:#000000;stroke-width:2.0px;stroke-linecap:butt;stroke-linejoin:miter;stroke-opacity:1"/>
<path class="bond-5 atom-5 atom-6" d="M 92.8,129.5 L 91.8,167.3" style="fill:none;fill-rule:evenodd;stroke:#000000;stroke-width:2.0px;stroke-linecap:butt;stroke-linejoin:miter;stroke-opacity:1"/>
<path class="bond-6 atom-6 atom-7" d="M 84.9,171.1 L 123.9,195.1" style="fill:none;fill-rule:evenodd;stroke:#000000;stroke-width:2.0px;stroke-linecap:butt;stroke-linejoin:miter;stroke-opacity:1"/>
<path class="bond-7 atom-7 atom-8" d="M 123.9,195.1 L 164.2,173.2" style="fill:none;fill-rule:evenodd;stroke:#000000;stroke-width:2.0px;stroke-linecap:butt;stroke-linejoin:miter;stroke-opacity:1"/>
<path class="bond-7 atom-7 atom-8" d="M 124.1,187.1 L 157.4,169.1" style="fill:none;fill-rule:evenodd;stroke:#000000;stroke-width:2.0px;stroke-linecap:butt;stroke-linejoin:miter;stroke-opacity:1"/>
<path class="bond-8 atom-6 atom-9" d="M 84.9,171.1 L 48.4,181.9" style="fill:none;fill-rule:evenodd;stroke:#000000;stroke-width:2.0px;stroke-linecap:butt;stroke-linejoin:miter;stroke-opacity:1"/>
<path class="bond-9 atom-9 atom-10" d="M 35.4,176.0 L 15.0,146.3" style="fill:none;fill-rule:evenodd;stroke:#000000;stroke-width:2.0px;stroke-linecap:butt;stroke-linejoin:miter;stroke-opacity:1"/>
<path class="bond-10 atom-10 atom-11" d="M 15.0,146.3 L 36.6,118.3" style="fill:none;fill-rule:evenodd;stroke:#000000;stroke-width:2.0px;stroke-linecap:butt;stroke-linejoin:miter;stroke-opacity:1"/>
<path class="bond-11 atom-1 atom-12" d="M 244.7,129.6 L 244.2,148.5" style="fill:none;fill-rule:evenodd;stroke:#000000;stroke-width:2.0px;stroke-linecap:butt;stroke-linejoin:miter;stroke-opacity:1"/>
<path class="bond-11 atom-1 atom-12" d="M 244.2,148.5 L 243.7,167.4" style="fill:none;fill-rule:evenodd;stroke:#0000FF;stroke-width:2.0px;stroke-linecap:butt;stroke-linejoin:miter;stroke-opacity:1"/>
<path class="bond-12 atom-12 atom-13" d="M 249.9,179.3 L 266.2,189.3" style="fill:none;fill-rule:evenodd;stroke:#0000FF;stroke-width:2.0px;stroke-linecap:butt;stroke-linejoin:miter;stroke-opacity:1"/>
<path class="bond-12 atom-12 atom-13" d="M 266.2,189.3 L 282.5,199.3" style="fill:none;fill-rule:evenodd;stroke:#000000;stroke-width:2.0px;stroke-linecap:butt;stroke-linejoin:miter;stroke-opacity:1"/>
<path class="bond-13 atom-8 atom-3" d="M 164.2,173.2 L 165.4,127.4" style="fill:none;fill-rule:evenodd;stroke:#000000;stroke-width:2.0px;stroke-linecap:butt;stroke-linejoin:miter;stroke-opacity:1"/>
<path class="bond-14 atom-11 atom-5" d="M 50.4,112.6 L 86.1,125.3" style="fill:none;fill-rule:evenodd;stroke:#000000;stroke-width:2.0px;stroke-linecap:butt;stroke-linejoin:miter;stroke-opacity:1"/>
<path d="M 207.6,106.8 L 205.7,105.6 L 203.7,106.7" style="fill:none;stroke:#000000;stroke-width:2.0px;stroke-linecap:butt;stroke-linejoin:miter;stroke-miterlimit:10;stroke-opacity:1;"/>
<path d="M 128.3,104.7 L 126.4,103.5 L 124.3,104.6" style="fill:none;stroke:#000000;stroke-width:2.0px;stroke-linecap:butt;stroke-linejoin:miter;stroke-miterlimit:10;stroke-opacity:1;"/>
<path d="M 122.0,193.9 L 123.9,195.1 L 125.9,194.0" style="fill:none;stroke:#000000;stroke-width:2.0px;stroke-linecap:butt;stroke-linejoin:miter;stroke-miterlimit:10;stroke-opacity:1;"/>
<path d="M 162.2,174.3 L 164.2,173.2 L 164.2,170.9" style="fill:none;stroke:#000000;stroke-width:2.0px;stroke-linecap:butt;stroke-linejoin:miter;stroke-miterlimit:10;stroke-opacity:1;"/>
<path d="M 16.0,147.8 L 15.0,146.3 L 16.1,144.9" style="fill:none;stroke:#000000;stroke-width:2.0px;stroke-linecap:butt;stroke-linejoin:miter;stroke-miterlimit:10;stroke-opacity:1;"/>
<path class="atom-9" d="M 35.0 184.1 Q 35.0 181.0, 36.5 179.3 Q 38.0 177.5, 40.9 177.5 Q 43.8 177.5, 45.3 179.3 Q 46.9 181.0, 46.9 184.1 Q 46.9 187.3, 45.3 189.1 Q 43.8 190.9, 40.9 190.9 Q 38.1 190.9, 36.5 189.1 Q 35.0 187.3, 35.0 184.1 M 40.9 189.4 Q 42.9 189.4, 44.0 188.1 Q 45.0 186.7, 45.0 184.1 Q 45.0 181.6, 44.0 180.3 Q 42.9 179.0, 40.9 179.0 Q 38.9 179.0, 37.9 180.3 Q 36.8 181.6, 36.8 184.1 Q 36.8 186.8, 37.9 188.1 Q 38.9 189.4, 40.9 189.4 " fill="#000000"/>
<path class="atom-11" d="M 37.0 110.0 Q 37.0 106.9, 38.5 105.2 Q 40.0 103.4, 42.9 103.4 Q 45.8 103.4, 47.3 105.2 Q 48.9 106.9, 48.9 110.0 Q 48.9 113.2, 47.3 115.0 Q 45.8 116.8, 42.9 116.8 Q 40.1 116.8, 38.5 115.0 Q 37.0 113.2, 37.0 110.0 M 42.9 115.3 Q 44.9 115.3, 46.0 114.0 Q 47.0 112.6, 47.0 110.0 Q 47.0 107.5, 46.0 106.2 Q 44.9 104.9, 42.9 104.9 Q 40.9 104.9, 39.9 106.2 Q 38.8 107.5, 38.8 110.0 Q 38.8 112.7, 39.9 114.0 Q 40.9 115.3, 42.9 115.3 " fill="#000000"/>
<path class="atom-12" d="M 225.9 168.9 L 227.6 168.9 L 227.6 174.4 L 234.3 174.4 L 234.3 168.9 L 236.0 168.9 L 236.0 181.8 L 234.3 181.8 L 234.3 175.9 L 227.6 175.9 L 227.6 181.8 L 225.9 181.8 L 225.9 168.9 " fill="#0000FF"/>
<path class="atom-12" d="M 240.6 168.9 L 244.9 175.7 Q 245.3 176.4, 246.0 177.7 Q 246.7 178.9, 246.7 179.0 L 246.7 168.9 L 248.4 168.9 L 248.4 181.8 L 246.6 181.8 L 242.1 174.3 Q 241.5 173.5, 241.0 172.4 Q 240.4 171.4, 240.3 171.1 L 240.3 181.8 L 238.6 181.8 L 238.6 168.9 L 240.6 168.9 " fill="#0000FF"/>
</svg>